G04 #@! TF.GenerationSoftware,KiCad,Pcbnew,8.0.1*
G04 #@! TF.CreationDate,2025-03-29T00:02:57-06:00*
G04 #@! TF.ProjectId,minidexed,6d696e69-6465-4786-9564-2e6b69636164,rev?*
G04 #@! TF.SameCoordinates,Original*
G04 #@! TF.FileFunction,Legend,Bot*
G04 #@! TF.FilePolarity,Positive*
%FSLAX46Y46*%
G04 Gerber Fmt 4.6, Leading zero omitted, Abs format (unit mm)*
G04 Created by KiCad (PCBNEW 8.0.1) date 2025-03-29 00:02:57*
%MOMM*%
%LPD*%
G01*
G04 APERTURE LIST*
G04 Aperture macros list*
%AMRoundRect*
0 Rectangle with rounded corners*
0 $1 Rounding radius*
0 $2 $3 $4 $5 $6 $7 $8 $9 X,Y pos of 4 corners*
0 Add a 4 corners polygon primitive as box body*
4,1,4,$2,$3,$4,$5,$6,$7,$8,$9,$2,$3,0*
0 Add four circle primitives for the rounded corners*
1,1,$1+$1,$2,$3*
1,1,$1+$1,$4,$5*
1,1,$1+$1,$6,$7*
1,1,$1+$1,$8,$9*
0 Add four rect primitives between the rounded corners*
20,1,$1+$1,$2,$3,$4,$5,0*
20,1,$1+$1,$4,$5,$6,$7,0*
20,1,$1+$1,$6,$7,$8,$9,0*
20,1,$1+$1,$8,$9,$2,$3,0*%
G04 Aperture macros list end*
%ADD10C,0.150000*%
%ADD11C,0.300000*%
%ADD12C,0.250000*%
%ADD13C,0.120000*%
%ADD14C,0.900000*%
%ADD15O,1.700000X2.100000*%
%ADD16C,2.800000*%
%ADD17C,1.800000*%
%ADD18C,4.100000*%
%ADD19C,2.300000*%
%ADD20C,3.100000*%
%ADD21RoundRect,0.050000X-0.900000X-1.300000X0.900000X-1.300000X0.900000X1.300000X-0.900000X1.300000X0*%
%ADD22O,1.900000X2.700000*%
%ADD23RoundRect,0.050000X1.000000X1.000000X-1.000000X1.000000X-1.000000X-1.000000X1.000000X-1.000000X0*%
%ADD24C,2.100000*%
%ADD25RoundRect,0.050000X1.750000X1.250000X-1.750000X1.250000X-1.750000X-1.250000X1.750000X-1.250000X0*%
%ADD26RoundRect,0.050000X1.750000X1.400000X-1.750000X1.400000X-1.750000X-1.400000X1.750000X-1.400000X0*%
%ADD27RoundRect,0.050000X0.850000X0.850000X-0.850000X0.850000X-0.850000X-0.850000X0.850000X-0.850000X0*%
%ADD28O,1.800000X1.800000*%
%ADD29RoundRect,0.125000X-0.125000X0.662500X-0.125000X-0.662500X0.125000X-0.662500X0.125000X0.662500X0*%
%ADD30C,1.100000*%
%ADD31RoundRect,0.271277X0.366223X0.503723X-0.366223X0.503723X-0.366223X-0.503723X0.366223X-0.503723X0*%
%ADD32RoundRect,0.271277X0.503723X-0.366223X0.503723X0.366223X-0.503723X0.366223X-0.503723X-0.366223X0*%
%ADD33RoundRect,0.269231X0.655769X-0.430769X0.655769X0.430769X-0.655769X0.430769X-0.655769X-0.430769X0*%
%ADD34RoundRect,0.269231X-0.655769X0.430769X-0.655769X-0.430769X0.655769X-0.430769X0.655769X0.430769X0*%
%ADD35RoundRect,0.271277X-0.503723X0.366223X-0.503723X-0.366223X0.503723X-0.366223X0.503723X0.366223X0*%
%ADD36RoundRect,0.269231X-0.430769X-0.655769X0.430769X-0.655769X0.430769X0.655769X-0.430769X0.655769X0*%
%ADD37RoundRect,0.269231X0.430769X0.655769X-0.430769X0.655769X-0.430769X-0.655769X0.430769X-0.655769X0*%
%ADD38RoundRect,0.050000X-0.850000X0.850000X-0.850000X-0.850000X0.850000X-0.850000X0.850000X0.850000X0*%
%ADD39RoundRect,0.175000X-0.537500X-0.175000X0.537500X-0.175000X0.537500X0.175000X-0.537500X0.175000X0*%
%ADD40RoundRect,0.406000X-0.406000X0.787000X-0.406000X-0.787000X0.406000X-0.787000X0.406000X0.787000X0*%
%ADD41RoundRect,0.050000X0.225000X-0.300000X0.225000X0.300000X-0.225000X0.300000X-0.225000X-0.300000X0*%
%ADD42RoundRect,0.125000X-0.662500X-0.125000X0.662500X-0.125000X0.662500X0.125000X-0.662500X0.125000X0*%
G04 APERTURE END LIST*
D10*
X155023607Y-83300000D02*
G75*
G02*
X154576393Y-83300000I-223607J0D01*
G01*
X154576393Y-83300000D02*
G75*
G02*
X155023607Y-83300000I223607J0D01*
G01*
X145223607Y-86100000D02*
G75*
G02*
X144776393Y-86100000I-223607J0D01*
G01*
X144776393Y-86100000D02*
G75*
G02*
X145223607Y-86100000I223607J0D01*
G01*
X121660907Y-88877000D02*
G75*
G02*
X121213693Y-88877000I-223607J0D01*
G01*
X121213693Y-88877000D02*
G75*
G02*
X121660907Y-88877000I223607J0D01*
G01*
D11*
X220740475Y-117202495D02*
X219597618Y-117202495D01*
X220169047Y-119202495D02*
X220169047Y-117202495D01*
X218930951Y-119202495D02*
X218930951Y-117869161D01*
X218930951Y-118250114D02*
X218835713Y-118059637D01*
X218835713Y-118059637D02*
X218740475Y-117964399D01*
X218740475Y-117964399D02*
X218549999Y-117869161D01*
X218549999Y-117869161D02*
X218359522Y-117869161D01*
X216835713Y-117869161D02*
X216835713Y-119202495D01*
X217692856Y-117869161D02*
X217692856Y-118916780D01*
X217692856Y-118916780D02*
X217597618Y-119107257D01*
X217597618Y-119107257D02*
X217407142Y-119202495D01*
X217407142Y-119202495D02*
X217121427Y-119202495D01*
X217121427Y-119202495D02*
X216930951Y-119107257D01*
X216930951Y-119107257D02*
X216835713Y-119012018D01*
X215978570Y-119107257D02*
X215788094Y-119202495D01*
X215788094Y-119202495D02*
X215407142Y-119202495D01*
X215407142Y-119202495D02*
X215216665Y-119107257D01*
X215216665Y-119107257D02*
X215121427Y-118916780D01*
X215121427Y-118916780D02*
X215121427Y-118821542D01*
X215121427Y-118821542D02*
X215216665Y-118631066D01*
X215216665Y-118631066D02*
X215407142Y-118535828D01*
X215407142Y-118535828D02*
X215692856Y-118535828D01*
X215692856Y-118535828D02*
X215883332Y-118440590D01*
X215883332Y-118440590D02*
X215978570Y-118250114D01*
X215978570Y-118250114D02*
X215978570Y-118154876D01*
X215978570Y-118154876D02*
X215883332Y-117964399D01*
X215883332Y-117964399D02*
X215692856Y-117869161D01*
X215692856Y-117869161D02*
X215407142Y-117869161D01*
X215407142Y-117869161D02*
X215216665Y-117964399D01*
X214549998Y-117869161D02*
X213788094Y-117869161D01*
X214264284Y-117202495D02*
X214264284Y-118916780D01*
X214264284Y-118916780D02*
X214169046Y-119107257D01*
X214169046Y-119107257D02*
X213978570Y-119202495D01*
X213978570Y-119202495D02*
X213788094Y-119202495D01*
X211883331Y-117869161D02*
X211121427Y-117869161D01*
X211597617Y-117202495D02*
X211597617Y-118916780D01*
X211597617Y-118916780D02*
X211502379Y-119107257D01*
X211502379Y-119107257D02*
X211311903Y-119202495D01*
X211311903Y-119202495D02*
X211121427Y-119202495D01*
X210454760Y-119202495D02*
X210454760Y-117202495D01*
X209597617Y-119202495D02*
X209597617Y-118154876D01*
X209597617Y-118154876D02*
X209692855Y-117964399D01*
X209692855Y-117964399D02*
X209883331Y-117869161D01*
X209883331Y-117869161D02*
X210169046Y-117869161D01*
X210169046Y-117869161D02*
X210359522Y-117964399D01*
X210359522Y-117964399D02*
X210454760Y-118059637D01*
X207883331Y-119107257D02*
X208073807Y-119202495D01*
X208073807Y-119202495D02*
X208454760Y-119202495D01*
X208454760Y-119202495D02*
X208645236Y-119107257D01*
X208645236Y-119107257D02*
X208740474Y-118916780D01*
X208740474Y-118916780D02*
X208740474Y-118154876D01*
X208740474Y-118154876D02*
X208645236Y-117964399D01*
X208645236Y-117964399D02*
X208454760Y-117869161D01*
X208454760Y-117869161D02*
X208073807Y-117869161D01*
X208073807Y-117869161D02*
X207883331Y-117964399D01*
X207883331Y-117964399D02*
X207788093Y-118154876D01*
X207788093Y-118154876D02*
X207788093Y-118345352D01*
X207788093Y-118345352D02*
X208740474Y-118535828D01*
X204549997Y-119202495D02*
X204549997Y-118154876D01*
X204549997Y-118154876D02*
X204645235Y-117964399D01*
X204645235Y-117964399D02*
X204835711Y-117869161D01*
X204835711Y-117869161D02*
X205216664Y-117869161D01*
X205216664Y-117869161D02*
X205407140Y-117964399D01*
X204549997Y-119107257D02*
X204740473Y-119202495D01*
X204740473Y-119202495D02*
X205216664Y-119202495D01*
X205216664Y-119202495D02*
X205407140Y-119107257D01*
X205407140Y-119107257D02*
X205502378Y-118916780D01*
X205502378Y-118916780D02*
X205502378Y-118726304D01*
X205502378Y-118726304D02*
X205407140Y-118535828D01*
X205407140Y-118535828D02*
X205216664Y-118440590D01*
X205216664Y-118440590D02*
X204740473Y-118440590D01*
X204740473Y-118440590D02*
X204549997Y-118345352D01*
X203311902Y-119202495D02*
X203502378Y-119107257D01*
X203502378Y-119107257D02*
X203597616Y-118916780D01*
X203597616Y-118916780D02*
X203597616Y-117202495D01*
X201692854Y-117869161D02*
X201692854Y-119488209D01*
X201692854Y-119488209D02*
X201788092Y-119678685D01*
X201788092Y-119678685D02*
X201883330Y-119773923D01*
X201883330Y-119773923D02*
X202073807Y-119869161D01*
X202073807Y-119869161D02*
X202359521Y-119869161D01*
X202359521Y-119869161D02*
X202549997Y-119773923D01*
X201692854Y-119107257D02*
X201883330Y-119202495D01*
X201883330Y-119202495D02*
X202264283Y-119202495D01*
X202264283Y-119202495D02*
X202454759Y-119107257D01*
X202454759Y-119107257D02*
X202549997Y-119012018D01*
X202549997Y-119012018D02*
X202645235Y-118821542D01*
X202645235Y-118821542D02*
X202645235Y-118250114D01*
X202645235Y-118250114D02*
X202549997Y-118059637D01*
X202549997Y-118059637D02*
X202454759Y-117964399D01*
X202454759Y-117964399D02*
X202264283Y-117869161D01*
X202264283Y-117869161D02*
X201883330Y-117869161D01*
X201883330Y-117869161D02*
X201692854Y-117964399D01*
X200454759Y-119202495D02*
X200645235Y-119107257D01*
X200645235Y-119107257D02*
X200740473Y-119012018D01*
X200740473Y-119012018D02*
X200835711Y-118821542D01*
X200835711Y-118821542D02*
X200835711Y-118250114D01*
X200835711Y-118250114D02*
X200740473Y-118059637D01*
X200740473Y-118059637D02*
X200645235Y-117964399D01*
X200645235Y-117964399D02*
X200454759Y-117869161D01*
X200454759Y-117869161D02*
X200169044Y-117869161D01*
X200169044Y-117869161D02*
X199978568Y-117964399D01*
X199978568Y-117964399D02*
X199883330Y-118059637D01*
X199883330Y-118059637D02*
X199788092Y-118250114D01*
X199788092Y-118250114D02*
X199788092Y-118821542D01*
X199788092Y-118821542D02*
X199883330Y-119012018D01*
X199883330Y-119012018D02*
X199978568Y-119107257D01*
X199978568Y-119107257D02*
X200169044Y-119202495D01*
X200169044Y-119202495D02*
X200454759Y-119202495D01*
X198930949Y-119202495D02*
X198930949Y-117869161D01*
X198930949Y-118250114D02*
X198835711Y-118059637D01*
X198835711Y-118059637D02*
X198740473Y-117964399D01*
X198740473Y-117964399D02*
X198549997Y-117869161D01*
X198549997Y-117869161D02*
X198359520Y-117869161D01*
X197692854Y-119202495D02*
X197692854Y-117869161D01*
X197692854Y-117202495D02*
X197788092Y-117297733D01*
X197788092Y-117297733D02*
X197692854Y-117392971D01*
X197692854Y-117392971D02*
X197597616Y-117297733D01*
X197597616Y-117297733D02*
X197692854Y-117202495D01*
X197692854Y-117202495D02*
X197692854Y-117392971D01*
X197026187Y-117869161D02*
X196264283Y-117869161D01*
X196740473Y-117202495D02*
X196740473Y-118916780D01*
X196740473Y-118916780D02*
X196645235Y-119107257D01*
X196645235Y-119107257D02*
X196454759Y-119202495D01*
X196454759Y-119202495D02*
X196264283Y-119202495D01*
X195597616Y-119202495D02*
X195597616Y-117202495D01*
X194740473Y-119202495D02*
X194740473Y-118154876D01*
X194740473Y-118154876D02*
X194835711Y-117964399D01*
X194835711Y-117964399D02*
X195026187Y-117869161D01*
X195026187Y-117869161D02*
X195311902Y-117869161D01*
X195311902Y-117869161D02*
X195502378Y-117964399D01*
X195502378Y-117964399D02*
X195597616Y-118059637D01*
X193788092Y-119202495D02*
X193788092Y-117869161D01*
X193788092Y-118059637D02*
X193692854Y-117964399D01*
X193692854Y-117964399D02*
X193502378Y-117869161D01*
X193502378Y-117869161D02*
X193216663Y-117869161D01*
X193216663Y-117869161D02*
X193026187Y-117964399D01*
X193026187Y-117964399D02*
X192930949Y-118154876D01*
X192930949Y-118154876D02*
X192930949Y-119202495D01*
X192930949Y-118154876D02*
X192835711Y-117964399D01*
X192835711Y-117964399D02*
X192645235Y-117869161D01*
X192645235Y-117869161D02*
X192359521Y-117869161D01*
X192359521Y-117869161D02*
X192169044Y-117964399D01*
X192169044Y-117964399D02*
X192073806Y-118154876D01*
X192073806Y-118154876D02*
X192073806Y-119202495D01*
X205826191Y-136809637D02*
X204683334Y-136809637D01*
X205254763Y-138809637D02*
X205254763Y-136809637D01*
X204016667Y-138809637D02*
X204016667Y-137476303D01*
X204016667Y-137857256D02*
X203921429Y-137666779D01*
X203921429Y-137666779D02*
X203826191Y-137571541D01*
X203826191Y-137571541D02*
X203635715Y-137476303D01*
X203635715Y-137476303D02*
X203445238Y-137476303D01*
X201921429Y-137476303D02*
X201921429Y-138809637D01*
X202778572Y-137476303D02*
X202778572Y-138523922D01*
X202778572Y-138523922D02*
X202683334Y-138714399D01*
X202683334Y-138714399D02*
X202492858Y-138809637D01*
X202492858Y-138809637D02*
X202207143Y-138809637D01*
X202207143Y-138809637D02*
X202016667Y-138714399D01*
X202016667Y-138714399D02*
X201921429Y-138619160D01*
X201064286Y-138714399D02*
X200873810Y-138809637D01*
X200873810Y-138809637D02*
X200492858Y-138809637D01*
X200492858Y-138809637D02*
X200302381Y-138714399D01*
X200302381Y-138714399D02*
X200207143Y-138523922D01*
X200207143Y-138523922D02*
X200207143Y-138428684D01*
X200207143Y-138428684D02*
X200302381Y-138238208D01*
X200302381Y-138238208D02*
X200492858Y-138142970D01*
X200492858Y-138142970D02*
X200778572Y-138142970D01*
X200778572Y-138142970D02*
X200969048Y-138047732D01*
X200969048Y-138047732D02*
X201064286Y-137857256D01*
X201064286Y-137857256D02*
X201064286Y-137762018D01*
X201064286Y-137762018D02*
X200969048Y-137571541D01*
X200969048Y-137571541D02*
X200778572Y-137476303D01*
X200778572Y-137476303D02*
X200492858Y-137476303D01*
X200492858Y-137476303D02*
X200302381Y-137571541D01*
X199635714Y-137476303D02*
X198873810Y-137476303D01*
X199350000Y-136809637D02*
X199350000Y-138523922D01*
X199350000Y-138523922D02*
X199254762Y-138714399D01*
X199254762Y-138714399D02*
X199064286Y-138809637D01*
X199064286Y-138809637D02*
X198873810Y-138809637D01*
X196969047Y-137476303D02*
X196207143Y-137476303D01*
X196683333Y-136809637D02*
X196683333Y-138523922D01*
X196683333Y-138523922D02*
X196588095Y-138714399D01*
X196588095Y-138714399D02*
X196397619Y-138809637D01*
X196397619Y-138809637D02*
X196207143Y-138809637D01*
X195540476Y-138809637D02*
X195540476Y-136809637D01*
X194683333Y-138809637D02*
X194683333Y-137762018D01*
X194683333Y-137762018D02*
X194778571Y-137571541D01*
X194778571Y-137571541D02*
X194969047Y-137476303D01*
X194969047Y-137476303D02*
X195254762Y-137476303D01*
X195254762Y-137476303D02*
X195445238Y-137571541D01*
X195445238Y-137571541D02*
X195540476Y-137666779D01*
X192969047Y-138714399D02*
X193159523Y-138809637D01*
X193159523Y-138809637D02*
X193540476Y-138809637D01*
X193540476Y-138809637D02*
X193730952Y-138714399D01*
X193730952Y-138714399D02*
X193826190Y-138523922D01*
X193826190Y-138523922D02*
X193826190Y-137762018D01*
X193826190Y-137762018D02*
X193730952Y-137571541D01*
X193730952Y-137571541D02*
X193540476Y-137476303D01*
X193540476Y-137476303D02*
X193159523Y-137476303D01*
X193159523Y-137476303D02*
X192969047Y-137571541D01*
X192969047Y-137571541D02*
X192873809Y-137762018D01*
X192873809Y-137762018D02*
X192873809Y-137952494D01*
X192873809Y-137952494D02*
X193826190Y-138142970D01*
X189635713Y-138809637D02*
X189635713Y-137762018D01*
X189635713Y-137762018D02*
X189730951Y-137571541D01*
X189730951Y-137571541D02*
X189921427Y-137476303D01*
X189921427Y-137476303D02*
X190302380Y-137476303D01*
X190302380Y-137476303D02*
X190492856Y-137571541D01*
X189635713Y-138714399D02*
X189826189Y-138809637D01*
X189826189Y-138809637D02*
X190302380Y-138809637D01*
X190302380Y-138809637D02*
X190492856Y-138714399D01*
X190492856Y-138714399D02*
X190588094Y-138523922D01*
X190588094Y-138523922D02*
X190588094Y-138333446D01*
X190588094Y-138333446D02*
X190492856Y-138142970D01*
X190492856Y-138142970D02*
X190302380Y-138047732D01*
X190302380Y-138047732D02*
X189826189Y-138047732D01*
X189826189Y-138047732D02*
X189635713Y-137952494D01*
X188397618Y-138809637D02*
X188588094Y-138714399D01*
X188588094Y-138714399D02*
X188683332Y-138523922D01*
X188683332Y-138523922D02*
X188683332Y-136809637D01*
X186778570Y-137476303D02*
X186778570Y-139095351D01*
X186778570Y-139095351D02*
X186873808Y-139285827D01*
X186873808Y-139285827D02*
X186969046Y-139381065D01*
X186969046Y-139381065D02*
X187159523Y-139476303D01*
X187159523Y-139476303D02*
X187445237Y-139476303D01*
X187445237Y-139476303D02*
X187635713Y-139381065D01*
X186778570Y-138714399D02*
X186969046Y-138809637D01*
X186969046Y-138809637D02*
X187349999Y-138809637D01*
X187349999Y-138809637D02*
X187540475Y-138714399D01*
X187540475Y-138714399D02*
X187635713Y-138619160D01*
X187635713Y-138619160D02*
X187730951Y-138428684D01*
X187730951Y-138428684D02*
X187730951Y-137857256D01*
X187730951Y-137857256D02*
X187635713Y-137666779D01*
X187635713Y-137666779D02*
X187540475Y-137571541D01*
X187540475Y-137571541D02*
X187349999Y-137476303D01*
X187349999Y-137476303D02*
X186969046Y-137476303D01*
X186969046Y-137476303D02*
X186778570Y-137571541D01*
X185540475Y-138809637D02*
X185730951Y-138714399D01*
X185730951Y-138714399D02*
X185826189Y-138619160D01*
X185826189Y-138619160D02*
X185921427Y-138428684D01*
X185921427Y-138428684D02*
X185921427Y-137857256D01*
X185921427Y-137857256D02*
X185826189Y-137666779D01*
X185826189Y-137666779D02*
X185730951Y-137571541D01*
X185730951Y-137571541D02*
X185540475Y-137476303D01*
X185540475Y-137476303D02*
X185254760Y-137476303D01*
X185254760Y-137476303D02*
X185064284Y-137571541D01*
X185064284Y-137571541D02*
X184969046Y-137666779D01*
X184969046Y-137666779D02*
X184873808Y-137857256D01*
X184873808Y-137857256D02*
X184873808Y-138428684D01*
X184873808Y-138428684D02*
X184969046Y-138619160D01*
X184969046Y-138619160D02*
X185064284Y-138714399D01*
X185064284Y-138714399D02*
X185254760Y-138809637D01*
X185254760Y-138809637D02*
X185540475Y-138809637D01*
X184016665Y-138809637D02*
X184016665Y-137476303D01*
X184016665Y-137857256D02*
X183921427Y-137666779D01*
X183921427Y-137666779D02*
X183826189Y-137571541D01*
X183826189Y-137571541D02*
X183635713Y-137476303D01*
X183635713Y-137476303D02*
X183445236Y-137476303D01*
X182778570Y-138809637D02*
X182778570Y-137476303D01*
X182778570Y-136809637D02*
X182873808Y-136904875D01*
X182873808Y-136904875D02*
X182778570Y-137000113D01*
X182778570Y-137000113D02*
X182683332Y-136904875D01*
X182683332Y-136904875D02*
X182778570Y-136809637D01*
X182778570Y-136809637D02*
X182778570Y-137000113D01*
X182111903Y-137476303D02*
X181349999Y-137476303D01*
X181826189Y-136809637D02*
X181826189Y-138523922D01*
X181826189Y-138523922D02*
X181730951Y-138714399D01*
X181730951Y-138714399D02*
X181540475Y-138809637D01*
X181540475Y-138809637D02*
X181349999Y-138809637D01*
X180683332Y-138809637D02*
X180683332Y-136809637D01*
X179826189Y-138809637D02*
X179826189Y-137762018D01*
X179826189Y-137762018D02*
X179921427Y-137571541D01*
X179921427Y-137571541D02*
X180111903Y-137476303D01*
X180111903Y-137476303D02*
X180397618Y-137476303D01*
X180397618Y-137476303D02*
X180588094Y-137571541D01*
X180588094Y-137571541D02*
X180683332Y-137666779D01*
X178873808Y-138809637D02*
X178873808Y-137476303D01*
X178873808Y-137666779D02*
X178778570Y-137571541D01*
X178778570Y-137571541D02*
X178588094Y-137476303D01*
X178588094Y-137476303D02*
X178302379Y-137476303D01*
X178302379Y-137476303D02*
X178111903Y-137571541D01*
X178111903Y-137571541D02*
X178016665Y-137762018D01*
X178016665Y-137762018D02*
X178016665Y-138809637D01*
X178016665Y-137762018D02*
X177921427Y-137571541D01*
X177921427Y-137571541D02*
X177730951Y-137476303D01*
X177730951Y-137476303D02*
X177445237Y-137476303D01*
X177445237Y-137476303D02*
X177254760Y-137571541D01*
X177254760Y-137571541D02*
X177159522Y-137762018D01*
X177159522Y-137762018D02*
X177159522Y-138809637D01*
D12*
X124449999Y-59480928D02*
X123592857Y-59480928D01*
X124021428Y-60980928D02*
X124021428Y-59480928D01*
X123092857Y-60980928D02*
X123092857Y-59480928D01*
X122450000Y-60980928D02*
X122450000Y-60195214D01*
X122450000Y-60195214D02*
X122521428Y-60052357D01*
X122521428Y-60052357D02*
X122664285Y-59980928D01*
X122664285Y-59980928D02*
X122878571Y-59980928D01*
X122878571Y-59980928D02*
X123021428Y-60052357D01*
X123021428Y-60052357D02*
X123092857Y-60123785D01*
X121735714Y-60980928D02*
X121735714Y-59980928D01*
X121735714Y-60266642D02*
X121664285Y-60123785D01*
X121664285Y-60123785D02*
X121592857Y-60052357D01*
X121592857Y-60052357D02*
X121449999Y-59980928D01*
X121449999Y-59980928D02*
X121307142Y-59980928D01*
X120164286Y-59980928D02*
X120164286Y-60980928D01*
X120807143Y-59980928D02*
X120807143Y-60766642D01*
X120807143Y-60766642D02*
X120735714Y-60909500D01*
X120735714Y-60909500D02*
X120592857Y-60980928D01*
X120592857Y-60980928D02*
X120378571Y-60980928D01*
X120378571Y-60980928D02*
X120235714Y-60909500D01*
X120235714Y-60909500D02*
X120164286Y-60838071D01*
D11*
X213283333Y-127006066D02*
X212140476Y-127006066D01*
X212711905Y-129006066D02*
X212711905Y-127006066D01*
X211473809Y-129006066D02*
X211473809Y-127672732D01*
X211473809Y-128053685D02*
X211378571Y-127863208D01*
X211378571Y-127863208D02*
X211283333Y-127767970D01*
X211283333Y-127767970D02*
X211092857Y-127672732D01*
X211092857Y-127672732D02*
X210902380Y-127672732D01*
X209378571Y-127672732D02*
X209378571Y-129006066D01*
X210235714Y-127672732D02*
X210235714Y-128720351D01*
X210235714Y-128720351D02*
X210140476Y-128910828D01*
X210140476Y-128910828D02*
X209950000Y-129006066D01*
X209950000Y-129006066D02*
X209664285Y-129006066D01*
X209664285Y-129006066D02*
X209473809Y-128910828D01*
X209473809Y-128910828D02*
X209378571Y-128815589D01*
X208521428Y-128910828D02*
X208330952Y-129006066D01*
X208330952Y-129006066D02*
X207950000Y-129006066D01*
X207950000Y-129006066D02*
X207759523Y-128910828D01*
X207759523Y-128910828D02*
X207664285Y-128720351D01*
X207664285Y-128720351D02*
X207664285Y-128625113D01*
X207664285Y-128625113D02*
X207759523Y-128434637D01*
X207759523Y-128434637D02*
X207950000Y-128339399D01*
X207950000Y-128339399D02*
X208235714Y-128339399D01*
X208235714Y-128339399D02*
X208426190Y-128244161D01*
X208426190Y-128244161D02*
X208521428Y-128053685D01*
X208521428Y-128053685D02*
X208521428Y-127958447D01*
X208521428Y-127958447D02*
X208426190Y-127767970D01*
X208426190Y-127767970D02*
X208235714Y-127672732D01*
X208235714Y-127672732D02*
X207950000Y-127672732D01*
X207950000Y-127672732D02*
X207759523Y-127767970D01*
X207092856Y-127672732D02*
X206330952Y-127672732D01*
X206807142Y-127006066D02*
X206807142Y-128720351D01*
X206807142Y-128720351D02*
X206711904Y-128910828D01*
X206711904Y-128910828D02*
X206521428Y-129006066D01*
X206521428Y-129006066D02*
X206330952Y-129006066D01*
X204426189Y-127672732D02*
X203664285Y-127672732D01*
X204140475Y-127006066D02*
X204140475Y-128720351D01*
X204140475Y-128720351D02*
X204045237Y-128910828D01*
X204045237Y-128910828D02*
X203854761Y-129006066D01*
X203854761Y-129006066D02*
X203664285Y-129006066D01*
X202997618Y-129006066D02*
X202997618Y-127006066D01*
X202140475Y-129006066D02*
X202140475Y-127958447D01*
X202140475Y-127958447D02*
X202235713Y-127767970D01*
X202235713Y-127767970D02*
X202426189Y-127672732D01*
X202426189Y-127672732D02*
X202711904Y-127672732D01*
X202711904Y-127672732D02*
X202902380Y-127767970D01*
X202902380Y-127767970D02*
X202997618Y-127863208D01*
X200426189Y-128910828D02*
X200616665Y-129006066D01*
X200616665Y-129006066D02*
X200997618Y-129006066D01*
X200997618Y-129006066D02*
X201188094Y-128910828D01*
X201188094Y-128910828D02*
X201283332Y-128720351D01*
X201283332Y-128720351D02*
X201283332Y-127958447D01*
X201283332Y-127958447D02*
X201188094Y-127767970D01*
X201188094Y-127767970D02*
X200997618Y-127672732D01*
X200997618Y-127672732D02*
X200616665Y-127672732D01*
X200616665Y-127672732D02*
X200426189Y-127767970D01*
X200426189Y-127767970D02*
X200330951Y-127958447D01*
X200330951Y-127958447D02*
X200330951Y-128148923D01*
X200330951Y-128148923D02*
X201283332Y-128339399D01*
X197092855Y-129006066D02*
X197092855Y-127958447D01*
X197092855Y-127958447D02*
X197188093Y-127767970D01*
X197188093Y-127767970D02*
X197378569Y-127672732D01*
X197378569Y-127672732D02*
X197759522Y-127672732D01*
X197759522Y-127672732D02*
X197949998Y-127767970D01*
X197092855Y-128910828D02*
X197283331Y-129006066D01*
X197283331Y-129006066D02*
X197759522Y-129006066D01*
X197759522Y-129006066D02*
X197949998Y-128910828D01*
X197949998Y-128910828D02*
X198045236Y-128720351D01*
X198045236Y-128720351D02*
X198045236Y-128529875D01*
X198045236Y-128529875D02*
X197949998Y-128339399D01*
X197949998Y-128339399D02*
X197759522Y-128244161D01*
X197759522Y-128244161D02*
X197283331Y-128244161D01*
X197283331Y-128244161D02*
X197092855Y-128148923D01*
X195854760Y-129006066D02*
X196045236Y-128910828D01*
X196045236Y-128910828D02*
X196140474Y-128720351D01*
X196140474Y-128720351D02*
X196140474Y-127006066D01*
X194235712Y-127672732D02*
X194235712Y-129291780D01*
X194235712Y-129291780D02*
X194330950Y-129482256D01*
X194330950Y-129482256D02*
X194426188Y-129577494D01*
X194426188Y-129577494D02*
X194616665Y-129672732D01*
X194616665Y-129672732D02*
X194902379Y-129672732D01*
X194902379Y-129672732D02*
X195092855Y-129577494D01*
X194235712Y-128910828D02*
X194426188Y-129006066D01*
X194426188Y-129006066D02*
X194807141Y-129006066D01*
X194807141Y-129006066D02*
X194997617Y-128910828D01*
X194997617Y-128910828D02*
X195092855Y-128815589D01*
X195092855Y-128815589D02*
X195188093Y-128625113D01*
X195188093Y-128625113D02*
X195188093Y-128053685D01*
X195188093Y-128053685D02*
X195092855Y-127863208D01*
X195092855Y-127863208D02*
X194997617Y-127767970D01*
X194997617Y-127767970D02*
X194807141Y-127672732D01*
X194807141Y-127672732D02*
X194426188Y-127672732D01*
X194426188Y-127672732D02*
X194235712Y-127767970D01*
X192997617Y-129006066D02*
X193188093Y-128910828D01*
X193188093Y-128910828D02*
X193283331Y-128815589D01*
X193283331Y-128815589D02*
X193378569Y-128625113D01*
X193378569Y-128625113D02*
X193378569Y-128053685D01*
X193378569Y-128053685D02*
X193283331Y-127863208D01*
X193283331Y-127863208D02*
X193188093Y-127767970D01*
X193188093Y-127767970D02*
X192997617Y-127672732D01*
X192997617Y-127672732D02*
X192711902Y-127672732D01*
X192711902Y-127672732D02*
X192521426Y-127767970D01*
X192521426Y-127767970D02*
X192426188Y-127863208D01*
X192426188Y-127863208D02*
X192330950Y-128053685D01*
X192330950Y-128053685D02*
X192330950Y-128625113D01*
X192330950Y-128625113D02*
X192426188Y-128815589D01*
X192426188Y-128815589D02*
X192521426Y-128910828D01*
X192521426Y-128910828D02*
X192711902Y-129006066D01*
X192711902Y-129006066D02*
X192997617Y-129006066D01*
X191473807Y-129006066D02*
X191473807Y-127672732D01*
X191473807Y-128053685D02*
X191378569Y-127863208D01*
X191378569Y-127863208D02*
X191283331Y-127767970D01*
X191283331Y-127767970D02*
X191092855Y-127672732D01*
X191092855Y-127672732D02*
X190902378Y-127672732D01*
X190235712Y-129006066D02*
X190235712Y-127672732D01*
X190235712Y-127006066D02*
X190330950Y-127101304D01*
X190330950Y-127101304D02*
X190235712Y-127196542D01*
X190235712Y-127196542D02*
X190140474Y-127101304D01*
X190140474Y-127101304D02*
X190235712Y-127006066D01*
X190235712Y-127006066D02*
X190235712Y-127196542D01*
X189569045Y-127672732D02*
X188807141Y-127672732D01*
X189283331Y-127006066D02*
X189283331Y-128720351D01*
X189283331Y-128720351D02*
X189188093Y-128910828D01*
X189188093Y-128910828D02*
X188997617Y-129006066D01*
X188997617Y-129006066D02*
X188807141Y-129006066D01*
X188140474Y-129006066D02*
X188140474Y-127006066D01*
X187283331Y-129006066D02*
X187283331Y-127958447D01*
X187283331Y-127958447D02*
X187378569Y-127767970D01*
X187378569Y-127767970D02*
X187569045Y-127672732D01*
X187569045Y-127672732D02*
X187854760Y-127672732D01*
X187854760Y-127672732D02*
X188045236Y-127767970D01*
X188045236Y-127767970D02*
X188140474Y-127863208D01*
X186330950Y-129006066D02*
X186330950Y-127672732D01*
X186330950Y-127863208D02*
X186235712Y-127767970D01*
X186235712Y-127767970D02*
X186045236Y-127672732D01*
X186045236Y-127672732D02*
X185759521Y-127672732D01*
X185759521Y-127672732D02*
X185569045Y-127767970D01*
X185569045Y-127767970D02*
X185473807Y-127958447D01*
X185473807Y-127958447D02*
X185473807Y-129006066D01*
X185473807Y-127958447D02*
X185378569Y-127767970D01*
X185378569Y-127767970D02*
X185188093Y-127672732D01*
X185188093Y-127672732D02*
X184902379Y-127672732D01*
X184902379Y-127672732D02*
X184711902Y-127767970D01*
X184711902Y-127767970D02*
X184616664Y-127958447D01*
X184616664Y-127958447D02*
X184616664Y-129006066D01*
D12*
X108778571Y-60980928D02*
X108778571Y-59480928D01*
X108064285Y-59980928D02*
X108064285Y-60980928D01*
X108064285Y-60123785D02*
X107992856Y-60052357D01*
X107992856Y-60052357D02*
X107849999Y-59980928D01*
X107849999Y-59980928D02*
X107635713Y-59980928D01*
X107635713Y-59980928D02*
X107492856Y-60052357D01*
X107492856Y-60052357D02*
X107421428Y-60195214D01*
X107421428Y-60195214D02*
X107421428Y-60980928D01*
D11*
X218254761Y-120470352D02*
X217111904Y-120470352D01*
X217683333Y-122470352D02*
X217683333Y-120470352D01*
X216445237Y-122470352D02*
X216445237Y-121137018D01*
X216445237Y-121517971D02*
X216349999Y-121327494D01*
X216349999Y-121327494D02*
X216254761Y-121232256D01*
X216254761Y-121232256D02*
X216064285Y-121137018D01*
X216064285Y-121137018D02*
X215873808Y-121137018D01*
X214349999Y-121137018D02*
X214349999Y-122470352D01*
X215207142Y-121137018D02*
X215207142Y-122184637D01*
X215207142Y-122184637D02*
X215111904Y-122375114D01*
X215111904Y-122375114D02*
X214921428Y-122470352D01*
X214921428Y-122470352D02*
X214635713Y-122470352D01*
X214635713Y-122470352D02*
X214445237Y-122375114D01*
X214445237Y-122375114D02*
X214349999Y-122279875D01*
X213492856Y-122375114D02*
X213302380Y-122470352D01*
X213302380Y-122470352D02*
X212921428Y-122470352D01*
X212921428Y-122470352D02*
X212730951Y-122375114D01*
X212730951Y-122375114D02*
X212635713Y-122184637D01*
X212635713Y-122184637D02*
X212635713Y-122089399D01*
X212635713Y-122089399D02*
X212730951Y-121898923D01*
X212730951Y-121898923D02*
X212921428Y-121803685D01*
X212921428Y-121803685D02*
X213207142Y-121803685D01*
X213207142Y-121803685D02*
X213397618Y-121708447D01*
X213397618Y-121708447D02*
X213492856Y-121517971D01*
X213492856Y-121517971D02*
X213492856Y-121422733D01*
X213492856Y-121422733D02*
X213397618Y-121232256D01*
X213397618Y-121232256D02*
X213207142Y-121137018D01*
X213207142Y-121137018D02*
X212921428Y-121137018D01*
X212921428Y-121137018D02*
X212730951Y-121232256D01*
X212064284Y-121137018D02*
X211302380Y-121137018D01*
X211778570Y-120470352D02*
X211778570Y-122184637D01*
X211778570Y-122184637D02*
X211683332Y-122375114D01*
X211683332Y-122375114D02*
X211492856Y-122470352D01*
X211492856Y-122470352D02*
X211302380Y-122470352D01*
X209397617Y-121137018D02*
X208635713Y-121137018D01*
X209111903Y-120470352D02*
X209111903Y-122184637D01*
X209111903Y-122184637D02*
X209016665Y-122375114D01*
X209016665Y-122375114D02*
X208826189Y-122470352D01*
X208826189Y-122470352D02*
X208635713Y-122470352D01*
X207969046Y-122470352D02*
X207969046Y-120470352D01*
X207111903Y-122470352D02*
X207111903Y-121422733D01*
X207111903Y-121422733D02*
X207207141Y-121232256D01*
X207207141Y-121232256D02*
X207397617Y-121137018D01*
X207397617Y-121137018D02*
X207683332Y-121137018D01*
X207683332Y-121137018D02*
X207873808Y-121232256D01*
X207873808Y-121232256D02*
X207969046Y-121327494D01*
X205397617Y-122375114D02*
X205588093Y-122470352D01*
X205588093Y-122470352D02*
X205969046Y-122470352D01*
X205969046Y-122470352D02*
X206159522Y-122375114D01*
X206159522Y-122375114D02*
X206254760Y-122184637D01*
X206254760Y-122184637D02*
X206254760Y-121422733D01*
X206254760Y-121422733D02*
X206159522Y-121232256D01*
X206159522Y-121232256D02*
X205969046Y-121137018D01*
X205969046Y-121137018D02*
X205588093Y-121137018D01*
X205588093Y-121137018D02*
X205397617Y-121232256D01*
X205397617Y-121232256D02*
X205302379Y-121422733D01*
X205302379Y-121422733D02*
X205302379Y-121613209D01*
X205302379Y-121613209D02*
X206254760Y-121803685D01*
X202064283Y-122470352D02*
X202064283Y-121422733D01*
X202064283Y-121422733D02*
X202159521Y-121232256D01*
X202159521Y-121232256D02*
X202349997Y-121137018D01*
X202349997Y-121137018D02*
X202730950Y-121137018D01*
X202730950Y-121137018D02*
X202921426Y-121232256D01*
X202064283Y-122375114D02*
X202254759Y-122470352D01*
X202254759Y-122470352D02*
X202730950Y-122470352D01*
X202730950Y-122470352D02*
X202921426Y-122375114D01*
X202921426Y-122375114D02*
X203016664Y-122184637D01*
X203016664Y-122184637D02*
X203016664Y-121994161D01*
X203016664Y-121994161D02*
X202921426Y-121803685D01*
X202921426Y-121803685D02*
X202730950Y-121708447D01*
X202730950Y-121708447D02*
X202254759Y-121708447D01*
X202254759Y-121708447D02*
X202064283Y-121613209D01*
X200826188Y-122470352D02*
X201016664Y-122375114D01*
X201016664Y-122375114D02*
X201111902Y-122184637D01*
X201111902Y-122184637D02*
X201111902Y-120470352D01*
X199207140Y-121137018D02*
X199207140Y-122756066D01*
X199207140Y-122756066D02*
X199302378Y-122946542D01*
X199302378Y-122946542D02*
X199397616Y-123041780D01*
X199397616Y-123041780D02*
X199588093Y-123137018D01*
X199588093Y-123137018D02*
X199873807Y-123137018D01*
X199873807Y-123137018D02*
X200064283Y-123041780D01*
X199207140Y-122375114D02*
X199397616Y-122470352D01*
X199397616Y-122470352D02*
X199778569Y-122470352D01*
X199778569Y-122470352D02*
X199969045Y-122375114D01*
X199969045Y-122375114D02*
X200064283Y-122279875D01*
X200064283Y-122279875D02*
X200159521Y-122089399D01*
X200159521Y-122089399D02*
X200159521Y-121517971D01*
X200159521Y-121517971D02*
X200064283Y-121327494D01*
X200064283Y-121327494D02*
X199969045Y-121232256D01*
X199969045Y-121232256D02*
X199778569Y-121137018D01*
X199778569Y-121137018D02*
X199397616Y-121137018D01*
X199397616Y-121137018D02*
X199207140Y-121232256D01*
X197969045Y-122470352D02*
X198159521Y-122375114D01*
X198159521Y-122375114D02*
X198254759Y-122279875D01*
X198254759Y-122279875D02*
X198349997Y-122089399D01*
X198349997Y-122089399D02*
X198349997Y-121517971D01*
X198349997Y-121517971D02*
X198254759Y-121327494D01*
X198254759Y-121327494D02*
X198159521Y-121232256D01*
X198159521Y-121232256D02*
X197969045Y-121137018D01*
X197969045Y-121137018D02*
X197683330Y-121137018D01*
X197683330Y-121137018D02*
X197492854Y-121232256D01*
X197492854Y-121232256D02*
X197397616Y-121327494D01*
X197397616Y-121327494D02*
X197302378Y-121517971D01*
X197302378Y-121517971D02*
X197302378Y-122089399D01*
X197302378Y-122089399D02*
X197397616Y-122279875D01*
X197397616Y-122279875D02*
X197492854Y-122375114D01*
X197492854Y-122375114D02*
X197683330Y-122470352D01*
X197683330Y-122470352D02*
X197969045Y-122470352D01*
X196445235Y-122470352D02*
X196445235Y-121137018D01*
X196445235Y-121517971D02*
X196349997Y-121327494D01*
X196349997Y-121327494D02*
X196254759Y-121232256D01*
X196254759Y-121232256D02*
X196064283Y-121137018D01*
X196064283Y-121137018D02*
X195873806Y-121137018D01*
X195207140Y-122470352D02*
X195207140Y-121137018D01*
X195207140Y-120470352D02*
X195302378Y-120565590D01*
X195302378Y-120565590D02*
X195207140Y-120660828D01*
X195207140Y-120660828D02*
X195111902Y-120565590D01*
X195111902Y-120565590D02*
X195207140Y-120470352D01*
X195207140Y-120470352D02*
X195207140Y-120660828D01*
X194540473Y-121137018D02*
X193778569Y-121137018D01*
X194254759Y-120470352D02*
X194254759Y-122184637D01*
X194254759Y-122184637D02*
X194159521Y-122375114D01*
X194159521Y-122375114D02*
X193969045Y-122470352D01*
X193969045Y-122470352D02*
X193778569Y-122470352D01*
X193111902Y-122470352D02*
X193111902Y-120470352D01*
X192254759Y-122470352D02*
X192254759Y-121422733D01*
X192254759Y-121422733D02*
X192349997Y-121232256D01*
X192349997Y-121232256D02*
X192540473Y-121137018D01*
X192540473Y-121137018D02*
X192826188Y-121137018D01*
X192826188Y-121137018D02*
X193016664Y-121232256D01*
X193016664Y-121232256D02*
X193111902Y-121327494D01*
X191302378Y-122470352D02*
X191302378Y-121137018D01*
X191302378Y-121327494D02*
X191207140Y-121232256D01*
X191207140Y-121232256D02*
X191016664Y-121137018D01*
X191016664Y-121137018D02*
X190730949Y-121137018D01*
X190730949Y-121137018D02*
X190540473Y-121232256D01*
X190540473Y-121232256D02*
X190445235Y-121422733D01*
X190445235Y-121422733D02*
X190445235Y-122470352D01*
X190445235Y-121422733D02*
X190349997Y-121232256D01*
X190349997Y-121232256D02*
X190159521Y-121137018D01*
X190159521Y-121137018D02*
X189873807Y-121137018D01*
X189873807Y-121137018D02*
X189683330Y-121232256D01*
X189683330Y-121232256D02*
X189588092Y-121422733D01*
X189588092Y-121422733D02*
X189588092Y-122470352D01*
D12*
X156649999Y-60552357D02*
X155935714Y-60552357D01*
X156792856Y-60980928D02*
X156292856Y-59480928D01*
X156292856Y-59480928D02*
X155792856Y-60980928D01*
X154650000Y-59980928D02*
X154650000Y-60980928D01*
X155292857Y-59980928D02*
X155292857Y-60766642D01*
X155292857Y-60766642D02*
X155221428Y-60909500D01*
X155221428Y-60909500D02*
X155078571Y-60980928D01*
X155078571Y-60980928D02*
X154864285Y-60980928D01*
X154864285Y-60980928D02*
X154721428Y-60909500D01*
X154721428Y-60909500D02*
X154650000Y-60838071D01*
X153292857Y-60980928D02*
X153292857Y-59480928D01*
X153292857Y-60909500D02*
X153435714Y-60980928D01*
X153435714Y-60980928D02*
X153721428Y-60980928D01*
X153721428Y-60980928D02*
X153864285Y-60909500D01*
X153864285Y-60909500D02*
X153935714Y-60838071D01*
X153935714Y-60838071D02*
X154007142Y-60695214D01*
X154007142Y-60695214D02*
X154007142Y-60266642D01*
X154007142Y-60266642D02*
X153935714Y-60123785D01*
X153935714Y-60123785D02*
X153864285Y-60052357D01*
X153864285Y-60052357D02*
X153721428Y-59980928D01*
X153721428Y-59980928D02*
X153435714Y-59980928D01*
X153435714Y-59980928D02*
X153292857Y-60052357D01*
X152578571Y-60980928D02*
X152578571Y-59980928D01*
X152578571Y-59480928D02*
X152649999Y-59552357D01*
X152649999Y-59552357D02*
X152578571Y-59623785D01*
X152578571Y-59623785D02*
X152507142Y-59552357D01*
X152507142Y-59552357D02*
X152578571Y-59480928D01*
X152578571Y-59480928D02*
X152578571Y-59623785D01*
X151649999Y-60980928D02*
X151792856Y-60909500D01*
X151792856Y-60909500D02*
X151864285Y-60838071D01*
X151864285Y-60838071D02*
X151935713Y-60695214D01*
X151935713Y-60695214D02*
X151935713Y-60266642D01*
X151935713Y-60266642D02*
X151864285Y-60123785D01*
X151864285Y-60123785D02*
X151792856Y-60052357D01*
X151792856Y-60052357D02*
X151649999Y-59980928D01*
X151649999Y-59980928D02*
X151435713Y-59980928D01*
X151435713Y-59980928D02*
X151292856Y-60052357D01*
X151292856Y-60052357D02*
X151221428Y-60123785D01*
X151221428Y-60123785D02*
X151149999Y-60266642D01*
X151149999Y-60266642D02*
X151149999Y-60695214D01*
X151149999Y-60695214D02*
X151221428Y-60838071D01*
X151221428Y-60838071D02*
X151292856Y-60909500D01*
X151292856Y-60909500D02*
X151435713Y-60980928D01*
X151435713Y-60980928D02*
X151649999Y-60980928D01*
D11*
X208311905Y-133541780D02*
X207169048Y-133541780D01*
X207740477Y-135541780D02*
X207740477Y-133541780D01*
X206502381Y-135541780D02*
X206502381Y-134208446D01*
X206502381Y-134589399D02*
X206407143Y-134398922D01*
X206407143Y-134398922D02*
X206311905Y-134303684D01*
X206311905Y-134303684D02*
X206121429Y-134208446D01*
X206121429Y-134208446D02*
X205930952Y-134208446D01*
X204407143Y-134208446D02*
X204407143Y-135541780D01*
X205264286Y-134208446D02*
X205264286Y-135256065D01*
X205264286Y-135256065D02*
X205169048Y-135446542D01*
X205169048Y-135446542D02*
X204978572Y-135541780D01*
X204978572Y-135541780D02*
X204692857Y-135541780D01*
X204692857Y-135541780D02*
X204502381Y-135446542D01*
X204502381Y-135446542D02*
X204407143Y-135351303D01*
X203550000Y-135446542D02*
X203359524Y-135541780D01*
X203359524Y-135541780D02*
X202978572Y-135541780D01*
X202978572Y-135541780D02*
X202788095Y-135446542D01*
X202788095Y-135446542D02*
X202692857Y-135256065D01*
X202692857Y-135256065D02*
X202692857Y-135160827D01*
X202692857Y-135160827D02*
X202788095Y-134970351D01*
X202788095Y-134970351D02*
X202978572Y-134875113D01*
X202978572Y-134875113D02*
X203264286Y-134875113D01*
X203264286Y-134875113D02*
X203454762Y-134779875D01*
X203454762Y-134779875D02*
X203550000Y-134589399D01*
X203550000Y-134589399D02*
X203550000Y-134494161D01*
X203550000Y-134494161D02*
X203454762Y-134303684D01*
X203454762Y-134303684D02*
X203264286Y-134208446D01*
X203264286Y-134208446D02*
X202978572Y-134208446D01*
X202978572Y-134208446D02*
X202788095Y-134303684D01*
X202121428Y-134208446D02*
X201359524Y-134208446D01*
X201835714Y-133541780D02*
X201835714Y-135256065D01*
X201835714Y-135256065D02*
X201740476Y-135446542D01*
X201740476Y-135446542D02*
X201550000Y-135541780D01*
X201550000Y-135541780D02*
X201359524Y-135541780D01*
X199454761Y-134208446D02*
X198692857Y-134208446D01*
X199169047Y-133541780D02*
X199169047Y-135256065D01*
X199169047Y-135256065D02*
X199073809Y-135446542D01*
X199073809Y-135446542D02*
X198883333Y-135541780D01*
X198883333Y-135541780D02*
X198692857Y-135541780D01*
X198026190Y-135541780D02*
X198026190Y-133541780D01*
X197169047Y-135541780D02*
X197169047Y-134494161D01*
X197169047Y-134494161D02*
X197264285Y-134303684D01*
X197264285Y-134303684D02*
X197454761Y-134208446D01*
X197454761Y-134208446D02*
X197740476Y-134208446D01*
X197740476Y-134208446D02*
X197930952Y-134303684D01*
X197930952Y-134303684D02*
X198026190Y-134398922D01*
X195454761Y-135446542D02*
X195645237Y-135541780D01*
X195645237Y-135541780D02*
X196026190Y-135541780D01*
X196026190Y-135541780D02*
X196216666Y-135446542D01*
X196216666Y-135446542D02*
X196311904Y-135256065D01*
X196311904Y-135256065D02*
X196311904Y-134494161D01*
X196311904Y-134494161D02*
X196216666Y-134303684D01*
X196216666Y-134303684D02*
X196026190Y-134208446D01*
X196026190Y-134208446D02*
X195645237Y-134208446D01*
X195645237Y-134208446D02*
X195454761Y-134303684D01*
X195454761Y-134303684D02*
X195359523Y-134494161D01*
X195359523Y-134494161D02*
X195359523Y-134684637D01*
X195359523Y-134684637D02*
X196311904Y-134875113D01*
X192121427Y-135541780D02*
X192121427Y-134494161D01*
X192121427Y-134494161D02*
X192216665Y-134303684D01*
X192216665Y-134303684D02*
X192407141Y-134208446D01*
X192407141Y-134208446D02*
X192788094Y-134208446D01*
X192788094Y-134208446D02*
X192978570Y-134303684D01*
X192121427Y-135446542D02*
X192311903Y-135541780D01*
X192311903Y-135541780D02*
X192788094Y-135541780D01*
X192788094Y-135541780D02*
X192978570Y-135446542D01*
X192978570Y-135446542D02*
X193073808Y-135256065D01*
X193073808Y-135256065D02*
X193073808Y-135065589D01*
X193073808Y-135065589D02*
X192978570Y-134875113D01*
X192978570Y-134875113D02*
X192788094Y-134779875D01*
X192788094Y-134779875D02*
X192311903Y-134779875D01*
X192311903Y-134779875D02*
X192121427Y-134684637D01*
X190883332Y-135541780D02*
X191073808Y-135446542D01*
X191073808Y-135446542D02*
X191169046Y-135256065D01*
X191169046Y-135256065D02*
X191169046Y-133541780D01*
X189264284Y-134208446D02*
X189264284Y-135827494D01*
X189264284Y-135827494D02*
X189359522Y-136017970D01*
X189359522Y-136017970D02*
X189454760Y-136113208D01*
X189454760Y-136113208D02*
X189645237Y-136208446D01*
X189645237Y-136208446D02*
X189930951Y-136208446D01*
X189930951Y-136208446D02*
X190121427Y-136113208D01*
X189264284Y-135446542D02*
X189454760Y-135541780D01*
X189454760Y-135541780D02*
X189835713Y-135541780D01*
X189835713Y-135541780D02*
X190026189Y-135446542D01*
X190026189Y-135446542D02*
X190121427Y-135351303D01*
X190121427Y-135351303D02*
X190216665Y-135160827D01*
X190216665Y-135160827D02*
X190216665Y-134589399D01*
X190216665Y-134589399D02*
X190121427Y-134398922D01*
X190121427Y-134398922D02*
X190026189Y-134303684D01*
X190026189Y-134303684D02*
X189835713Y-134208446D01*
X189835713Y-134208446D02*
X189454760Y-134208446D01*
X189454760Y-134208446D02*
X189264284Y-134303684D01*
X188026189Y-135541780D02*
X188216665Y-135446542D01*
X188216665Y-135446542D02*
X188311903Y-135351303D01*
X188311903Y-135351303D02*
X188407141Y-135160827D01*
X188407141Y-135160827D02*
X188407141Y-134589399D01*
X188407141Y-134589399D02*
X188311903Y-134398922D01*
X188311903Y-134398922D02*
X188216665Y-134303684D01*
X188216665Y-134303684D02*
X188026189Y-134208446D01*
X188026189Y-134208446D02*
X187740474Y-134208446D01*
X187740474Y-134208446D02*
X187549998Y-134303684D01*
X187549998Y-134303684D02*
X187454760Y-134398922D01*
X187454760Y-134398922D02*
X187359522Y-134589399D01*
X187359522Y-134589399D02*
X187359522Y-135160827D01*
X187359522Y-135160827D02*
X187454760Y-135351303D01*
X187454760Y-135351303D02*
X187549998Y-135446542D01*
X187549998Y-135446542D02*
X187740474Y-135541780D01*
X187740474Y-135541780D02*
X188026189Y-135541780D01*
X186502379Y-135541780D02*
X186502379Y-134208446D01*
X186502379Y-134589399D02*
X186407141Y-134398922D01*
X186407141Y-134398922D02*
X186311903Y-134303684D01*
X186311903Y-134303684D02*
X186121427Y-134208446D01*
X186121427Y-134208446D02*
X185930950Y-134208446D01*
X185264284Y-135541780D02*
X185264284Y-134208446D01*
X185264284Y-133541780D02*
X185359522Y-133637018D01*
X185359522Y-133637018D02*
X185264284Y-133732256D01*
X185264284Y-133732256D02*
X185169046Y-133637018D01*
X185169046Y-133637018D02*
X185264284Y-133541780D01*
X185264284Y-133541780D02*
X185264284Y-133732256D01*
X184597617Y-134208446D02*
X183835713Y-134208446D01*
X184311903Y-133541780D02*
X184311903Y-135256065D01*
X184311903Y-135256065D02*
X184216665Y-135446542D01*
X184216665Y-135446542D02*
X184026189Y-135541780D01*
X184026189Y-135541780D02*
X183835713Y-135541780D01*
X183169046Y-135541780D02*
X183169046Y-133541780D01*
X182311903Y-135541780D02*
X182311903Y-134494161D01*
X182311903Y-134494161D02*
X182407141Y-134303684D01*
X182407141Y-134303684D02*
X182597617Y-134208446D01*
X182597617Y-134208446D02*
X182883332Y-134208446D01*
X182883332Y-134208446D02*
X183073808Y-134303684D01*
X183073808Y-134303684D02*
X183169046Y-134398922D01*
X181359522Y-135541780D02*
X181359522Y-134208446D01*
X181359522Y-134398922D02*
X181264284Y-134303684D01*
X181264284Y-134303684D02*
X181073808Y-134208446D01*
X181073808Y-134208446D02*
X180788093Y-134208446D01*
X180788093Y-134208446D02*
X180597617Y-134303684D01*
X180597617Y-134303684D02*
X180502379Y-134494161D01*
X180502379Y-134494161D02*
X180502379Y-135541780D01*
X180502379Y-134494161D02*
X180407141Y-134303684D01*
X180407141Y-134303684D02*
X180216665Y-134208446D01*
X180216665Y-134208446D02*
X179930951Y-134208446D01*
X179930951Y-134208446D02*
X179740474Y-134303684D01*
X179740474Y-134303684D02*
X179645236Y-134494161D01*
X179645236Y-134494161D02*
X179645236Y-135541780D01*
D12*
X137549999Y-59480928D02*
X137264285Y-59480928D01*
X137264285Y-59480928D02*
X137121428Y-59552357D01*
X137121428Y-59552357D02*
X136978571Y-59695214D01*
X136978571Y-59695214D02*
X136907142Y-59980928D01*
X136907142Y-59980928D02*
X136907142Y-60480928D01*
X136907142Y-60480928D02*
X136978571Y-60766642D01*
X136978571Y-60766642D02*
X137121428Y-60909500D01*
X137121428Y-60909500D02*
X137264285Y-60980928D01*
X137264285Y-60980928D02*
X137549999Y-60980928D01*
X137549999Y-60980928D02*
X137692857Y-60909500D01*
X137692857Y-60909500D02*
X137835714Y-60766642D01*
X137835714Y-60766642D02*
X137907142Y-60480928D01*
X137907142Y-60480928D02*
X137907142Y-59980928D01*
X137907142Y-59980928D02*
X137835714Y-59695214D01*
X137835714Y-59695214D02*
X137692857Y-59552357D01*
X137692857Y-59552357D02*
X137549999Y-59480928D01*
X135621428Y-59980928D02*
X135621428Y-60980928D01*
X136264285Y-59980928D02*
X136264285Y-60766642D01*
X136264285Y-60766642D02*
X136192856Y-60909500D01*
X136192856Y-60909500D02*
X136049999Y-60980928D01*
X136049999Y-60980928D02*
X135835713Y-60980928D01*
X135835713Y-60980928D02*
X135692856Y-60909500D01*
X135692856Y-60909500D02*
X135621428Y-60838071D01*
X135121427Y-59980928D02*
X134549999Y-59980928D01*
X134907142Y-59480928D02*
X134907142Y-60766642D01*
X134907142Y-60766642D02*
X134835713Y-60909500D01*
X134835713Y-60909500D02*
X134692856Y-60980928D01*
X134692856Y-60980928D02*
X134549999Y-60980928D01*
D11*
X215769047Y-123738209D02*
X214626190Y-123738209D01*
X215197619Y-125738209D02*
X215197619Y-123738209D01*
X213959523Y-125738209D02*
X213959523Y-124404875D01*
X213959523Y-124785828D02*
X213864285Y-124595351D01*
X213864285Y-124595351D02*
X213769047Y-124500113D01*
X213769047Y-124500113D02*
X213578571Y-124404875D01*
X213578571Y-124404875D02*
X213388094Y-124404875D01*
X211864285Y-124404875D02*
X211864285Y-125738209D01*
X212721428Y-124404875D02*
X212721428Y-125452494D01*
X212721428Y-125452494D02*
X212626190Y-125642971D01*
X212626190Y-125642971D02*
X212435714Y-125738209D01*
X212435714Y-125738209D02*
X212149999Y-125738209D01*
X212149999Y-125738209D02*
X211959523Y-125642971D01*
X211959523Y-125642971D02*
X211864285Y-125547732D01*
X211007142Y-125642971D02*
X210816666Y-125738209D01*
X210816666Y-125738209D02*
X210435714Y-125738209D01*
X210435714Y-125738209D02*
X210245237Y-125642971D01*
X210245237Y-125642971D02*
X210149999Y-125452494D01*
X210149999Y-125452494D02*
X210149999Y-125357256D01*
X210149999Y-125357256D02*
X210245237Y-125166780D01*
X210245237Y-125166780D02*
X210435714Y-125071542D01*
X210435714Y-125071542D02*
X210721428Y-125071542D01*
X210721428Y-125071542D02*
X210911904Y-124976304D01*
X210911904Y-124976304D02*
X211007142Y-124785828D01*
X211007142Y-124785828D02*
X211007142Y-124690590D01*
X211007142Y-124690590D02*
X210911904Y-124500113D01*
X210911904Y-124500113D02*
X210721428Y-124404875D01*
X210721428Y-124404875D02*
X210435714Y-124404875D01*
X210435714Y-124404875D02*
X210245237Y-124500113D01*
X209578570Y-124404875D02*
X208816666Y-124404875D01*
X209292856Y-123738209D02*
X209292856Y-125452494D01*
X209292856Y-125452494D02*
X209197618Y-125642971D01*
X209197618Y-125642971D02*
X209007142Y-125738209D01*
X209007142Y-125738209D02*
X208816666Y-125738209D01*
X206911903Y-124404875D02*
X206149999Y-124404875D01*
X206626189Y-123738209D02*
X206626189Y-125452494D01*
X206626189Y-125452494D02*
X206530951Y-125642971D01*
X206530951Y-125642971D02*
X206340475Y-125738209D01*
X206340475Y-125738209D02*
X206149999Y-125738209D01*
X205483332Y-125738209D02*
X205483332Y-123738209D01*
X204626189Y-125738209D02*
X204626189Y-124690590D01*
X204626189Y-124690590D02*
X204721427Y-124500113D01*
X204721427Y-124500113D02*
X204911903Y-124404875D01*
X204911903Y-124404875D02*
X205197618Y-124404875D01*
X205197618Y-124404875D02*
X205388094Y-124500113D01*
X205388094Y-124500113D02*
X205483332Y-124595351D01*
X202911903Y-125642971D02*
X203102379Y-125738209D01*
X203102379Y-125738209D02*
X203483332Y-125738209D01*
X203483332Y-125738209D02*
X203673808Y-125642971D01*
X203673808Y-125642971D02*
X203769046Y-125452494D01*
X203769046Y-125452494D02*
X203769046Y-124690590D01*
X203769046Y-124690590D02*
X203673808Y-124500113D01*
X203673808Y-124500113D02*
X203483332Y-124404875D01*
X203483332Y-124404875D02*
X203102379Y-124404875D01*
X203102379Y-124404875D02*
X202911903Y-124500113D01*
X202911903Y-124500113D02*
X202816665Y-124690590D01*
X202816665Y-124690590D02*
X202816665Y-124881066D01*
X202816665Y-124881066D02*
X203769046Y-125071542D01*
X199578569Y-125738209D02*
X199578569Y-124690590D01*
X199578569Y-124690590D02*
X199673807Y-124500113D01*
X199673807Y-124500113D02*
X199864283Y-124404875D01*
X199864283Y-124404875D02*
X200245236Y-124404875D01*
X200245236Y-124404875D02*
X200435712Y-124500113D01*
X199578569Y-125642971D02*
X199769045Y-125738209D01*
X199769045Y-125738209D02*
X200245236Y-125738209D01*
X200245236Y-125738209D02*
X200435712Y-125642971D01*
X200435712Y-125642971D02*
X200530950Y-125452494D01*
X200530950Y-125452494D02*
X200530950Y-125262018D01*
X200530950Y-125262018D02*
X200435712Y-125071542D01*
X200435712Y-125071542D02*
X200245236Y-124976304D01*
X200245236Y-124976304D02*
X199769045Y-124976304D01*
X199769045Y-124976304D02*
X199578569Y-124881066D01*
X198340474Y-125738209D02*
X198530950Y-125642971D01*
X198530950Y-125642971D02*
X198626188Y-125452494D01*
X198626188Y-125452494D02*
X198626188Y-123738209D01*
X196721426Y-124404875D02*
X196721426Y-126023923D01*
X196721426Y-126023923D02*
X196816664Y-126214399D01*
X196816664Y-126214399D02*
X196911902Y-126309637D01*
X196911902Y-126309637D02*
X197102379Y-126404875D01*
X197102379Y-126404875D02*
X197388093Y-126404875D01*
X197388093Y-126404875D02*
X197578569Y-126309637D01*
X196721426Y-125642971D02*
X196911902Y-125738209D01*
X196911902Y-125738209D02*
X197292855Y-125738209D01*
X197292855Y-125738209D02*
X197483331Y-125642971D01*
X197483331Y-125642971D02*
X197578569Y-125547732D01*
X197578569Y-125547732D02*
X197673807Y-125357256D01*
X197673807Y-125357256D02*
X197673807Y-124785828D01*
X197673807Y-124785828D02*
X197578569Y-124595351D01*
X197578569Y-124595351D02*
X197483331Y-124500113D01*
X197483331Y-124500113D02*
X197292855Y-124404875D01*
X197292855Y-124404875D02*
X196911902Y-124404875D01*
X196911902Y-124404875D02*
X196721426Y-124500113D01*
X195483331Y-125738209D02*
X195673807Y-125642971D01*
X195673807Y-125642971D02*
X195769045Y-125547732D01*
X195769045Y-125547732D02*
X195864283Y-125357256D01*
X195864283Y-125357256D02*
X195864283Y-124785828D01*
X195864283Y-124785828D02*
X195769045Y-124595351D01*
X195769045Y-124595351D02*
X195673807Y-124500113D01*
X195673807Y-124500113D02*
X195483331Y-124404875D01*
X195483331Y-124404875D02*
X195197616Y-124404875D01*
X195197616Y-124404875D02*
X195007140Y-124500113D01*
X195007140Y-124500113D02*
X194911902Y-124595351D01*
X194911902Y-124595351D02*
X194816664Y-124785828D01*
X194816664Y-124785828D02*
X194816664Y-125357256D01*
X194816664Y-125357256D02*
X194911902Y-125547732D01*
X194911902Y-125547732D02*
X195007140Y-125642971D01*
X195007140Y-125642971D02*
X195197616Y-125738209D01*
X195197616Y-125738209D02*
X195483331Y-125738209D01*
X193959521Y-125738209D02*
X193959521Y-124404875D01*
X193959521Y-124785828D02*
X193864283Y-124595351D01*
X193864283Y-124595351D02*
X193769045Y-124500113D01*
X193769045Y-124500113D02*
X193578569Y-124404875D01*
X193578569Y-124404875D02*
X193388092Y-124404875D01*
X192721426Y-125738209D02*
X192721426Y-124404875D01*
X192721426Y-123738209D02*
X192816664Y-123833447D01*
X192816664Y-123833447D02*
X192721426Y-123928685D01*
X192721426Y-123928685D02*
X192626188Y-123833447D01*
X192626188Y-123833447D02*
X192721426Y-123738209D01*
X192721426Y-123738209D02*
X192721426Y-123928685D01*
X192054759Y-124404875D02*
X191292855Y-124404875D01*
X191769045Y-123738209D02*
X191769045Y-125452494D01*
X191769045Y-125452494D02*
X191673807Y-125642971D01*
X191673807Y-125642971D02*
X191483331Y-125738209D01*
X191483331Y-125738209D02*
X191292855Y-125738209D01*
X190626188Y-125738209D02*
X190626188Y-123738209D01*
X189769045Y-125738209D02*
X189769045Y-124690590D01*
X189769045Y-124690590D02*
X189864283Y-124500113D01*
X189864283Y-124500113D02*
X190054759Y-124404875D01*
X190054759Y-124404875D02*
X190340474Y-124404875D01*
X190340474Y-124404875D02*
X190530950Y-124500113D01*
X190530950Y-124500113D02*
X190626188Y-124595351D01*
X188816664Y-125738209D02*
X188816664Y-124404875D01*
X188816664Y-124595351D02*
X188721426Y-124500113D01*
X188721426Y-124500113D02*
X188530950Y-124404875D01*
X188530950Y-124404875D02*
X188245235Y-124404875D01*
X188245235Y-124404875D02*
X188054759Y-124500113D01*
X188054759Y-124500113D02*
X187959521Y-124690590D01*
X187959521Y-124690590D02*
X187959521Y-125738209D01*
X187959521Y-124690590D02*
X187864283Y-124500113D01*
X187864283Y-124500113D02*
X187673807Y-124404875D01*
X187673807Y-124404875D02*
X187388093Y-124404875D01*
X187388093Y-124404875D02*
X187197616Y-124500113D01*
X187197616Y-124500113D02*
X187102378Y-124690590D01*
X187102378Y-124690590D02*
X187102378Y-125738209D01*
D10*
X135516196Y-138000057D02*
X135468577Y-137952438D01*
X135468577Y-137952438D02*
X135373339Y-137904819D01*
X135373339Y-137904819D02*
X135135244Y-137904819D01*
X135135244Y-137904819D02*
X135040006Y-137952438D01*
X135040006Y-137952438D02*
X134992387Y-138000057D01*
X134992387Y-138000057D02*
X134944768Y-138095295D01*
X134944768Y-138095295D02*
X134944768Y-138190533D01*
X134944768Y-138190533D02*
X134992387Y-138333390D01*
X134992387Y-138333390D02*
X135563815Y-138904819D01*
X135563815Y-138904819D02*
X134944768Y-138904819D01*
X134325720Y-137904819D02*
X134230482Y-137904819D01*
X134230482Y-137904819D02*
X134135244Y-137952438D01*
X134135244Y-137952438D02*
X134087625Y-138000057D01*
X134087625Y-138000057D02*
X134040006Y-138095295D01*
X134040006Y-138095295D02*
X133992387Y-138285771D01*
X133992387Y-138285771D02*
X133992387Y-138523866D01*
X133992387Y-138523866D02*
X134040006Y-138714342D01*
X134040006Y-138714342D02*
X134087625Y-138809580D01*
X134087625Y-138809580D02*
X134135244Y-138857200D01*
X134135244Y-138857200D02*
X134230482Y-138904819D01*
X134230482Y-138904819D02*
X134325720Y-138904819D01*
X134325720Y-138904819D02*
X134420958Y-138857200D01*
X134420958Y-138857200D02*
X134468577Y-138809580D01*
X134468577Y-138809580D02*
X134516196Y-138714342D01*
X134516196Y-138714342D02*
X134563815Y-138523866D01*
X134563815Y-138523866D02*
X134563815Y-138285771D01*
X134563815Y-138285771D02*
X134516196Y-138095295D01*
X134516196Y-138095295D02*
X134468577Y-138000057D01*
X134468577Y-138000057D02*
X134420958Y-137952438D01*
X134420958Y-137952438D02*
X134325720Y-137904819D01*
X133611434Y-138000057D02*
X133563815Y-137952438D01*
X133563815Y-137952438D02*
X133468577Y-137904819D01*
X133468577Y-137904819D02*
X133230482Y-137904819D01*
X133230482Y-137904819D02*
X133135244Y-137952438D01*
X133135244Y-137952438D02*
X133087625Y-138000057D01*
X133087625Y-138000057D02*
X133040006Y-138095295D01*
X133040006Y-138095295D02*
X133040006Y-138190533D01*
X133040006Y-138190533D02*
X133087625Y-138333390D01*
X133087625Y-138333390D02*
X133659053Y-138904819D01*
X133659053Y-138904819D02*
X133040006Y-138904819D01*
X132182863Y-138238152D02*
X132182863Y-138904819D01*
X132420958Y-137857200D02*
X132659053Y-138571485D01*
X132659053Y-138571485D02*
X132040006Y-138571485D01*
X131468577Y-137904819D02*
X131373339Y-137904819D01*
X131373339Y-137904819D02*
X131278101Y-137952438D01*
X131278101Y-137952438D02*
X131230482Y-138000057D01*
X131230482Y-138000057D02*
X131182863Y-138095295D01*
X131182863Y-138095295D02*
X131135244Y-138285771D01*
X131135244Y-138285771D02*
X131135244Y-138523866D01*
X131135244Y-138523866D02*
X131182863Y-138714342D01*
X131182863Y-138714342D02*
X131230482Y-138809580D01*
X131230482Y-138809580D02*
X131278101Y-138857200D01*
X131278101Y-138857200D02*
X131373339Y-138904819D01*
X131373339Y-138904819D02*
X131468577Y-138904819D01*
X131468577Y-138904819D02*
X131563815Y-138857200D01*
X131563815Y-138857200D02*
X131611434Y-138809580D01*
X131611434Y-138809580D02*
X131659053Y-138714342D01*
X131659053Y-138714342D02*
X131706672Y-138523866D01*
X131706672Y-138523866D02*
X131706672Y-138285771D01*
X131706672Y-138285771D02*
X131659053Y-138095295D01*
X131659053Y-138095295D02*
X131611434Y-138000057D01*
X131611434Y-138000057D02*
X131563815Y-137952438D01*
X131563815Y-137952438D02*
X131468577Y-137904819D01*
X130801910Y-137904819D02*
X130135244Y-137904819D01*
X130135244Y-137904819D02*
X130563815Y-138904819D01*
X129801910Y-138000057D02*
X129754291Y-137952438D01*
X129754291Y-137952438D02*
X129659053Y-137904819D01*
X129659053Y-137904819D02*
X129420958Y-137904819D01*
X129420958Y-137904819D02*
X129325720Y-137952438D01*
X129325720Y-137952438D02*
X129278101Y-138000057D01*
X129278101Y-138000057D02*
X129230482Y-138095295D01*
X129230482Y-138095295D02*
X129230482Y-138190533D01*
X129230482Y-138190533D02*
X129278101Y-138333390D01*
X129278101Y-138333390D02*
X129849529Y-138904819D01*
X129849529Y-138904819D02*
X129230482Y-138904819D01*
X128897148Y-137904819D02*
X128230482Y-137904819D01*
X128230482Y-137904819D02*
X128659053Y-138904819D01*
X107142730Y-138904819D02*
X107142730Y-137904819D01*
X106714159Y-138904819D02*
X106714159Y-138381009D01*
X106714159Y-138381009D02*
X106761778Y-138285771D01*
X106761778Y-138285771D02*
X106857016Y-138238152D01*
X106857016Y-138238152D02*
X106999873Y-138238152D01*
X106999873Y-138238152D02*
X107095111Y-138285771D01*
X107095111Y-138285771D02*
X107142730Y-138333390D01*
X106237968Y-138523866D02*
X105476064Y-138523866D01*
X104618921Y-138857200D02*
X104714159Y-138904819D01*
X104714159Y-138904819D02*
X104904635Y-138904819D01*
X104904635Y-138904819D02*
X104999873Y-138857200D01*
X104999873Y-138857200D02*
X105047492Y-138761961D01*
X105047492Y-138761961D02*
X105047492Y-138381009D01*
X105047492Y-138381009D02*
X104999873Y-138285771D01*
X104999873Y-138285771D02*
X104904635Y-138238152D01*
X104904635Y-138238152D02*
X104714159Y-138238152D01*
X104714159Y-138238152D02*
X104618921Y-138285771D01*
X104618921Y-138285771D02*
X104571302Y-138381009D01*
X104571302Y-138381009D02*
X104571302Y-138476247D01*
X104571302Y-138476247D02*
X105047492Y-138571485D01*
X104142730Y-138809580D02*
X104095111Y-138857200D01*
X104095111Y-138857200D02*
X104142730Y-138904819D01*
X104142730Y-138904819D02*
X104190349Y-138857200D01*
X104190349Y-138857200D02*
X104142730Y-138809580D01*
X104142730Y-138809580D02*
X104142730Y-138904819D01*
X103666540Y-138904819D02*
X103666540Y-138238152D01*
X103666540Y-137904819D02*
X103714159Y-137952438D01*
X103714159Y-137952438D02*
X103666540Y-138000057D01*
X103666540Y-138000057D02*
X103618921Y-137952438D01*
X103618921Y-137952438D02*
X103666540Y-137904819D01*
X103666540Y-137904819D02*
X103666540Y-138000057D01*
X103047493Y-138904819D02*
X103142731Y-138857200D01*
X103142731Y-138857200D02*
X103190350Y-138809580D01*
X103190350Y-138809580D02*
X103237969Y-138714342D01*
X103237969Y-138714342D02*
X103237969Y-138428628D01*
X103237969Y-138428628D02*
X103190350Y-138333390D01*
X103190350Y-138333390D02*
X103142731Y-138285771D01*
X103142731Y-138285771D02*
X103047493Y-138238152D01*
X103047493Y-138238152D02*
X102904636Y-138238152D01*
X102904636Y-138238152D02*
X102809398Y-138285771D01*
X102809398Y-138285771D02*
X102761779Y-138333390D01*
X102761779Y-138333390D02*
X102714160Y-138428628D01*
X102714160Y-138428628D02*
X102714160Y-138714342D01*
X102714160Y-138714342D02*
X102761779Y-138809580D01*
X102761779Y-138809580D02*
X102809398Y-138857200D01*
X102809398Y-138857200D02*
X102904636Y-138904819D01*
X102904636Y-138904819D02*
X103047493Y-138904819D01*
D11*
X223226189Y-113934638D02*
X222083332Y-113934638D01*
X222654761Y-115934638D02*
X222654761Y-113934638D01*
X221416665Y-115934638D02*
X221416665Y-114601304D01*
X221416665Y-114982257D02*
X221321427Y-114791780D01*
X221321427Y-114791780D02*
X221226189Y-114696542D01*
X221226189Y-114696542D02*
X221035713Y-114601304D01*
X221035713Y-114601304D02*
X220845236Y-114601304D01*
X219321427Y-114601304D02*
X219321427Y-115934638D01*
X220178570Y-114601304D02*
X220178570Y-115648923D01*
X220178570Y-115648923D02*
X220083332Y-115839400D01*
X220083332Y-115839400D02*
X219892856Y-115934638D01*
X219892856Y-115934638D02*
X219607141Y-115934638D01*
X219607141Y-115934638D02*
X219416665Y-115839400D01*
X219416665Y-115839400D02*
X219321427Y-115744161D01*
X218464284Y-115839400D02*
X218273808Y-115934638D01*
X218273808Y-115934638D02*
X217892856Y-115934638D01*
X217892856Y-115934638D02*
X217702379Y-115839400D01*
X217702379Y-115839400D02*
X217607141Y-115648923D01*
X217607141Y-115648923D02*
X217607141Y-115553685D01*
X217607141Y-115553685D02*
X217702379Y-115363209D01*
X217702379Y-115363209D02*
X217892856Y-115267971D01*
X217892856Y-115267971D02*
X218178570Y-115267971D01*
X218178570Y-115267971D02*
X218369046Y-115172733D01*
X218369046Y-115172733D02*
X218464284Y-114982257D01*
X218464284Y-114982257D02*
X218464284Y-114887019D01*
X218464284Y-114887019D02*
X218369046Y-114696542D01*
X218369046Y-114696542D02*
X218178570Y-114601304D01*
X218178570Y-114601304D02*
X217892856Y-114601304D01*
X217892856Y-114601304D02*
X217702379Y-114696542D01*
X217035712Y-114601304D02*
X216273808Y-114601304D01*
X216749998Y-113934638D02*
X216749998Y-115648923D01*
X216749998Y-115648923D02*
X216654760Y-115839400D01*
X216654760Y-115839400D02*
X216464284Y-115934638D01*
X216464284Y-115934638D02*
X216273808Y-115934638D01*
X214369045Y-114601304D02*
X213607141Y-114601304D01*
X214083331Y-113934638D02*
X214083331Y-115648923D01*
X214083331Y-115648923D02*
X213988093Y-115839400D01*
X213988093Y-115839400D02*
X213797617Y-115934638D01*
X213797617Y-115934638D02*
X213607141Y-115934638D01*
X212940474Y-115934638D02*
X212940474Y-113934638D01*
X212083331Y-115934638D02*
X212083331Y-114887019D01*
X212083331Y-114887019D02*
X212178569Y-114696542D01*
X212178569Y-114696542D02*
X212369045Y-114601304D01*
X212369045Y-114601304D02*
X212654760Y-114601304D01*
X212654760Y-114601304D02*
X212845236Y-114696542D01*
X212845236Y-114696542D02*
X212940474Y-114791780D01*
X210369045Y-115839400D02*
X210559521Y-115934638D01*
X210559521Y-115934638D02*
X210940474Y-115934638D01*
X210940474Y-115934638D02*
X211130950Y-115839400D01*
X211130950Y-115839400D02*
X211226188Y-115648923D01*
X211226188Y-115648923D02*
X211226188Y-114887019D01*
X211226188Y-114887019D02*
X211130950Y-114696542D01*
X211130950Y-114696542D02*
X210940474Y-114601304D01*
X210940474Y-114601304D02*
X210559521Y-114601304D01*
X210559521Y-114601304D02*
X210369045Y-114696542D01*
X210369045Y-114696542D02*
X210273807Y-114887019D01*
X210273807Y-114887019D02*
X210273807Y-115077495D01*
X210273807Y-115077495D02*
X211226188Y-115267971D01*
X207035711Y-115934638D02*
X207035711Y-114887019D01*
X207035711Y-114887019D02*
X207130949Y-114696542D01*
X207130949Y-114696542D02*
X207321425Y-114601304D01*
X207321425Y-114601304D02*
X207702378Y-114601304D01*
X207702378Y-114601304D02*
X207892854Y-114696542D01*
X207035711Y-115839400D02*
X207226187Y-115934638D01*
X207226187Y-115934638D02*
X207702378Y-115934638D01*
X207702378Y-115934638D02*
X207892854Y-115839400D01*
X207892854Y-115839400D02*
X207988092Y-115648923D01*
X207988092Y-115648923D02*
X207988092Y-115458447D01*
X207988092Y-115458447D02*
X207892854Y-115267971D01*
X207892854Y-115267971D02*
X207702378Y-115172733D01*
X207702378Y-115172733D02*
X207226187Y-115172733D01*
X207226187Y-115172733D02*
X207035711Y-115077495D01*
X205797616Y-115934638D02*
X205988092Y-115839400D01*
X205988092Y-115839400D02*
X206083330Y-115648923D01*
X206083330Y-115648923D02*
X206083330Y-113934638D01*
X204178568Y-114601304D02*
X204178568Y-116220352D01*
X204178568Y-116220352D02*
X204273806Y-116410828D01*
X204273806Y-116410828D02*
X204369044Y-116506066D01*
X204369044Y-116506066D02*
X204559521Y-116601304D01*
X204559521Y-116601304D02*
X204845235Y-116601304D01*
X204845235Y-116601304D02*
X205035711Y-116506066D01*
X204178568Y-115839400D02*
X204369044Y-115934638D01*
X204369044Y-115934638D02*
X204749997Y-115934638D01*
X204749997Y-115934638D02*
X204940473Y-115839400D01*
X204940473Y-115839400D02*
X205035711Y-115744161D01*
X205035711Y-115744161D02*
X205130949Y-115553685D01*
X205130949Y-115553685D02*
X205130949Y-114982257D01*
X205130949Y-114982257D02*
X205035711Y-114791780D01*
X205035711Y-114791780D02*
X204940473Y-114696542D01*
X204940473Y-114696542D02*
X204749997Y-114601304D01*
X204749997Y-114601304D02*
X204369044Y-114601304D01*
X204369044Y-114601304D02*
X204178568Y-114696542D01*
X202940473Y-115934638D02*
X203130949Y-115839400D01*
X203130949Y-115839400D02*
X203226187Y-115744161D01*
X203226187Y-115744161D02*
X203321425Y-115553685D01*
X203321425Y-115553685D02*
X203321425Y-114982257D01*
X203321425Y-114982257D02*
X203226187Y-114791780D01*
X203226187Y-114791780D02*
X203130949Y-114696542D01*
X203130949Y-114696542D02*
X202940473Y-114601304D01*
X202940473Y-114601304D02*
X202654758Y-114601304D01*
X202654758Y-114601304D02*
X202464282Y-114696542D01*
X202464282Y-114696542D02*
X202369044Y-114791780D01*
X202369044Y-114791780D02*
X202273806Y-114982257D01*
X202273806Y-114982257D02*
X202273806Y-115553685D01*
X202273806Y-115553685D02*
X202369044Y-115744161D01*
X202369044Y-115744161D02*
X202464282Y-115839400D01*
X202464282Y-115839400D02*
X202654758Y-115934638D01*
X202654758Y-115934638D02*
X202940473Y-115934638D01*
X201416663Y-115934638D02*
X201416663Y-114601304D01*
X201416663Y-114982257D02*
X201321425Y-114791780D01*
X201321425Y-114791780D02*
X201226187Y-114696542D01*
X201226187Y-114696542D02*
X201035711Y-114601304D01*
X201035711Y-114601304D02*
X200845234Y-114601304D01*
X200178568Y-115934638D02*
X200178568Y-114601304D01*
X200178568Y-113934638D02*
X200273806Y-114029876D01*
X200273806Y-114029876D02*
X200178568Y-114125114D01*
X200178568Y-114125114D02*
X200083330Y-114029876D01*
X200083330Y-114029876D02*
X200178568Y-113934638D01*
X200178568Y-113934638D02*
X200178568Y-114125114D01*
X199511901Y-114601304D02*
X198749997Y-114601304D01*
X199226187Y-113934638D02*
X199226187Y-115648923D01*
X199226187Y-115648923D02*
X199130949Y-115839400D01*
X199130949Y-115839400D02*
X198940473Y-115934638D01*
X198940473Y-115934638D02*
X198749997Y-115934638D01*
X198083330Y-115934638D02*
X198083330Y-113934638D01*
X197226187Y-115934638D02*
X197226187Y-114887019D01*
X197226187Y-114887019D02*
X197321425Y-114696542D01*
X197321425Y-114696542D02*
X197511901Y-114601304D01*
X197511901Y-114601304D02*
X197797616Y-114601304D01*
X197797616Y-114601304D02*
X197988092Y-114696542D01*
X197988092Y-114696542D02*
X198083330Y-114791780D01*
X196273806Y-115934638D02*
X196273806Y-114601304D01*
X196273806Y-114791780D02*
X196178568Y-114696542D01*
X196178568Y-114696542D02*
X195988092Y-114601304D01*
X195988092Y-114601304D02*
X195702377Y-114601304D01*
X195702377Y-114601304D02*
X195511901Y-114696542D01*
X195511901Y-114696542D02*
X195416663Y-114887019D01*
X195416663Y-114887019D02*
X195416663Y-115934638D01*
X195416663Y-114887019D02*
X195321425Y-114696542D01*
X195321425Y-114696542D02*
X195130949Y-114601304D01*
X195130949Y-114601304D02*
X194845235Y-114601304D01*
X194845235Y-114601304D02*
X194654758Y-114696542D01*
X194654758Y-114696542D02*
X194559520Y-114887019D01*
X194559520Y-114887019D02*
X194559520Y-115934638D01*
D10*
X167413220Y-138904819D02*
X167413220Y-137904819D01*
X167413220Y-137904819D02*
X167079887Y-138619104D01*
X167079887Y-138619104D02*
X166746554Y-137904819D01*
X166746554Y-137904819D02*
X166746554Y-138904819D01*
X166270363Y-138904819D02*
X166270363Y-138238152D01*
X166270363Y-137904819D02*
X166317982Y-137952438D01*
X166317982Y-137952438D02*
X166270363Y-138000057D01*
X166270363Y-138000057D02*
X166222744Y-137952438D01*
X166222744Y-137952438D02*
X166270363Y-137904819D01*
X166270363Y-137904819D02*
X166270363Y-138000057D01*
X165794173Y-138238152D02*
X165794173Y-138904819D01*
X165794173Y-138333390D02*
X165746554Y-138285771D01*
X165746554Y-138285771D02*
X165651316Y-138238152D01*
X165651316Y-138238152D02*
X165508459Y-138238152D01*
X165508459Y-138238152D02*
X165413221Y-138285771D01*
X165413221Y-138285771D02*
X165365602Y-138381009D01*
X165365602Y-138381009D02*
X165365602Y-138904819D01*
X164889411Y-138904819D02*
X164889411Y-138238152D01*
X164889411Y-137904819D02*
X164937030Y-137952438D01*
X164937030Y-137952438D02*
X164889411Y-138000057D01*
X164889411Y-138000057D02*
X164841792Y-137952438D01*
X164841792Y-137952438D02*
X164889411Y-137904819D01*
X164889411Y-137904819D02*
X164889411Y-138000057D01*
X164413221Y-138904819D02*
X164413221Y-137904819D01*
X164413221Y-137904819D02*
X164175126Y-137904819D01*
X164175126Y-137904819D02*
X164032269Y-137952438D01*
X164032269Y-137952438D02*
X163937031Y-138047676D01*
X163937031Y-138047676D02*
X163889412Y-138142914D01*
X163889412Y-138142914D02*
X163841793Y-138333390D01*
X163841793Y-138333390D02*
X163841793Y-138476247D01*
X163841793Y-138476247D02*
X163889412Y-138666723D01*
X163889412Y-138666723D02*
X163937031Y-138761961D01*
X163937031Y-138761961D02*
X164032269Y-138857200D01*
X164032269Y-138857200D02*
X164175126Y-138904819D01*
X164175126Y-138904819D02*
X164413221Y-138904819D01*
X163032269Y-138857200D02*
X163127507Y-138904819D01*
X163127507Y-138904819D02*
X163317983Y-138904819D01*
X163317983Y-138904819D02*
X163413221Y-138857200D01*
X163413221Y-138857200D02*
X163460840Y-138761961D01*
X163460840Y-138761961D02*
X163460840Y-138381009D01*
X163460840Y-138381009D02*
X163413221Y-138285771D01*
X163413221Y-138285771D02*
X163317983Y-138238152D01*
X163317983Y-138238152D02*
X163127507Y-138238152D01*
X163127507Y-138238152D02*
X163032269Y-138285771D01*
X163032269Y-138285771D02*
X162984650Y-138381009D01*
X162984650Y-138381009D02*
X162984650Y-138476247D01*
X162984650Y-138476247D02*
X163460840Y-138571485D01*
X162651316Y-138904819D02*
X162127507Y-138238152D01*
X162651316Y-138238152D02*
X162127507Y-138904819D01*
X161365602Y-138857200D02*
X161460840Y-138904819D01*
X161460840Y-138904819D02*
X161651316Y-138904819D01*
X161651316Y-138904819D02*
X161746554Y-138857200D01*
X161746554Y-138857200D02*
X161794173Y-138761961D01*
X161794173Y-138761961D02*
X161794173Y-138381009D01*
X161794173Y-138381009D02*
X161746554Y-138285771D01*
X161746554Y-138285771D02*
X161651316Y-138238152D01*
X161651316Y-138238152D02*
X161460840Y-138238152D01*
X161460840Y-138238152D02*
X161365602Y-138285771D01*
X161365602Y-138285771D02*
X161317983Y-138381009D01*
X161317983Y-138381009D02*
X161317983Y-138476247D01*
X161317983Y-138476247D02*
X161794173Y-138571485D01*
X160460840Y-138904819D02*
X160460840Y-137904819D01*
X160460840Y-138857200D02*
X160556078Y-138904819D01*
X160556078Y-138904819D02*
X160746554Y-138904819D01*
X160746554Y-138904819D02*
X160841792Y-138857200D01*
X160841792Y-138857200D02*
X160889411Y-138809580D01*
X160889411Y-138809580D02*
X160937030Y-138714342D01*
X160937030Y-138714342D02*
X160937030Y-138428628D01*
X160937030Y-138428628D02*
X160889411Y-138333390D01*
X160889411Y-138333390D02*
X160841792Y-138285771D01*
X160841792Y-138285771D02*
X160746554Y-138238152D01*
X160746554Y-138238152D02*
X160556078Y-138238152D01*
X160556078Y-138238152D02*
X160460840Y-138285771D01*
X159222744Y-138904819D02*
X159222744Y-137904819D01*
X159222744Y-137904819D02*
X158841792Y-137904819D01*
X158841792Y-137904819D02*
X158746554Y-137952438D01*
X158746554Y-137952438D02*
X158698935Y-138000057D01*
X158698935Y-138000057D02*
X158651316Y-138095295D01*
X158651316Y-138095295D02*
X158651316Y-138238152D01*
X158651316Y-138238152D02*
X158698935Y-138333390D01*
X158698935Y-138333390D02*
X158746554Y-138381009D01*
X158746554Y-138381009D02*
X158841792Y-138428628D01*
X158841792Y-138428628D02*
X159222744Y-138428628D01*
X157651316Y-138809580D02*
X157698935Y-138857200D01*
X157698935Y-138857200D02*
X157841792Y-138904819D01*
X157841792Y-138904819D02*
X157937030Y-138904819D01*
X157937030Y-138904819D02*
X158079887Y-138857200D01*
X158079887Y-138857200D02*
X158175125Y-138761961D01*
X158175125Y-138761961D02*
X158222744Y-138666723D01*
X158222744Y-138666723D02*
X158270363Y-138476247D01*
X158270363Y-138476247D02*
X158270363Y-138333390D01*
X158270363Y-138333390D02*
X158222744Y-138142914D01*
X158222744Y-138142914D02*
X158175125Y-138047676D01*
X158175125Y-138047676D02*
X158079887Y-137952438D01*
X158079887Y-137952438D02*
X157937030Y-137904819D01*
X157937030Y-137904819D02*
X157841792Y-137904819D01*
X157841792Y-137904819D02*
X157698935Y-137952438D01*
X157698935Y-137952438D02*
X157651316Y-138000057D01*
X156889411Y-138381009D02*
X156746554Y-138428628D01*
X156746554Y-138428628D02*
X156698935Y-138476247D01*
X156698935Y-138476247D02*
X156651316Y-138571485D01*
X156651316Y-138571485D02*
X156651316Y-138714342D01*
X156651316Y-138714342D02*
X156698935Y-138809580D01*
X156698935Y-138809580D02*
X156746554Y-138857200D01*
X156746554Y-138857200D02*
X156841792Y-138904819D01*
X156841792Y-138904819D02*
X157222744Y-138904819D01*
X157222744Y-138904819D02*
X157222744Y-137904819D01*
X157222744Y-137904819D02*
X156889411Y-137904819D01*
X156889411Y-137904819D02*
X156794173Y-137952438D01*
X156794173Y-137952438D02*
X156746554Y-138000057D01*
X156746554Y-138000057D02*
X156698935Y-138095295D01*
X156698935Y-138095295D02*
X156698935Y-138190533D01*
X156698935Y-138190533D02*
X156746554Y-138285771D01*
X156746554Y-138285771D02*
X156794173Y-138333390D01*
X156794173Y-138333390D02*
X156889411Y-138381009D01*
X156889411Y-138381009D02*
X157222744Y-138381009D01*
D11*
X210797619Y-130273923D02*
X209654762Y-130273923D01*
X210226191Y-132273923D02*
X210226191Y-130273923D01*
X208988095Y-132273923D02*
X208988095Y-130940589D01*
X208988095Y-131321542D02*
X208892857Y-131131065D01*
X208892857Y-131131065D02*
X208797619Y-131035827D01*
X208797619Y-131035827D02*
X208607143Y-130940589D01*
X208607143Y-130940589D02*
X208416666Y-130940589D01*
X206892857Y-130940589D02*
X206892857Y-132273923D01*
X207750000Y-130940589D02*
X207750000Y-131988208D01*
X207750000Y-131988208D02*
X207654762Y-132178685D01*
X207654762Y-132178685D02*
X207464286Y-132273923D01*
X207464286Y-132273923D02*
X207178571Y-132273923D01*
X207178571Y-132273923D02*
X206988095Y-132178685D01*
X206988095Y-132178685D02*
X206892857Y-132083446D01*
X206035714Y-132178685D02*
X205845238Y-132273923D01*
X205845238Y-132273923D02*
X205464286Y-132273923D01*
X205464286Y-132273923D02*
X205273809Y-132178685D01*
X205273809Y-132178685D02*
X205178571Y-131988208D01*
X205178571Y-131988208D02*
X205178571Y-131892970D01*
X205178571Y-131892970D02*
X205273809Y-131702494D01*
X205273809Y-131702494D02*
X205464286Y-131607256D01*
X205464286Y-131607256D02*
X205750000Y-131607256D01*
X205750000Y-131607256D02*
X205940476Y-131512018D01*
X205940476Y-131512018D02*
X206035714Y-131321542D01*
X206035714Y-131321542D02*
X206035714Y-131226304D01*
X206035714Y-131226304D02*
X205940476Y-131035827D01*
X205940476Y-131035827D02*
X205750000Y-130940589D01*
X205750000Y-130940589D02*
X205464286Y-130940589D01*
X205464286Y-130940589D02*
X205273809Y-131035827D01*
X204607142Y-130940589D02*
X203845238Y-130940589D01*
X204321428Y-130273923D02*
X204321428Y-131988208D01*
X204321428Y-131988208D02*
X204226190Y-132178685D01*
X204226190Y-132178685D02*
X204035714Y-132273923D01*
X204035714Y-132273923D02*
X203845238Y-132273923D01*
X201940475Y-130940589D02*
X201178571Y-130940589D01*
X201654761Y-130273923D02*
X201654761Y-131988208D01*
X201654761Y-131988208D02*
X201559523Y-132178685D01*
X201559523Y-132178685D02*
X201369047Y-132273923D01*
X201369047Y-132273923D02*
X201178571Y-132273923D01*
X200511904Y-132273923D02*
X200511904Y-130273923D01*
X199654761Y-132273923D02*
X199654761Y-131226304D01*
X199654761Y-131226304D02*
X199749999Y-131035827D01*
X199749999Y-131035827D02*
X199940475Y-130940589D01*
X199940475Y-130940589D02*
X200226190Y-130940589D01*
X200226190Y-130940589D02*
X200416666Y-131035827D01*
X200416666Y-131035827D02*
X200511904Y-131131065D01*
X197940475Y-132178685D02*
X198130951Y-132273923D01*
X198130951Y-132273923D02*
X198511904Y-132273923D01*
X198511904Y-132273923D02*
X198702380Y-132178685D01*
X198702380Y-132178685D02*
X198797618Y-131988208D01*
X198797618Y-131988208D02*
X198797618Y-131226304D01*
X198797618Y-131226304D02*
X198702380Y-131035827D01*
X198702380Y-131035827D02*
X198511904Y-130940589D01*
X198511904Y-130940589D02*
X198130951Y-130940589D01*
X198130951Y-130940589D02*
X197940475Y-131035827D01*
X197940475Y-131035827D02*
X197845237Y-131226304D01*
X197845237Y-131226304D02*
X197845237Y-131416780D01*
X197845237Y-131416780D02*
X198797618Y-131607256D01*
X194607141Y-132273923D02*
X194607141Y-131226304D01*
X194607141Y-131226304D02*
X194702379Y-131035827D01*
X194702379Y-131035827D02*
X194892855Y-130940589D01*
X194892855Y-130940589D02*
X195273808Y-130940589D01*
X195273808Y-130940589D02*
X195464284Y-131035827D01*
X194607141Y-132178685D02*
X194797617Y-132273923D01*
X194797617Y-132273923D02*
X195273808Y-132273923D01*
X195273808Y-132273923D02*
X195464284Y-132178685D01*
X195464284Y-132178685D02*
X195559522Y-131988208D01*
X195559522Y-131988208D02*
X195559522Y-131797732D01*
X195559522Y-131797732D02*
X195464284Y-131607256D01*
X195464284Y-131607256D02*
X195273808Y-131512018D01*
X195273808Y-131512018D02*
X194797617Y-131512018D01*
X194797617Y-131512018D02*
X194607141Y-131416780D01*
X193369046Y-132273923D02*
X193559522Y-132178685D01*
X193559522Y-132178685D02*
X193654760Y-131988208D01*
X193654760Y-131988208D02*
X193654760Y-130273923D01*
X191749998Y-130940589D02*
X191749998Y-132559637D01*
X191749998Y-132559637D02*
X191845236Y-132750113D01*
X191845236Y-132750113D02*
X191940474Y-132845351D01*
X191940474Y-132845351D02*
X192130951Y-132940589D01*
X192130951Y-132940589D02*
X192416665Y-132940589D01*
X192416665Y-132940589D02*
X192607141Y-132845351D01*
X191749998Y-132178685D02*
X191940474Y-132273923D01*
X191940474Y-132273923D02*
X192321427Y-132273923D01*
X192321427Y-132273923D02*
X192511903Y-132178685D01*
X192511903Y-132178685D02*
X192607141Y-132083446D01*
X192607141Y-132083446D02*
X192702379Y-131892970D01*
X192702379Y-131892970D02*
X192702379Y-131321542D01*
X192702379Y-131321542D02*
X192607141Y-131131065D01*
X192607141Y-131131065D02*
X192511903Y-131035827D01*
X192511903Y-131035827D02*
X192321427Y-130940589D01*
X192321427Y-130940589D02*
X191940474Y-130940589D01*
X191940474Y-130940589D02*
X191749998Y-131035827D01*
X190511903Y-132273923D02*
X190702379Y-132178685D01*
X190702379Y-132178685D02*
X190797617Y-132083446D01*
X190797617Y-132083446D02*
X190892855Y-131892970D01*
X190892855Y-131892970D02*
X190892855Y-131321542D01*
X190892855Y-131321542D02*
X190797617Y-131131065D01*
X190797617Y-131131065D02*
X190702379Y-131035827D01*
X190702379Y-131035827D02*
X190511903Y-130940589D01*
X190511903Y-130940589D02*
X190226188Y-130940589D01*
X190226188Y-130940589D02*
X190035712Y-131035827D01*
X190035712Y-131035827D02*
X189940474Y-131131065D01*
X189940474Y-131131065D02*
X189845236Y-131321542D01*
X189845236Y-131321542D02*
X189845236Y-131892970D01*
X189845236Y-131892970D02*
X189940474Y-132083446D01*
X189940474Y-132083446D02*
X190035712Y-132178685D01*
X190035712Y-132178685D02*
X190226188Y-132273923D01*
X190226188Y-132273923D02*
X190511903Y-132273923D01*
X188988093Y-132273923D02*
X188988093Y-130940589D01*
X188988093Y-131321542D02*
X188892855Y-131131065D01*
X188892855Y-131131065D02*
X188797617Y-131035827D01*
X188797617Y-131035827D02*
X188607141Y-130940589D01*
X188607141Y-130940589D02*
X188416664Y-130940589D01*
X187749998Y-132273923D02*
X187749998Y-130940589D01*
X187749998Y-130273923D02*
X187845236Y-130369161D01*
X187845236Y-130369161D02*
X187749998Y-130464399D01*
X187749998Y-130464399D02*
X187654760Y-130369161D01*
X187654760Y-130369161D02*
X187749998Y-130273923D01*
X187749998Y-130273923D02*
X187749998Y-130464399D01*
X187083331Y-130940589D02*
X186321427Y-130940589D01*
X186797617Y-130273923D02*
X186797617Y-131988208D01*
X186797617Y-131988208D02*
X186702379Y-132178685D01*
X186702379Y-132178685D02*
X186511903Y-132273923D01*
X186511903Y-132273923D02*
X186321427Y-132273923D01*
X185654760Y-132273923D02*
X185654760Y-130273923D01*
X184797617Y-132273923D02*
X184797617Y-131226304D01*
X184797617Y-131226304D02*
X184892855Y-131035827D01*
X184892855Y-131035827D02*
X185083331Y-130940589D01*
X185083331Y-130940589D02*
X185369046Y-130940589D01*
X185369046Y-130940589D02*
X185559522Y-131035827D01*
X185559522Y-131035827D02*
X185654760Y-131131065D01*
X183845236Y-132273923D02*
X183845236Y-130940589D01*
X183845236Y-131131065D02*
X183749998Y-131035827D01*
X183749998Y-131035827D02*
X183559522Y-130940589D01*
X183559522Y-130940589D02*
X183273807Y-130940589D01*
X183273807Y-130940589D02*
X183083331Y-131035827D01*
X183083331Y-131035827D02*
X182988093Y-131226304D01*
X182988093Y-131226304D02*
X182988093Y-132273923D01*
X182988093Y-131226304D02*
X182892855Y-131035827D01*
X182892855Y-131035827D02*
X182702379Y-130940589D01*
X182702379Y-130940589D02*
X182416665Y-130940589D01*
X182416665Y-130940589D02*
X182226188Y-131035827D01*
X182226188Y-131035827D02*
X182130950Y-131226304D01*
X182130950Y-131226304D02*
X182130950Y-132273923D01*
D10*
X124704819Y-66463023D02*
X124228628Y-66129690D01*
X124704819Y-65891595D02*
X123704819Y-65891595D01*
X123704819Y-65891595D02*
X123704819Y-66272547D01*
X123704819Y-66272547D02*
X123752438Y-66367785D01*
X123752438Y-66367785D02*
X123800057Y-66415404D01*
X123800057Y-66415404D02*
X123895295Y-66463023D01*
X123895295Y-66463023D02*
X124038152Y-66463023D01*
X124038152Y-66463023D02*
X124133390Y-66415404D01*
X124133390Y-66415404D02*
X124181009Y-66367785D01*
X124181009Y-66367785D02*
X124228628Y-66272547D01*
X124228628Y-66272547D02*
X124228628Y-65891595D01*
X142204819Y-66463023D02*
X141728628Y-66129690D01*
X142204819Y-65891595D02*
X141204819Y-65891595D01*
X141204819Y-65891595D02*
X141204819Y-66272547D01*
X141204819Y-66272547D02*
X141252438Y-66367785D01*
X141252438Y-66367785D02*
X141300057Y-66415404D01*
X141300057Y-66415404D02*
X141395295Y-66463023D01*
X141395295Y-66463023D02*
X141538152Y-66463023D01*
X141538152Y-66463023D02*
X141633390Y-66415404D01*
X141633390Y-66415404D02*
X141681009Y-66367785D01*
X141681009Y-66367785D02*
X141728628Y-66272547D01*
X141728628Y-66272547D02*
X141728628Y-65891595D01*
X109204819Y-66463023D02*
X108728628Y-66129690D01*
X109204819Y-65891595D02*
X108204819Y-65891595D01*
X108204819Y-65891595D02*
X108204819Y-66272547D01*
X108204819Y-66272547D02*
X108252438Y-66367785D01*
X108252438Y-66367785D02*
X108300057Y-66415404D01*
X108300057Y-66415404D02*
X108395295Y-66463023D01*
X108395295Y-66463023D02*
X108538152Y-66463023D01*
X108538152Y-66463023D02*
X108633390Y-66415404D01*
X108633390Y-66415404D02*
X108681009Y-66367785D01*
X108681009Y-66367785D02*
X108728628Y-66272547D01*
X108728628Y-66272547D02*
X108728628Y-65891595D01*
X157704819Y-66463023D02*
X157228628Y-66129690D01*
X157704819Y-65891595D02*
X156704819Y-65891595D01*
X156704819Y-65891595D02*
X156704819Y-66272547D01*
X156704819Y-66272547D02*
X156752438Y-66367785D01*
X156752438Y-66367785D02*
X156800057Y-66415404D01*
X156800057Y-66415404D02*
X156895295Y-66463023D01*
X156895295Y-66463023D02*
X157038152Y-66463023D01*
X157038152Y-66463023D02*
X157133390Y-66415404D01*
X157133390Y-66415404D02*
X157181009Y-66367785D01*
X157181009Y-66367785D02*
X157228628Y-66272547D01*
X157228628Y-66272547D02*
X157228628Y-65891595D01*
X153054819Y-86738095D02*
X153864342Y-86738095D01*
X153864342Y-86738095D02*
X153959580Y-86785714D01*
X153959580Y-86785714D02*
X154007200Y-86833333D01*
X154007200Y-86833333D02*
X154054819Y-86928571D01*
X154054819Y-86928571D02*
X154054819Y-87119047D01*
X154054819Y-87119047D02*
X154007200Y-87214285D01*
X154007200Y-87214285D02*
X153959580Y-87261904D01*
X153959580Y-87261904D02*
X153864342Y-87309523D01*
X153864342Y-87309523D02*
X153054819Y-87309523D01*
X153150057Y-87738095D02*
X153102438Y-87785714D01*
X153102438Y-87785714D02*
X153054819Y-87880952D01*
X153054819Y-87880952D02*
X153054819Y-88119047D01*
X153054819Y-88119047D02*
X153102438Y-88214285D01*
X153102438Y-88214285D02*
X153150057Y-88261904D01*
X153150057Y-88261904D02*
X153245295Y-88309523D01*
X153245295Y-88309523D02*
X153340533Y-88309523D01*
X153340533Y-88309523D02*
X153483390Y-88261904D01*
X153483390Y-88261904D02*
X154054819Y-87690476D01*
X154054819Y-87690476D02*
X154054819Y-88309523D01*
X141861904Y-87454819D02*
X141290476Y-87454819D01*
X141576190Y-88454819D02*
X141576190Y-87454819D01*
X140957142Y-88454819D02*
X140957142Y-87454819D01*
X140957142Y-87454819D02*
X140576190Y-87454819D01*
X140576190Y-87454819D02*
X140480952Y-87502438D01*
X140480952Y-87502438D02*
X140433333Y-87550057D01*
X140433333Y-87550057D02*
X140385714Y-87645295D01*
X140385714Y-87645295D02*
X140385714Y-87788152D01*
X140385714Y-87788152D02*
X140433333Y-87883390D01*
X140433333Y-87883390D02*
X140480952Y-87931009D01*
X140480952Y-87931009D02*
X140576190Y-87978628D01*
X140576190Y-87978628D02*
X140957142Y-87978628D01*
X139814285Y-87883390D02*
X139909523Y-87835771D01*
X139909523Y-87835771D02*
X139957142Y-87788152D01*
X139957142Y-87788152D02*
X140004761Y-87692914D01*
X140004761Y-87692914D02*
X140004761Y-87645295D01*
X140004761Y-87645295D02*
X139957142Y-87550057D01*
X139957142Y-87550057D02*
X139909523Y-87502438D01*
X139909523Y-87502438D02*
X139814285Y-87454819D01*
X139814285Y-87454819D02*
X139623809Y-87454819D01*
X139623809Y-87454819D02*
X139528571Y-87502438D01*
X139528571Y-87502438D02*
X139480952Y-87550057D01*
X139480952Y-87550057D02*
X139433333Y-87645295D01*
X139433333Y-87645295D02*
X139433333Y-87692914D01*
X139433333Y-87692914D02*
X139480952Y-87788152D01*
X139480952Y-87788152D02*
X139528571Y-87835771D01*
X139528571Y-87835771D02*
X139623809Y-87883390D01*
X139623809Y-87883390D02*
X139814285Y-87883390D01*
X139814285Y-87883390D02*
X139909523Y-87931009D01*
X139909523Y-87931009D02*
X139957142Y-87978628D01*
X139957142Y-87978628D02*
X140004761Y-88073866D01*
X140004761Y-88073866D02*
X140004761Y-88264342D01*
X140004761Y-88264342D02*
X139957142Y-88359580D01*
X139957142Y-88359580D02*
X139909523Y-88407200D01*
X139909523Y-88407200D02*
X139814285Y-88454819D01*
X139814285Y-88454819D02*
X139623809Y-88454819D01*
X139623809Y-88454819D02*
X139528571Y-88407200D01*
X139528571Y-88407200D02*
X139480952Y-88359580D01*
X139480952Y-88359580D02*
X139433333Y-88264342D01*
X139433333Y-88264342D02*
X139433333Y-88073866D01*
X139433333Y-88073866D02*
X139480952Y-87978628D01*
X139480952Y-87978628D02*
X139528571Y-87931009D01*
X139528571Y-87931009D02*
X139623809Y-87883390D01*
X130559580Y-92157142D02*
X130607200Y-92109523D01*
X130607200Y-92109523D02*
X130654819Y-91966666D01*
X130654819Y-91966666D02*
X130654819Y-91871428D01*
X130654819Y-91871428D02*
X130607200Y-91728571D01*
X130607200Y-91728571D02*
X130511961Y-91633333D01*
X130511961Y-91633333D02*
X130416723Y-91585714D01*
X130416723Y-91585714D02*
X130226247Y-91538095D01*
X130226247Y-91538095D02*
X130083390Y-91538095D01*
X130083390Y-91538095D02*
X129892914Y-91585714D01*
X129892914Y-91585714D02*
X129797676Y-91633333D01*
X129797676Y-91633333D02*
X129702438Y-91728571D01*
X129702438Y-91728571D02*
X129654819Y-91871428D01*
X129654819Y-91871428D02*
X129654819Y-91966666D01*
X129654819Y-91966666D02*
X129702438Y-92109523D01*
X129702438Y-92109523D02*
X129750057Y-92157142D01*
X130654819Y-93109523D02*
X130654819Y-92538095D01*
X130654819Y-92823809D02*
X129654819Y-92823809D01*
X129654819Y-92823809D02*
X129797676Y-92728571D01*
X129797676Y-92728571D02*
X129892914Y-92633333D01*
X129892914Y-92633333D02*
X129940533Y-92538095D01*
X129654819Y-93966666D02*
X129654819Y-93776190D01*
X129654819Y-93776190D02*
X129702438Y-93680952D01*
X129702438Y-93680952D02*
X129750057Y-93633333D01*
X129750057Y-93633333D02*
X129892914Y-93538095D01*
X129892914Y-93538095D02*
X130083390Y-93490476D01*
X130083390Y-93490476D02*
X130464342Y-93490476D01*
X130464342Y-93490476D02*
X130559580Y-93538095D01*
X130559580Y-93538095D02*
X130607200Y-93585714D01*
X130607200Y-93585714D02*
X130654819Y-93680952D01*
X130654819Y-93680952D02*
X130654819Y-93871428D01*
X130654819Y-93871428D02*
X130607200Y-93966666D01*
X130607200Y-93966666D02*
X130559580Y-94014285D01*
X130559580Y-94014285D02*
X130464342Y-94061904D01*
X130464342Y-94061904D02*
X130226247Y-94061904D01*
X130226247Y-94061904D02*
X130131009Y-94014285D01*
X130131009Y-94014285D02*
X130083390Y-93966666D01*
X130083390Y-93966666D02*
X130035771Y-93871428D01*
X130035771Y-93871428D02*
X130035771Y-93680952D01*
X130035771Y-93680952D02*
X130083390Y-93585714D01*
X130083390Y-93585714D02*
X130131009Y-93538095D01*
X130131009Y-93538095D02*
X130226247Y-93490476D01*
X162059580Y-78995833D02*
X162107200Y-78948214D01*
X162107200Y-78948214D02*
X162154819Y-78805357D01*
X162154819Y-78805357D02*
X162154819Y-78710119D01*
X162154819Y-78710119D02*
X162107200Y-78567262D01*
X162107200Y-78567262D02*
X162011961Y-78472024D01*
X162011961Y-78472024D02*
X161916723Y-78424405D01*
X161916723Y-78424405D02*
X161726247Y-78376786D01*
X161726247Y-78376786D02*
X161583390Y-78376786D01*
X161583390Y-78376786D02*
X161392914Y-78424405D01*
X161392914Y-78424405D02*
X161297676Y-78472024D01*
X161297676Y-78472024D02*
X161202438Y-78567262D01*
X161202438Y-78567262D02*
X161154819Y-78710119D01*
X161154819Y-78710119D02*
X161154819Y-78805357D01*
X161154819Y-78805357D02*
X161202438Y-78948214D01*
X161202438Y-78948214D02*
X161250057Y-78995833D01*
X161154819Y-79329167D02*
X161154819Y-79995833D01*
X161154819Y-79995833D02*
X162154819Y-79567262D01*
X190049819Y-110033333D02*
X189573628Y-109700000D01*
X190049819Y-109461905D02*
X189049819Y-109461905D01*
X189049819Y-109461905D02*
X189049819Y-109842857D01*
X189049819Y-109842857D02*
X189097438Y-109938095D01*
X189097438Y-109938095D02*
X189145057Y-109985714D01*
X189145057Y-109985714D02*
X189240295Y-110033333D01*
X189240295Y-110033333D02*
X189383152Y-110033333D01*
X189383152Y-110033333D02*
X189478390Y-109985714D01*
X189478390Y-109985714D02*
X189526009Y-109938095D01*
X189526009Y-109938095D02*
X189573628Y-109842857D01*
X189573628Y-109842857D02*
X189573628Y-109461905D01*
X189049819Y-110938095D02*
X189049819Y-110461905D01*
X189049819Y-110461905D02*
X189526009Y-110414286D01*
X189526009Y-110414286D02*
X189478390Y-110461905D01*
X189478390Y-110461905D02*
X189430771Y-110557143D01*
X189430771Y-110557143D02*
X189430771Y-110795238D01*
X189430771Y-110795238D02*
X189478390Y-110890476D01*
X189478390Y-110890476D02*
X189526009Y-110938095D01*
X189526009Y-110938095D02*
X189621247Y-110985714D01*
X189621247Y-110985714D02*
X189859342Y-110985714D01*
X189859342Y-110985714D02*
X189954580Y-110938095D01*
X189954580Y-110938095D02*
X190002200Y-110890476D01*
X190002200Y-110890476D02*
X190049819Y-110795238D01*
X190049819Y-110795238D02*
X190049819Y-110557143D01*
X190049819Y-110557143D02*
X190002200Y-110461905D01*
X190002200Y-110461905D02*
X189954580Y-110414286D01*
X102134819Y-73833333D02*
X101658628Y-73500000D01*
X102134819Y-73261905D02*
X101134819Y-73261905D01*
X101134819Y-73261905D02*
X101134819Y-73642857D01*
X101134819Y-73642857D02*
X101182438Y-73738095D01*
X101182438Y-73738095D02*
X101230057Y-73785714D01*
X101230057Y-73785714D02*
X101325295Y-73833333D01*
X101325295Y-73833333D02*
X101468152Y-73833333D01*
X101468152Y-73833333D02*
X101563390Y-73785714D01*
X101563390Y-73785714D02*
X101611009Y-73738095D01*
X101611009Y-73738095D02*
X101658628Y-73642857D01*
X101658628Y-73642857D02*
X101658628Y-73261905D01*
X101134819Y-74690476D02*
X101134819Y-74500000D01*
X101134819Y-74500000D02*
X101182438Y-74404762D01*
X101182438Y-74404762D02*
X101230057Y-74357143D01*
X101230057Y-74357143D02*
X101372914Y-74261905D01*
X101372914Y-74261905D02*
X101563390Y-74214286D01*
X101563390Y-74214286D02*
X101944342Y-74214286D01*
X101944342Y-74214286D02*
X102039580Y-74261905D01*
X102039580Y-74261905D02*
X102087200Y-74309524D01*
X102087200Y-74309524D02*
X102134819Y-74404762D01*
X102134819Y-74404762D02*
X102134819Y-74595238D01*
X102134819Y-74595238D02*
X102087200Y-74690476D01*
X102087200Y-74690476D02*
X102039580Y-74738095D01*
X102039580Y-74738095D02*
X101944342Y-74785714D01*
X101944342Y-74785714D02*
X101706247Y-74785714D01*
X101706247Y-74785714D02*
X101611009Y-74738095D01*
X101611009Y-74738095D02*
X101563390Y-74690476D01*
X101563390Y-74690476D02*
X101515771Y-74595238D01*
X101515771Y-74595238D02*
X101515771Y-74404762D01*
X101515771Y-74404762D02*
X101563390Y-74309524D01*
X101563390Y-74309524D02*
X101611009Y-74261905D01*
X101611009Y-74261905D02*
X101706247Y-74214286D01*
X147279580Y-72419642D02*
X147327200Y-72372023D01*
X147327200Y-72372023D02*
X147374819Y-72229166D01*
X147374819Y-72229166D02*
X147374819Y-72133928D01*
X147374819Y-72133928D02*
X147327200Y-71991071D01*
X147327200Y-71991071D02*
X147231961Y-71895833D01*
X147231961Y-71895833D02*
X147136723Y-71848214D01*
X147136723Y-71848214D02*
X146946247Y-71800595D01*
X146946247Y-71800595D02*
X146803390Y-71800595D01*
X146803390Y-71800595D02*
X146612914Y-71848214D01*
X146612914Y-71848214D02*
X146517676Y-71895833D01*
X146517676Y-71895833D02*
X146422438Y-71991071D01*
X146422438Y-71991071D02*
X146374819Y-72133928D01*
X146374819Y-72133928D02*
X146374819Y-72229166D01*
X146374819Y-72229166D02*
X146422438Y-72372023D01*
X146422438Y-72372023D02*
X146470057Y-72419642D01*
X147374819Y-73372023D02*
X147374819Y-72800595D01*
X147374819Y-73086309D02*
X146374819Y-73086309D01*
X146374819Y-73086309D02*
X146517676Y-72991071D01*
X146517676Y-72991071D02*
X146612914Y-72895833D01*
X146612914Y-72895833D02*
X146660533Y-72800595D01*
X146374819Y-74276785D02*
X146374819Y-73800595D01*
X146374819Y-73800595D02*
X146851009Y-73752976D01*
X146851009Y-73752976D02*
X146803390Y-73800595D01*
X146803390Y-73800595D02*
X146755771Y-73895833D01*
X146755771Y-73895833D02*
X146755771Y-74133928D01*
X146755771Y-74133928D02*
X146803390Y-74229166D01*
X146803390Y-74229166D02*
X146851009Y-74276785D01*
X146851009Y-74276785D02*
X146946247Y-74324404D01*
X146946247Y-74324404D02*
X147184342Y-74324404D01*
X147184342Y-74324404D02*
X147279580Y-74276785D01*
X147279580Y-74276785D02*
X147327200Y-74229166D01*
X147327200Y-74229166D02*
X147374819Y-74133928D01*
X147374819Y-74133928D02*
X147374819Y-73895833D01*
X147374819Y-73895833D02*
X147327200Y-73800595D01*
X147327200Y-73800595D02*
X147279580Y-73752976D01*
X214559580Y-97269642D02*
X214607200Y-97222023D01*
X214607200Y-97222023D02*
X214654819Y-97079166D01*
X214654819Y-97079166D02*
X214654819Y-96983928D01*
X214654819Y-96983928D02*
X214607200Y-96841071D01*
X214607200Y-96841071D02*
X214511961Y-96745833D01*
X214511961Y-96745833D02*
X214416723Y-96698214D01*
X214416723Y-96698214D02*
X214226247Y-96650595D01*
X214226247Y-96650595D02*
X214083390Y-96650595D01*
X214083390Y-96650595D02*
X213892914Y-96698214D01*
X213892914Y-96698214D02*
X213797676Y-96745833D01*
X213797676Y-96745833D02*
X213702438Y-96841071D01*
X213702438Y-96841071D02*
X213654819Y-96983928D01*
X213654819Y-96983928D02*
X213654819Y-97079166D01*
X213654819Y-97079166D02*
X213702438Y-97222023D01*
X213702438Y-97222023D02*
X213750057Y-97269642D01*
X214654819Y-98222023D02*
X214654819Y-97650595D01*
X214654819Y-97936309D02*
X213654819Y-97936309D01*
X213654819Y-97936309D02*
X213797676Y-97841071D01*
X213797676Y-97841071D02*
X213892914Y-97745833D01*
X213892914Y-97745833D02*
X213940533Y-97650595D01*
X214654819Y-99174404D02*
X214654819Y-98602976D01*
X214654819Y-98888690D02*
X213654819Y-98888690D01*
X213654819Y-98888690D02*
X213797676Y-98793452D01*
X213797676Y-98793452D02*
X213892914Y-98698214D01*
X213892914Y-98698214D02*
X213940533Y-98602976D01*
X214539580Y-90169642D02*
X214587200Y-90122023D01*
X214587200Y-90122023D02*
X214634819Y-89979166D01*
X214634819Y-89979166D02*
X214634819Y-89883928D01*
X214634819Y-89883928D02*
X214587200Y-89741071D01*
X214587200Y-89741071D02*
X214491961Y-89645833D01*
X214491961Y-89645833D02*
X214396723Y-89598214D01*
X214396723Y-89598214D02*
X214206247Y-89550595D01*
X214206247Y-89550595D02*
X214063390Y-89550595D01*
X214063390Y-89550595D02*
X213872914Y-89598214D01*
X213872914Y-89598214D02*
X213777676Y-89645833D01*
X213777676Y-89645833D02*
X213682438Y-89741071D01*
X213682438Y-89741071D02*
X213634819Y-89883928D01*
X213634819Y-89883928D02*
X213634819Y-89979166D01*
X213634819Y-89979166D02*
X213682438Y-90122023D01*
X213682438Y-90122023D02*
X213730057Y-90169642D01*
X214634819Y-91122023D02*
X214634819Y-90550595D01*
X214634819Y-90836309D02*
X213634819Y-90836309D01*
X213634819Y-90836309D02*
X213777676Y-90741071D01*
X213777676Y-90741071D02*
X213872914Y-90645833D01*
X213872914Y-90645833D02*
X213920533Y-90550595D01*
X213730057Y-91502976D02*
X213682438Y-91550595D01*
X213682438Y-91550595D02*
X213634819Y-91645833D01*
X213634819Y-91645833D02*
X213634819Y-91883928D01*
X213634819Y-91883928D02*
X213682438Y-91979166D01*
X213682438Y-91979166D02*
X213730057Y-92026785D01*
X213730057Y-92026785D02*
X213825295Y-92074404D01*
X213825295Y-92074404D02*
X213920533Y-92074404D01*
X213920533Y-92074404D02*
X214063390Y-92026785D01*
X214063390Y-92026785D02*
X214634819Y-91455357D01*
X214634819Y-91455357D02*
X214634819Y-92074404D01*
X165659580Y-78519642D02*
X165707200Y-78472023D01*
X165707200Y-78472023D02*
X165754819Y-78329166D01*
X165754819Y-78329166D02*
X165754819Y-78233928D01*
X165754819Y-78233928D02*
X165707200Y-78091071D01*
X165707200Y-78091071D02*
X165611961Y-77995833D01*
X165611961Y-77995833D02*
X165516723Y-77948214D01*
X165516723Y-77948214D02*
X165326247Y-77900595D01*
X165326247Y-77900595D02*
X165183390Y-77900595D01*
X165183390Y-77900595D02*
X164992914Y-77948214D01*
X164992914Y-77948214D02*
X164897676Y-77995833D01*
X164897676Y-77995833D02*
X164802438Y-78091071D01*
X164802438Y-78091071D02*
X164754819Y-78233928D01*
X164754819Y-78233928D02*
X164754819Y-78329166D01*
X164754819Y-78329166D02*
X164802438Y-78472023D01*
X164802438Y-78472023D02*
X164850057Y-78519642D01*
X165754819Y-79472023D02*
X165754819Y-78900595D01*
X165754819Y-79186309D02*
X164754819Y-79186309D01*
X164754819Y-79186309D02*
X164897676Y-79091071D01*
X164897676Y-79091071D02*
X164992914Y-78995833D01*
X164992914Y-78995833D02*
X165040533Y-78900595D01*
X164754819Y-80091071D02*
X164754819Y-80186309D01*
X164754819Y-80186309D02*
X164802438Y-80281547D01*
X164802438Y-80281547D02*
X164850057Y-80329166D01*
X164850057Y-80329166D02*
X164945295Y-80376785D01*
X164945295Y-80376785D02*
X165135771Y-80424404D01*
X165135771Y-80424404D02*
X165373866Y-80424404D01*
X165373866Y-80424404D02*
X165564342Y-80376785D01*
X165564342Y-80376785D02*
X165659580Y-80329166D01*
X165659580Y-80329166D02*
X165707200Y-80281547D01*
X165707200Y-80281547D02*
X165754819Y-80186309D01*
X165754819Y-80186309D02*
X165754819Y-80091071D01*
X165754819Y-80091071D02*
X165707200Y-79995833D01*
X165707200Y-79995833D02*
X165659580Y-79948214D01*
X165659580Y-79948214D02*
X165564342Y-79900595D01*
X165564342Y-79900595D02*
X165373866Y-79852976D01*
X165373866Y-79852976D02*
X165135771Y-79852976D01*
X165135771Y-79852976D02*
X164945295Y-79900595D01*
X164945295Y-79900595D02*
X164850057Y-79948214D01*
X164850057Y-79948214D02*
X164802438Y-79995833D01*
X164802438Y-79995833D02*
X164754819Y-80091071D01*
X168474819Y-91583333D02*
X167998628Y-91250000D01*
X168474819Y-91011905D02*
X167474819Y-91011905D01*
X167474819Y-91011905D02*
X167474819Y-91392857D01*
X167474819Y-91392857D02*
X167522438Y-91488095D01*
X167522438Y-91488095D02*
X167570057Y-91535714D01*
X167570057Y-91535714D02*
X167665295Y-91583333D01*
X167665295Y-91583333D02*
X167808152Y-91583333D01*
X167808152Y-91583333D02*
X167903390Y-91535714D01*
X167903390Y-91535714D02*
X167951009Y-91488095D01*
X167951009Y-91488095D02*
X167998628Y-91392857D01*
X167998628Y-91392857D02*
X167998628Y-91011905D01*
X167903390Y-92154762D02*
X167855771Y-92059524D01*
X167855771Y-92059524D02*
X167808152Y-92011905D01*
X167808152Y-92011905D02*
X167712914Y-91964286D01*
X167712914Y-91964286D02*
X167665295Y-91964286D01*
X167665295Y-91964286D02*
X167570057Y-92011905D01*
X167570057Y-92011905D02*
X167522438Y-92059524D01*
X167522438Y-92059524D02*
X167474819Y-92154762D01*
X167474819Y-92154762D02*
X167474819Y-92345238D01*
X167474819Y-92345238D02*
X167522438Y-92440476D01*
X167522438Y-92440476D02*
X167570057Y-92488095D01*
X167570057Y-92488095D02*
X167665295Y-92535714D01*
X167665295Y-92535714D02*
X167712914Y-92535714D01*
X167712914Y-92535714D02*
X167808152Y-92488095D01*
X167808152Y-92488095D02*
X167855771Y-92440476D01*
X167855771Y-92440476D02*
X167903390Y-92345238D01*
X167903390Y-92345238D02*
X167903390Y-92154762D01*
X167903390Y-92154762D02*
X167951009Y-92059524D01*
X167951009Y-92059524D02*
X167998628Y-92011905D01*
X167998628Y-92011905D02*
X168093866Y-91964286D01*
X168093866Y-91964286D02*
X168284342Y-91964286D01*
X168284342Y-91964286D02*
X168379580Y-92011905D01*
X168379580Y-92011905D02*
X168427200Y-92059524D01*
X168427200Y-92059524D02*
X168474819Y-92154762D01*
X168474819Y-92154762D02*
X168474819Y-92345238D01*
X168474819Y-92345238D02*
X168427200Y-92440476D01*
X168427200Y-92440476D02*
X168379580Y-92488095D01*
X168379580Y-92488095D02*
X168284342Y-92535714D01*
X168284342Y-92535714D02*
X168093866Y-92535714D01*
X168093866Y-92535714D02*
X167998628Y-92488095D01*
X167998628Y-92488095D02*
X167951009Y-92440476D01*
X167951009Y-92440476D02*
X167903390Y-92345238D01*
X116980219Y-97065542D02*
X116504028Y-96732209D01*
X116980219Y-96494114D02*
X115980219Y-96494114D01*
X115980219Y-96494114D02*
X115980219Y-96875066D01*
X115980219Y-96875066D02*
X116027838Y-96970304D01*
X116027838Y-96970304D02*
X116075457Y-97017923D01*
X116075457Y-97017923D02*
X116170695Y-97065542D01*
X116170695Y-97065542D02*
X116313552Y-97065542D01*
X116313552Y-97065542D02*
X116408790Y-97017923D01*
X116408790Y-97017923D02*
X116456409Y-96970304D01*
X116456409Y-96970304D02*
X116504028Y-96875066D01*
X116504028Y-96875066D02*
X116504028Y-96494114D01*
X116980219Y-98017923D02*
X116980219Y-97446495D01*
X116980219Y-97732209D02*
X115980219Y-97732209D01*
X115980219Y-97732209D02*
X116123076Y-97636971D01*
X116123076Y-97636971D02*
X116218314Y-97541733D01*
X116218314Y-97541733D02*
X116265933Y-97446495D01*
X116075457Y-98398876D02*
X116027838Y-98446495D01*
X116027838Y-98446495D02*
X115980219Y-98541733D01*
X115980219Y-98541733D02*
X115980219Y-98779828D01*
X115980219Y-98779828D02*
X116027838Y-98875066D01*
X116027838Y-98875066D02*
X116075457Y-98922685D01*
X116075457Y-98922685D02*
X116170695Y-98970304D01*
X116170695Y-98970304D02*
X116265933Y-98970304D01*
X116265933Y-98970304D02*
X116408790Y-98922685D01*
X116408790Y-98922685D02*
X116980219Y-98351257D01*
X116980219Y-98351257D02*
X116980219Y-98970304D01*
X128721859Y-72407142D02*
X128245668Y-72073809D01*
X128721859Y-71835714D02*
X127721859Y-71835714D01*
X127721859Y-71835714D02*
X127721859Y-72216666D01*
X127721859Y-72216666D02*
X127769478Y-72311904D01*
X127769478Y-72311904D02*
X127817097Y-72359523D01*
X127817097Y-72359523D02*
X127912335Y-72407142D01*
X127912335Y-72407142D02*
X128055192Y-72407142D01*
X128055192Y-72407142D02*
X128150430Y-72359523D01*
X128150430Y-72359523D02*
X128198049Y-72311904D01*
X128198049Y-72311904D02*
X128245668Y-72216666D01*
X128245668Y-72216666D02*
X128245668Y-71835714D01*
X128721859Y-73359523D02*
X128721859Y-72788095D01*
X128721859Y-73073809D02*
X127721859Y-73073809D01*
X127721859Y-73073809D02*
X127864716Y-72978571D01*
X127864716Y-72978571D02*
X127959954Y-72883333D01*
X127959954Y-72883333D02*
X128007573Y-72788095D01*
X128055192Y-74216666D02*
X128721859Y-74216666D01*
X127674240Y-73978571D02*
X128388525Y-73740476D01*
X128388525Y-73740476D02*
X128388525Y-74359523D01*
X142734504Y-81439419D02*
X142163076Y-81439419D01*
X142448790Y-82439419D02*
X142448790Y-81439419D01*
X141829742Y-82439419D02*
X141829742Y-81439419D01*
X141829742Y-81439419D02*
X141448790Y-81439419D01*
X141448790Y-81439419D02*
X141353552Y-81487038D01*
X141353552Y-81487038D02*
X141305933Y-81534657D01*
X141305933Y-81534657D02*
X141258314Y-81629895D01*
X141258314Y-81629895D02*
X141258314Y-81772752D01*
X141258314Y-81772752D02*
X141305933Y-81867990D01*
X141305933Y-81867990D02*
X141353552Y-81915609D01*
X141353552Y-81915609D02*
X141448790Y-81963228D01*
X141448790Y-81963228D02*
X141829742Y-81963228D01*
X140353552Y-81439419D02*
X140829742Y-81439419D01*
X140829742Y-81439419D02*
X140877361Y-81915609D01*
X140877361Y-81915609D02*
X140829742Y-81867990D01*
X140829742Y-81867990D02*
X140734504Y-81820371D01*
X140734504Y-81820371D02*
X140496409Y-81820371D01*
X140496409Y-81820371D02*
X140401171Y-81867990D01*
X140401171Y-81867990D02*
X140353552Y-81915609D01*
X140353552Y-81915609D02*
X140305933Y-82010847D01*
X140305933Y-82010847D02*
X140305933Y-82248942D01*
X140305933Y-82248942D02*
X140353552Y-82344180D01*
X140353552Y-82344180D02*
X140401171Y-82391800D01*
X140401171Y-82391800D02*
X140496409Y-82439419D01*
X140496409Y-82439419D02*
X140734504Y-82439419D01*
X140734504Y-82439419D02*
X140829742Y-82391800D01*
X140829742Y-82391800D02*
X140877361Y-82344180D01*
X208199819Y-110033333D02*
X207723628Y-109700000D01*
X208199819Y-109461905D02*
X207199819Y-109461905D01*
X207199819Y-109461905D02*
X207199819Y-109842857D01*
X207199819Y-109842857D02*
X207247438Y-109938095D01*
X207247438Y-109938095D02*
X207295057Y-109985714D01*
X207295057Y-109985714D02*
X207390295Y-110033333D01*
X207390295Y-110033333D02*
X207533152Y-110033333D01*
X207533152Y-110033333D02*
X207628390Y-109985714D01*
X207628390Y-109985714D02*
X207676009Y-109938095D01*
X207676009Y-109938095D02*
X207723628Y-109842857D01*
X207723628Y-109842857D02*
X207723628Y-109461905D01*
X207295057Y-110414286D02*
X207247438Y-110461905D01*
X207247438Y-110461905D02*
X207199819Y-110557143D01*
X207199819Y-110557143D02*
X207199819Y-110795238D01*
X207199819Y-110795238D02*
X207247438Y-110890476D01*
X207247438Y-110890476D02*
X207295057Y-110938095D01*
X207295057Y-110938095D02*
X207390295Y-110985714D01*
X207390295Y-110985714D02*
X207485533Y-110985714D01*
X207485533Y-110985714D02*
X207628390Y-110938095D01*
X207628390Y-110938095D02*
X208199819Y-110366667D01*
X208199819Y-110366667D02*
X208199819Y-110985714D01*
X168554819Y-113483333D02*
X168078628Y-113150000D01*
X168554819Y-112911905D02*
X167554819Y-112911905D01*
X167554819Y-112911905D02*
X167554819Y-113292857D01*
X167554819Y-113292857D02*
X167602438Y-113388095D01*
X167602438Y-113388095D02*
X167650057Y-113435714D01*
X167650057Y-113435714D02*
X167745295Y-113483333D01*
X167745295Y-113483333D02*
X167888152Y-113483333D01*
X167888152Y-113483333D02*
X167983390Y-113435714D01*
X167983390Y-113435714D02*
X168031009Y-113388095D01*
X168031009Y-113388095D02*
X168078628Y-113292857D01*
X168078628Y-113292857D02*
X168078628Y-112911905D01*
X167554819Y-113816667D02*
X167554819Y-114483333D01*
X167554819Y-114483333D02*
X168554819Y-114054762D01*
X199124819Y-110033333D02*
X198648628Y-109700000D01*
X199124819Y-109461905D02*
X198124819Y-109461905D01*
X198124819Y-109461905D02*
X198124819Y-109842857D01*
X198124819Y-109842857D02*
X198172438Y-109938095D01*
X198172438Y-109938095D02*
X198220057Y-109985714D01*
X198220057Y-109985714D02*
X198315295Y-110033333D01*
X198315295Y-110033333D02*
X198458152Y-110033333D01*
X198458152Y-110033333D02*
X198553390Y-109985714D01*
X198553390Y-109985714D02*
X198601009Y-109938095D01*
X198601009Y-109938095D02*
X198648628Y-109842857D01*
X198648628Y-109842857D02*
X198648628Y-109461905D01*
X198124819Y-110366667D02*
X198124819Y-110985714D01*
X198124819Y-110985714D02*
X198505771Y-110652381D01*
X198505771Y-110652381D02*
X198505771Y-110795238D01*
X198505771Y-110795238D02*
X198553390Y-110890476D01*
X198553390Y-110890476D02*
X198601009Y-110938095D01*
X198601009Y-110938095D02*
X198696247Y-110985714D01*
X198696247Y-110985714D02*
X198934342Y-110985714D01*
X198934342Y-110985714D02*
X199029580Y-110938095D01*
X199029580Y-110938095D02*
X199077200Y-110890476D01*
X199077200Y-110890476D02*
X199124819Y-110795238D01*
X199124819Y-110795238D02*
X199124819Y-110509524D01*
X199124819Y-110509524D02*
X199077200Y-110414286D01*
X199077200Y-110414286D02*
X199029580Y-110366667D01*
X144679580Y-90370833D02*
X144727200Y-90323214D01*
X144727200Y-90323214D02*
X144774819Y-90180357D01*
X144774819Y-90180357D02*
X144774819Y-90085119D01*
X144774819Y-90085119D02*
X144727200Y-89942262D01*
X144727200Y-89942262D02*
X144631961Y-89847024D01*
X144631961Y-89847024D02*
X144536723Y-89799405D01*
X144536723Y-89799405D02*
X144346247Y-89751786D01*
X144346247Y-89751786D02*
X144203390Y-89751786D01*
X144203390Y-89751786D02*
X144012914Y-89799405D01*
X144012914Y-89799405D02*
X143917676Y-89847024D01*
X143917676Y-89847024D02*
X143822438Y-89942262D01*
X143822438Y-89942262D02*
X143774819Y-90085119D01*
X143774819Y-90085119D02*
X143774819Y-90180357D01*
X143774819Y-90180357D02*
X143822438Y-90323214D01*
X143822438Y-90323214D02*
X143870057Y-90370833D01*
X144108152Y-91227976D02*
X144774819Y-91227976D01*
X143727200Y-90989881D02*
X144441485Y-90751786D01*
X144441485Y-90751786D02*
X144441485Y-91370833D01*
X100095238Y-89254819D02*
X100428571Y-88778628D01*
X100666666Y-89254819D02*
X100666666Y-88254819D01*
X100666666Y-88254819D02*
X100285714Y-88254819D01*
X100285714Y-88254819D02*
X100190476Y-88302438D01*
X100190476Y-88302438D02*
X100142857Y-88350057D01*
X100142857Y-88350057D02*
X100095238Y-88445295D01*
X100095238Y-88445295D02*
X100095238Y-88588152D01*
X100095238Y-88588152D02*
X100142857Y-88683390D01*
X100142857Y-88683390D02*
X100190476Y-88731009D01*
X100190476Y-88731009D02*
X100285714Y-88778628D01*
X100285714Y-88778628D02*
X100666666Y-88778628D01*
X99809523Y-88254819D02*
X99476190Y-89254819D01*
X99476190Y-89254819D02*
X99142857Y-88254819D01*
X98285714Y-89254819D02*
X98857142Y-89254819D01*
X98571428Y-89254819D02*
X98571428Y-88254819D01*
X98571428Y-88254819D02*
X98666666Y-88397676D01*
X98666666Y-88397676D02*
X98761904Y-88492914D01*
X98761904Y-88492914D02*
X98857142Y-88540533D01*
X153166666Y-77254819D02*
X153499999Y-76778628D01*
X153738094Y-77254819D02*
X153738094Y-76254819D01*
X153738094Y-76254819D02*
X153357142Y-76254819D01*
X153357142Y-76254819D02*
X153261904Y-76302438D01*
X153261904Y-76302438D02*
X153214285Y-76350057D01*
X153214285Y-76350057D02*
X153166666Y-76445295D01*
X153166666Y-76445295D02*
X153166666Y-76588152D01*
X153166666Y-76588152D02*
X153214285Y-76683390D01*
X153214285Y-76683390D02*
X153261904Y-76731009D01*
X153261904Y-76731009D02*
X153357142Y-76778628D01*
X153357142Y-76778628D02*
X153738094Y-76778628D01*
X152309523Y-76588152D02*
X152309523Y-77254819D01*
X152547618Y-76207200D02*
X152785713Y-76921485D01*
X152785713Y-76921485D02*
X152166666Y-76921485D01*
X134634819Y-73357142D02*
X134158628Y-73023809D01*
X134634819Y-72785714D02*
X133634819Y-72785714D01*
X133634819Y-72785714D02*
X133634819Y-73166666D01*
X133634819Y-73166666D02*
X133682438Y-73261904D01*
X133682438Y-73261904D02*
X133730057Y-73309523D01*
X133730057Y-73309523D02*
X133825295Y-73357142D01*
X133825295Y-73357142D02*
X133968152Y-73357142D01*
X133968152Y-73357142D02*
X134063390Y-73309523D01*
X134063390Y-73309523D02*
X134111009Y-73261904D01*
X134111009Y-73261904D02*
X134158628Y-73166666D01*
X134158628Y-73166666D02*
X134158628Y-72785714D01*
X134634819Y-74309523D02*
X134634819Y-73738095D01*
X134634819Y-74023809D02*
X133634819Y-74023809D01*
X133634819Y-74023809D02*
X133777676Y-73928571D01*
X133777676Y-73928571D02*
X133872914Y-73833333D01*
X133872914Y-73833333D02*
X133920533Y-73738095D01*
X134634819Y-75261904D02*
X134634819Y-74690476D01*
X134634819Y-74976190D02*
X133634819Y-74976190D01*
X133634819Y-74976190D02*
X133777676Y-74880952D01*
X133777676Y-74880952D02*
X133872914Y-74785714D01*
X133872914Y-74785714D02*
X133920533Y-74690476D01*
X157449819Y-103966666D02*
X158164104Y-103966666D01*
X158164104Y-103966666D02*
X158306961Y-103919047D01*
X158306961Y-103919047D02*
X158402200Y-103823809D01*
X158402200Y-103823809D02*
X158449819Y-103680952D01*
X158449819Y-103680952D02*
X158449819Y-103585714D01*
X157449819Y-104871428D02*
X157449819Y-104680952D01*
X157449819Y-104680952D02*
X157497438Y-104585714D01*
X157497438Y-104585714D02*
X157545057Y-104538095D01*
X157545057Y-104538095D02*
X157687914Y-104442857D01*
X157687914Y-104442857D02*
X157878390Y-104395238D01*
X157878390Y-104395238D02*
X158259342Y-104395238D01*
X158259342Y-104395238D02*
X158354580Y-104442857D01*
X158354580Y-104442857D02*
X158402200Y-104490476D01*
X158402200Y-104490476D02*
X158449819Y-104585714D01*
X158449819Y-104585714D02*
X158449819Y-104776190D01*
X158449819Y-104776190D02*
X158402200Y-104871428D01*
X158402200Y-104871428D02*
X158354580Y-104919047D01*
X158354580Y-104919047D02*
X158259342Y-104966666D01*
X158259342Y-104966666D02*
X158021247Y-104966666D01*
X158021247Y-104966666D02*
X157926009Y-104919047D01*
X157926009Y-104919047D02*
X157878390Y-104871428D01*
X157878390Y-104871428D02*
X157830771Y-104776190D01*
X157830771Y-104776190D02*
X157830771Y-104585714D01*
X157830771Y-104585714D02*
X157878390Y-104490476D01*
X157878390Y-104490476D02*
X157926009Y-104442857D01*
X157926009Y-104442857D02*
X158021247Y-104395238D01*
X157699580Y-93994642D02*
X157747200Y-93947023D01*
X157747200Y-93947023D02*
X157794819Y-93804166D01*
X157794819Y-93804166D02*
X157794819Y-93708928D01*
X157794819Y-93708928D02*
X157747200Y-93566071D01*
X157747200Y-93566071D02*
X157651961Y-93470833D01*
X157651961Y-93470833D02*
X157556723Y-93423214D01*
X157556723Y-93423214D02*
X157366247Y-93375595D01*
X157366247Y-93375595D02*
X157223390Y-93375595D01*
X157223390Y-93375595D02*
X157032914Y-93423214D01*
X157032914Y-93423214D02*
X156937676Y-93470833D01*
X156937676Y-93470833D02*
X156842438Y-93566071D01*
X156842438Y-93566071D02*
X156794819Y-93708928D01*
X156794819Y-93708928D02*
X156794819Y-93804166D01*
X156794819Y-93804166D02*
X156842438Y-93947023D01*
X156842438Y-93947023D02*
X156890057Y-93994642D01*
X157794819Y-94947023D02*
X157794819Y-94375595D01*
X157794819Y-94661309D02*
X156794819Y-94661309D01*
X156794819Y-94661309D02*
X156937676Y-94566071D01*
X156937676Y-94566071D02*
X157032914Y-94470833D01*
X157032914Y-94470833D02*
X157080533Y-94375595D01*
X156794819Y-95280357D02*
X156794819Y-95899404D01*
X156794819Y-95899404D02*
X157175771Y-95566071D01*
X157175771Y-95566071D02*
X157175771Y-95708928D01*
X157175771Y-95708928D02*
X157223390Y-95804166D01*
X157223390Y-95804166D02*
X157271009Y-95851785D01*
X157271009Y-95851785D02*
X157366247Y-95899404D01*
X157366247Y-95899404D02*
X157604342Y-95899404D01*
X157604342Y-95899404D02*
X157699580Y-95851785D01*
X157699580Y-95851785D02*
X157747200Y-95804166D01*
X157747200Y-95804166D02*
X157794819Y-95708928D01*
X157794819Y-95708928D02*
X157794819Y-95423214D01*
X157794819Y-95423214D02*
X157747200Y-95327976D01*
X157747200Y-95327976D02*
X157699580Y-95280357D01*
X148199404Y-86904819D02*
X148199404Y-87714342D01*
X148199404Y-87714342D02*
X148151785Y-87809580D01*
X148151785Y-87809580D02*
X148104166Y-87857200D01*
X148104166Y-87857200D02*
X148008928Y-87904819D01*
X148008928Y-87904819D02*
X147818452Y-87904819D01*
X147818452Y-87904819D02*
X147723214Y-87857200D01*
X147723214Y-87857200D02*
X147675595Y-87809580D01*
X147675595Y-87809580D02*
X147627976Y-87714342D01*
X147627976Y-87714342D02*
X147627976Y-86904819D01*
X146627976Y-87904819D02*
X147199404Y-87904819D01*
X146913690Y-87904819D02*
X146913690Y-86904819D01*
X146913690Y-86904819D02*
X147008928Y-87047676D01*
X147008928Y-87047676D02*
X147104166Y-87142914D01*
X147104166Y-87142914D02*
X147199404Y-87190533D01*
X148379580Y-90370833D02*
X148427200Y-90323214D01*
X148427200Y-90323214D02*
X148474819Y-90180357D01*
X148474819Y-90180357D02*
X148474819Y-90085119D01*
X148474819Y-90085119D02*
X148427200Y-89942262D01*
X148427200Y-89942262D02*
X148331961Y-89847024D01*
X148331961Y-89847024D02*
X148236723Y-89799405D01*
X148236723Y-89799405D02*
X148046247Y-89751786D01*
X148046247Y-89751786D02*
X147903390Y-89751786D01*
X147903390Y-89751786D02*
X147712914Y-89799405D01*
X147712914Y-89799405D02*
X147617676Y-89847024D01*
X147617676Y-89847024D02*
X147522438Y-89942262D01*
X147522438Y-89942262D02*
X147474819Y-90085119D01*
X147474819Y-90085119D02*
X147474819Y-90180357D01*
X147474819Y-90180357D02*
X147522438Y-90323214D01*
X147522438Y-90323214D02*
X147570057Y-90370833D01*
X147474819Y-91275595D02*
X147474819Y-90799405D01*
X147474819Y-90799405D02*
X147951009Y-90751786D01*
X147951009Y-90751786D02*
X147903390Y-90799405D01*
X147903390Y-90799405D02*
X147855771Y-90894643D01*
X147855771Y-90894643D02*
X147855771Y-91132738D01*
X147855771Y-91132738D02*
X147903390Y-91227976D01*
X147903390Y-91227976D02*
X147951009Y-91275595D01*
X147951009Y-91275595D02*
X148046247Y-91323214D01*
X148046247Y-91323214D02*
X148284342Y-91323214D01*
X148284342Y-91323214D02*
X148379580Y-91275595D01*
X148379580Y-91275595D02*
X148427200Y-91227976D01*
X148427200Y-91227976D02*
X148474819Y-91132738D01*
X148474819Y-91132738D02*
X148474819Y-90894643D01*
X148474819Y-90894643D02*
X148427200Y-90799405D01*
X148427200Y-90799405D02*
X148379580Y-90751786D01*
X108454819Y-85038095D02*
X109264342Y-85038095D01*
X109264342Y-85038095D02*
X109359580Y-85085714D01*
X109359580Y-85085714D02*
X109407200Y-85133333D01*
X109407200Y-85133333D02*
X109454819Y-85228571D01*
X109454819Y-85228571D02*
X109454819Y-85419047D01*
X109454819Y-85419047D02*
X109407200Y-85514285D01*
X109407200Y-85514285D02*
X109359580Y-85561904D01*
X109359580Y-85561904D02*
X109264342Y-85609523D01*
X109264342Y-85609523D02*
X108454819Y-85609523D01*
X108788152Y-86514285D02*
X109454819Y-86514285D01*
X108407200Y-86276190D02*
X109121485Y-86038095D01*
X109121485Y-86038095D02*
X109121485Y-86657142D01*
X109454819Y-72761905D02*
X108454819Y-72761905D01*
X108454819Y-72761905D02*
X108454819Y-73000000D01*
X108454819Y-73000000D02*
X108502438Y-73142857D01*
X108502438Y-73142857D02*
X108597676Y-73238095D01*
X108597676Y-73238095D02*
X108692914Y-73285714D01*
X108692914Y-73285714D02*
X108883390Y-73333333D01*
X108883390Y-73333333D02*
X109026247Y-73333333D01*
X109026247Y-73333333D02*
X109216723Y-73285714D01*
X109216723Y-73285714D02*
X109311961Y-73238095D01*
X109311961Y-73238095D02*
X109407200Y-73142857D01*
X109407200Y-73142857D02*
X109454819Y-73000000D01*
X109454819Y-73000000D02*
X109454819Y-72761905D01*
X109454819Y-74285714D02*
X109454819Y-73714286D01*
X109454819Y-74000000D02*
X108454819Y-74000000D01*
X108454819Y-74000000D02*
X108597676Y-73904762D01*
X108597676Y-73904762D02*
X108692914Y-73809524D01*
X108692914Y-73809524D02*
X108740533Y-73714286D01*
X144359580Y-78933333D02*
X144407200Y-78885714D01*
X144407200Y-78885714D02*
X144454819Y-78742857D01*
X144454819Y-78742857D02*
X144454819Y-78647619D01*
X144454819Y-78647619D02*
X144407200Y-78504762D01*
X144407200Y-78504762D02*
X144311961Y-78409524D01*
X144311961Y-78409524D02*
X144216723Y-78361905D01*
X144216723Y-78361905D02*
X144026247Y-78314286D01*
X144026247Y-78314286D02*
X143883390Y-78314286D01*
X143883390Y-78314286D02*
X143692914Y-78361905D01*
X143692914Y-78361905D02*
X143597676Y-78409524D01*
X143597676Y-78409524D02*
X143502438Y-78504762D01*
X143502438Y-78504762D02*
X143454819Y-78647619D01*
X143454819Y-78647619D02*
X143454819Y-78742857D01*
X143454819Y-78742857D02*
X143502438Y-78885714D01*
X143502438Y-78885714D02*
X143550057Y-78933333D01*
X144454819Y-79885714D02*
X144454819Y-79314286D01*
X144454819Y-79600000D02*
X143454819Y-79600000D01*
X143454819Y-79600000D02*
X143597676Y-79504762D01*
X143597676Y-79504762D02*
X143692914Y-79409524D01*
X143692914Y-79409524D02*
X143740533Y-79314286D01*
X126424404Y-89854819D02*
X126424404Y-90664342D01*
X126424404Y-90664342D02*
X126376785Y-90759580D01*
X126376785Y-90759580D02*
X126329166Y-90807200D01*
X126329166Y-90807200D02*
X126233928Y-90854819D01*
X126233928Y-90854819D02*
X126043452Y-90854819D01*
X126043452Y-90854819D02*
X125948214Y-90807200D01*
X125948214Y-90807200D02*
X125900595Y-90759580D01*
X125900595Y-90759580D02*
X125852976Y-90664342D01*
X125852976Y-90664342D02*
X125852976Y-89854819D01*
X125472023Y-89854819D02*
X124852976Y-89854819D01*
X124852976Y-89854819D02*
X125186309Y-90235771D01*
X125186309Y-90235771D02*
X125043452Y-90235771D01*
X125043452Y-90235771D02*
X124948214Y-90283390D01*
X124948214Y-90283390D02*
X124900595Y-90331009D01*
X124900595Y-90331009D02*
X124852976Y-90426247D01*
X124852976Y-90426247D02*
X124852976Y-90664342D01*
X124852976Y-90664342D02*
X124900595Y-90759580D01*
X124900595Y-90759580D02*
X124948214Y-90807200D01*
X124948214Y-90807200D02*
X125043452Y-90854819D01*
X125043452Y-90854819D02*
X125329166Y-90854819D01*
X125329166Y-90854819D02*
X125424404Y-90807200D01*
X125424404Y-90807200D02*
X125472023Y-90759580D01*
X151392912Y-79033333D02*
X151440532Y-78985714D01*
X151440532Y-78985714D02*
X151488151Y-78842857D01*
X151488151Y-78842857D02*
X151488151Y-78747619D01*
X151488151Y-78747619D02*
X151440532Y-78604762D01*
X151440532Y-78604762D02*
X151345293Y-78509524D01*
X151345293Y-78509524D02*
X151250055Y-78461905D01*
X151250055Y-78461905D02*
X151059579Y-78414286D01*
X151059579Y-78414286D02*
X150916722Y-78414286D01*
X150916722Y-78414286D02*
X150726246Y-78461905D01*
X150726246Y-78461905D02*
X150631008Y-78509524D01*
X150631008Y-78509524D02*
X150535770Y-78604762D01*
X150535770Y-78604762D02*
X150488151Y-78747619D01*
X150488151Y-78747619D02*
X150488151Y-78842857D01*
X150488151Y-78842857D02*
X150535770Y-78985714D01*
X150535770Y-78985714D02*
X150583389Y-79033333D01*
X150488151Y-79366667D02*
X150488151Y-79985714D01*
X150488151Y-79985714D02*
X150869103Y-79652381D01*
X150869103Y-79652381D02*
X150869103Y-79795238D01*
X150869103Y-79795238D02*
X150916722Y-79890476D01*
X150916722Y-79890476D02*
X150964341Y-79938095D01*
X150964341Y-79938095D02*
X151059579Y-79985714D01*
X151059579Y-79985714D02*
X151297674Y-79985714D01*
X151297674Y-79985714D02*
X151392912Y-79938095D01*
X151392912Y-79938095D02*
X151440532Y-79890476D01*
X151440532Y-79890476D02*
X151488151Y-79795238D01*
X151488151Y-79795238D02*
X151488151Y-79509524D01*
X151488151Y-79509524D02*
X151440532Y-79414286D01*
X151440532Y-79414286D02*
X151392912Y-79366667D01*
X168474819Y-85333333D02*
X167998628Y-85000000D01*
X168474819Y-84761905D02*
X167474819Y-84761905D01*
X167474819Y-84761905D02*
X167474819Y-85142857D01*
X167474819Y-85142857D02*
X167522438Y-85238095D01*
X167522438Y-85238095D02*
X167570057Y-85285714D01*
X167570057Y-85285714D02*
X167665295Y-85333333D01*
X167665295Y-85333333D02*
X167808152Y-85333333D01*
X167808152Y-85333333D02*
X167903390Y-85285714D01*
X167903390Y-85285714D02*
X167951009Y-85238095D01*
X167951009Y-85238095D02*
X167998628Y-85142857D01*
X167998628Y-85142857D02*
X167998628Y-84761905D01*
X168474819Y-85809524D02*
X168474819Y-86000000D01*
X168474819Y-86000000D02*
X168427200Y-86095238D01*
X168427200Y-86095238D02*
X168379580Y-86142857D01*
X168379580Y-86142857D02*
X168236723Y-86238095D01*
X168236723Y-86238095D02*
X168046247Y-86285714D01*
X168046247Y-86285714D02*
X167665295Y-86285714D01*
X167665295Y-86285714D02*
X167570057Y-86238095D01*
X167570057Y-86238095D02*
X167522438Y-86190476D01*
X167522438Y-86190476D02*
X167474819Y-86095238D01*
X167474819Y-86095238D02*
X167474819Y-85904762D01*
X167474819Y-85904762D02*
X167522438Y-85809524D01*
X167522438Y-85809524D02*
X167570057Y-85761905D01*
X167570057Y-85761905D02*
X167665295Y-85714286D01*
X167665295Y-85714286D02*
X167903390Y-85714286D01*
X167903390Y-85714286D02*
X167998628Y-85761905D01*
X167998628Y-85761905D02*
X168046247Y-85809524D01*
X168046247Y-85809524D02*
X168093866Y-85904762D01*
X168093866Y-85904762D02*
X168093866Y-86095238D01*
X168093866Y-86095238D02*
X168046247Y-86190476D01*
X168046247Y-86190476D02*
X167998628Y-86238095D01*
X167998628Y-86238095D02*
X167903390Y-86285714D01*
X153161904Y-88654819D02*
X152590476Y-88654819D01*
X152876190Y-89654819D02*
X152876190Y-88654819D01*
X152257142Y-89654819D02*
X152257142Y-88654819D01*
X152257142Y-88654819D02*
X151876190Y-88654819D01*
X151876190Y-88654819D02*
X151780952Y-88702438D01*
X151780952Y-88702438D02*
X151733333Y-88750057D01*
X151733333Y-88750057D02*
X151685714Y-88845295D01*
X151685714Y-88845295D02*
X151685714Y-88988152D01*
X151685714Y-88988152D02*
X151733333Y-89083390D01*
X151733333Y-89083390D02*
X151780952Y-89131009D01*
X151780952Y-89131009D02*
X151876190Y-89178628D01*
X151876190Y-89178628D02*
X152257142Y-89178628D01*
X150828571Y-88654819D02*
X151019047Y-88654819D01*
X151019047Y-88654819D02*
X151114285Y-88702438D01*
X151114285Y-88702438D02*
X151161904Y-88750057D01*
X151161904Y-88750057D02*
X151257142Y-88892914D01*
X151257142Y-88892914D02*
X151304761Y-89083390D01*
X151304761Y-89083390D02*
X151304761Y-89464342D01*
X151304761Y-89464342D02*
X151257142Y-89559580D01*
X151257142Y-89559580D02*
X151209523Y-89607200D01*
X151209523Y-89607200D02*
X151114285Y-89654819D01*
X151114285Y-89654819D02*
X150923809Y-89654819D01*
X150923809Y-89654819D02*
X150828571Y-89607200D01*
X150828571Y-89607200D02*
X150780952Y-89559580D01*
X150780952Y-89559580D02*
X150733333Y-89464342D01*
X150733333Y-89464342D02*
X150733333Y-89226247D01*
X150733333Y-89226247D02*
X150780952Y-89131009D01*
X150780952Y-89131009D02*
X150828571Y-89083390D01*
X150828571Y-89083390D02*
X150923809Y-89035771D01*
X150923809Y-89035771D02*
X151114285Y-89035771D01*
X151114285Y-89035771D02*
X151209523Y-89083390D01*
X151209523Y-89083390D02*
X151257142Y-89131009D01*
X151257142Y-89131009D02*
X151304761Y-89226247D01*
X157566246Y-73857142D02*
X157613866Y-73809523D01*
X157613866Y-73809523D02*
X157661485Y-73666666D01*
X157661485Y-73666666D02*
X157661485Y-73571428D01*
X157661485Y-73571428D02*
X157613866Y-73428571D01*
X157613866Y-73428571D02*
X157518627Y-73333333D01*
X157518627Y-73333333D02*
X157423389Y-73285714D01*
X157423389Y-73285714D02*
X157232913Y-73238095D01*
X157232913Y-73238095D02*
X157090056Y-73238095D01*
X157090056Y-73238095D02*
X156899580Y-73285714D01*
X156899580Y-73285714D02*
X156804342Y-73333333D01*
X156804342Y-73333333D02*
X156709104Y-73428571D01*
X156709104Y-73428571D02*
X156661485Y-73571428D01*
X156661485Y-73571428D02*
X156661485Y-73666666D01*
X156661485Y-73666666D02*
X156709104Y-73809523D01*
X156709104Y-73809523D02*
X156756723Y-73857142D01*
X157661485Y-74809523D02*
X157661485Y-74238095D01*
X157661485Y-74523809D02*
X156661485Y-74523809D01*
X156661485Y-74523809D02*
X156804342Y-74428571D01*
X156804342Y-74428571D02*
X156899580Y-74333333D01*
X156899580Y-74333333D02*
X156947199Y-74238095D01*
X156994818Y-75666666D02*
X157661485Y-75666666D01*
X156613866Y-75428571D02*
X157328151Y-75190476D01*
X157328151Y-75190476D02*
X157328151Y-75809523D01*
X123642857Y-76274819D02*
X123976190Y-75798628D01*
X124214285Y-76274819D02*
X124214285Y-75274819D01*
X124214285Y-75274819D02*
X123833333Y-75274819D01*
X123833333Y-75274819D02*
X123738095Y-75322438D01*
X123738095Y-75322438D02*
X123690476Y-75370057D01*
X123690476Y-75370057D02*
X123642857Y-75465295D01*
X123642857Y-75465295D02*
X123642857Y-75608152D01*
X123642857Y-75608152D02*
X123690476Y-75703390D01*
X123690476Y-75703390D02*
X123738095Y-75751009D01*
X123738095Y-75751009D02*
X123833333Y-75798628D01*
X123833333Y-75798628D02*
X124214285Y-75798628D01*
X122690476Y-76274819D02*
X123261904Y-76274819D01*
X122976190Y-76274819D02*
X122976190Y-75274819D01*
X122976190Y-75274819D02*
X123071428Y-75417676D01*
X123071428Y-75417676D02*
X123166666Y-75512914D01*
X123166666Y-75512914D02*
X123261904Y-75560533D01*
X122071428Y-75274819D02*
X121976190Y-75274819D01*
X121976190Y-75274819D02*
X121880952Y-75322438D01*
X121880952Y-75322438D02*
X121833333Y-75370057D01*
X121833333Y-75370057D02*
X121785714Y-75465295D01*
X121785714Y-75465295D02*
X121738095Y-75655771D01*
X121738095Y-75655771D02*
X121738095Y-75893866D01*
X121738095Y-75893866D02*
X121785714Y-76084342D01*
X121785714Y-76084342D02*
X121833333Y-76179580D01*
X121833333Y-76179580D02*
X121880952Y-76227200D01*
X121880952Y-76227200D02*
X121976190Y-76274819D01*
X121976190Y-76274819D02*
X122071428Y-76274819D01*
X122071428Y-76274819D02*
X122166666Y-76227200D01*
X122166666Y-76227200D02*
X122214285Y-76179580D01*
X122214285Y-76179580D02*
X122261904Y-76084342D01*
X122261904Y-76084342D02*
X122309523Y-75893866D01*
X122309523Y-75893866D02*
X122309523Y-75655771D01*
X122309523Y-75655771D02*
X122261904Y-75465295D01*
X122261904Y-75465295D02*
X122214285Y-75370057D01*
X122214285Y-75370057D02*
X122166666Y-75322438D01*
X122166666Y-75322438D02*
X122071428Y-75274819D01*
X154959578Y-78995833D02*
X155007198Y-78948214D01*
X155007198Y-78948214D02*
X155054817Y-78805357D01*
X155054817Y-78805357D02*
X155054817Y-78710119D01*
X155054817Y-78710119D02*
X155007198Y-78567262D01*
X155007198Y-78567262D02*
X154911959Y-78472024D01*
X154911959Y-78472024D02*
X154816721Y-78424405D01*
X154816721Y-78424405D02*
X154626245Y-78376786D01*
X154626245Y-78376786D02*
X154483388Y-78376786D01*
X154483388Y-78376786D02*
X154292912Y-78424405D01*
X154292912Y-78424405D02*
X154197674Y-78472024D01*
X154197674Y-78472024D02*
X154102436Y-78567262D01*
X154102436Y-78567262D02*
X154054817Y-78710119D01*
X154054817Y-78710119D02*
X154054817Y-78805357D01*
X154054817Y-78805357D02*
X154102436Y-78948214D01*
X154102436Y-78948214D02*
X154150055Y-78995833D01*
X154483388Y-79567262D02*
X154435769Y-79472024D01*
X154435769Y-79472024D02*
X154388150Y-79424405D01*
X154388150Y-79424405D02*
X154292912Y-79376786D01*
X154292912Y-79376786D02*
X154245293Y-79376786D01*
X154245293Y-79376786D02*
X154150055Y-79424405D01*
X154150055Y-79424405D02*
X154102436Y-79472024D01*
X154102436Y-79472024D02*
X154054817Y-79567262D01*
X154054817Y-79567262D02*
X154054817Y-79757738D01*
X154054817Y-79757738D02*
X154102436Y-79852976D01*
X154102436Y-79852976D02*
X154150055Y-79900595D01*
X154150055Y-79900595D02*
X154245293Y-79948214D01*
X154245293Y-79948214D02*
X154292912Y-79948214D01*
X154292912Y-79948214D02*
X154388150Y-79900595D01*
X154388150Y-79900595D02*
X154435769Y-79852976D01*
X154435769Y-79852976D02*
X154483388Y-79757738D01*
X154483388Y-79757738D02*
X154483388Y-79567262D01*
X154483388Y-79567262D02*
X154531007Y-79472024D01*
X154531007Y-79472024D02*
X154578626Y-79424405D01*
X154578626Y-79424405D02*
X154673864Y-79376786D01*
X154673864Y-79376786D02*
X154864340Y-79376786D01*
X154864340Y-79376786D02*
X154959578Y-79424405D01*
X154959578Y-79424405D02*
X155007198Y-79472024D01*
X155007198Y-79472024D02*
X155054817Y-79567262D01*
X155054817Y-79567262D02*
X155054817Y-79757738D01*
X155054817Y-79757738D02*
X155007198Y-79852976D01*
X155007198Y-79852976D02*
X154959578Y-79900595D01*
X154959578Y-79900595D02*
X154864340Y-79948214D01*
X154864340Y-79948214D02*
X154673864Y-79948214D01*
X154673864Y-79948214D02*
X154578626Y-79900595D01*
X154578626Y-79900595D02*
X154531007Y-79852976D01*
X154531007Y-79852976D02*
X154483388Y-79757738D01*
X158526244Y-78933333D02*
X158573864Y-78885714D01*
X158573864Y-78885714D02*
X158621483Y-78742857D01*
X158621483Y-78742857D02*
X158621483Y-78647619D01*
X158621483Y-78647619D02*
X158573864Y-78504762D01*
X158573864Y-78504762D02*
X158478625Y-78409524D01*
X158478625Y-78409524D02*
X158383387Y-78361905D01*
X158383387Y-78361905D02*
X158192911Y-78314286D01*
X158192911Y-78314286D02*
X158050054Y-78314286D01*
X158050054Y-78314286D02*
X157859578Y-78361905D01*
X157859578Y-78361905D02*
X157764340Y-78409524D01*
X157764340Y-78409524D02*
X157669102Y-78504762D01*
X157669102Y-78504762D02*
X157621483Y-78647619D01*
X157621483Y-78647619D02*
X157621483Y-78742857D01*
X157621483Y-78742857D02*
X157669102Y-78885714D01*
X157669102Y-78885714D02*
X157716721Y-78933333D01*
X157621483Y-79790476D02*
X157621483Y-79600000D01*
X157621483Y-79600000D02*
X157669102Y-79504762D01*
X157669102Y-79504762D02*
X157716721Y-79457143D01*
X157716721Y-79457143D02*
X157859578Y-79361905D01*
X157859578Y-79361905D02*
X158050054Y-79314286D01*
X158050054Y-79314286D02*
X158431006Y-79314286D01*
X158431006Y-79314286D02*
X158526244Y-79361905D01*
X158526244Y-79361905D02*
X158573864Y-79409524D01*
X158573864Y-79409524D02*
X158621483Y-79504762D01*
X158621483Y-79504762D02*
X158621483Y-79695238D01*
X158621483Y-79695238D02*
X158573864Y-79790476D01*
X158573864Y-79790476D02*
X158526244Y-79838095D01*
X158526244Y-79838095D02*
X158431006Y-79885714D01*
X158431006Y-79885714D02*
X158192911Y-79885714D01*
X158192911Y-79885714D02*
X158097673Y-79838095D01*
X158097673Y-79838095D02*
X158050054Y-79790476D01*
X158050054Y-79790476D02*
X158002435Y-79695238D01*
X158002435Y-79695238D02*
X158002435Y-79504762D01*
X158002435Y-79504762D02*
X158050054Y-79409524D01*
X158050054Y-79409524D02*
X158097673Y-79361905D01*
X158097673Y-79361905D02*
X158192911Y-79314286D01*
X115634819Y-72857142D02*
X115158628Y-72523809D01*
X115634819Y-72285714D02*
X114634819Y-72285714D01*
X114634819Y-72285714D02*
X114634819Y-72666666D01*
X114634819Y-72666666D02*
X114682438Y-72761904D01*
X114682438Y-72761904D02*
X114730057Y-72809523D01*
X114730057Y-72809523D02*
X114825295Y-72857142D01*
X114825295Y-72857142D02*
X114968152Y-72857142D01*
X114968152Y-72857142D02*
X115063390Y-72809523D01*
X115063390Y-72809523D02*
X115111009Y-72761904D01*
X115111009Y-72761904D02*
X115158628Y-72666666D01*
X115158628Y-72666666D02*
X115158628Y-72285714D01*
X115634819Y-73809523D02*
X115634819Y-73238095D01*
X115634819Y-73523809D02*
X114634819Y-73523809D01*
X114634819Y-73523809D02*
X114777676Y-73428571D01*
X114777676Y-73428571D02*
X114872914Y-73333333D01*
X114872914Y-73333333D02*
X114920533Y-73238095D01*
X114634819Y-74142857D02*
X114634819Y-74761904D01*
X114634819Y-74761904D02*
X115015771Y-74428571D01*
X115015771Y-74428571D02*
X115015771Y-74571428D01*
X115015771Y-74571428D02*
X115063390Y-74666666D01*
X115063390Y-74666666D02*
X115111009Y-74714285D01*
X115111009Y-74714285D02*
X115206247Y-74761904D01*
X115206247Y-74761904D02*
X115444342Y-74761904D01*
X115444342Y-74761904D02*
X115539580Y-74714285D01*
X115539580Y-74714285D02*
X115587200Y-74666666D01*
X115587200Y-74666666D02*
X115634819Y-74571428D01*
X115634819Y-74571428D02*
X115634819Y-74285714D01*
X115634819Y-74285714D02*
X115587200Y-74190476D01*
X115587200Y-74190476D02*
X115539580Y-74142857D01*
X162554819Y-72883333D02*
X162078628Y-72550000D01*
X162554819Y-72311905D02*
X161554819Y-72311905D01*
X161554819Y-72311905D02*
X161554819Y-72692857D01*
X161554819Y-72692857D02*
X161602438Y-72788095D01*
X161602438Y-72788095D02*
X161650057Y-72835714D01*
X161650057Y-72835714D02*
X161745295Y-72883333D01*
X161745295Y-72883333D02*
X161888152Y-72883333D01*
X161888152Y-72883333D02*
X161983390Y-72835714D01*
X161983390Y-72835714D02*
X162031009Y-72788095D01*
X162031009Y-72788095D02*
X162078628Y-72692857D01*
X162078628Y-72692857D02*
X162078628Y-72311905D01*
X162554819Y-73835714D02*
X162554819Y-73264286D01*
X162554819Y-73550000D02*
X161554819Y-73550000D01*
X161554819Y-73550000D02*
X161697676Y-73454762D01*
X161697676Y-73454762D02*
X161792914Y-73359524D01*
X161792914Y-73359524D02*
X161840533Y-73264286D01*
X147917046Y-78995833D02*
X147964666Y-78948214D01*
X147964666Y-78948214D02*
X148012285Y-78805357D01*
X148012285Y-78805357D02*
X148012285Y-78710119D01*
X148012285Y-78710119D02*
X147964666Y-78567262D01*
X147964666Y-78567262D02*
X147869427Y-78472024D01*
X147869427Y-78472024D02*
X147774189Y-78424405D01*
X147774189Y-78424405D02*
X147583713Y-78376786D01*
X147583713Y-78376786D02*
X147440856Y-78376786D01*
X147440856Y-78376786D02*
X147250380Y-78424405D01*
X147250380Y-78424405D02*
X147155142Y-78472024D01*
X147155142Y-78472024D02*
X147059904Y-78567262D01*
X147059904Y-78567262D02*
X147012285Y-78710119D01*
X147012285Y-78710119D02*
X147012285Y-78805357D01*
X147012285Y-78805357D02*
X147059904Y-78948214D01*
X147059904Y-78948214D02*
X147107523Y-78995833D01*
X147107523Y-79376786D02*
X147059904Y-79424405D01*
X147059904Y-79424405D02*
X147012285Y-79519643D01*
X147012285Y-79519643D02*
X147012285Y-79757738D01*
X147012285Y-79757738D02*
X147059904Y-79852976D01*
X147059904Y-79852976D02*
X147107523Y-79900595D01*
X147107523Y-79900595D02*
X147202761Y-79948214D01*
X147202761Y-79948214D02*
X147297999Y-79948214D01*
X147297999Y-79948214D02*
X147440856Y-79900595D01*
X147440856Y-79900595D02*
X148012285Y-79329167D01*
X148012285Y-79329167D02*
X148012285Y-79948214D01*
X154179580Y-94470833D02*
X154227200Y-94423214D01*
X154227200Y-94423214D02*
X154274819Y-94280357D01*
X154274819Y-94280357D02*
X154274819Y-94185119D01*
X154274819Y-94185119D02*
X154227200Y-94042262D01*
X154227200Y-94042262D02*
X154131961Y-93947024D01*
X154131961Y-93947024D02*
X154036723Y-93899405D01*
X154036723Y-93899405D02*
X153846247Y-93851786D01*
X153846247Y-93851786D02*
X153703390Y-93851786D01*
X153703390Y-93851786D02*
X153512914Y-93899405D01*
X153512914Y-93899405D02*
X153417676Y-93947024D01*
X153417676Y-93947024D02*
X153322438Y-94042262D01*
X153322438Y-94042262D02*
X153274819Y-94185119D01*
X153274819Y-94185119D02*
X153274819Y-94280357D01*
X153274819Y-94280357D02*
X153322438Y-94423214D01*
X153322438Y-94423214D02*
X153370057Y-94470833D01*
X154274819Y-94947024D02*
X154274819Y-95137500D01*
X154274819Y-95137500D02*
X154227200Y-95232738D01*
X154227200Y-95232738D02*
X154179580Y-95280357D01*
X154179580Y-95280357D02*
X154036723Y-95375595D01*
X154036723Y-95375595D02*
X153846247Y-95423214D01*
X153846247Y-95423214D02*
X153465295Y-95423214D01*
X153465295Y-95423214D02*
X153370057Y-95375595D01*
X153370057Y-95375595D02*
X153322438Y-95327976D01*
X153322438Y-95327976D02*
X153274819Y-95232738D01*
X153274819Y-95232738D02*
X153274819Y-95042262D01*
X153274819Y-95042262D02*
X153322438Y-94947024D01*
X153322438Y-94947024D02*
X153370057Y-94899405D01*
X153370057Y-94899405D02*
X153465295Y-94851786D01*
X153465295Y-94851786D02*
X153703390Y-94851786D01*
X153703390Y-94851786D02*
X153798628Y-94899405D01*
X153798628Y-94899405D02*
X153846247Y-94947024D01*
X153846247Y-94947024D02*
X153893866Y-95042262D01*
X153893866Y-95042262D02*
X153893866Y-95232738D01*
X153893866Y-95232738D02*
X153846247Y-95327976D01*
X153846247Y-95327976D02*
X153798628Y-95375595D01*
X153798628Y-95375595D02*
X153703390Y-95423214D01*
X125300000Y-56887500D02*
X119700000Y-56887500D01*
X125550000Y-58887500D02*
X119450000Y-58887500D01*
X119450000Y-70987500D02*
X119450000Y-58887500D01*
X119700000Y-56887500D02*
X119700000Y-58887500D01*
X125300000Y-56887500D02*
X125300000Y-58887500D01*
X125550000Y-70987500D02*
X125550000Y-58887500D01*
X125550000Y-70987500D02*
X119450000Y-70987500D01*
X142800000Y-56887500D02*
X137200000Y-56887500D01*
X143050000Y-58887500D02*
X136950000Y-58887500D01*
X136950000Y-70987500D02*
X136950000Y-58887500D01*
X137200000Y-56887500D02*
X137200000Y-58887500D01*
X142800000Y-56887500D02*
X142800000Y-58887500D01*
X143050000Y-70987500D02*
X143050000Y-58887500D01*
X143050000Y-70987500D02*
X136950000Y-70987500D01*
X109800000Y-56887500D02*
X104200000Y-56887500D01*
X110050000Y-58887500D02*
X103950000Y-58887500D01*
X103950000Y-70987500D02*
X103950000Y-58887500D01*
X104200000Y-56887500D02*
X104200000Y-58887500D01*
X109800000Y-56887500D02*
X109800000Y-58887500D01*
X110050000Y-70987500D02*
X110050000Y-58887500D01*
X110050000Y-70987500D02*
X103950000Y-70987500D01*
X158300000Y-56887500D02*
X152700000Y-56887500D01*
X158550000Y-58887500D02*
X152450000Y-58887500D01*
X152450000Y-70987500D02*
X152450000Y-58887500D01*
X152700000Y-56887500D02*
X152700000Y-58887500D01*
X158300000Y-56887500D02*
X158300000Y-58887500D01*
X158550000Y-70987500D02*
X158550000Y-58887500D01*
X158550000Y-70987500D02*
X152450000Y-70987500D01*
D13*
X173918400Y-133372400D02*
X175248400Y-133372400D01*
X172648400Y-130772400D02*
X175248400Y-130772400D01*
X170048400Y-133372400D02*
X172648400Y-133372400D01*
X170048400Y-133372400D02*
X170048400Y-82452400D01*
X170048400Y-82452400D02*
X175248400Y-82452400D01*
X172648400Y-133372400D02*
X172648400Y-130772400D01*
X175248400Y-133372400D02*
X175248400Y-132042400D01*
X175248400Y-130772400D02*
X175248400Y-82452400D01*
X161185000Y-87500000D02*
X161185000Y-85300000D01*
X161185000Y-87500000D02*
X161185000Y-89700000D01*
X154415000Y-87500000D02*
X154415000Y-83900000D01*
X154415000Y-87500000D02*
X154415000Y-89700000D01*
X143700000Y-88000000D02*
G75*
G02*
X142300000Y-88000000I-700000J0D01*
G01*
X142300000Y-88000000D02*
G75*
G02*
X143700000Y-88000000I700000J0D01*
G01*
X127811252Y-93435000D02*
X127288748Y-93435000D01*
X127811252Y-91965000D02*
X127288748Y-91965000D01*
X164168330Y-79423752D02*
X164168330Y-78901248D01*
X162698330Y-79423752D02*
X162698330Y-78901248D01*
X188685000Y-110927064D02*
X188685000Y-109472936D01*
X186865000Y-110927064D02*
X186865000Y-109472936D01*
X104410000Y-73272936D02*
X104410000Y-74727064D01*
X102590000Y-73272936D02*
X102590000Y-74727064D01*
X147865000Y-72801248D02*
X147865000Y-73323752D01*
X149335000Y-72801248D02*
X149335000Y-73323752D01*
X213235000Y-97651248D02*
X213235000Y-98173752D01*
X211765000Y-97651248D02*
X211765000Y-98173752D01*
X211765000Y-91073752D02*
X211765000Y-90551248D01*
X213235000Y-91073752D02*
X213235000Y-90551248D01*
X166265000Y-79423752D02*
X166265000Y-78901248D01*
X167735000Y-79423752D02*
X167735000Y-78901248D01*
X167110000Y-92477064D02*
X167110000Y-91022936D01*
X165290000Y-92477064D02*
X165290000Y-91022936D01*
X112572936Y-98510000D02*
X114027064Y-98510000D01*
X112572936Y-96690000D02*
X114027064Y-96690000D01*
X130997040Y-72322936D02*
X130997040Y-73777064D01*
X129177040Y-72322936D02*
X129177040Y-73777064D01*
X144500000Y-81900000D02*
G75*
G02*
X143100000Y-81900000I-700000J0D01*
G01*
X143100000Y-81900000D02*
G75*
G02*
X144500000Y-81900000I700000J0D01*
G01*
X205015000Y-110927064D02*
X205015000Y-109472936D01*
X206835000Y-110927064D02*
X206835000Y-109472936D01*
X167110000Y-112972936D02*
X167110000Y-114427064D01*
X165290000Y-112972936D02*
X165290000Y-114427064D01*
X197760000Y-110927064D02*
X197760000Y-109472936D01*
X195940000Y-110927064D02*
X195940000Y-109472936D01*
X145265000Y-90276248D02*
X145265000Y-90798752D01*
X146735000Y-90276248D02*
X146735000Y-90798752D01*
X99400000Y-92570000D02*
G75*
G02*
X98090000Y-91260000I0J1310000D01*
G01*
X104710000Y-91260000D02*
G75*
G02*
X103400000Y-92570000I-1310000J0D01*
G01*
X153727064Y-74090000D02*
X152272936Y-74090000D01*
X153727064Y-75910000D02*
X152272936Y-75910000D01*
X135090000Y-73272936D02*
X135090000Y-74727064D01*
X136910000Y-73272936D02*
X136910000Y-74727064D01*
X164195000Y-102970000D02*
X164195000Y-105630000D01*
X161595000Y-102970000D02*
X161595000Y-105630000D01*
X160325000Y-102970000D02*
X158995000Y-102970000D01*
X158995000Y-102970000D02*
X158995000Y-104300000D01*
X161595000Y-105630000D02*
X164195000Y-105630000D01*
X161595000Y-102970000D02*
X164195000Y-102970000D01*
X158285000Y-94376248D02*
X158285000Y-94898752D01*
X159755000Y-94376248D02*
X159755000Y-94898752D01*
X147437500Y-86610000D02*
X148237500Y-86610000D01*
X147437500Y-83490000D02*
X148237500Y-83490000D01*
X147437500Y-86610000D02*
X145637500Y-86610000D01*
X147437500Y-83490000D02*
X146637500Y-83490000D01*
X148965000Y-90276248D02*
X148965000Y-90798752D01*
X150435000Y-90276248D02*
X150435000Y-90798752D01*
X109740000Y-85850000D02*
X116860000Y-85850000D01*
X116860000Y-92350000D01*
X109740000Y-92350000D01*
X109740000Y-85850000D01*
X111040512Y-82450000D02*
G75*
G02*
X110259488Y-82450000I-390512J0D01*
G01*
X110259488Y-82450000D02*
G75*
G02*
X111040512Y-82450000I390512J0D01*
G01*
X111568160Y-75000000D02*
X109868160Y-75000000D01*
X111568160Y-75000000D02*
X111568160Y-72450000D01*
X109868160Y-75000000D02*
X109868160Y-72450000D01*
X146335000Y-79423752D02*
X146335000Y-78901248D01*
X144865000Y-79423752D02*
X144865000Y-78901248D01*
X125662500Y-89560000D02*
X127862500Y-89560000D01*
X125662500Y-84340000D02*
X127862500Y-84340000D01*
X125662500Y-84340000D02*
X123462500Y-84340000D01*
X125662500Y-89560000D02*
X122062500Y-89560000D01*
X153468332Y-79423752D02*
X153468332Y-78901248D01*
X151998332Y-79423752D02*
X151998332Y-78901248D01*
X167110000Y-86227064D02*
X167110000Y-84772936D01*
X165290000Y-86227064D02*
X165290000Y-84772936D01*
X152600000Y-87500000D02*
G75*
G02*
X151200000Y-87500000I-700000J0D01*
G01*
X151200000Y-87500000D02*
G75*
G02*
X152600000Y-87500000I700000J0D01*
G01*
X159621666Y-74238748D02*
X159621666Y-74761252D01*
X158151666Y-74238748D02*
X158151666Y-74761252D01*
X122272936Y-74910000D02*
X123727064Y-74910000D01*
X122272936Y-73090000D02*
X123727064Y-73090000D01*
X155564998Y-79423752D02*
X155564998Y-78901248D01*
X157034998Y-79423752D02*
X157034998Y-78901248D01*
X160601664Y-79423752D02*
X160601664Y-78901248D01*
X159131664Y-79423752D02*
X159131664Y-78901248D01*
X117910000Y-72772936D02*
X117910000Y-74227064D01*
X116090000Y-72772936D02*
X116090000Y-74227064D01*
X164810000Y-73777064D02*
X164810000Y-72322936D01*
X162990000Y-73777064D02*
X162990000Y-72322936D01*
X149901666Y-79423752D02*
X149901666Y-78901248D01*
X148431666Y-79423752D02*
X148431666Y-78901248D01*
X154765000Y-94376248D02*
X154765000Y-94898752D01*
X156235000Y-94376248D02*
X156235000Y-94898752D01*
%LPC*%
D14*
X122500000Y-60487500D03*
X122500000Y-67487500D03*
D15*
X124800000Y-70187500D03*
X120200000Y-65087500D03*
X120200000Y-69087500D03*
X120200000Y-62087500D03*
D14*
X140000000Y-60487500D03*
X140000000Y-67487500D03*
D15*
X142300000Y-70187500D03*
X137700000Y-65087500D03*
X137700000Y-69087500D03*
X137700000Y-62087500D03*
D14*
X107000000Y-60487500D03*
X107000000Y-67487500D03*
D15*
X109300000Y-70187500D03*
X104700000Y-65087500D03*
X104700000Y-69087500D03*
X104700000Y-62087500D03*
D14*
X155500000Y-60487500D03*
X155500000Y-67487500D03*
D15*
X157800000Y-70187500D03*
X153200000Y-65087500D03*
X153200000Y-69087500D03*
X153200000Y-62087500D03*
D16*
X164100000Y-62700000D03*
D17*
X107820000Y-124200000D03*
D18*
X112900000Y-124200000D03*
D17*
X117980000Y-124200000D03*
D19*
X115440000Y-119120000D03*
X109090000Y-121660000D03*
D20*
X97628900Y-109877200D03*
X97628900Y-78876500D03*
D21*
X103128000Y-78876500D03*
D22*
X105668000Y-78876500D03*
X108208000Y-78876500D03*
X110748000Y-78876500D03*
X113288000Y-78876500D03*
X115828000Y-78876500D03*
X118368000Y-78876500D03*
X120908000Y-78876500D03*
X123448000Y-78876500D03*
X125988000Y-78876500D03*
X128528000Y-78876500D03*
X131068000Y-78876500D03*
X133608000Y-78876500D03*
X136148000Y-78876500D03*
X138688000Y-78876500D03*
X141228000Y-78876500D03*
D23*
X204368400Y-96876500D03*
D24*
X204368400Y-91876500D03*
X204368400Y-94376500D03*
D25*
X196868400Y-99976500D03*
D26*
X196868400Y-88776500D03*
D24*
X189868400Y-91876500D03*
X189868400Y-96876500D03*
D17*
X130670000Y-124200000D03*
X140830000Y-124200000D03*
D18*
X135750000Y-124200000D03*
D19*
X138290000Y-119120000D03*
X131940000Y-121660000D03*
D16*
X97900000Y-137000000D03*
D17*
X153520000Y-124200000D03*
D18*
X158600000Y-124200000D03*
D17*
X163680000Y-124200000D03*
D19*
X161140000Y-119120000D03*
X154790000Y-121660000D03*
D16*
X172618400Y-136892400D03*
X221618400Y-78892400D03*
X172618400Y-78892400D03*
X221618400Y-136892400D03*
D27*
X173918400Y-132042400D03*
D28*
X171378400Y-132042400D03*
X173918400Y-129502400D03*
X171378400Y-129502400D03*
X173918400Y-126962400D03*
X171378400Y-126962400D03*
X173918400Y-124422400D03*
X171378400Y-124422400D03*
X173918400Y-121882400D03*
X171378400Y-121882400D03*
X173918400Y-119342400D03*
X171378400Y-119342400D03*
X173918400Y-116802400D03*
X171378400Y-116802400D03*
X173918400Y-114262400D03*
X171378400Y-114262400D03*
X173918400Y-111722400D03*
X171378400Y-111722400D03*
X173918400Y-109182400D03*
X171378400Y-109182400D03*
X173918400Y-106642400D03*
X171378400Y-106642400D03*
X173918400Y-104102400D03*
X171378400Y-104102400D03*
X173918400Y-101562400D03*
X171378400Y-101562400D03*
X173918400Y-99022400D03*
X171378400Y-99022400D03*
X173918400Y-96482400D03*
X171378400Y-96482400D03*
X173918400Y-93942400D03*
X171378400Y-93942400D03*
X173918400Y-91402400D03*
X171378400Y-91402400D03*
X173918400Y-88862400D03*
X171378400Y-88862400D03*
X173918400Y-86322400D03*
X171378400Y-86322400D03*
X173918400Y-83782400D03*
X171378400Y-83782400D03*
D16*
X97900000Y-62700000D03*
D29*
X154875000Y-84637500D03*
X155525000Y-84637500D03*
X156175000Y-84637500D03*
X156825000Y-84637500D03*
X157475000Y-84637500D03*
X158125000Y-84637500D03*
X158775000Y-84637500D03*
X159425000Y-84637500D03*
X160075000Y-84637500D03*
X160725000Y-84637500D03*
X160725000Y-90362500D03*
X160075000Y-90362500D03*
X159425000Y-90362500D03*
X158775000Y-90362500D03*
X158125000Y-90362500D03*
X157475000Y-90362500D03*
X156825000Y-90362500D03*
X156175000Y-90362500D03*
X155525000Y-90362500D03*
X154875000Y-90362500D03*
D30*
X143000000Y-88000000D03*
D31*
X128587500Y-92700000D03*
X126512500Y-92700000D03*
D32*
X163433330Y-80200000D03*
X163433330Y-78125000D03*
D33*
X187775000Y-111750000D03*
X187775000Y-108650000D03*
D34*
X103500000Y-72450000D03*
X103500000Y-75550000D03*
D35*
X148600000Y-72025000D03*
X148600000Y-74100000D03*
X212500000Y-96875000D03*
X212500000Y-98950000D03*
D32*
X212500000Y-91850000D03*
X212500000Y-89775000D03*
X167000000Y-80200000D03*
X167000000Y-78125000D03*
D33*
X166200000Y-93300000D03*
X166200000Y-90200000D03*
D36*
X111750000Y-97600000D03*
X114850000Y-97600000D03*
D34*
X130087040Y-71500000D03*
X130087040Y-74600000D03*
D30*
X143800000Y-81900000D03*
D33*
X205925000Y-111750000D03*
X205925000Y-108650000D03*
D34*
X166200000Y-112150000D03*
X166200000Y-115250000D03*
D33*
X196850000Y-111750000D03*
X196850000Y-108650000D03*
D35*
X146000000Y-89500000D03*
X146000000Y-91575000D03*
D23*
X103900000Y-86760000D03*
D24*
X101400000Y-91760000D03*
X98900000Y-86760000D03*
D37*
X154550000Y-75000000D03*
X151450000Y-75000000D03*
D34*
X136000000Y-72450000D03*
X136000000Y-75550000D03*
D38*
X160325000Y-104300000D03*
D28*
X162865000Y-104300000D03*
D35*
X159020000Y-93600000D03*
X159020000Y-95675000D03*
D39*
X146300000Y-86000000D03*
X146300000Y-85050000D03*
X146300000Y-84100000D03*
X148575000Y-84100000D03*
X148575000Y-86000000D03*
D35*
X149700000Y-89500000D03*
X149700000Y-91575000D03*
D40*
X110760000Y-84600000D03*
X113300000Y-84600000D03*
X115840000Y-84600000D03*
X115840000Y-93600000D03*
X113300000Y-93600000D03*
X110760000Y-93600000D03*
D41*
X110718160Y-74550000D03*
X110718160Y-72450000D03*
D32*
X145600000Y-80200000D03*
X145600000Y-78125000D03*
D42*
X122800000Y-88900000D03*
X122800000Y-88250000D03*
X122800000Y-87600000D03*
X122800000Y-86950000D03*
X122800000Y-86300000D03*
X122800000Y-85650000D03*
X122800000Y-85000000D03*
X128525000Y-85000000D03*
X128525000Y-85650000D03*
X128525000Y-86300000D03*
X128525000Y-86950000D03*
X128525000Y-87600000D03*
X128525000Y-88250000D03*
X128525000Y-88900000D03*
D32*
X152733332Y-80200000D03*
X152733332Y-78125000D03*
D33*
X166200000Y-87050000D03*
X166200000Y-83950000D03*
D30*
X151900000Y-87500000D03*
D35*
X158886666Y-73462500D03*
X158886666Y-75537500D03*
D36*
X121450000Y-74000000D03*
X124550000Y-74000000D03*
D32*
X156299998Y-80200000D03*
X156299998Y-78125000D03*
X159866664Y-80200000D03*
X159866664Y-78125000D03*
D34*
X117000000Y-71950000D03*
X117000000Y-75050000D03*
D33*
X163900000Y-74600000D03*
X163900000Y-71500000D03*
D32*
X149166666Y-80200000D03*
X149166666Y-78125000D03*
D35*
X155500000Y-93600000D03*
X155500000Y-95675000D03*
%LPD*%
M02*
