M48
; DRILL file {KiCad 8.0.1} date 2025-03-29T00:02:55-0600
; FORMAT={-:-/ absolute / inch / decimal}
; #@! TF.CreationDate,2025-03-29T00:02:55-06:00
; #@! TF.GenerationSoftware,Kicad,Pcbnew,8.0.1
; #@! TF.FileFunction,Plated,1,2,PTH
FMAT,2
INCH
; #@! TA.AperFunction,Plated,PTH,ViaDrill
T1C0.0157
; #@! TA.AperFunction,Plated,PTH,ComponentDrill
T2C0.0354
; #@! TA.AperFunction,Plated,PTH,ComponentDrill
T3C0.0394
; #@! TA.AperFunction,Plated,PTH,ComponentDrill
T4C0.0472
; #@! TA.AperFunction,Plated,PTH,ComponentDrill
T5C0.0591
; #@! TA.AperFunction,Plated,PTH,ComponentDrill
T6C0.0984
%
G90
G05
T1
X4.4685Y-4.0984
X4.6063Y-3.0079
X4.7323Y-4.2047
X4.7677Y-3.6693
X4.8819Y-4.0984
X4.9094Y-3.2205
X5.1102Y-3.2205
X5.122Y-3.0079
X5.4567Y-3.0079
X5.5039Y-4.1339
X5.8465Y-4.8622
X5.9252Y-4.5748
X5.9409Y-3.3858
X6.1299Y-4.6722
X6.378Y-3.2835
X6.4016Y-3.6378
X6.4488Y-3.0
X6.5669Y-4.9134
X6.5748Y-3.2283
X6.9094Y-4.6614
T3
X3.8937Y-3.4157
X3.9921Y-3.6126
X4.0906Y-3.4157
X6.312Y-4.1063
X6.412Y-4.1063
X6.7472Y-3.2985
X6.7472Y-3.3985
X6.7472Y-3.4985
X6.7472Y-3.5985
X6.7472Y-3.6985
X6.7472Y-3.7985
X6.7472Y-3.8985
X6.7472Y-3.9985
X6.7472Y-4.0985
X6.7472Y-4.1985
X6.7472Y-4.2985
X6.7472Y-4.3985
X6.7472Y-4.4985
X6.7472Y-4.5985
X6.7472Y-4.6985
X6.7472Y-4.7985
X6.7472Y-4.8985
X6.7472Y-4.9985
X6.7472Y-5.0985
X6.7472Y-5.1985
X6.8472Y-3.2985
X6.8472Y-3.3985
X6.8472Y-3.4985
X6.8472Y-3.5985
X6.8472Y-3.6985
X6.8472Y-3.7985
X6.8472Y-3.8985
X6.8472Y-3.9985
X6.8472Y-4.0985
X6.8472Y-4.1985
X6.8472Y-4.2985
X6.8472Y-4.3985
X6.8472Y-4.4985
X6.8472Y-4.5985
X6.8472Y-4.6985
X6.8472Y-4.7985
X6.8472Y-4.8985
X6.8472Y-4.9985
X6.8472Y-5.0985
X6.8472Y-5.1985
X7.4751Y-3.6172
X7.4751Y-3.814
X8.046Y-3.6172
X8.046Y-3.7156
X8.046Y-3.814
T4
X4.0602Y-3.1054
X4.1602Y-3.1054
X4.2602Y-3.1054
X4.3602Y-3.1054
X4.4602Y-3.1054
X4.5602Y-3.1054
X4.6602Y-3.1054
X4.7602Y-3.1054
X4.8602Y-3.1054
X4.9602Y-3.1054
X5.0602Y-3.1054
X5.1602Y-3.1054
X5.2602Y-3.1054
X5.3602Y-3.1054
X5.4602Y-3.1054
X5.5602Y-3.1054
T5
X4.2949Y-4.7898
X4.5449Y-4.6898
X5.1945Y-4.7898
X5.4445Y-4.6898
X6.0941Y-4.7898
X6.3441Y-4.6898
T6
X3.8437Y-3.1054
X3.8437Y-4.3259
T2
G00X4.122Y-2.4523
M15
G01X4.122Y-2.4365
M16
G05
G00X4.122Y-2.5704
M15
G01X4.122Y-2.5546
M16
G05
G00X4.122Y-2.7279
M15
G01X4.122Y-2.7121
M16
G05
G00X4.3031Y-2.7712
M15
G01X4.3031Y-2.7554
M16
G05
G00X4.7323Y-2.4523
M15
G01X4.7323Y-2.4365
M16
G05
G00X4.7323Y-2.5704
M15
G01X4.7323Y-2.5546
M16
G05
G00X4.7323Y-2.7279
M15
G01X4.7323Y-2.7121
M16
G05
G00X4.9134Y-2.7712
M15
G01X4.9134Y-2.7554
M16
G05
G00X5.4213Y-2.4523
M15
G01X5.4213Y-2.4365
M16
G05
G00X5.4213Y-2.5704
M15
G01X5.4213Y-2.5546
M16
G05
G00X5.4213Y-2.7279
M15
G01X5.4213Y-2.7121
M16
G05
G00X5.6024Y-2.7712
M15
G01X5.6024Y-2.7554
M16
G05
G00X6.0315Y-2.4523
M15
G01X6.0315Y-2.4365
M16
G05
G00X6.0315Y-2.5704
M15
G01X6.0315Y-2.5546
M16
G05
G00X6.0315Y-2.7279
M15
G01X6.0315Y-2.7121
M16
G05
G00X6.2126Y-2.7712
M15
G01X6.2126Y-2.7554
M16
G05
T5
G00X7.7763Y-3.4951
M15
G01X7.7251Y-3.4951
M16
G05
G00X7.7763Y-3.9361
M15
G01X7.7251Y-3.9361
M16
G05
M30
