G04 #@! TF.GenerationSoftware,KiCad,Pcbnew,8.0.1*
G04 #@! TF.CreationDate,2025-03-29T00:02:57-06:00*
G04 #@! TF.ProjectId,minidexed,6d696e69-6465-4786-9564-2e6b69636164,rev?*
G04 #@! TF.SameCoordinates,Original*
G04 #@! TF.FileFunction,Legend,Top*
G04 #@! TF.FilePolarity,Positive*
%FSLAX46Y46*%
G04 Gerber Fmt 4.6, Leading zero omitted, Abs format (unit mm)*
G04 Created by KiCad (PCBNEW 8.0.1) date 2025-03-29 00:02:57*
%MOMM*%
%LPD*%
G01*
G04 APERTURE LIST*
G04 Aperture macros list*
%AMRoundRect*
0 Rectangle with rounded corners*
0 $1 Rounding radius*
0 $2 $3 $4 $5 $6 $7 $8 $9 X,Y pos of 4 corners*
0 Add a 4 corners polygon primitive as box body*
4,1,4,$2,$3,$4,$5,$6,$7,$8,$9,$2,$3,0*
0 Add four circle primitives for the rounded corners*
1,1,$1+$1,$2,$3*
1,1,$1+$1,$4,$5*
1,1,$1+$1,$6,$7*
1,1,$1+$1,$8,$9*
0 Add four rect primitives between the rounded corners*
20,1,$1+$1,$2,$3,$4,$5,0*
20,1,$1+$1,$4,$5,$6,$7,0*
20,1,$1+$1,$6,$7,$8,$9,0*
20,1,$1+$1,$8,$9,$2,$3,0*%
G04 Aperture macros list end*
%ADD10C,0.749998*%
%ADD11C,0.150000*%
%ADD12C,0.250000*%
%ADD13C,0.200000*%
%ADD14C,0.300000*%
%ADD15C,0.120000*%
%ADD16C,0.900000*%
%ADD17O,1.700000X2.100000*%
%ADD18C,2.800000*%
%ADD19C,1.800000*%
%ADD20C,4.100000*%
%ADD21C,2.300000*%
%ADD22C,3.100000*%
%ADD23RoundRect,0.050000X-0.900000X-1.300000X0.900000X-1.300000X0.900000X1.300000X-0.900000X1.300000X0*%
%ADD24O,1.900000X2.700000*%
%ADD25RoundRect,0.050000X1.000000X1.000000X-1.000000X1.000000X-1.000000X-1.000000X1.000000X-1.000000X0*%
%ADD26C,2.100000*%
%ADD27RoundRect,0.050000X1.750000X1.250000X-1.750000X1.250000X-1.750000X-1.250000X1.750000X-1.250000X0*%
%ADD28RoundRect,0.050000X1.750000X1.400000X-1.750000X1.400000X-1.750000X-1.400000X1.750000X-1.400000X0*%
%ADD29RoundRect,0.050000X0.850000X0.850000X-0.850000X0.850000X-0.850000X-0.850000X0.850000X-0.850000X0*%
%ADD30O,1.800000X1.800000*%
%ADD31RoundRect,0.050000X-0.850000X0.850000X-0.850000X-0.850000X0.850000X-0.850000X0.850000X0.850000X0*%
G04 APERTURE END LIST*
D10*
X188643262Y-128901005D02*
X188811235Y-129055114D01*
X206237393Y-112467143D02*
X205924642Y-112095950D01*
X205056734Y-128901003D02*
X205221770Y-128743753D01*
X193884921Y-108350387D02*
X192945993Y-108630041D01*
X207677771Y-125343126D02*
X207820602Y-125041126D01*
X190065528Y-130042434D02*
X190065528Y-130042434D01*
X188796128Y-111064651D02*
X188102184Y-111738224D01*
X187698658Y-127911846D02*
X187848342Y-128084177D01*
X196343192Y-107990027D02*
X195840791Y-108021909D01*
X208931243Y-120211212D02*
X208934844Y-120063821D01*
X184790335Y-120652848D02*
X184801117Y-120799851D01*
X185619158Y-124426160D02*
X185745016Y-124735411D01*
X208497661Y-123157351D02*
X185202338Y-123157351D01*
X202102763Y-109185508D02*
X201661774Y-108982713D01*
X207820602Y-125041126D02*
X207954981Y-124735412D01*
X208198105Y-124113552D02*
X208306711Y-123797762D01*
X208925845Y-120358531D02*
X208931243Y-120211212D01*
X197859208Y-108021910D02*
X197356808Y-107990028D01*
D11*
X101690000Y-69420000D02*
X142790000Y-69420000D01*
D10*
X208080839Y-124426162D02*
X208198105Y-124113552D01*
X189511601Y-129639308D02*
X189693588Y-129777088D01*
X200754007Y-108630042D02*
X200288197Y-108480904D01*
X205542853Y-128419996D02*
X205698812Y-128253573D01*
X206291050Y-127558553D02*
X206291050Y-127558553D01*
X184774153Y-120358503D02*
X184781346Y-120505726D01*
X207526557Y-125641232D02*
X207677771Y-125343126D01*
X202534511Y-109405454D02*
X202102763Y-109185508D01*
X204159427Y-110449369D02*
X203769476Y-110164507D01*
X185202338Y-123157351D02*
X185202338Y-123157351D01*
X190065528Y-130042434D02*
X203634469Y-130042434D01*
X207086359Y-113657849D02*
X206818735Y-113248461D01*
X208174677Y-115877358D02*
X207991932Y-115411674D01*
X208855779Y-121240026D02*
X208855779Y-121240026D01*
X184813692Y-120946718D02*
X184828058Y-121093431D01*
X208886304Y-120946760D02*
X208898880Y-120799891D01*
X185361003Y-116353196D02*
X185215594Y-116838821D01*
X205597815Y-111738225D02*
X205257397Y-111394337D01*
X185215594Y-116838821D02*
X185215594Y-116838821D01*
X187848342Y-128084177D02*
X188001185Y-128253575D01*
X198848857Y-108146696D02*
X198356719Y-108074255D01*
X185393287Y-123797761D02*
X185501892Y-124113551D01*
X186173440Y-125641229D02*
X186173440Y-125641229D01*
X188478227Y-128743754D02*
X188643262Y-128901005D01*
X208497661Y-123157351D02*
X208497661Y-123157351D01*
X192945993Y-108630041D02*
X192038227Y-108982711D01*
X201661774Y-108982713D02*
X201212027Y-108797434D01*
X188811235Y-129055114D02*
X188982099Y-129206040D01*
X184765156Y-120063821D02*
X184765156Y-120063821D01*
X188982099Y-129206040D02*
X189155811Y-129353743D01*
X185501892Y-124113551D02*
X185619158Y-124426160D01*
X207954981Y-124735412D02*
X208080839Y-124426162D01*
X184828058Y-121093431D02*
X184844215Y-121239974D01*
X208306711Y-123797762D02*
X208406586Y-123478969D01*
X204006408Y-129777088D02*
X204188396Y-129639308D01*
X203769476Y-110164507D02*
X203368351Y-109895321D01*
X184768755Y-120211195D02*
X184774153Y-120358503D01*
X186173440Y-125641229D02*
X207526557Y-125641232D01*
X187552179Y-127736624D02*
X187698658Y-127911846D01*
X198356719Y-108074255D02*
X197859208Y-108021910D01*
X189332327Y-129498179D02*
X189511601Y-129639308D01*
X203634469Y-130042434D02*
X203634469Y-130042434D01*
X188102184Y-111738224D02*
X187462606Y-112467142D01*
X206291050Y-127558553D02*
X187408947Y-127558553D01*
X208934844Y-120063821D02*
X208930918Y-119899895D01*
X201212027Y-108797434D02*
X200754007Y-108630042D01*
X196850001Y-107978977D02*
X196850001Y-107978977D01*
X205257397Y-111394337D02*
X204903871Y-111064652D01*
X195343281Y-108074254D02*
X194851143Y-108146695D01*
X185525321Y-115877357D02*
X185361003Y-116353196D01*
X208877976Y-119082047D02*
X208860737Y-118918997D01*
X184794190Y-119408716D02*
X184783600Y-119572311D01*
X203634469Y-130042434D02*
X203821751Y-129911477D01*
X188001185Y-128253575D02*
X188157144Y-128419998D01*
X204717897Y-129206039D02*
X204888762Y-129055112D01*
X208918651Y-120505761D02*
X208925845Y-120358531D01*
X184858716Y-118756148D02*
X184858716Y-118756148D01*
X208930918Y-119899895D02*
X208924770Y-119736057D01*
X199335138Y-108238863D02*
X198848857Y-108146696D01*
X208338996Y-116353196D02*
X208174677Y-115877358D01*
X206818735Y-113248461D02*
X206535585Y-112851436D01*
X207573098Y-114512243D02*
X207337975Y-114079233D01*
X205221770Y-128743753D02*
X205383824Y-128583403D01*
X184844215Y-121239974D02*
X184844215Y-121239974D01*
X184806998Y-119245279D02*
X184794190Y-119408716D01*
X208934844Y-120063821D02*
X208934844Y-120063821D01*
X186362024Y-114079232D02*
X185908754Y-114956513D01*
X187408947Y-127558553D02*
X187408947Y-127558553D01*
X197356808Y-107990028D02*
X196850001Y-107978977D01*
X208406586Y-123478969D02*
X208497661Y-123157351D01*
X204537720Y-110749540D02*
X204159427Y-110449369D01*
X205851655Y-128084175D02*
X206001339Y-127911845D01*
X185202338Y-123157351D02*
X185293412Y-123478968D01*
X207791245Y-114956513D02*
X207573098Y-114512243D01*
X208905809Y-119408737D02*
X208893001Y-119245302D01*
X185708066Y-115411674D02*
X185525321Y-115877357D01*
X189878246Y-129911477D02*
X190065528Y-130042434D01*
X189693588Y-129777088D02*
X189878246Y-129911477D01*
X205924642Y-112095950D02*
X205597815Y-111738225D01*
X208909662Y-120652886D02*
X208918651Y-120505761D01*
X189540573Y-110449368D02*
X188796128Y-111064651D01*
X186022227Y-125343124D02*
X186173440Y-125641229D01*
X208841284Y-118756173D02*
X208841284Y-118756173D01*
X202956535Y-109642181D02*
X202534511Y-109405454D01*
X184775230Y-119736042D02*
X184769081Y-119899887D01*
X208484404Y-116838821D02*
X208338996Y-116353196D01*
X199815079Y-108350388D02*
X199335138Y-108238863D01*
X192038227Y-108982711D02*
X191165489Y-109405453D01*
X204188396Y-129639308D02*
X204367670Y-129498178D01*
X203821751Y-129911477D02*
X204006408Y-129777088D01*
X208893001Y-119245302D02*
X208877976Y-119082047D01*
X184822023Y-119082024D02*
X184806998Y-119245279D01*
X206001339Y-127911845D02*
X206147819Y-127736624D01*
X185215594Y-116838821D02*
X208484404Y-116838821D01*
X208924770Y-119736057D02*
X208916399Y-119572330D01*
X188157144Y-128419998D02*
X188316172Y-128583405D01*
X187462606Y-112467142D02*
X186881264Y-113248460D01*
X187408947Y-127558553D02*
X187552179Y-127736624D01*
X188316172Y-128583405D02*
X188478227Y-128743754D01*
X194851143Y-108146695D02*
X193884921Y-108350387D01*
X185879395Y-125041125D02*
X186022227Y-125343124D01*
X208841284Y-118756173D02*
X184858716Y-118756148D01*
X208484404Y-116838821D02*
X208484404Y-116838821D01*
X195840791Y-108021909D02*
X195343281Y-108074254D01*
X191165489Y-109405453D02*
X190331649Y-109895320D01*
X208860737Y-118918997D02*
X208841284Y-118756173D01*
X184858716Y-118756148D02*
X184839263Y-118918972D01*
X207991932Y-115411674D02*
X207791245Y-114956513D01*
X184781346Y-120505726D02*
X184790335Y-120652848D01*
X204888762Y-129055112D02*
X205056734Y-128901003D01*
X186881264Y-113248460D02*
X186362024Y-114079232D01*
X203368351Y-109895321D02*
X202956535Y-109642181D01*
X207526557Y-125641232D02*
X207526557Y-125641232D01*
X208855779Y-121240026D02*
X208871937Y-121093477D01*
X185745016Y-124735411D02*
X185879395Y-125041125D01*
X206535585Y-112851436D02*
X206237393Y-112467143D01*
X184801117Y-120799851D02*
X184813692Y-120946718D01*
X190331649Y-109895320D02*
X189540573Y-110449368D01*
X208916399Y-119572330D02*
X208905809Y-119408737D01*
X184769081Y-119899887D02*
X184765156Y-120063821D01*
X184844215Y-121239974D02*
X208855779Y-121240026D01*
X187408947Y-127558553D02*
X187408947Y-127558553D01*
X204367670Y-129498178D02*
X204544185Y-129353742D01*
X196849999Y-107978976D02*
X196343192Y-107990027D01*
X185293412Y-123478968D02*
X185393287Y-123797761D01*
X185202338Y-123157351D02*
X185202338Y-123157351D01*
D11*
X147470000Y-69500000D02*
X160420000Y-69500000D01*
D10*
X208898880Y-120799891D02*
X208909662Y-120652886D01*
X184858716Y-118756148D02*
X184858716Y-118756148D01*
X200288197Y-108480904D02*
X199815079Y-108350388D01*
X205698812Y-128253573D02*
X205851655Y-128084175D01*
X189155811Y-129353743D02*
X189332327Y-129498179D01*
X205383824Y-128583403D02*
X205542853Y-128419996D01*
X184765156Y-120063821D02*
X184768755Y-120211195D01*
X185908754Y-114956513D02*
X185708066Y-115411674D01*
X208871937Y-121093477D02*
X208886304Y-120946760D01*
X184839263Y-118918972D02*
X184822023Y-119082024D01*
X204903871Y-111064652D02*
X204537720Y-110749540D01*
X207337975Y-114079233D02*
X207086359Y-113657849D01*
X204544185Y-129353742D02*
X204717897Y-129206039D01*
X206147819Y-127736624D02*
X206291050Y-127558553D01*
X196850001Y-107978977D02*
X196849999Y-107978976D01*
X184783600Y-119572311D02*
X184775230Y-119736042D01*
D12*
X152700000Y-59440928D02*
X152985714Y-59440928D01*
X152985714Y-59440928D02*
X153128571Y-59512357D01*
X153128571Y-59512357D02*
X153271428Y-59655214D01*
X153271428Y-59655214D02*
X153342857Y-59940928D01*
X153342857Y-59940928D02*
X153342857Y-60440928D01*
X153342857Y-60440928D02*
X153271428Y-60726642D01*
X153271428Y-60726642D02*
X153128571Y-60869500D01*
X153128571Y-60869500D02*
X152985714Y-60940928D01*
X152985714Y-60940928D02*
X152700000Y-60940928D01*
X152700000Y-60940928D02*
X152557143Y-60869500D01*
X152557143Y-60869500D02*
X152414285Y-60726642D01*
X152414285Y-60726642D02*
X152342857Y-60440928D01*
X152342857Y-60440928D02*
X152342857Y-59940928D01*
X152342857Y-59940928D02*
X152414285Y-59655214D01*
X152414285Y-59655214D02*
X152557143Y-59512357D01*
X152557143Y-59512357D02*
X152700000Y-59440928D01*
X154628572Y-59940928D02*
X154628572Y-60940928D01*
X153985714Y-59940928D02*
X153985714Y-60726642D01*
X153985714Y-60726642D02*
X154057143Y-60869500D01*
X154057143Y-60869500D02*
X154200000Y-60940928D01*
X154200000Y-60940928D02*
X154414286Y-60940928D01*
X154414286Y-60940928D02*
X154557143Y-60869500D01*
X154557143Y-60869500D02*
X154628572Y-60798071D01*
X155128572Y-59940928D02*
X155700000Y-59940928D01*
X155342857Y-59440928D02*
X155342857Y-60726642D01*
X155342857Y-60726642D02*
X155414286Y-60869500D01*
X155414286Y-60869500D02*
X155557143Y-60940928D01*
X155557143Y-60940928D02*
X155700000Y-60940928D01*
D13*
X103324435Y-136408528D02*
X104181578Y-136408528D01*
X103753006Y-137908528D02*
X103753006Y-136408528D01*
X104681577Y-137908528D02*
X104681577Y-136908528D01*
X104681577Y-137194242D02*
X104753006Y-137051385D01*
X104753006Y-137051385D02*
X104824435Y-136979957D01*
X104824435Y-136979957D02*
X104967292Y-136908528D01*
X104967292Y-136908528D02*
X105110149Y-136908528D01*
X106253006Y-136908528D02*
X106253006Y-137908528D01*
X105610148Y-136908528D02*
X105610148Y-137694242D01*
X105610148Y-137694242D02*
X105681577Y-137837100D01*
X105681577Y-137837100D02*
X105824434Y-137908528D01*
X105824434Y-137908528D02*
X106038720Y-137908528D01*
X106038720Y-137908528D02*
X106181577Y-137837100D01*
X106181577Y-137837100D02*
X106253006Y-137765671D01*
X106895863Y-137837100D02*
X107038720Y-137908528D01*
X107038720Y-137908528D02*
X107324434Y-137908528D01*
X107324434Y-137908528D02*
X107467291Y-137837100D01*
X107467291Y-137837100D02*
X107538720Y-137694242D01*
X107538720Y-137694242D02*
X107538720Y-137622814D01*
X107538720Y-137622814D02*
X107467291Y-137479957D01*
X107467291Y-137479957D02*
X107324434Y-137408528D01*
X107324434Y-137408528D02*
X107110149Y-137408528D01*
X107110149Y-137408528D02*
X106967291Y-137337100D01*
X106967291Y-137337100D02*
X106895863Y-137194242D01*
X106895863Y-137194242D02*
X106895863Y-137122814D01*
X106895863Y-137122814D02*
X106967291Y-136979957D01*
X106967291Y-136979957D02*
X107110149Y-136908528D01*
X107110149Y-136908528D02*
X107324434Y-136908528D01*
X107324434Y-136908528D02*
X107467291Y-136979957D01*
X107967292Y-136908528D02*
X108538720Y-136908528D01*
X108181577Y-136408528D02*
X108181577Y-137694242D01*
X108181577Y-137694242D02*
X108253006Y-137837100D01*
X108253006Y-137837100D02*
X108395863Y-137908528D01*
X108395863Y-137908528D02*
X108538720Y-137908528D01*
X109967292Y-136908528D02*
X110538720Y-136908528D01*
X110181577Y-136408528D02*
X110181577Y-137694242D01*
X110181577Y-137694242D02*
X110253006Y-137837100D01*
X110253006Y-137837100D02*
X110395863Y-137908528D01*
X110395863Y-137908528D02*
X110538720Y-137908528D01*
X111038720Y-137908528D02*
X111038720Y-136408528D01*
X111681578Y-137908528D02*
X111681578Y-137122814D01*
X111681578Y-137122814D02*
X111610149Y-136979957D01*
X111610149Y-136979957D02*
X111467292Y-136908528D01*
X111467292Y-136908528D02*
X111253006Y-136908528D01*
X111253006Y-136908528D02*
X111110149Y-136979957D01*
X111110149Y-136979957D02*
X111038720Y-137051385D01*
X112967292Y-137837100D02*
X112824435Y-137908528D01*
X112824435Y-137908528D02*
X112538721Y-137908528D01*
X112538721Y-137908528D02*
X112395863Y-137837100D01*
X112395863Y-137837100D02*
X112324435Y-137694242D01*
X112324435Y-137694242D02*
X112324435Y-137122814D01*
X112324435Y-137122814D02*
X112395863Y-136979957D01*
X112395863Y-136979957D02*
X112538721Y-136908528D01*
X112538721Y-136908528D02*
X112824435Y-136908528D01*
X112824435Y-136908528D02*
X112967292Y-136979957D01*
X112967292Y-136979957D02*
X113038721Y-137122814D01*
X113038721Y-137122814D02*
X113038721Y-137265671D01*
X113038721Y-137265671D02*
X112324435Y-137408528D01*
X115467292Y-137908528D02*
X115467292Y-137122814D01*
X115467292Y-137122814D02*
X115395863Y-136979957D01*
X115395863Y-136979957D02*
X115253006Y-136908528D01*
X115253006Y-136908528D02*
X114967292Y-136908528D01*
X114967292Y-136908528D02*
X114824434Y-136979957D01*
X115467292Y-137837100D02*
X115324434Y-137908528D01*
X115324434Y-137908528D02*
X114967292Y-137908528D01*
X114967292Y-137908528D02*
X114824434Y-137837100D01*
X114824434Y-137837100D02*
X114753006Y-137694242D01*
X114753006Y-137694242D02*
X114753006Y-137551385D01*
X114753006Y-137551385D02*
X114824434Y-137408528D01*
X114824434Y-137408528D02*
X114967292Y-137337100D01*
X114967292Y-137337100D02*
X115324434Y-137337100D01*
X115324434Y-137337100D02*
X115467292Y-137265671D01*
X116395863Y-137908528D02*
X116253006Y-137837100D01*
X116253006Y-137837100D02*
X116181577Y-137694242D01*
X116181577Y-137694242D02*
X116181577Y-136408528D01*
X117610149Y-136908528D02*
X117610149Y-138122814D01*
X117610149Y-138122814D02*
X117538720Y-138265671D01*
X117538720Y-138265671D02*
X117467291Y-138337100D01*
X117467291Y-138337100D02*
X117324434Y-138408528D01*
X117324434Y-138408528D02*
X117110149Y-138408528D01*
X117110149Y-138408528D02*
X116967291Y-138337100D01*
X117610149Y-137837100D02*
X117467291Y-137908528D01*
X117467291Y-137908528D02*
X117181577Y-137908528D01*
X117181577Y-137908528D02*
X117038720Y-137837100D01*
X117038720Y-137837100D02*
X116967291Y-137765671D01*
X116967291Y-137765671D02*
X116895863Y-137622814D01*
X116895863Y-137622814D02*
X116895863Y-137194242D01*
X116895863Y-137194242D02*
X116967291Y-137051385D01*
X116967291Y-137051385D02*
X117038720Y-136979957D01*
X117038720Y-136979957D02*
X117181577Y-136908528D01*
X117181577Y-136908528D02*
X117467291Y-136908528D01*
X117467291Y-136908528D02*
X117610149Y-136979957D01*
X118538720Y-137908528D02*
X118395863Y-137837100D01*
X118395863Y-137837100D02*
X118324434Y-137765671D01*
X118324434Y-137765671D02*
X118253006Y-137622814D01*
X118253006Y-137622814D02*
X118253006Y-137194242D01*
X118253006Y-137194242D02*
X118324434Y-137051385D01*
X118324434Y-137051385D02*
X118395863Y-136979957D01*
X118395863Y-136979957D02*
X118538720Y-136908528D01*
X118538720Y-136908528D02*
X118753006Y-136908528D01*
X118753006Y-136908528D02*
X118895863Y-136979957D01*
X118895863Y-136979957D02*
X118967292Y-137051385D01*
X118967292Y-137051385D02*
X119038720Y-137194242D01*
X119038720Y-137194242D02*
X119038720Y-137622814D01*
X119038720Y-137622814D02*
X118967292Y-137765671D01*
X118967292Y-137765671D02*
X118895863Y-137837100D01*
X118895863Y-137837100D02*
X118753006Y-137908528D01*
X118753006Y-137908528D02*
X118538720Y-137908528D01*
X119681577Y-137908528D02*
X119681577Y-136908528D01*
X119681577Y-137194242D02*
X119753006Y-137051385D01*
X119753006Y-137051385D02*
X119824435Y-136979957D01*
X119824435Y-136979957D02*
X119967292Y-136908528D01*
X119967292Y-136908528D02*
X120110149Y-136908528D01*
X120610148Y-137908528D02*
X120610148Y-136908528D01*
X120610148Y-136408528D02*
X120538720Y-136479957D01*
X120538720Y-136479957D02*
X120610148Y-136551385D01*
X120610148Y-136551385D02*
X120681577Y-136479957D01*
X120681577Y-136479957D02*
X120610148Y-136408528D01*
X120610148Y-136408528D02*
X120610148Y-136551385D01*
X121110149Y-136908528D02*
X121681577Y-136908528D01*
X121324434Y-136408528D02*
X121324434Y-137694242D01*
X121324434Y-137694242D02*
X121395863Y-137837100D01*
X121395863Y-137837100D02*
X121538720Y-137908528D01*
X121538720Y-137908528D02*
X121681577Y-137908528D01*
X122181577Y-137908528D02*
X122181577Y-136408528D01*
X122824435Y-137908528D02*
X122824435Y-137122814D01*
X122824435Y-137122814D02*
X122753006Y-136979957D01*
X122753006Y-136979957D02*
X122610149Y-136908528D01*
X122610149Y-136908528D02*
X122395863Y-136908528D01*
X122395863Y-136908528D02*
X122253006Y-136979957D01*
X122253006Y-136979957D02*
X122181577Y-137051385D01*
X123538720Y-137908528D02*
X123538720Y-136908528D01*
X123538720Y-137051385D02*
X123610149Y-136979957D01*
X123610149Y-136979957D02*
X123753006Y-136908528D01*
X123753006Y-136908528D02*
X123967292Y-136908528D01*
X123967292Y-136908528D02*
X124110149Y-136979957D01*
X124110149Y-136979957D02*
X124181578Y-137122814D01*
X124181578Y-137122814D02*
X124181578Y-137908528D01*
X124181578Y-137122814D02*
X124253006Y-136979957D01*
X124253006Y-136979957D02*
X124395863Y-136908528D01*
X124395863Y-136908528D02*
X124610149Y-136908528D01*
X124610149Y-136908528D02*
X124753006Y-136979957D01*
X124753006Y-136979957D02*
X124824435Y-137122814D01*
X124824435Y-137122814D02*
X124824435Y-137908528D01*
D12*
X107421428Y-60980928D02*
X107421428Y-59480928D01*
X108135714Y-59980928D02*
X108135714Y-60980928D01*
X108135714Y-60123785D02*
X108207143Y-60052357D01*
X108207143Y-60052357D02*
X108350000Y-59980928D01*
X108350000Y-59980928D02*
X108564286Y-59980928D01*
X108564286Y-59980928D02*
X108707143Y-60052357D01*
X108707143Y-60052357D02*
X108778572Y-60195214D01*
X108778572Y-60195214D02*
X108778572Y-60980928D01*
X151200000Y-71462357D02*
X151914286Y-71462357D01*
X151057143Y-71890928D02*
X151557143Y-70390928D01*
X151557143Y-70390928D02*
X152057143Y-71890928D01*
X153200000Y-70890928D02*
X153200000Y-71890928D01*
X152557142Y-70890928D02*
X152557142Y-71676642D01*
X152557142Y-71676642D02*
X152628571Y-71819500D01*
X152628571Y-71819500D02*
X152771428Y-71890928D01*
X152771428Y-71890928D02*
X152985714Y-71890928D01*
X152985714Y-71890928D02*
X153128571Y-71819500D01*
X153128571Y-71819500D02*
X153200000Y-71748071D01*
X154557143Y-71890928D02*
X154557143Y-70390928D01*
X154557143Y-71819500D02*
X154414285Y-71890928D01*
X154414285Y-71890928D02*
X154128571Y-71890928D01*
X154128571Y-71890928D02*
X153985714Y-71819500D01*
X153985714Y-71819500D02*
X153914285Y-71748071D01*
X153914285Y-71748071D02*
X153842857Y-71605214D01*
X153842857Y-71605214D02*
X153842857Y-71176642D01*
X153842857Y-71176642D02*
X153914285Y-71033785D01*
X153914285Y-71033785D02*
X153985714Y-70962357D01*
X153985714Y-70962357D02*
X154128571Y-70890928D01*
X154128571Y-70890928D02*
X154414285Y-70890928D01*
X154414285Y-70890928D02*
X154557143Y-70962357D01*
X155271428Y-71890928D02*
X155271428Y-70890928D01*
X155271428Y-70390928D02*
X155200000Y-70462357D01*
X155200000Y-70462357D02*
X155271428Y-70533785D01*
X155271428Y-70533785D02*
X155342857Y-70462357D01*
X155342857Y-70462357D02*
X155271428Y-70390928D01*
X155271428Y-70390928D02*
X155271428Y-70533785D01*
X156200000Y-71890928D02*
X156057143Y-71819500D01*
X156057143Y-71819500D02*
X155985714Y-71748071D01*
X155985714Y-71748071D02*
X155914286Y-71605214D01*
X155914286Y-71605214D02*
X155914286Y-71176642D01*
X155914286Y-71176642D02*
X155985714Y-71033785D01*
X155985714Y-71033785D02*
X156057143Y-70962357D01*
X156057143Y-70962357D02*
X156200000Y-70890928D01*
X156200000Y-70890928D02*
X156414286Y-70890928D01*
X156414286Y-70890928D02*
X156557143Y-70962357D01*
X156557143Y-70962357D02*
X156628572Y-71033785D01*
X156628572Y-71033785D02*
X156700000Y-71176642D01*
X156700000Y-71176642D02*
X156700000Y-71605214D01*
X156700000Y-71605214D02*
X156628572Y-71748071D01*
X156628572Y-71748071D02*
X156557143Y-71819500D01*
X156557143Y-71819500D02*
X156414286Y-71890928D01*
X156414286Y-71890928D02*
X156200000Y-71890928D01*
X120005713Y-71890928D02*
X120005713Y-70390928D01*
X120005713Y-70390928D02*
X120505713Y-71462357D01*
X120505713Y-71462357D02*
X121005713Y-70390928D01*
X121005713Y-70390928D02*
X121005713Y-71890928D01*
X121719999Y-71890928D02*
X121719999Y-70390928D01*
X122434285Y-71890928D02*
X122434285Y-70390928D01*
X122434285Y-70390928D02*
X122791428Y-70390928D01*
X122791428Y-70390928D02*
X123005714Y-70462357D01*
X123005714Y-70462357D02*
X123148571Y-70605214D01*
X123148571Y-70605214D02*
X123220000Y-70748071D01*
X123220000Y-70748071D02*
X123291428Y-71033785D01*
X123291428Y-71033785D02*
X123291428Y-71248071D01*
X123291428Y-71248071D02*
X123220000Y-71533785D01*
X123220000Y-71533785D02*
X123148571Y-71676642D01*
X123148571Y-71676642D02*
X123005714Y-71819500D01*
X123005714Y-71819500D02*
X122791428Y-71890928D01*
X122791428Y-71890928D02*
X122434285Y-71890928D01*
X123934285Y-71890928D02*
X123934285Y-70390928D01*
X119950000Y-59480928D02*
X120807143Y-59480928D01*
X120378571Y-60980928D02*
X120378571Y-59480928D01*
X121307142Y-60980928D02*
X121307142Y-59480928D01*
X121950000Y-60980928D02*
X121950000Y-60195214D01*
X121950000Y-60195214D02*
X121878571Y-60052357D01*
X121878571Y-60052357D02*
X121735714Y-59980928D01*
X121735714Y-59980928D02*
X121521428Y-59980928D01*
X121521428Y-59980928D02*
X121378571Y-60052357D01*
X121378571Y-60052357D02*
X121307142Y-60123785D01*
X122664285Y-60980928D02*
X122664285Y-59980928D01*
X122664285Y-60266642D02*
X122735714Y-60123785D01*
X122735714Y-60123785D02*
X122807143Y-60052357D01*
X122807143Y-60052357D02*
X122950000Y-59980928D01*
X122950000Y-59980928D02*
X123092857Y-59980928D01*
X124235714Y-59980928D02*
X124235714Y-60980928D01*
X123592856Y-59980928D02*
X123592856Y-60766642D01*
X123592856Y-60766642D02*
X123664285Y-60909500D01*
X123664285Y-60909500D02*
X123807142Y-60980928D01*
X123807142Y-60980928D02*
X124021428Y-60980928D01*
X124021428Y-60980928D02*
X124164285Y-60909500D01*
X124164285Y-60909500D02*
X124235714Y-60838071D01*
X135050000Y-59480928D02*
X135335714Y-59480928D01*
X135335714Y-59480928D02*
X135478571Y-59552357D01*
X135478571Y-59552357D02*
X135621428Y-59695214D01*
X135621428Y-59695214D02*
X135692857Y-59980928D01*
X135692857Y-59980928D02*
X135692857Y-60480928D01*
X135692857Y-60480928D02*
X135621428Y-60766642D01*
X135621428Y-60766642D02*
X135478571Y-60909500D01*
X135478571Y-60909500D02*
X135335714Y-60980928D01*
X135335714Y-60980928D02*
X135050000Y-60980928D01*
X135050000Y-60980928D02*
X134907143Y-60909500D01*
X134907143Y-60909500D02*
X134764285Y-60766642D01*
X134764285Y-60766642D02*
X134692857Y-60480928D01*
X134692857Y-60480928D02*
X134692857Y-59980928D01*
X134692857Y-59980928D02*
X134764285Y-59695214D01*
X134764285Y-59695214D02*
X134907143Y-59552357D01*
X134907143Y-59552357D02*
X135050000Y-59480928D01*
X136978572Y-59980928D02*
X136978572Y-60980928D01*
X136335714Y-59980928D02*
X136335714Y-60766642D01*
X136335714Y-60766642D02*
X136407143Y-60909500D01*
X136407143Y-60909500D02*
X136550000Y-60980928D01*
X136550000Y-60980928D02*
X136764286Y-60980928D01*
X136764286Y-60980928D02*
X136907143Y-60909500D01*
X136907143Y-60909500D02*
X136978572Y-60838071D01*
X137478572Y-59980928D02*
X138050000Y-59980928D01*
X137692857Y-59480928D02*
X137692857Y-60766642D01*
X137692857Y-60766642D02*
X137764286Y-60909500D01*
X137764286Y-60909500D02*
X137907143Y-60980928D01*
X137907143Y-60980928D02*
X138050000Y-60980928D01*
D11*
X102576779Y-95881177D02*
X102910112Y-95881177D01*
X103052969Y-96404987D02*
X102576779Y-96404987D01*
X102576779Y-96404987D02*
X102576779Y-95404987D01*
X102576779Y-95404987D02*
X103052969Y-95404987D01*
X103386303Y-95738320D02*
X103624398Y-96404987D01*
X103624398Y-96404987D02*
X103862493Y-95738320D01*
X104624398Y-96357368D02*
X104529160Y-96404987D01*
X104529160Y-96404987D02*
X104338684Y-96404987D01*
X104338684Y-96404987D02*
X104243446Y-96357368D01*
X104243446Y-96357368D02*
X104195827Y-96262129D01*
X104195827Y-96262129D02*
X104195827Y-95881177D01*
X104195827Y-95881177D02*
X104243446Y-95785939D01*
X104243446Y-95785939D02*
X104338684Y-95738320D01*
X104338684Y-95738320D02*
X104529160Y-95738320D01*
X104529160Y-95738320D02*
X104624398Y-95785939D01*
X104624398Y-95785939D02*
X104672017Y-95881177D01*
X104672017Y-95881177D02*
X104672017Y-95976415D01*
X104672017Y-95976415D02*
X104195827Y-96071653D01*
X105100589Y-96404987D02*
X105100589Y-95738320D01*
X105100589Y-95928796D02*
X105148208Y-95833558D01*
X105148208Y-95833558D02*
X105195827Y-95785939D01*
X105195827Y-95785939D02*
X105291065Y-95738320D01*
X105291065Y-95738320D02*
X105386303Y-95738320D01*
X105624399Y-95738320D02*
X105862494Y-96404987D01*
X106100589Y-95738320D02*
X105862494Y-96404987D01*
X105862494Y-96404987D02*
X105767256Y-96643082D01*
X105767256Y-96643082D02*
X105719637Y-96690701D01*
X105719637Y-96690701D02*
X105624399Y-96738320D01*
X107243447Y-96404987D02*
X107243447Y-95738320D01*
X107243447Y-95404987D02*
X107195828Y-95452606D01*
X107195828Y-95452606D02*
X107243447Y-95500225D01*
X107243447Y-95500225D02*
X107291066Y-95452606D01*
X107291066Y-95452606D02*
X107243447Y-95404987D01*
X107243447Y-95404987D02*
X107243447Y-95500225D01*
X108148208Y-96404987D02*
X108148208Y-95404987D01*
X108148208Y-96357368D02*
X108052970Y-96404987D01*
X108052970Y-96404987D02*
X107862494Y-96404987D01*
X107862494Y-96404987D02*
X107767256Y-96357368D01*
X107767256Y-96357368D02*
X107719637Y-96309748D01*
X107719637Y-96309748D02*
X107672018Y-96214510D01*
X107672018Y-96214510D02*
X107672018Y-95928796D01*
X107672018Y-95928796D02*
X107719637Y-95833558D01*
X107719637Y-95833558D02*
X107767256Y-95785939D01*
X107767256Y-95785939D02*
X107862494Y-95738320D01*
X107862494Y-95738320D02*
X108052970Y-95738320D01*
X108052970Y-95738320D02*
X108148208Y-95785939D01*
X109005351Y-96357368D02*
X108910113Y-96404987D01*
X108910113Y-96404987D02*
X108719637Y-96404987D01*
X108719637Y-96404987D02*
X108624399Y-96357368D01*
X108624399Y-96357368D02*
X108576780Y-96262129D01*
X108576780Y-96262129D02*
X108576780Y-95881177D01*
X108576780Y-95881177D02*
X108624399Y-95785939D01*
X108624399Y-95785939D02*
X108719637Y-95738320D01*
X108719637Y-95738320D02*
X108910113Y-95738320D01*
X108910113Y-95738320D02*
X109005351Y-95785939D01*
X109005351Y-95785939D02*
X109052970Y-95881177D01*
X109052970Y-95881177D02*
X109052970Y-95976415D01*
X109052970Y-95976415D02*
X108576780Y-96071653D01*
X109910113Y-96404987D02*
X109910113Y-95881177D01*
X109910113Y-95881177D02*
X109862494Y-95785939D01*
X109862494Y-95785939D02*
X109767256Y-95738320D01*
X109767256Y-95738320D02*
X109576780Y-95738320D01*
X109576780Y-95738320D02*
X109481542Y-95785939D01*
X109910113Y-96357368D02*
X109814875Y-96404987D01*
X109814875Y-96404987D02*
X109576780Y-96404987D01*
X109576780Y-96404987D02*
X109481542Y-96357368D01*
X109481542Y-96357368D02*
X109433923Y-96262129D01*
X109433923Y-96262129D02*
X109433923Y-96166891D01*
X109433923Y-96166891D02*
X109481542Y-96071653D01*
X109481542Y-96071653D02*
X109576780Y-96024034D01*
X109576780Y-96024034D02*
X109814875Y-96024034D01*
X109814875Y-96024034D02*
X109910113Y-95976415D01*
X111148209Y-96404987D02*
X111148209Y-95738320D01*
X111148209Y-95404987D02*
X111100590Y-95452606D01*
X111100590Y-95452606D02*
X111148209Y-95500225D01*
X111148209Y-95500225D02*
X111195828Y-95452606D01*
X111195828Y-95452606D02*
X111148209Y-95404987D01*
X111148209Y-95404987D02*
X111148209Y-95500225D01*
X111576780Y-96357368D02*
X111672018Y-96404987D01*
X111672018Y-96404987D02*
X111862494Y-96404987D01*
X111862494Y-96404987D02*
X111957732Y-96357368D01*
X111957732Y-96357368D02*
X112005351Y-96262129D01*
X112005351Y-96262129D02*
X112005351Y-96214510D01*
X112005351Y-96214510D02*
X111957732Y-96119272D01*
X111957732Y-96119272D02*
X111862494Y-96071653D01*
X111862494Y-96071653D02*
X111719637Y-96071653D01*
X111719637Y-96071653D02*
X111624399Y-96024034D01*
X111624399Y-96024034D02*
X111576780Y-95928796D01*
X111576780Y-95928796D02*
X111576780Y-95881177D01*
X111576780Y-95881177D02*
X111624399Y-95785939D01*
X111624399Y-95785939D02*
X111719637Y-95738320D01*
X111719637Y-95738320D02*
X111862494Y-95738320D01*
X111862494Y-95738320D02*
X111957732Y-95785939D01*
X113624399Y-96404987D02*
X113624399Y-95881177D01*
X113624399Y-95881177D02*
X113576780Y-95785939D01*
X113576780Y-95785939D02*
X113481542Y-95738320D01*
X113481542Y-95738320D02*
X113291066Y-95738320D01*
X113291066Y-95738320D02*
X113195828Y-95785939D01*
X113624399Y-96357368D02*
X113529161Y-96404987D01*
X113529161Y-96404987D02*
X113291066Y-96404987D01*
X113291066Y-96404987D02*
X113195828Y-96357368D01*
X113195828Y-96357368D02*
X113148209Y-96262129D01*
X113148209Y-96262129D02*
X113148209Y-96166891D01*
X113148209Y-96166891D02*
X113195828Y-96071653D01*
X113195828Y-96071653D02*
X113291066Y-96024034D01*
X113291066Y-96024034D02*
X113529161Y-96024034D01*
X113529161Y-96024034D02*
X113624399Y-95976415D01*
X114767257Y-95738320D02*
X114957733Y-96404987D01*
X114957733Y-96404987D02*
X115148209Y-95928796D01*
X115148209Y-95928796D02*
X115338685Y-96404987D01*
X115338685Y-96404987D02*
X115529161Y-95738320D01*
X116338685Y-96404987D02*
X116338685Y-95881177D01*
X116338685Y-95881177D02*
X116291066Y-95785939D01*
X116291066Y-95785939D02*
X116195828Y-95738320D01*
X116195828Y-95738320D02*
X116005352Y-95738320D01*
X116005352Y-95738320D02*
X115910114Y-95785939D01*
X116338685Y-96357368D02*
X116243447Y-96404987D01*
X116243447Y-96404987D02*
X116005352Y-96404987D01*
X116005352Y-96404987D02*
X115910114Y-96357368D01*
X115910114Y-96357368D02*
X115862495Y-96262129D01*
X115862495Y-96262129D02*
X115862495Y-96166891D01*
X115862495Y-96166891D02*
X115910114Y-96071653D01*
X115910114Y-96071653D02*
X116005352Y-96024034D01*
X116005352Y-96024034D02*
X116243447Y-96024034D01*
X116243447Y-96024034D02*
X116338685Y-95976415D01*
X116719638Y-95738320D02*
X116957733Y-96404987D01*
X116957733Y-96404987D02*
X117195828Y-95738320D01*
X117957733Y-96357368D02*
X117862495Y-96404987D01*
X117862495Y-96404987D02*
X117672019Y-96404987D01*
X117672019Y-96404987D02*
X117576781Y-96357368D01*
X117576781Y-96357368D02*
X117529162Y-96262129D01*
X117529162Y-96262129D02*
X117529162Y-95881177D01*
X117529162Y-95881177D02*
X117576781Y-95785939D01*
X117576781Y-95785939D02*
X117672019Y-95738320D01*
X117672019Y-95738320D02*
X117862495Y-95738320D01*
X117862495Y-95738320D02*
X117957733Y-95785939D01*
X117957733Y-95785939D02*
X118005352Y-95881177D01*
X118005352Y-95881177D02*
X118005352Y-95976415D01*
X118005352Y-95976415D02*
X117529162Y-96071653D01*
X118291067Y-95738320D02*
X118672019Y-95738320D01*
X118433924Y-96404987D02*
X118433924Y-95547844D01*
X118433924Y-95547844D02*
X118481543Y-95452606D01*
X118481543Y-95452606D02*
X118576781Y-95404987D01*
X118576781Y-95404987D02*
X118672019Y-95404987D01*
X119148210Y-96404987D02*
X119052972Y-96357368D01*
X119052972Y-96357368D02*
X119005353Y-96309748D01*
X119005353Y-96309748D02*
X118957734Y-96214510D01*
X118957734Y-96214510D02*
X118957734Y-95928796D01*
X118957734Y-95928796D02*
X119005353Y-95833558D01*
X119005353Y-95833558D02*
X119052972Y-95785939D01*
X119052972Y-95785939D02*
X119148210Y-95738320D01*
X119148210Y-95738320D02*
X119291067Y-95738320D01*
X119291067Y-95738320D02*
X119386305Y-95785939D01*
X119386305Y-95785939D02*
X119433924Y-95833558D01*
X119433924Y-95833558D02*
X119481543Y-95928796D01*
X119481543Y-95928796D02*
X119481543Y-96214510D01*
X119481543Y-96214510D02*
X119433924Y-96309748D01*
X119433924Y-96309748D02*
X119386305Y-96357368D01*
X119386305Y-96357368D02*
X119291067Y-96404987D01*
X119291067Y-96404987D02*
X119148210Y-96404987D01*
X119910115Y-96404987D02*
X119910115Y-95738320D01*
X119910115Y-95928796D02*
X119957734Y-95833558D01*
X119957734Y-95833558D02*
X120005353Y-95785939D01*
X120005353Y-95785939D02*
X120100591Y-95738320D01*
X120100591Y-95738320D02*
X120195829Y-95738320D01*
X120529163Y-96404987D02*
X120529163Y-95738320D01*
X120529163Y-95833558D02*
X120576782Y-95785939D01*
X120576782Y-95785939D02*
X120672020Y-95738320D01*
X120672020Y-95738320D02*
X120814877Y-95738320D01*
X120814877Y-95738320D02*
X120910115Y-95785939D01*
X120910115Y-95785939D02*
X120957734Y-95881177D01*
X120957734Y-95881177D02*
X120957734Y-96404987D01*
X120957734Y-95881177D02*
X121005353Y-95785939D01*
X121005353Y-95785939D02*
X121100591Y-95738320D01*
X121100591Y-95738320D02*
X121243448Y-95738320D01*
X121243448Y-95738320D02*
X121338687Y-95785939D01*
X121338687Y-95785939D02*
X121386306Y-95881177D01*
X121386306Y-95881177D02*
X121386306Y-96404987D01*
X122529163Y-95738320D02*
X122719639Y-96404987D01*
X122719639Y-96404987D02*
X122910115Y-95928796D01*
X122910115Y-95928796D02*
X123100591Y-96404987D01*
X123100591Y-96404987D02*
X123291067Y-95738320D01*
X124100591Y-96404987D02*
X124100591Y-95881177D01*
X124100591Y-95881177D02*
X124052972Y-95785939D01*
X124052972Y-95785939D02*
X123957734Y-95738320D01*
X123957734Y-95738320D02*
X123767258Y-95738320D01*
X123767258Y-95738320D02*
X123672020Y-95785939D01*
X124100591Y-96357368D02*
X124005353Y-96404987D01*
X124005353Y-96404987D02*
X123767258Y-96404987D01*
X123767258Y-96404987D02*
X123672020Y-96357368D01*
X123672020Y-96357368D02*
X123624401Y-96262129D01*
X123624401Y-96262129D02*
X123624401Y-96166891D01*
X123624401Y-96166891D02*
X123672020Y-96071653D01*
X123672020Y-96071653D02*
X123767258Y-96024034D01*
X123767258Y-96024034D02*
X124005353Y-96024034D01*
X124005353Y-96024034D02*
X124100591Y-95976415D01*
X124576782Y-96404987D02*
X124576782Y-95738320D01*
X124576782Y-95404987D02*
X124529163Y-95452606D01*
X124529163Y-95452606D02*
X124576782Y-95500225D01*
X124576782Y-95500225D02*
X124624401Y-95452606D01*
X124624401Y-95452606D02*
X124576782Y-95404987D01*
X124576782Y-95404987D02*
X124576782Y-95500225D01*
X124910115Y-95738320D02*
X125291067Y-95738320D01*
X125052972Y-95404987D02*
X125052972Y-96262129D01*
X125052972Y-96262129D02*
X125100591Y-96357368D01*
X125100591Y-96357368D02*
X125195829Y-96404987D01*
X125195829Y-96404987D02*
X125291067Y-96404987D01*
X125624401Y-96404987D02*
X125624401Y-95738320D01*
X125624401Y-95404987D02*
X125576782Y-95452606D01*
X125576782Y-95452606D02*
X125624401Y-95500225D01*
X125624401Y-95500225D02*
X125672020Y-95452606D01*
X125672020Y-95452606D02*
X125624401Y-95404987D01*
X125624401Y-95404987D02*
X125624401Y-95500225D01*
X126100591Y-95738320D02*
X126100591Y-96404987D01*
X126100591Y-95833558D02*
X126148210Y-95785939D01*
X126148210Y-95785939D02*
X126243448Y-95738320D01*
X126243448Y-95738320D02*
X126386305Y-95738320D01*
X126386305Y-95738320D02*
X126481543Y-95785939D01*
X126481543Y-95785939D02*
X126529162Y-95881177D01*
X126529162Y-95881177D02*
X126529162Y-96404987D01*
X127433924Y-95738320D02*
X127433924Y-96547844D01*
X127433924Y-96547844D02*
X127386305Y-96643082D01*
X127386305Y-96643082D02*
X127338686Y-96690701D01*
X127338686Y-96690701D02*
X127243448Y-96738320D01*
X127243448Y-96738320D02*
X127100591Y-96738320D01*
X127100591Y-96738320D02*
X127005353Y-96690701D01*
X127433924Y-96357368D02*
X127338686Y-96404987D01*
X127338686Y-96404987D02*
X127148210Y-96404987D01*
X127148210Y-96404987D02*
X127052972Y-96357368D01*
X127052972Y-96357368D02*
X127005353Y-96309748D01*
X127005353Y-96309748D02*
X126957734Y-96214510D01*
X126957734Y-96214510D02*
X126957734Y-95928796D01*
X126957734Y-95928796D02*
X127005353Y-95833558D01*
X127005353Y-95833558D02*
X127052972Y-95785939D01*
X127052972Y-95785939D02*
X127148210Y-95738320D01*
X127148210Y-95738320D02*
X127338686Y-95738320D01*
X127338686Y-95738320D02*
X127433924Y-95785939D01*
X128529163Y-95738320D02*
X128910115Y-95738320D01*
X128672020Y-95404987D02*
X128672020Y-96262129D01*
X128672020Y-96262129D02*
X128719639Y-96357368D01*
X128719639Y-96357368D02*
X128814877Y-96404987D01*
X128814877Y-96404987D02*
X128910115Y-96404987D01*
X129386306Y-96404987D02*
X129291068Y-96357368D01*
X129291068Y-96357368D02*
X129243449Y-96309748D01*
X129243449Y-96309748D02*
X129195830Y-96214510D01*
X129195830Y-96214510D02*
X129195830Y-95928796D01*
X129195830Y-95928796D02*
X129243449Y-95833558D01*
X129243449Y-95833558D02*
X129291068Y-95785939D01*
X129291068Y-95785939D02*
X129386306Y-95738320D01*
X129386306Y-95738320D02*
X129529163Y-95738320D01*
X129529163Y-95738320D02*
X129624401Y-95785939D01*
X129624401Y-95785939D02*
X129672020Y-95833558D01*
X129672020Y-95833558D02*
X129719639Y-95928796D01*
X129719639Y-95928796D02*
X129719639Y-96214510D01*
X129719639Y-96214510D02*
X129672020Y-96309748D01*
X129672020Y-96309748D02*
X129624401Y-96357368D01*
X129624401Y-96357368D02*
X129529163Y-96404987D01*
X129529163Y-96404987D02*
X129386306Y-96404987D01*
X130910116Y-96404987D02*
X130910116Y-95404987D01*
X130910116Y-95785939D02*
X131005354Y-95738320D01*
X131005354Y-95738320D02*
X131195830Y-95738320D01*
X131195830Y-95738320D02*
X131291068Y-95785939D01*
X131291068Y-95785939D02*
X131338687Y-95833558D01*
X131338687Y-95833558D02*
X131386306Y-95928796D01*
X131386306Y-95928796D02*
X131386306Y-96214510D01*
X131386306Y-96214510D02*
X131338687Y-96309748D01*
X131338687Y-96309748D02*
X131291068Y-96357368D01*
X131291068Y-96357368D02*
X131195830Y-96404987D01*
X131195830Y-96404987D02*
X131005354Y-96404987D01*
X131005354Y-96404987D02*
X130910116Y-96357368D01*
X132195830Y-96357368D02*
X132100592Y-96404987D01*
X132100592Y-96404987D02*
X131910116Y-96404987D01*
X131910116Y-96404987D02*
X131814878Y-96357368D01*
X131814878Y-96357368D02*
X131767259Y-96262129D01*
X131767259Y-96262129D02*
X131767259Y-95881177D01*
X131767259Y-95881177D02*
X131814878Y-95785939D01*
X131814878Y-95785939D02*
X131910116Y-95738320D01*
X131910116Y-95738320D02*
X132100592Y-95738320D01*
X132100592Y-95738320D02*
X132195830Y-95785939D01*
X132195830Y-95785939D02*
X132243449Y-95881177D01*
X132243449Y-95881177D02*
X132243449Y-95976415D01*
X132243449Y-95976415D02*
X131767259Y-96071653D01*
X133386307Y-96357368D02*
X133481545Y-96404987D01*
X133481545Y-96404987D02*
X133672021Y-96404987D01*
X133672021Y-96404987D02*
X133767259Y-96357368D01*
X133767259Y-96357368D02*
X133814878Y-96262129D01*
X133814878Y-96262129D02*
X133814878Y-96214510D01*
X133814878Y-96214510D02*
X133767259Y-96119272D01*
X133767259Y-96119272D02*
X133672021Y-96071653D01*
X133672021Y-96071653D02*
X133529164Y-96071653D01*
X133529164Y-96071653D02*
X133433926Y-96024034D01*
X133433926Y-96024034D02*
X133386307Y-95928796D01*
X133386307Y-95928796D02*
X133386307Y-95881177D01*
X133386307Y-95881177D02*
X133433926Y-95785939D01*
X133433926Y-95785939D02*
X133529164Y-95738320D01*
X133529164Y-95738320D02*
X133672021Y-95738320D01*
X133672021Y-95738320D02*
X133767259Y-95785939D01*
X134243450Y-96404987D02*
X134243450Y-95404987D01*
X134672021Y-96404987D02*
X134672021Y-95881177D01*
X134672021Y-95881177D02*
X134624402Y-95785939D01*
X134624402Y-95785939D02*
X134529164Y-95738320D01*
X134529164Y-95738320D02*
X134386307Y-95738320D01*
X134386307Y-95738320D02*
X134291069Y-95785939D01*
X134291069Y-95785939D02*
X134243450Y-95833558D01*
X135576783Y-96404987D02*
X135576783Y-95881177D01*
X135576783Y-95881177D02*
X135529164Y-95785939D01*
X135529164Y-95785939D02*
X135433926Y-95738320D01*
X135433926Y-95738320D02*
X135243450Y-95738320D01*
X135243450Y-95738320D02*
X135148212Y-95785939D01*
X135576783Y-96357368D02*
X135481545Y-96404987D01*
X135481545Y-96404987D02*
X135243450Y-96404987D01*
X135243450Y-96404987D02*
X135148212Y-96357368D01*
X135148212Y-96357368D02*
X135100593Y-96262129D01*
X135100593Y-96262129D02*
X135100593Y-96166891D01*
X135100593Y-96166891D02*
X135148212Y-96071653D01*
X135148212Y-96071653D02*
X135243450Y-96024034D01*
X135243450Y-96024034D02*
X135481545Y-96024034D01*
X135481545Y-96024034D02*
X135576783Y-95976415D01*
X136052974Y-95738320D02*
X136052974Y-96738320D01*
X136052974Y-95785939D02*
X136148212Y-95738320D01*
X136148212Y-95738320D02*
X136338688Y-95738320D01*
X136338688Y-95738320D02*
X136433926Y-95785939D01*
X136433926Y-95785939D02*
X136481545Y-95833558D01*
X136481545Y-95833558D02*
X136529164Y-95928796D01*
X136529164Y-95928796D02*
X136529164Y-96214510D01*
X136529164Y-96214510D02*
X136481545Y-96309748D01*
X136481545Y-96309748D02*
X136433926Y-96357368D01*
X136433926Y-96357368D02*
X136338688Y-96404987D01*
X136338688Y-96404987D02*
X136148212Y-96404987D01*
X136148212Y-96404987D02*
X136052974Y-96357368D01*
X137338688Y-96357368D02*
X137243450Y-96404987D01*
X137243450Y-96404987D02*
X137052974Y-96404987D01*
X137052974Y-96404987D02*
X136957736Y-96357368D01*
X136957736Y-96357368D02*
X136910117Y-96262129D01*
X136910117Y-96262129D02*
X136910117Y-95881177D01*
X136910117Y-95881177D02*
X136957736Y-95785939D01*
X136957736Y-95785939D02*
X137052974Y-95738320D01*
X137052974Y-95738320D02*
X137243450Y-95738320D01*
X137243450Y-95738320D02*
X137338688Y-95785939D01*
X137338688Y-95785939D02*
X137386307Y-95881177D01*
X137386307Y-95881177D02*
X137386307Y-95976415D01*
X137386307Y-95976415D02*
X136910117Y-96071653D01*
X138243450Y-96404987D02*
X138243450Y-95404987D01*
X138243450Y-96357368D02*
X138148212Y-96404987D01*
X138148212Y-96404987D02*
X137957736Y-96404987D01*
X137957736Y-96404987D02*
X137862498Y-96357368D01*
X137862498Y-96357368D02*
X137814879Y-96309748D01*
X137814879Y-96309748D02*
X137767260Y-96214510D01*
X137767260Y-96214510D02*
X137767260Y-95928796D01*
X137767260Y-95928796D02*
X137814879Y-95833558D01*
X137814879Y-95833558D02*
X137862498Y-95785939D01*
X137862498Y-95785939D02*
X137957736Y-95738320D01*
X137957736Y-95738320D02*
X138148212Y-95738320D01*
X138148212Y-95738320D02*
X138243450Y-95785939D01*
X139481546Y-96404987D02*
X139481546Y-95738320D01*
X139481546Y-95404987D02*
X139433927Y-95452606D01*
X139433927Y-95452606D02*
X139481546Y-95500225D01*
X139481546Y-95500225D02*
X139529165Y-95452606D01*
X139529165Y-95452606D02*
X139481546Y-95404987D01*
X139481546Y-95404987D02*
X139481546Y-95500225D01*
X139957736Y-95738320D02*
X139957736Y-96404987D01*
X139957736Y-95833558D02*
X140005355Y-95785939D01*
X140005355Y-95785939D02*
X140100593Y-95738320D01*
X140100593Y-95738320D02*
X140243450Y-95738320D01*
X140243450Y-95738320D02*
X140338688Y-95785939D01*
X140338688Y-95785939D02*
X140386307Y-95881177D01*
X140386307Y-95881177D02*
X140386307Y-96404987D01*
X140719641Y-95738320D02*
X141100593Y-95738320D01*
X140862498Y-95404987D02*
X140862498Y-96262129D01*
X140862498Y-96262129D02*
X140910117Y-96357368D01*
X140910117Y-96357368D02*
X141005355Y-96404987D01*
X141005355Y-96404987D02*
X141100593Y-96404987D01*
X141576784Y-96404987D02*
X141481546Y-96357368D01*
X141481546Y-96357368D02*
X141433927Y-96309748D01*
X141433927Y-96309748D02*
X141386308Y-96214510D01*
X141386308Y-96214510D02*
X141386308Y-95928796D01*
X141386308Y-95928796D02*
X141433927Y-95833558D01*
X141433927Y-95833558D02*
X141481546Y-95785939D01*
X141481546Y-95785939D02*
X141576784Y-95738320D01*
X141576784Y-95738320D02*
X141719641Y-95738320D01*
X141719641Y-95738320D02*
X141814879Y-95785939D01*
X141814879Y-95785939D02*
X141862498Y-95833558D01*
X141862498Y-95833558D02*
X141910117Y-95928796D01*
X141910117Y-95928796D02*
X141910117Y-96214510D01*
X141910117Y-96214510D02*
X141862498Y-96309748D01*
X141862498Y-96309748D02*
X141814879Y-96357368D01*
X141814879Y-96357368D02*
X141719641Y-96404987D01*
X141719641Y-96404987D02*
X141576784Y-96404987D01*
X143052975Y-96357368D02*
X143148213Y-96404987D01*
X143148213Y-96404987D02*
X143338689Y-96404987D01*
X143338689Y-96404987D02*
X143433927Y-96357368D01*
X143433927Y-96357368D02*
X143481546Y-96262129D01*
X143481546Y-96262129D02*
X143481546Y-96214510D01*
X143481546Y-96214510D02*
X143433927Y-96119272D01*
X143433927Y-96119272D02*
X143338689Y-96071653D01*
X143338689Y-96071653D02*
X143195832Y-96071653D01*
X143195832Y-96071653D02*
X143100594Y-96024034D01*
X143100594Y-96024034D02*
X143052975Y-95928796D01*
X143052975Y-95928796D02*
X143052975Y-95881177D01*
X143052975Y-95881177D02*
X143100594Y-95785939D01*
X143100594Y-95785939D02*
X143195832Y-95738320D01*
X143195832Y-95738320D02*
X143338689Y-95738320D01*
X143338689Y-95738320D02*
X143433927Y-95785939D01*
X144052975Y-96404987D02*
X143957737Y-96357368D01*
X143957737Y-96357368D02*
X143910118Y-96309748D01*
X143910118Y-96309748D02*
X143862499Y-96214510D01*
X143862499Y-96214510D02*
X143862499Y-95928796D01*
X143862499Y-95928796D02*
X143910118Y-95833558D01*
X143910118Y-95833558D02*
X143957737Y-95785939D01*
X143957737Y-95785939D02*
X144052975Y-95738320D01*
X144052975Y-95738320D02*
X144195832Y-95738320D01*
X144195832Y-95738320D02*
X144291070Y-95785939D01*
X144291070Y-95785939D02*
X144338689Y-95833558D01*
X144338689Y-95833558D02*
X144386308Y-95928796D01*
X144386308Y-95928796D02*
X144386308Y-96214510D01*
X144386308Y-96214510D02*
X144338689Y-96309748D01*
X144338689Y-96309748D02*
X144291070Y-96357368D01*
X144291070Y-96357368D02*
X144195832Y-96404987D01*
X144195832Y-96404987D02*
X144052975Y-96404987D01*
X144814880Y-96404987D02*
X144814880Y-95738320D01*
X144814880Y-95833558D02*
X144862499Y-95785939D01*
X144862499Y-95785939D02*
X144957737Y-95738320D01*
X144957737Y-95738320D02*
X145100594Y-95738320D01*
X145100594Y-95738320D02*
X145195832Y-95785939D01*
X145195832Y-95785939D02*
X145243451Y-95881177D01*
X145243451Y-95881177D02*
X145243451Y-96404987D01*
X145243451Y-95881177D02*
X145291070Y-95785939D01*
X145291070Y-95785939D02*
X145386308Y-95738320D01*
X145386308Y-95738320D02*
X145529165Y-95738320D01*
X145529165Y-95738320D02*
X145624404Y-95785939D01*
X145624404Y-95785939D02*
X145672023Y-95881177D01*
X145672023Y-95881177D02*
X145672023Y-96404987D01*
X146529165Y-96357368D02*
X146433927Y-96404987D01*
X146433927Y-96404987D02*
X146243451Y-96404987D01*
X146243451Y-96404987D02*
X146148213Y-96357368D01*
X146148213Y-96357368D02*
X146100594Y-96262129D01*
X146100594Y-96262129D02*
X146100594Y-95881177D01*
X146100594Y-95881177D02*
X146148213Y-95785939D01*
X146148213Y-95785939D02*
X146243451Y-95738320D01*
X146243451Y-95738320D02*
X146433927Y-95738320D01*
X146433927Y-95738320D02*
X146529165Y-95785939D01*
X146529165Y-95785939D02*
X146576784Y-95881177D01*
X146576784Y-95881177D02*
X146576784Y-95976415D01*
X146576784Y-95976415D02*
X146100594Y-96071653D01*
X146862499Y-95738320D02*
X147243451Y-95738320D01*
X147005356Y-95404987D02*
X147005356Y-96262129D01*
X147005356Y-96262129D02*
X147052975Y-96357368D01*
X147052975Y-96357368D02*
X147148213Y-96404987D01*
X147148213Y-96404987D02*
X147243451Y-96404987D01*
X147576785Y-96404987D02*
X147576785Y-95404987D01*
X148005356Y-96404987D02*
X148005356Y-95881177D01*
X148005356Y-95881177D02*
X147957737Y-95785939D01*
X147957737Y-95785939D02*
X147862499Y-95738320D01*
X147862499Y-95738320D02*
X147719642Y-95738320D01*
X147719642Y-95738320D02*
X147624404Y-95785939D01*
X147624404Y-95785939D02*
X147576785Y-95833558D01*
X148481547Y-96404987D02*
X148481547Y-95738320D01*
X148481547Y-95404987D02*
X148433928Y-95452606D01*
X148433928Y-95452606D02*
X148481547Y-95500225D01*
X148481547Y-95500225D02*
X148529166Y-95452606D01*
X148529166Y-95452606D02*
X148481547Y-95404987D01*
X148481547Y-95404987D02*
X148481547Y-95500225D01*
X148957737Y-95738320D02*
X148957737Y-96404987D01*
X148957737Y-95833558D02*
X149005356Y-95785939D01*
X149005356Y-95785939D02*
X149100594Y-95738320D01*
X149100594Y-95738320D02*
X149243451Y-95738320D01*
X149243451Y-95738320D02*
X149338689Y-95785939D01*
X149338689Y-95785939D02*
X149386308Y-95881177D01*
X149386308Y-95881177D02*
X149386308Y-96404987D01*
X150291070Y-95738320D02*
X150291070Y-96547844D01*
X150291070Y-96547844D02*
X150243451Y-96643082D01*
X150243451Y-96643082D02*
X150195832Y-96690701D01*
X150195832Y-96690701D02*
X150100594Y-96738320D01*
X150100594Y-96738320D02*
X149957737Y-96738320D01*
X149957737Y-96738320D02*
X149862499Y-96690701D01*
X150291070Y-96357368D02*
X150195832Y-96404987D01*
X150195832Y-96404987D02*
X150005356Y-96404987D01*
X150005356Y-96404987D02*
X149910118Y-96357368D01*
X149910118Y-96357368D02*
X149862499Y-96309748D01*
X149862499Y-96309748D02*
X149814880Y-96214510D01*
X149814880Y-96214510D02*
X149814880Y-95928796D01*
X149814880Y-95928796D02*
X149862499Y-95833558D01*
X149862499Y-95833558D02*
X149910118Y-95785939D01*
X149910118Y-95785939D02*
X150005356Y-95738320D01*
X150005356Y-95738320D02*
X150195832Y-95738320D01*
X150195832Y-95738320D02*
X150291070Y-95785939D01*
X151910118Y-96357368D02*
X151814880Y-96404987D01*
X151814880Y-96404987D02*
X151624404Y-96404987D01*
X151624404Y-96404987D02*
X151529166Y-96357368D01*
X151529166Y-96357368D02*
X151481547Y-96262129D01*
X151481547Y-96262129D02*
X151481547Y-95881177D01*
X151481547Y-95881177D02*
X151529166Y-95785939D01*
X151529166Y-95785939D02*
X151624404Y-95738320D01*
X151624404Y-95738320D02*
X151814880Y-95738320D01*
X151814880Y-95738320D02*
X151910118Y-95785939D01*
X151910118Y-95785939D02*
X151957737Y-95881177D01*
X151957737Y-95881177D02*
X151957737Y-95976415D01*
X151957737Y-95976415D02*
X151481547Y-96071653D01*
X152291071Y-96404987D02*
X152814880Y-95738320D01*
X152291071Y-95738320D02*
X152814880Y-96404987D01*
X153052976Y-95738320D02*
X153433928Y-95738320D01*
X153195833Y-95404987D02*
X153195833Y-96262129D01*
X153195833Y-96262129D02*
X153243452Y-96357368D01*
X153243452Y-96357368D02*
X153338690Y-96404987D01*
X153338690Y-96404987D02*
X153433928Y-96404987D01*
X153767262Y-96404987D02*
X153767262Y-95738320D01*
X153767262Y-95928796D02*
X153814881Y-95833558D01*
X153814881Y-95833558D02*
X153862500Y-95785939D01*
X153862500Y-95785939D02*
X153957738Y-95738320D01*
X153957738Y-95738320D02*
X154052976Y-95738320D01*
X154814881Y-96404987D02*
X154814881Y-95881177D01*
X154814881Y-95881177D02*
X154767262Y-95785939D01*
X154767262Y-95785939D02*
X154672024Y-95738320D01*
X154672024Y-95738320D02*
X154481548Y-95738320D01*
X154481548Y-95738320D02*
X154386310Y-95785939D01*
X154814881Y-96357368D02*
X154719643Y-96404987D01*
X154719643Y-96404987D02*
X154481548Y-96404987D01*
X154481548Y-96404987D02*
X154386310Y-96357368D01*
X154386310Y-96357368D02*
X154338691Y-96262129D01*
X154338691Y-96262129D02*
X154338691Y-96166891D01*
X154338691Y-96166891D02*
X154386310Y-96071653D01*
X154386310Y-96071653D02*
X154481548Y-96024034D01*
X154481548Y-96024034D02*
X154719643Y-96024034D01*
X154719643Y-96024034D02*
X154814881Y-95976415D01*
X155433929Y-96404987D02*
X155338691Y-96357368D01*
X155338691Y-96357368D02*
X155291072Y-96309748D01*
X155291072Y-96309748D02*
X155243453Y-96214510D01*
X155243453Y-96214510D02*
X155243453Y-95928796D01*
X155243453Y-95928796D02*
X155291072Y-95833558D01*
X155291072Y-95833558D02*
X155338691Y-95785939D01*
X155338691Y-95785939D02*
X155433929Y-95738320D01*
X155433929Y-95738320D02*
X155576786Y-95738320D01*
X155576786Y-95738320D02*
X155672024Y-95785939D01*
X155672024Y-95785939D02*
X155719643Y-95833558D01*
X155719643Y-95833558D02*
X155767262Y-95928796D01*
X155767262Y-95928796D02*
X155767262Y-96214510D01*
X155767262Y-96214510D02*
X155719643Y-96309748D01*
X155719643Y-96309748D02*
X155672024Y-96357368D01*
X155672024Y-96357368D02*
X155576786Y-96404987D01*
X155576786Y-96404987D02*
X155433929Y-96404987D01*
X156195834Y-96404987D02*
X156195834Y-95738320D01*
X156195834Y-95928796D02*
X156243453Y-95833558D01*
X156243453Y-95833558D02*
X156291072Y-95785939D01*
X156291072Y-95785939D02*
X156386310Y-95738320D01*
X156386310Y-95738320D02*
X156481548Y-95738320D01*
X157243453Y-96404987D02*
X157243453Y-95404987D01*
X157243453Y-96357368D02*
X157148215Y-96404987D01*
X157148215Y-96404987D02*
X156957739Y-96404987D01*
X156957739Y-96404987D02*
X156862501Y-96357368D01*
X156862501Y-96357368D02*
X156814882Y-96309748D01*
X156814882Y-96309748D02*
X156767263Y-96214510D01*
X156767263Y-96214510D02*
X156767263Y-95928796D01*
X156767263Y-95928796D02*
X156814882Y-95833558D01*
X156814882Y-95833558D02*
X156862501Y-95785939D01*
X156862501Y-95785939D02*
X156957739Y-95738320D01*
X156957739Y-95738320D02*
X157148215Y-95738320D01*
X157148215Y-95738320D02*
X157243453Y-95785939D01*
X157719644Y-96404987D02*
X157719644Y-95738320D01*
X157719644Y-95404987D02*
X157672025Y-95452606D01*
X157672025Y-95452606D02*
X157719644Y-95500225D01*
X157719644Y-95500225D02*
X157767263Y-95452606D01*
X157767263Y-95452606D02*
X157719644Y-95404987D01*
X157719644Y-95404987D02*
X157719644Y-95500225D01*
X158195834Y-95738320D02*
X158195834Y-96404987D01*
X158195834Y-95833558D02*
X158243453Y-95785939D01*
X158243453Y-95785939D02*
X158338691Y-95738320D01*
X158338691Y-95738320D02*
X158481548Y-95738320D01*
X158481548Y-95738320D02*
X158576786Y-95785939D01*
X158576786Y-95785939D02*
X158624405Y-95881177D01*
X158624405Y-95881177D02*
X158624405Y-96404987D01*
X159529167Y-96404987D02*
X159529167Y-95881177D01*
X159529167Y-95881177D02*
X159481548Y-95785939D01*
X159481548Y-95785939D02*
X159386310Y-95738320D01*
X159386310Y-95738320D02*
X159195834Y-95738320D01*
X159195834Y-95738320D02*
X159100596Y-95785939D01*
X159529167Y-96357368D02*
X159433929Y-96404987D01*
X159433929Y-96404987D02*
X159195834Y-96404987D01*
X159195834Y-96404987D02*
X159100596Y-96357368D01*
X159100596Y-96357368D02*
X159052977Y-96262129D01*
X159052977Y-96262129D02*
X159052977Y-96166891D01*
X159052977Y-96166891D02*
X159100596Y-96071653D01*
X159100596Y-96071653D02*
X159195834Y-96024034D01*
X159195834Y-96024034D02*
X159433929Y-96024034D01*
X159433929Y-96024034D02*
X159529167Y-95976415D01*
X160005358Y-96404987D02*
X160005358Y-95738320D01*
X160005358Y-95928796D02*
X160052977Y-95833558D01*
X160052977Y-95833558D02*
X160100596Y-95785939D01*
X160100596Y-95785939D02*
X160195834Y-95738320D01*
X160195834Y-95738320D02*
X160291072Y-95738320D01*
X160529168Y-95738320D02*
X160767263Y-96404987D01*
X161005358Y-95738320D02*
X160767263Y-96404987D01*
X160767263Y-96404987D02*
X160672025Y-96643082D01*
X160672025Y-96643082D02*
X160624406Y-96690701D01*
X160624406Y-96690701D02*
X160529168Y-96738320D01*
X161386311Y-96309748D02*
X161433930Y-96357368D01*
X161433930Y-96357368D02*
X161386311Y-96404987D01*
X161386311Y-96404987D02*
X161338692Y-96357368D01*
X161338692Y-96357368D02*
X161386311Y-96309748D01*
X161386311Y-96309748D02*
X161386311Y-96404987D01*
X102576779Y-99101065D02*
X102910112Y-99101065D01*
X103052969Y-99624875D02*
X102576779Y-99624875D01*
X102576779Y-99624875D02*
X102576779Y-98624875D01*
X102576779Y-98624875D02*
X103052969Y-98624875D01*
X103481541Y-99624875D02*
X103481541Y-98958208D01*
X103481541Y-99053446D02*
X103529160Y-99005827D01*
X103529160Y-99005827D02*
X103624398Y-98958208D01*
X103624398Y-98958208D02*
X103767255Y-98958208D01*
X103767255Y-98958208D02*
X103862493Y-99005827D01*
X103862493Y-99005827D02*
X103910112Y-99101065D01*
X103910112Y-99101065D02*
X103910112Y-99624875D01*
X103910112Y-99101065D02*
X103957731Y-99005827D01*
X103957731Y-99005827D02*
X104052969Y-98958208D01*
X104052969Y-98958208D02*
X104195826Y-98958208D01*
X104195826Y-98958208D02*
X104291065Y-99005827D01*
X104291065Y-99005827D02*
X104338684Y-99101065D01*
X104338684Y-99101065D02*
X104338684Y-99624875D01*
X104814874Y-99624875D02*
X104814874Y-98624875D01*
X104814874Y-99005827D02*
X104910112Y-98958208D01*
X104910112Y-98958208D02*
X105100588Y-98958208D01*
X105100588Y-98958208D02*
X105195826Y-99005827D01*
X105195826Y-99005827D02*
X105243445Y-99053446D01*
X105243445Y-99053446D02*
X105291064Y-99148684D01*
X105291064Y-99148684D02*
X105291064Y-99434398D01*
X105291064Y-99434398D02*
X105243445Y-99529636D01*
X105243445Y-99529636D02*
X105195826Y-99577256D01*
X105195826Y-99577256D02*
X105100588Y-99624875D01*
X105100588Y-99624875D02*
X104910112Y-99624875D01*
X104910112Y-99624875D02*
X104814874Y-99577256D01*
X105719636Y-99624875D02*
X105719636Y-98958208D01*
X105719636Y-99148684D02*
X105767255Y-99053446D01*
X105767255Y-99053446D02*
X105814874Y-99005827D01*
X105814874Y-99005827D02*
X105910112Y-98958208D01*
X105910112Y-98958208D02*
X106005350Y-98958208D01*
X106767255Y-99624875D02*
X106767255Y-99101065D01*
X106767255Y-99101065D02*
X106719636Y-99005827D01*
X106719636Y-99005827D02*
X106624398Y-98958208D01*
X106624398Y-98958208D02*
X106433922Y-98958208D01*
X106433922Y-98958208D02*
X106338684Y-99005827D01*
X106767255Y-99577256D02*
X106672017Y-99624875D01*
X106672017Y-99624875D02*
X106433922Y-99624875D01*
X106433922Y-99624875D02*
X106338684Y-99577256D01*
X106338684Y-99577256D02*
X106291065Y-99482017D01*
X106291065Y-99482017D02*
X106291065Y-99386779D01*
X106291065Y-99386779D02*
X106338684Y-99291541D01*
X106338684Y-99291541D02*
X106433922Y-99243922D01*
X106433922Y-99243922D02*
X106672017Y-99243922D01*
X106672017Y-99243922D02*
X106767255Y-99196303D01*
X107672017Y-99577256D02*
X107576779Y-99624875D01*
X107576779Y-99624875D02*
X107386303Y-99624875D01*
X107386303Y-99624875D02*
X107291065Y-99577256D01*
X107291065Y-99577256D02*
X107243446Y-99529636D01*
X107243446Y-99529636D02*
X107195827Y-99434398D01*
X107195827Y-99434398D02*
X107195827Y-99148684D01*
X107195827Y-99148684D02*
X107243446Y-99053446D01*
X107243446Y-99053446D02*
X107291065Y-99005827D01*
X107291065Y-99005827D02*
X107386303Y-98958208D01*
X107386303Y-98958208D02*
X107576779Y-98958208D01*
X107576779Y-98958208D02*
X107672017Y-99005827D01*
X108481541Y-99577256D02*
X108386303Y-99624875D01*
X108386303Y-99624875D02*
X108195827Y-99624875D01*
X108195827Y-99624875D02*
X108100589Y-99577256D01*
X108100589Y-99577256D02*
X108052970Y-99482017D01*
X108052970Y-99482017D02*
X108052970Y-99101065D01*
X108052970Y-99101065D02*
X108100589Y-99005827D01*
X108100589Y-99005827D02*
X108195827Y-98958208D01*
X108195827Y-98958208D02*
X108386303Y-98958208D01*
X108386303Y-98958208D02*
X108481541Y-99005827D01*
X108481541Y-99005827D02*
X108529160Y-99101065D01*
X108529160Y-99101065D02*
X108529160Y-99196303D01*
X108529160Y-99196303D02*
X108052970Y-99291541D01*
X109576780Y-98958208D02*
X109957732Y-98958208D01*
X109719637Y-98624875D02*
X109719637Y-99482017D01*
X109719637Y-99482017D02*
X109767256Y-99577256D01*
X109767256Y-99577256D02*
X109862494Y-99624875D01*
X109862494Y-99624875D02*
X109957732Y-99624875D01*
X110291066Y-99624875D02*
X110291066Y-98624875D01*
X110719637Y-99624875D02*
X110719637Y-99101065D01*
X110719637Y-99101065D02*
X110672018Y-99005827D01*
X110672018Y-99005827D02*
X110576780Y-98958208D01*
X110576780Y-98958208D02*
X110433923Y-98958208D01*
X110433923Y-98958208D02*
X110338685Y-99005827D01*
X110338685Y-99005827D02*
X110291066Y-99053446D01*
X111576780Y-99577256D02*
X111481542Y-99624875D01*
X111481542Y-99624875D02*
X111291066Y-99624875D01*
X111291066Y-99624875D02*
X111195828Y-99577256D01*
X111195828Y-99577256D02*
X111148209Y-99482017D01*
X111148209Y-99482017D02*
X111148209Y-99101065D01*
X111148209Y-99101065D02*
X111195828Y-99005827D01*
X111195828Y-99005827D02*
X111291066Y-98958208D01*
X111291066Y-98958208D02*
X111481542Y-98958208D01*
X111481542Y-98958208D02*
X111576780Y-99005827D01*
X111576780Y-99005827D02*
X111624399Y-99101065D01*
X111624399Y-99101065D02*
X111624399Y-99196303D01*
X111624399Y-99196303D02*
X111148209Y-99291541D01*
X112672019Y-98958208D02*
X113052971Y-98958208D01*
X112814876Y-99624875D02*
X112814876Y-98767732D01*
X112814876Y-98767732D02*
X112862495Y-98672494D01*
X112862495Y-98672494D02*
X112957733Y-98624875D01*
X112957733Y-98624875D02*
X113052971Y-98624875D01*
X113386305Y-99624875D02*
X113386305Y-98958208D01*
X113386305Y-99148684D02*
X113433924Y-99053446D01*
X113433924Y-99053446D02*
X113481543Y-99005827D01*
X113481543Y-99005827D02*
X113576781Y-98958208D01*
X113576781Y-98958208D02*
X113672019Y-98958208D01*
X114386305Y-99577256D02*
X114291067Y-99624875D01*
X114291067Y-99624875D02*
X114100591Y-99624875D01*
X114100591Y-99624875D02*
X114005353Y-99577256D01*
X114005353Y-99577256D02*
X113957734Y-99482017D01*
X113957734Y-99482017D02*
X113957734Y-99101065D01*
X113957734Y-99101065D02*
X114005353Y-99005827D01*
X114005353Y-99005827D02*
X114100591Y-98958208D01*
X114100591Y-98958208D02*
X114291067Y-98958208D01*
X114291067Y-98958208D02*
X114386305Y-99005827D01*
X114386305Y-99005827D02*
X114433924Y-99101065D01*
X114433924Y-99101065D02*
X114433924Y-99196303D01*
X114433924Y-99196303D02*
X113957734Y-99291541D01*
X115291067Y-98958208D02*
X115291067Y-99958208D01*
X115291067Y-99577256D02*
X115195829Y-99624875D01*
X115195829Y-99624875D02*
X115005353Y-99624875D01*
X115005353Y-99624875D02*
X114910115Y-99577256D01*
X114910115Y-99577256D02*
X114862496Y-99529636D01*
X114862496Y-99529636D02*
X114814877Y-99434398D01*
X114814877Y-99434398D02*
X114814877Y-99148684D01*
X114814877Y-99148684D02*
X114862496Y-99053446D01*
X114862496Y-99053446D02*
X114910115Y-99005827D01*
X114910115Y-99005827D02*
X115005353Y-98958208D01*
X115005353Y-98958208D02*
X115195829Y-98958208D01*
X115195829Y-98958208D02*
X115291067Y-99005827D01*
X116195829Y-98958208D02*
X116195829Y-99624875D01*
X115767258Y-98958208D02*
X115767258Y-99482017D01*
X115767258Y-99482017D02*
X115814877Y-99577256D01*
X115814877Y-99577256D02*
X115910115Y-99624875D01*
X115910115Y-99624875D02*
X116052972Y-99624875D01*
X116052972Y-99624875D02*
X116148210Y-99577256D01*
X116148210Y-99577256D02*
X116195829Y-99529636D01*
X117052972Y-99577256D02*
X116957734Y-99624875D01*
X116957734Y-99624875D02*
X116767258Y-99624875D01*
X116767258Y-99624875D02*
X116672020Y-99577256D01*
X116672020Y-99577256D02*
X116624401Y-99482017D01*
X116624401Y-99482017D02*
X116624401Y-99101065D01*
X116624401Y-99101065D02*
X116672020Y-99005827D01*
X116672020Y-99005827D02*
X116767258Y-98958208D01*
X116767258Y-98958208D02*
X116957734Y-98958208D01*
X116957734Y-98958208D02*
X117052972Y-99005827D01*
X117052972Y-99005827D02*
X117100591Y-99101065D01*
X117100591Y-99101065D02*
X117100591Y-99196303D01*
X117100591Y-99196303D02*
X116624401Y-99291541D01*
X117529163Y-98958208D02*
X117529163Y-99624875D01*
X117529163Y-99053446D02*
X117576782Y-99005827D01*
X117576782Y-99005827D02*
X117672020Y-98958208D01*
X117672020Y-98958208D02*
X117814877Y-98958208D01*
X117814877Y-98958208D02*
X117910115Y-99005827D01*
X117910115Y-99005827D02*
X117957734Y-99101065D01*
X117957734Y-99101065D02*
X117957734Y-99624875D01*
X118862496Y-99577256D02*
X118767258Y-99624875D01*
X118767258Y-99624875D02*
X118576782Y-99624875D01*
X118576782Y-99624875D02*
X118481544Y-99577256D01*
X118481544Y-99577256D02*
X118433925Y-99529636D01*
X118433925Y-99529636D02*
X118386306Y-99434398D01*
X118386306Y-99434398D02*
X118386306Y-99148684D01*
X118386306Y-99148684D02*
X118433925Y-99053446D01*
X118433925Y-99053446D02*
X118481544Y-99005827D01*
X118481544Y-99005827D02*
X118576782Y-98958208D01*
X118576782Y-98958208D02*
X118767258Y-98958208D01*
X118767258Y-98958208D02*
X118862496Y-99005827D01*
X119291068Y-99624875D02*
X119291068Y-98958208D01*
X119291068Y-98624875D02*
X119243449Y-98672494D01*
X119243449Y-98672494D02*
X119291068Y-98720113D01*
X119291068Y-98720113D02*
X119338687Y-98672494D01*
X119338687Y-98672494D02*
X119291068Y-98624875D01*
X119291068Y-98624875D02*
X119291068Y-98720113D01*
X120148210Y-99577256D02*
X120052972Y-99624875D01*
X120052972Y-99624875D02*
X119862496Y-99624875D01*
X119862496Y-99624875D02*
X119767258Y-99577256D01*
X119767258Y-99577256D02*
X119719639Y-99482017D01*
X119719639Y-99482017D02*
X119719639Y-99101065D01*
X119719639Y-99101065D02*
X119767258Y-99005827D01*
X119767258Y-99005827D02*
X119862496Y-98958208D01*
X119862496Y-98958208D02*
X120052972Y-98958208D01*
X120052972Y-98958208D02*
X120148210Y-99005827D01*
X120148210Y-99005827D02*
X120195829Y-99101065D01*
X120195829Y-99101065D02*
X120195829Y-99196303D01*
X120195829Y-99196303D02*
X119719639Y-99291541D01*
X120576782Y-99577256D02*
X120672020Y-99624875D01*
X120672020Y-99624875D02*
X120862496Y-99624875D01*
X120862496Y-99624875D02*
X120957734Y-99577256D01*
X120957734Y-99577256D02*
X121005353Y-99482017D01*
X121005353Y-99482017D02*
X121005353Y-99434398D01*
X121005353Y-99434398D02*
X120957734Y-99339160D01*
X120957734Y-99339160D02*
X120862496Y-99291541D01*
X120862496Y-99291541D02*
X120719639Y-99291541D01*
X120719639Y-99291541D02*
X120624401Y-99243922D01*
X120624401Y-99243922D02*
X120576782Y-99148684D01*
X120576782Y-99148684D02*
X120576782Y-99101065D01*
X120576782Y-99101065D02*
X120624401Y-99005827D01*
X120624401Y-99005827D02*
X120719639Y-98958208D01*
X120719639Y-98958208D02*
X120862496Y-98958208D01*
X120862496Y-98958208D02*
X120957734Y-99005827D01*
X122338687Y-99624875D02*
X122243449Y-99577256D01*
X122243449Y-99577256D02*
X122195830Y-99529636D01*
X122195830Y-99529636D02*
X122148211Y-99434398D01*
X122148211Y-99434398D02*
X122148211Y-99148684D01*
X122148211Y-99148684D02*
X122195830Y-99053446D01*
X122195830Y-99053446D02*
X122243449Y-99005827D01*
X122243449Y-99005827D02*
X122338687Y-98958208D01*
X122338687Y-98958208D02*
X122481544Y-98958208D01*
X122481544Y-98958208D02*
X122576782Y-99005827D01*
X122576782Y-99005827D02*
X122624401Y-99053446D01*
X122624401Y-99053446D02*
X122672020Y-99148684D01*
X122672020Y-99148684D02*
X122672020Y-99434398D01*
X122672020Y-99434398D02*
X122624401Y-99529636D01*
X122624401Y-99529636D02*
X122576782Y-99577256D01*
X122576782Y-99577256D02*
X122481544Y-99624875D01*
X122481544Y-99624875D02*
X122338687Y-99624875D01*
X122957735Y-98958208D02*
X123338687Y-98958208D01*
X123100592Y-99624875D02*
X123100592Y-98767732D01*
X123100592Y-98767732D02*
X123148211Y-98672494D01*
X123148211Y-98672494D02*
X123243449Y-98624875D01*
X123243449Y-98624875D02*
X123338687Y-98624875D01*
X124338688Y-98958208D02*
X124576783Y-99624875D01*
X124814878Y-98958208D02*
X124576783Y-99624875D01*
X124576783Y-99624875D02*
X124481545Y-99862970D01*
X124481545Y-99862970D02*
X124433926Y-99910589D01*
X124433926Y-99910589D02*
X124338688Y-99958208D01*
X125338688Y-99624875D02*
X125243450Y-99577256D01*
X125243450Y-99577256D02*
X125195831Y-99529636D01*
X125195831Y-99529636D02*
X125148212Y-99434398D01*
X125148212Y-99434398D02*
X125148212Y-99148684D01*
X125148212Y-99148684D02*
X125195831Y-99053446D01*
X125195831Y-99053446D02*
X125243450Y-99005827D01*
X125243450Y-99005827D02*
X125338688Y-98958208D01*
X125338688Y-98958208D02*
X125481545Y-98958208D01*
X125481545Y-98958208D02*
X125576783Y-99005827D01*
X125576783Y-99005827D02*
X125624402Y-99053446D01*
X125624402Y-99053446D02*
X125672021Y-99148684D01*
X125672021Y-99148684D02*
X125672021Y-99434398D01*
X125672021Y-99434398D02*
X125624402Y-99529636D01*
X125624402Y-99529636D02*
X125576783Y-99577256D01*
X125576783Y-99577256D02*
X125481545Y-99624875D01*
X125481545Y-99624875D02*
X125338688Y-99624875D01*
X126529164Y-98958208D02*
X126529164Y-99624875D01*
X126100593Y-98958208D02*
X126100593Y-99482017D01*
X126100593Y-99482017D02*
X126148212Y-99577256D01*
X126148212Y-99577256D02*
X126243450Y-99624875D01*
X126243450Y-99624875D02*
X126386307Y-99624875D01*
X126386307Y-99624875D02*
X126481545Y-99577256D01*
X126481545Y-99577256D02*
X126529164Y-99529636D01*
X127005355Y-99624875D02*
X127005355Y-98958208D01*
X127005355Y-99148684D02*
X127052974Y-99053446D01*
X127052974Y-99053446D02*
X127100593Y-99005827D01*
X127100593Y-99005827D02*
X127195831Y-98958208D01*
X127195831Y-98958208D02*
X127291069Y-98958208D01*
X128386308Y-99624875D02*
X128386308Y-98958208D01*
X128386308Y-98624875D02*
X128338689Y-98672494D01*
X128338689Y-98672494D02*
X128386308Y-98720113D01*
X128386308Y-98720113D02*
X128433927Y-98672494D01*
X128433927Y-98672494D02*
X128386308Y-98624875D01*
X128386308Y-98624875D02*
X128386308Y-98720113D01*
X128862498Y-99624875D02*
X128862498Y-98958208D01*
X128862498Y-99053446D02*
X128910117Y-99005827D01*
X128910117Y-99005827D02*
X129005355Y-98958208D01*
X129005355Y-98958208D02*
X129148212Y-98958208D01*
X129148212Y-98958208D02*
X129243450Y-99005827D01*
X129243450Y-99005827D02*
X129291069Y-99101065D01*
X129291069Y-99101065D02*
X129291069Y-99624875D01*
X129291069Y-99101065D02*
X129338688Y-99005827D01*
X129338688Y-99005827D02*
X129433926Y-98958208D01*
X129433926Y-98958208D02*
X129576783Y-98958208D01*
X129576783Y-98958208D02*
X129672022Y-99005827D01*
X129672022Y-99005827D02*
X129719641Y-99101065D01*
X129719641Y-99101065D02*
X129719641Y-99624875D01*
X130624402Y-99624875D02*
X130624402Y-99101065D01*
X130624402Y-99101065D02*
X130576783Y-99005827D01*
X130576783Y-99005827D02*
X130481545Y-98958208D01*
X130481545Y-98958208D02*
X130291069Y-98958208D01*
X130291069Y-98958208D02*
X130195831Y-99005827D01*
X130624402Y-99577256D02*
X130529164Y-99624875D01*
X130529164Y-99624875D02*
X130291069Y-99624875D01*
X130291069Y-99624875D02*
X130195831Y-99577256D01*
X130195831Y-99577256D02*
X130148212Y-99482017D01*
X130148212Y-99482017D02*
X130148212Y-99386779D01*
X130148212Y-99386779D02*
X130195831Y-99291541D01*
X130195831Y-99291541D02*
X130291069Y-99243922D01*
X130291069Y-99243922D02*
X130529164Y-99243922D01*
X130529164Y-99243922D02*
X130624402Y-99196303D01*
X131529164Y-98958208D02*
X131529164Y-99767732D01*
X131529164Y-99767732D02*
X131481545Y-99862970D01*
X131481545Y-99862970D02*
X131433926Y-99910589D01*
X131433926Y-99910589D02*
X131338688Y-99958208D01*
X131338688Y-99958208D02*
X131195831Y-99958208D01*
X131195831Y-99958208D02*
X131100593Y-99910589D01*
X131529164Y-99577256D02*
X131433926Y-99624875D01*
X131433926Y-99624875D02*
X131243450Y-99624875D01*
X131243450Y-99624875D02*
X131148212Y-99577256D01*
X131148212Y-99577256D02*
X131100593Y-99529636D01*
X131100593Y-99529636D02*
X131052974Y-99434398D01*
X131052974Y-99434398D02*
X131052974Y-99148684D01*
X131052974Y-99148684D02*
X131100593Y-99053446D01*
X131100593Y-99053446D02*
X131148212Y-99005827D01*
X131148212Y-99005827D02*
X131243450Y-98958208D01*
X131243450Y-98958208D02*
X131433926Y-98958208D01*
X131433926Y-98958208D02*
X131529164Y-99005827D01*
X132005355Y-99624875D02*
X132005355Y-98958208D01*
X132005355Y-98624875D02*
X131957736Y-98672494D01*
X131957736Y-98672494D02*
X132005355Y-98720113D01*
X132005355Y-98720113D02*
X132052974Y-98672494D01*
X132052974Y-98672494D02*
X132005355Y-98624875D01*
X132005355Y-98624875D02*
X132005355Y-98720113D01*
X132481545Y-98958208D02*
X132481545Y-99624875D01*
X132481545Y-99053446D02*
X132529164Y-99005827D01*
X132529164Y-99005827D02*
X132624402Y-98958208D01*
X132624402Y-98958208D02*
X132767259Y-98958208D01*
X132767259Y-98958208D02*
X132862497Y-99005827D01*
X132862497Y-99005827D02*
X132910116Y-99101065D01*
X132910116Y-99101065D02*
X132910116Y-99624875D01*
X133814878Y-99624875D02*
X133814878Y-99101065D01*
X133814878Y-99101065D02*
X133767259Y-99005827D01*
X133767259Y-99005827D02*
X133672021Y-98958208D01*
X133672021Y-98958208D02*
X133481545Y-98958208D01*
X133481545Y-98958208D02*
X133386307Y-99005827D01*
X133814878Y-99577256D02*
X133719640Y-99624875D01*
X133719640Y-99624875D02*
X133481545Y-99624875D01*
X133481545Y-99624875D02*
X133386307Y-99577256D01*
X133386307Y-99577256D02*
X133338688Y-99482017D01*
X133338688Y-99482017D02*
X133338688Y-99386779D01*
X133338688Y-99386779D02*
X133386307Y-99291541D01*
X133386307Y-99291541D02*
X133481545Y-99243922D01*
X133481545Y-99243922D02*
X133719640Y-99243922D01*
X133719640Y-99243922D02*
X133814878Y-99196303D01*
X134148212Y-98958208D02*
X134529164Y-98958208D01*
X134291069Y-98624875D02*
X134291069Y-99482017D01*
X134291069Y-99482017D02*
X134338688Y-99577256D01*
X134338688Y-99577256D02*
X134433926Y-99624875D01*
X134433926Y-99624875D02*
X134529164Y-99624875D01*
X134862498Y-99624875D02*
X134862498Y-98958208D01*
X134862498Y-98624875D02*
X134814879Y-98672494D01*
X134814879Y-98672494D02*
X134862498Y-98720113D01*
X134862498Y-98720113D02*
X134910117Y-98672494D01*
X134910117Y-98672494D02*
X134862498Y-98624875D01*
X134862498Y-98624875D02*
X134862498Y-98720113D01*
X135481545Y-99624875D02*
X135386307Y-99577256D01*
X135386307Y-99577256D02*
X135338688Y-99529636D01*
X135338688Y-99529636D02*
X135291069Y-99434398D01*
X135291069Y-99434398D02*
X135291069Y-99148684D01*
X135291069Y-99148684D02*
X135338688Y-99053446D01*
X135338688Y-99053446D02*
X135386307Y-99005827D01*
X135386307Y-99005827D02*
X135481545Y-98958208D01*
X135481545Y-98958208D02*
X135624402Y-98958208D01*
X135624402Y-98958208D02*
X135719640Y-99005827D01*
X135719640Y-99005827D02*
X135767259Y-99053446D01*
X135767259Y-99053446D02*
X135814878Y-99148684D01*
X135814878Y-99148684D02*
X135814878Y-99434398D01*
X135814878Y-99434398D02*
X135767259Y-99529636D01*
X135767259Y-99529636D02*
X135719640Y-99577256D01*
X135719640Y-99577256D02*
X135624402Y-99624875D01*
X135624402Y-99624875D02*
X135481545Y-99624875D01*
X136243450Y-98958208D02*
X136243450Y-99624875D01*
X136243450Y-99053446D02*
X136291069Y-99005827D01*
X136291069Y-99005827D02*
X136386307Y-98958208D01*
X136386307Y-98958208D02*
X136529164Y-98958208D01*
X136529164Y-98958208D02*
X136624402Y-99005827D01*
X136624402Y-99005827D02*
X136672021Y-99101065D01*
X136672021Y-99101065D02*
X136672021Y-99624875D01*
X137148212Y-99529636D02*
X137195831Y-99577256D01*
X137195831Y-99577256D02*
X137148212Y-99624875D01*
X137148212Y-99624875D02*
X137100593Y-99577256D01*
X137100593Y-99577256D02*
X137148212Y-99529636D01*
X137148212Y-99529636D02*
X137148212Y-99624875D01*
X103052969Y-102844763D02*
X102576779Y-102844763D01*
X102576779Y-102844763D02*
X102576779Y-101844763D01*
X103767255Y-102797144D02*
X103672017Y-102844763D01*
X103672017Y-102844763D02*
X103481541Y-102844763D01*
X103481541Y-102844763D02*
X103386303Y-102797144D01*
X103386303Y-102797144D02*
X103338684Y-102701905D01*
X103338684Y-102701905D02*
X103338684Y-102320953D01*
X103338684Y-102320953D02*
X103386303Y-102225715D01*
X103386303Y-102225715D02*
X103481541Y-102178096D01*
X103481541Y-102178096D02*
X103672017Y-102178096D01*
X103672017Y-102178096D02*
X103767255Y-102225715D01*
X103767255Y-102225715D02*
X103814874Y-102320953D01*
X103814874Y-102320953D02*
X103814874Y-102416191D01*
X103814874Y-102416191D02*
X103338684Y-102511429D01*
X104100589Y-102178096D02*
X104481541Y-102178096D01*
X104243446Y-101844763D02*
X104243446Y-102701905D01*
X104243446Y-102701905D02*
X104291065Y-102797144D01*
X104291065Y-102797144D02*
X104386303Y-102844763D01*
X104386303Y-102844763D02*
X104481541Y-102844763D01*
X105481542Y-102178096D02*
X105719637Y-102844763D01*
X105957732Y-102178096D02*
X105719637Y-102844763D01*
X105719637Y-102844763D02*
X105624399Y-103082858D01*
X105624399Y-103082858D02*
X105576780Y-103130477D01*
X105576780Y-103130477D02*
X105481542Y-103178096D01*
X106481542Y-102844763D02*
X106386304Y-102797144D01*
X106386304Y-102797144D02*
X106338685Y-102749524D01*
X106338685Y-102749524D02*
X106291066Y-102654286D01*
X106291066Y-102654286D02*
X106291066Y-102368572D01*
X106291066Y-102368572D02*
X106338685Y-102273334D01*
X106338685Y-102273334D02*
X106386304Y-102225715D01*
X106386304Y-102225715D02*
X106481542Y-102178096D01*
X106481542Y-102178096D02*
X106624399Y-102178096D01*
X106624399Y-102178096D02*
X106719637Y-102225715D01*
X106719637Y-102225715D02*
X106767256Y-102273334D01*
X106767256Y-102273334D02*
X106814875Y-102368572D01*
X106814875Y-102368572D02*
X106814875Y-102654286D01*
X106814875Y-102654286D02*
X106767256Y-102749524D01*
X106767256Y-102749524D02*
X106719637Y-102797144D01*
X106719637Y-102797144D02*
X106624399Y-102844763D01*
X106624399Y-102844763D02*
X106481542Y-102844763D01*
X107672018Y-102178096D02*
X107672018Y-102844763D01*
X107243447Y-102178096D02*
X107243447Y-102701905D01*
X107243447Y-102701905D02*
X107291066Y-102797144D01*
X107291066Y-102797144D02*
X107386304Y-102844763D01*
X107386304Y-102844763D02*
X107529161Y-102844763D01*
X107529161Y-102844763D02*
X107624399Y-102797144D01*
X107624399Y-102797144D02*
X107672018Y-102749524D01*
X108148209Y-102844763D02*
X108148209Y-102178096D01*
X108148209Y-102368572D02*
X108195828Y-102273334D01*
X108195828Y-102273334D02*
X108243447Y-102225715D01*
X108243447Y-102225715D02*
X108338685Y-102178096D01*
X108338685Y-102178096D02*
X108433923Y-102178096D01*
X109529162Y-102844763D02*
X109529162Y-102178096D01*
X109529162Y-101844763D02*
X109481543Y-101892382D01*
X109481543Y-101892382D02*
X109529162Y-101940001D01*
X109529162Y-101940001D02*
X109576781Y-101892382D01*
X109576781Y-101892382D02*
X109529162Y-101844763D01*
X109529162Y-101844763D02*
X109529162Y-101940001D01*
X110005352Y-102178096D02*
X110005352Y-102844763D01*
X110005352Y-102273334D02*
X110052971Y-102225715D01*
X110052971Y-102225715D02*
X110148209Y-102178096D01*
X110148209Y-102178096D02*
X110291066Y-102178096D01*
X110291066Y-102178096D02*
X110386304Y-102225715D01*
X110386304Y-102225715D02*
X110433923Y-102320953D01*
X110433923Y-102320953D02*
X110433923Y-102844763D01*
X110910114Y-102178096D02*
X110910114Y-102844763D01*
X110910114Y-102273334D02*
X110957733Y-102225715D01*
X110957733Y-102225715D02*
X111052971Y-102178096D01*
X111052971Y-102178096D02*
X111195828Y-102178096D01*
X111195828Y-102178096D02*
X111291066Y-102225715D01*
X111291066Y-102225715D02*
X111338685Y-102320953D01*
X111338685Y-102320953D02*
X111338685Y-102844763D01*
X111957733Y-102844763D02*
X111862495Y-102797144D01*
X111862495Y-102797144D02*
X111814876Y-102749524D01*
X111814876Y-102749524D02*
X111767257Y-102654286D01*
X111767257Y-102654286D02*
X111767257Y-102368572D01*
X111767257Y-102368572D02*
X111814876Y-102273334D01*
X111814876Y-102273334D02*
X111862495Y-102225715D01*
X111862495Y-102225715D02*
X111957733Y-102178096D01*
X111957733Y-102178096D02*
X112100590Y-102178096D01*
X112100590Y-102178096D02*
X112195828Y-102225715D01*
X112195828Y-102225715D02*
X112243447Y-102273334D01*
X112243447Y-102273334D02*
X112291066Y-102368572D01*
X112291066Y-102368572D02*
X112291066Y-102654286D01*
X112291066Y-102654286D02*
X112243447Y-102749524D01*
X112243447Y-102749524D02*
X112195828Y-102797144D01*
X112195828Y-102797144D02*
X112100590Y-102844763D01*
X112100590Y-102844763D02*
X111957733Y-102844763D01*
X112624400Y-102178096D02*
X112862495Y-102844763D01*
X112862495Y-102844763D02*
X113100590Y-102178096D01*
X113910114Y-102844763D02*
X113910114Y-102320953D01*
X113910114Y-102320953D02*
X113862495Y-102225715D01*
X113862495Y-102225715D02*
X113767257Y-102178096D01*
X113767257Y-102178096D02*
X113576781Y-102178096D01*
X113576781Y-102178096D02*
X113481543Y-102225715D01*
X113910114Y-102797144D02*
X113814876Y-102844763D01*
X113814876Y-102844763D02*
X113576781Y-102844763D01*
X113576781Y-102844763D02*
X113481543Y-102797144D01*
X113481543Y-102797144D02*
X113433924Y-102701905D01*
X113433924Y-102701905D02*
X113433924Y-102606667D01*
X113433924Y-102606667D02*
X113481543Y-102511429D01*
X113481543Y-102511429D02*
X113576781Y-102463810D01*
X113576781Y-102463810D02*
X113814876Y-102463810D01*
X113814876Y-102463810D02*
X113910114Y-102416191D01*
X114243448Y-102178096D02*
X114624400Y-102178096D01*
X114386305Y-101844763D02*
X114386305Y-102701905D01*
X114386305Y-102701905D02*
X114433924Y-102797144D01*
X114433924Y-102797144D02*
X114529162Y-102844763D01*
X114529162Y-102844763D02*
X114624400Y-102844763D01*
X114957734Y-102844763D02*
X114957734Y-102178096D01*
X114957734Y-101844763D02*
X114910115Y-101892382D01*
X114910115Y-101892382D02*
X114957734Y-101940001D01*
X114957734Y-101940001D02*
X115005353Y-101892382D01*
X115005353Y-101892382D02*
X114957734Y-101844763D01*
X114957734Y-101844763D02*
X114957734Y-101940001D01*
X115576781Y-102844763D02*
X115481543Y-102797144D01*
X115481543Y-102797144D02*
X115433924Y-102749524D01*
X115433924Y-102749524D02*
X115386305Y-102654286D01*
X115386305Y-102654286D02*
X115386305Y-102368572D01*
X115386305Y-102368572D02*
X115433924Y-102273334D01*
X115433924Y-102273334D02*
X115481543Y-102225715D01*
X115481543Y-102225715D02*
X115576781Y-102178096D01*
X115576781Y-102178096D02*
X115719638Y-102178096D01*
X115719638Y-102178096D02*
X115814876Y-102225715D01*
X115814876Y-102225715D02*
X115862495Y-102273334D01*
X115862495Y-102273334D02*
X115910114Y-102368572D01*
X115910114Y-102368572D02*
X115910114Y-102654286D01*
X115910114Y-102654286D02*
X115862495Y-102749524D01*
X115862495Y-102749524D02*
X115814876Y-102797144D01*
X115814876Y-102797144D02*
X115719638Y-102844763D01*
X115719638Y-102844763D02*
X115576781Y-102844763D01*
X116338686Y-102178096D02*
X116338686Y-102844763D01*
X116338686Y-102273334D02*
X116386305Y-102225715D01*
X116386305Y-102225715D02*
X116481543Y-102178096D01*
X116481543Y-102178096D02*
X116624400Y-102178096D01*
X116624400Y-102178096D02*
X116719638Y-102225715D01*
X116719638Y-102225715D02*
X116767257Y-102320953D01*
X116767257Y-102320953D02*
X116767257Y-102844763D01*
X117195829Y-102797144D02*
X117291067Y-102844763D01*
X117291067Y-102844763D02*
X117481543Y-102844763D01*
X117481543Y-102844763D02*
X117576781Y-102797144D01*
X117576781Y-102797144D02*
X117624400Y-102701905D01*
X117624400Y-102701905D02*
X117624400Y-102654286D01*
X117624400Y-102654286D02*
X117576781Y-102559048D01*
X117576781Y-102559048D02*
X117481543Y-102511429D01*
X117481543Y-102511429D02*
X117338686Y-102511429D01*
X117338686Y-102511429D02*
X117243448Y-102463810D01*
X117243448Y-102463810D02*
X117195829Y-102368572D01*
X117195829Y-102368572D02*
X117195829Y-102320953D01*
X117195829Y-102320953D02*
X117243448Y-102225715D01*
X117243448Y-102225715D02*
X117338686Y-102178096D01*
X117338686Y-102178096D02*
X117481543Y-102178096D01*
X117481543Y-102178096D02*
X117576781Y-102225715D01*
X118814877Y-102844763D02*
X118814877Y-102178096D01*
X118814877Y-102368572D02*
X118862496Y-102273334D01*
X118862496Y-102273334D02*
X118910115Y-102225715D01*
X118910115Y-102225715D02*
X119005353Y-102178096D01*
X119005353Y-102178096D02*
X119100591Y-102178096D01*
X119814877Y-102797144D02*
X119719639Y-102844763D01*
X119719639Y-102844763D02*
X119529163Y-102844763D01*
X119529163Y-102844763D02*
X119433925Y-102797144D01*
X119433925Y-102797144D02*
X119386306Y-102701905D01*
X119386306Y-102701905D02*
X119386306Y-102320953D01*
X119386306Y-102320953D02*
X119433925Y-102225715D01*
X119433925Y-102225715D02*
X119529163Y-102178096D01*
X119529163Y-102178096D02*
X119719639Y-102178096D01*
X119719639Y-102178096D02*
X119814877Y-102225715D01*
X119814877Y-102225715D02*
X119862496Y-102320953D01*
X119862496Y-102320953D02*
X119862496Y-102416191D01*
X119862496Y-102416191D02*
X119386306Y-102511429D01*
X120243449Y-102797144D02*
X120338687Y-102844763D01*
X120338687Y-102844763D02*
X120529163Y-102844763D01*
X120529163Y-102844763D02*
X120624401Y-102797144D01*
X120624401Y-102797144D02*
X120672020Y-102701905D01*
X120672020Y-102701905D02*
X120672020Y-102654286D01*
X120672020Y-102654286D02*
X120624401Y-102559048D01*
X120624401Y-102559048D02*
X120529163Y-102511429D01*
X120529163Y-102511429D02*
X120386306Y-102511429D01*
X120386306Y-102511429D02*
X120291068Y-102463810D01*
X120291068Y-102463810D02*
X120243449Y-102368572D01*
X120243449Y-102368572D02*
X120243449Y-102320953D01*
X120243449Y-102320953D02*
X120291068Y-102225715D01*
X120291068Y-102225715D02*
X120386306Y-102178096D01*
X120386306Y-102178096D02*
X120529163Y-102178096D01*
X120529163Y-102178096D02*
X120624401Y-102225715D01*
X121243449Y-102844763D02*
X121148211Y-102797144D01*
X121148211Y-102797144D02*
X121100592Y-102749524D01*
X121100592Y-102749524D02*
X121052973Y-102654286D01*
X121052973Y-102654286D02*
X121052973Y-102368572D01*
X121052973Y-102368572D02*
X121100592Y-102273334D01*
X121100592Y-102273334D02*
X121148211Y-102225715D01*
X121148211Y-102225715D02*
X121243449Y-102178096D01*
X121243449Y-102178096D02*
X121386306Y-102178096D01*
X121386306Y-102178096D02*
X121481544Y-102225715D01*
X121481544Y-102225715D02*
X121529163Y-102273334D01*
X121529163Y-102273334D02*
X121576782Y-102368572D01*
X121576782Y-102368572D02*
X121576782Y-102654286D01*
X121576782Y-102654286D02*
X121529163Y-102749524D01*
X121529163Y-102749524D02*
X121481544Y-102797144D01*
X121481544Y-102797144D02*
X121386306Y-102844763D01*
X121386306Y-102844763D02*
X121243449Y-102844763D01*
X122005354Y-102178096D02*
X122005354Y-102844763D01*
X122005354Y-102273334D02*
X122052973Y-102225715D01*
X122052973Y-102225715D02*
X122148211Y-102178096D01*
X122148211Y-102178096D02*
X122291068Y-102178096D01*
X122291068Y-102178096D02*
X122386306Y-102225715D01*
X122386306Y-102225715D02*
X122433925Y-102320953D01*
X122433925Y-102320953D02*
X122433925Y-102844763D01*
X123338687Y-102844763D02*
X123338687Y-102320953D01*
X123338687Y-102320953D02*
X123291068Y-102225715D01*
X123291068Y-102225715D02*
X123195830Y-102178096D01*
X123195830Y-102178096D02*
X123005354Y-102178096D01*
X123005354Y-102178096D02*
X122910116Y-102225715D01*
X123338687Y-102797144D02*
X123243449Y-102844763D01*
X123243449Y-102844763D02*
X123005354Y-102844763D01*
X123005354Y-102844763D02*
X122910116Y-102797144D01*
X122910116Y-102797144D02*
X122862497Y-102701905D01*
X122862497Y-102701905D02*
X122862497Y-102606667D01*
X122862497Y-102606667D02*
X122910116Y-102511429D01*
X122910116Y-102511429D02*
X123005354Y-102463810D01*
X123005354Y-102463810D02*
X123243449Y-102463810D01*
X123243449Y-102463810D02*
X123338687Y-102416191D01*
X123672021Y-102178096D02*
X124052973Y-102178096D01*
X123814878Y-101844763D02*
X123814878Y-102701905D01*
X123814878Y-102701905D02*
X123862497Y-102797144D01*
X123862497Y-102797144D02*
X123957735Y-102844763D01*
X123957735Y-102844763D02*
X124052973Y-102844763D01*
X124767259Y-102797144D02*
X124672021Y-102844763D01*
X124672021Y-102844763D02*
X124481545Y-102844763D01*
X124481545Y-102844763D02*
X124386307Y-102797144D01*
X124386307Y-102797144D02*
X124338688Y-102701905D01*
X124338688Y-102701905D02*
X124338688Y-102320953D01*
X124338688Y-102320953D02*
X124386307Y-102225715D01*
X124386307Y-102225715D02*
X124481545Y-102178096D01*
X124481545Y-102178096D02*
X124672021Y-102178096D01*
X124672021Y-102178096D02*
X124767259Y-102225715D01*
X124767259Y-102225715D02*
X124814878Y-102320953D01*
X124814878Y-102320953D02*
X124814878Y-102416191D01*
X124814878Y-102416191D02*
X124338688Y-102511429D01*
X125910117Y-102178096D02*
X126100593Y-102844763D01*
X126100593Y-102844763D02*
X126291069Y-102368572D01*
X126291069Y-102368572D02*
X126481545Y-102844763D01*
X126481545Y-102844763D02*
X126672021Y-102178096D01*
X127052974Y-102844763D02*
X127052974Y-102178096D01*
X127052974Y-101844763D02*
X127005355Y-101892382D01*
X127005355Y-101892382D02*
X127052974Y-101940001D01*
X127052974Y-101940001D02*
X127100593Y-101892382D01*
X127100593Y-101892382D02*
X127052974Y-101844763D01*
X127052974Y-101844763D02*
X127052974Y-101940001D01*
X127386307Y-102178096D02*
X127767259Y-102178096D01*
X127529164Y-101844763D02*
X127529164Y-102701905D01*
X127529164Y-102701905D02*
X127576783Y-102797144D01*
X127576783Y-102797144D02*
X127672021Y-102844763D01*
X127672021Y-102844763D02*
X127767259Y-102844763D01*
X128100593Y-102844763D02*
X128100593Y-101844763D01*
X128529164Y-102844763D02*
X128529164Y-102320953D01*
X128529164Y-102320953D02*
X128481545Y-102225715D01*
X128481545Y-102225715D02*
X128386307Y-102178096D01*
X128386307Y-102178096D02*
X128243450Y-102178096D01*
X128243450Y-102178096D02*
X128148212Y-102225715D01*
X128148212Y-102225715D02*
X128100593Y-102273334D01*
X129767260Y-102844763D02*
X129767260Y-101844763D01*
X130195831Y-102844763D02*
X130195831Y-102320953D01*
X130195831Y-102320953D02*
X130148212Y-102225715D01*
X130148212Y-102225715D02*
X130052974Y-102178096D01*
X130052974Y-102178096D02*
X129910117Y-102178096D01*
X129910117Y-102178096D02*
X129814879Y-102225715D01*
X129814879Y-102225715D02*
X129767260Y-102273334D01*
X131100593Y-102844763D02*
X131100593Y-102320953D01*
X131100593Y-102320953D02*
X131052974Y-102225715D01*
X131052974Y-102225715D02*
X130957736Y-102178096D01*
X130957736Y-102178096D02*
X130767260Y-102178096D01*
X130767260Y-102178096D02*
X130672022Y-102225715D01*
X131100593Y-102797144D02*
X131005355Y-102844763D01*
X131005355Y-102844763D02*
X130767260Y-102844763D01*
X130767260Y-102844763D02*
X130672022Y-102797144D01*
X130672022Y-102797144D02*
X130624403Y-102701905D01*
X130624403Y-102701905D02*
X130624403Y-102606667D01*
X130624403Y-102606667D02*
X130672022Y-102511429D01*
X130672022Y-102511429D02*
X130767260Y-102463810D01*
X130767260Y-102463810D02*
X131005355Y-102463810D01*
X131005355Y-102463810D02*
X131100593Y-102416191D01*
X131576784Y-102844763D02*
X131576784Y-102178096D01*
X131576784Y-102368572D02*
X131624403Y-102273334D01*
X131624403Y-102273334D02*
X131672022Y-102225715D01*
X131672022Y-102225715D02*
X131767260Y-102178096D01*
X131767260Y-102178096D02*
X131862498Y-102178096D01*
X132195832Y-102844763D02*
X132195832Y-102178096D01*
X132195832Y-102273334D02*
X132243451Y-102225715D01*
X132243451Y-102225715D02*
X132338689Y-102178096D01*
X132338689Y-102178096D02*
X132481546Y-102178096D01*
X132481546Y-102178096D02*
X132576784Y-102225715D01*
X132576784Y-102225715D02*
X132624403Y-102320953D01*
X132624403Y-102320953D02*
X132624403Y-102844763D01*
X132624403Y-102320953D02*
X132672022Y-102225715D01*
X132672022Y-102225715D02*
X132767260Y-102178096D01*
X132767260Y-102178096D02*
X132910117Y-102178096D01*
X132910117Y-102178096D02*
X133005356Y-102225715D01*
X133005356Y-102225715D02*
X133052975Y-102320953D01*
X133052975Y-102320953D02*
X133052975Y-102844763D01*
X133672022Y-102844763D02*
X133576784Y-102797144D01*
X133576784Y-102797144D02*
X133529165Y-102749524D01*
X133529165Y-102749524D02*
X133481546Y-102654286D01*
X133481546Y-102654286D02*
X133481546Y-102368572D01*
X133481546Y-102368572D02*
X133529165Y-102273334D01*
X133529165Y-102273334D02*
X133576784Y-102225715D01*
X133576784Y-102225715D02*
X133672022Y-102178096D01*
X133672022Y-102178096D02*
X133814879Y-102178096D01*
X133814879Y-102178096D02*
X133910117Y-102225715D01*
X133910117Y-102225715D02*
X133957736Y-102273334D01*
X133957736Y-102273334D02*
X134005355Y-102368572D01*
X134005355Y-102368572D02*
X134005355Y-102654286D01*
X134005355Y-102654286D02*
X133957736Y-102749524D01*
X133957736Y-102749524D02*
X133910117Y-102797144D01*
X133910117Y-102797144D02*
X133814879Y-102844763D01*
X133814879Y-102844763D02*
X133672022Y-102844763D01*
X134433927Y-102178096D02*
X134433927Y-102844763D01*
X134433927Y-102273334D02*
X134481546Y-102225715D01*
X134481546Y-102225715D02*
X134576784Y-102178096D01*
X134576784Y-102178096D02*
X134719641Y-102178096D01*
X134719641Y-102178096D02*
X134814879Y-102225715D01*
X134814879Y-102225715D02*
X134862498Y-102320953D01*
X134862498Y-102320953D02*
X134862498Y-102844763D01*
X135243451Y-102178096D02*
X135481546Y-102844763D01*
X135719641Y-102178096D02*
X135481546Y-102844763D01*
X135481546Y-102844763D02*
X135386308Y-103082858D01*
X135386308Y-103082858D02*
X135338689Y-103130477D01*
X135338689Y-103130477D02*
X135243451Y-103178096D01*
X136100594Y-102749524D02*
X136148213Y-102797144D01*
X136148213Y-102797144D02*
X136100594Y-102844763D01*
X136100594Y-102844763D02*
X136052975Y-102797144D01*
X136052975Y-102797144D02*
X136100594Y-102749524D01*
X136100594Y-102749524D02*
X136100594Y-102844763D01*
X102576779Y-105683698D02*
X103338684Y-105683698D01*
X104433922Y-105064651D02*
X105005350Y-105064651D01*
X104719636Y-106064651D02*
X104719636Y-105064651D01*
X105338684Y-106064651D02*
X105338684Y-105064651D01*
X105767255Y-106064651D02*
X105767255Y-105540841D01*
X105767255Y-105540841D02*
X105719636Y-105445603D01*
X105719636Y-105445603D02*
X105624398Y-105397984D01*
X105624398Y-105397984D02*
X105481541Y-105397984D01*
X105481541Y-105397984D02*
X105386303Y-105445603D01*
X105386303Y-105445603D02*
X105338684Y-105493222D01*
X106624398Y-106017032D02*
X106529160Y-106064651D01*
X106529160Y-106064651D02*
X106338684Y-106064651D01*
X106338684Y-106064651D02*
X106243446Y-106017032D01*
X106243446Y-106017032D02*
X106195827Y-105921793D01*
X106195827Y-105921793D02*
X106195827Y-105540841D01*
X106195827Y-105540841D02*
X106243446Y-105445603D01*
X106243446Y-105445603D02*
X106338684Y-105397984D01*
X106338684Y-105397984D02*
X106529160Y-105397984D01*
X106529160Y-105397984D02*
X106624398Y-105445603D01*
X106624398Y-105445603D02*
X106672017Y-105540841D01*
X106672017Y-105540841D02*
X106672017Y-105636079D01*
X106672017Y-105636079D02*
X106195827Y-105731317D01*
X107814875Y-105778936D02*
X108291065Y-105778936D01*
X107719637Y-106064651D02*
X108052970Y-105064651D01*
X108052970Y-105064651D02*
X108386303Y-106064651D01*
X108862494Y-106064651D02*
X108767256Y-106017032D01*
X108767256Y-106017032D02*
X108719637Y-105921793D01*
X108719637Y-105921793D02*
X108719637Y-105064651D01*
X109672018Y-105397984D02*
X109672018Y-106207508D01*
X109672018Y-106207508D02*
X109624399Y-106302746D01*
X109624399Y-106302746D02*
X109576780Y-106350365D01*
X109576780Y-106350365D02*
X109481542Y-106397984D01*
X109481542Y-106397984D02*
X109338685Y-106397984D01*
X109338685Y-106397984D02*
X109243447Y-106350365D01*
X109672018Y-106017032D02*
X109576780Y-106064651D01*
X109576780Y-106064651D02*
X109386304Y-106064651D01*
X109386304Y-106064651D02*
X109291066Y-106017032D01*
X109291066Y-106017032D02*
X109243447Y-105969412D01*
X109243447Y-105969412D02*
X109195828Y-105874174D01*
X109195828Y-105874174D02*
X109195828Y-105588460D01*
X109195828Y-105588460D02*
X109243447Y-105493222D01*
X109243447Y-105493222D02*
X109291066Y-105445603D01*
X109291066Y-105445603D02*
X109386304Y-105397984D01*
X109386304Y-105397984D02*
X109576780Y-105397984D01*
X109576780Y-105397984D02*
X109672018Y-105445603D01*
X110291066Y-106064651D02*
X110195828Y-106017032D01*
X110195828Y-106017032D02*
X110148209Y-105969412D01*
X110148209Y-105969412D02*
X110100590Y-105874174D01*
X110100590Y-105874174D02*
X110100590Y-105588460D01*
X110100590Y-105588460D02*
X110148209Y-105493222D01*
X110148209Y-105493222D02*
X110195828Y-105445603D01*
X110195828Y-105445603D02*
X110291066Y-105397984D01*
X110291066Y-105397984D02*
X110433923Y-105397984D01*
X110433923Y-105397984D02*
X110529161Y-105445603D01*
X110529161Y-105445603D02*
X110576780Y-105493222D01*
X110576780Y-105493222D02*
X110624399Y-105588460D01*
X110624399Y-105588460D02*
X110624399Y-105874174D01*
X110624399Y-105874174D02*
X110576780Y-105969412D01*
X110576780Y-105969412D02*
X110529161Y-106017032D01*
X110529161Y-106017032D02*
X110433923Y-106064651D01*
X110433923Y-106064651D02*
X110291066Y-106064651D01*
X111052971Y-106064651D02*
X111052971Y-105397984D01*
X111052971Y-105588460D02*
X111100590Y-105493222D01*
X111100590Y-105493222D02*
X111148209Y-105445603D01*
X111148209Y-105445603D02*
X111243447Y-105397984D01*
X111243447Y-105397984D02*
X111338685Y-105397984D01*
X111672019Y-106064651D02*
X111672019Y-105397984D01*
X111672019Y-105064651D02*
X111624400Y-105112270D01*
X111624400Y-105112270D02*
X111672019Y-105159889D01*
X111672019Y-105159889D02*
X111719638Y-105112270D01*
X111719638Y-105112270D02*
X111672019Y-105064651D01*
X111672019Y-105064651D02*
X111672019Y-105159889D01*
X112005352Y-105397984D02*
X112386304Y-105397984D01*
X112148209Y-105064651D02*
X112148209Y-105921793D01*
X112148209Y-105921793D02*
X112195828Y-106017032D01*
X112195828Y-106017032D02*
X112291066Y-106064651D01*
X112291066Y-106064651D02*
X112386304Y-106064651D01*
X112719638Y-106064651D02*
X112719638Y-105064651D01*
X113148209Y-106064651D02*
X113148209Y-105540841D01*
X113148209Y-105540841D02*
X113100590Y-105445603D01*
X113100590Y-105445603D02*
X113005352Y-105397984D01*
X113005352Y-105397984D02*
X112862495Y-105397984D01*
X112862495Y-105397984D02*
X112767257Y-105445603D01*
X112767257Y-105445603D02*
X112719638Y-105493222D01*
X113624400Y-106064651D02*
X113624400Y-105397984D01*
X113624400Y-105493222D02*
X113672019Y-105445603D01*
X113672019Y-105445603D02*
X113767257Y-105397984D01*
X113767257Y-105397984D02*
X113910114Y-105397984D01*
X113910114Y-105397984D02*
X114005352Y-105445603D01*
X114005352Y-105445603D02*
X114052971Y-105540841D01*
X114052971Y-105540841D02*
X114052971Y-106064651D01*
X114052971Y-105540841D02*
X114100590Y-105445603D01*
X114100590Y-105445603D02*
X114195828Y-105397984D01*
X114195828Y-105397984D02*
X114338685Y-105397984D01*
X114338685Y-105397984D02*
X114433924Y-105445603D01*
X114433924Y-105445603D02*
X114481543Y-105540841D01*
X114481543Y-105540841D02*
X114481543Y-106064651D01*
D14*
X189421428Y-134434638D02*
X189421428Y-132434638D01*
X189421428Y-132434638D02*
X190088095Y-133863209D01*
X190088095Y-133863209D02*
X190754761Y-132434638D01*
X190754761Y-132434638D02*
X190754761Y-134434638D01*
X191707142Y-134434638D02*
X191707142Y-132434638D01*
X192659523Y-134434638D02*
X192659523Y-132434638D01*
X192659523Y-132434638D02*
X193802380Y-134434638D01*
X193802380Y-134434638D02*
X193802380Y-132434638D01*
X194754761Y-134434638D02*
X194754761Y-132434638D01*
X195707142Y-134434638D02*
X195707142Y-132434638D01*
X195707142Y-132434638D02*
X196183332Y-132434638D01*
X196183332Y-132434638D02*
X196469047Y-132529876D01*
X196469047Y-132529876D02*
X196659523Y-132720352D01*
X196659523Y-132720352D02*
X196754761Y-132910828D01*
X196754761Y-132910828D02*
X196849999Y-133291780D01*
X196849999Y-133291780D02*
X196849999Y-133577495D01*
X196849999Y-133577495D02*
X196754761Y-133958447D01*
X196754761Y-133958447D02*
X196659523Y-134148923D01*
X196659523Y-134148923D02*
X196469047Y-134339400D01*
X196469047Y-134339400D02*
X196183332Y-134434638D01*
X196183332Y-134434638D02*
X195707142Y-134434638D01*
X197707142Y-133387019D02*
X198373809Y-133387019D01*
X198659523Y-134434638D02*
X197707142Y-134434638D01*
X197707142Y-134434638D02*
X197707142Y-132434638D01*
X197707142Y-132434638D02*
X198659523Y-132434638D01*
X199326190Y-132434638D02*
X200659523Y-134434638D01*
X200659523Y-132434638D02*
X199326190Y-134434638D01*
X201421428Y-133387019D02*
X202088095Y-133387019D01*
X202373809Y-134434638D02*
X201421428Y-134434638D01*
X201421428Y-134434638D02*
X201421428Y-132434638D01*
X201421428Y-132434638D02*
X202373809Y-132434638D01*
X203230952Y-134434638D02*
X203230952Y-132434638D01*
X203230952Y-132434638D02*
X203707142Y-132434638D01*
X203707142Y-132434638D02*
X203992857Y-132529876D01*
X203992857Y-132529876D02*
X204183333Y-132720352D01*
X204183333Y-132720352D02*
X204278571Y-132910828D01*
X204278571Y-132910828D02*
X204373809Y-133291780D01*
X204373809Y-133291780D02*
X204373809Y-133577495D01*
X204373809Y-133577495D02*
X204278571Y-133958447D01*
X204278571Y-133958447D02*
X204183333Y-134148923D01*
X204183333Y-134148923D02*
X203992857Y-134339400D01*
X203992857Y-134339400D02*
X203707142Y-134434638D01*
X203707142Y-134434638D02*
X203230952Y-134434638D01*
D11*
X111066667Y-119507200D02*
X111209524Y-119554819D01*
X111209524Y-119554819D02*
X111447619Y-119554819D01*
X111447619Y-119554819D02*
X111542857Y-119507200D01*
X111542857Y-119507200D02*
X111590476Y-119459580D01*
X111590476Y-119459580D02*
X111638095Y-119364342D01*
X111638095Y-119364342D02*
X111638095Y-119269104D01*
X111638095Y-119269104D02*
X111590476Y-119173866D01*
X111590476Y-119173866D02*
X111542857Y-119126247D01*
X111542857Y-119126247D02*
X111447619Y-119078628D01*
X111447619Y-119078628D02*
X111257143Y-119031009D01*
X111257143Y-119031009D02*
X111161905Y-118983390D01*
X111161905Y-118983390D02*
X111114286Y-118935771D01*
X111114286Y-118935771D02*
X111066667Y-118840533D01*
X111066667Y-118840533D02*
X111066667Y-118745295D01*
X111066667Y-118745295D02*
X111114286Y-118650057D01*
X111114286Y-118650057D02*
X111161905Y-118602438D01*
X111161905Y-118602438D02*
X111257143Y-118554819D01*
X111257143Y-118554819D02*
X111495238Y-118554819D01*
X111495238Y-118554819D02*
X111638095Y-118602438D01*
X111971429Y-118554819D02*
X112209524Y-119554819D01*
X112209524Y-119554819D02*
X112400000Y-118840533D01*
X112400000Y-118840533D02*
X112590476Y-119554819D01*
X112590476Y-119554819D02*
X112828572Y-118554819D01*
X113161905Y-118650057D02*
X113209524Y-118602438D01*
X113209524Y-118602438D02*
X113304762Y-118554819D01*
X113304762Y-118554819D02*
X113542857Y-118554819D01*
X113542857Y-118554819D02*
X113638095Y-118602438D01*
X113638095Y-118602438D02*
X113685714Y-118650057D01*
X113685714Y-118650057D02*
X113733333Y-118745295D01*
X113733333Y-118745295D02*
X113733333Y-118840533D01*
X113733333Y-118840533D02*
X113685714Y-118983390D01*
X113685714Y-118983390D02*
X113114286Y-119554819D01*
X113114286Y-119554819D02*
X113733333Y-119554819D01*
X101913714Y-81781319D02*
X101913714Y-80781319D01*
X101913714Y-80781319D02*
X102151809Y-80781319D01*
X102151809Y-80781319D02*
X102294666Y-80828938D01*
X102294666Y-80828938D02*
X102389904Y-80924176D01*
X102389904Y-80924176D02*
X102437523Y-81019414D01*
X102437523Y-81019414D02*
X102485142Y-81209890D01*
X102485142Y-81209890D02*
X102485142Y-81352747D01*
X102485142Y-81352747D02*
X102437523Y-81543223D01*
X102437523Y-81543223D02*
X102389904Y-81638461D01*
X102389904Y-81638461D02*
X102294666Y-81733700D01*
X102294666Y-81733700D02*
X102151809Y-81781319D01*
X102151809Y-81781319D02*
X101913714Y-81781319D01*
X102866095Y-81733700D02*
X103008952Y-81781319D01*
X103008952Y-81781319D02*
X103247047Y-81781319D01*
X103247047Y-81781319D02*
X103342285Y-81733700D01*
X103342285Y-81733700D02*
X103389904Y-81686080D01*
X103389904Y-81686080D02*
X103437523Y-81590842D01*
X103437523Y-81590842D02*
X103437523Y-81495604D01*
X103437523Y-81495604D02*
X103389904Y-81400366D01*
X103389904Y-81400366D02*
X103342285Y-81352747D01*
X103342285Y-81352747D02*
X103247047Y-81305128D01*
X103247047Y-81305128D02*
X103056571Y-81257509D01*
X103056571Y-81257509D02*
X102961333Y-81209890D01*
X102961333Y-81209890D02*
X102913714Y-81162271D01*
X102913714Y-81162271D02*
X102866095Y-81067033D01*
X102866095Y-81067033D02*
X102866095Y-80971795D01*
X102866095Y-80971795D02*
X102913714Y-80876557D01*
X102913714Y-80876557D02*
X102961333Y-80828938D01*
X102961333Y-80828938D02*
X103056571Y-80781319D01*
X103056571Y-80781319D02*
X103294666Y-80781319D01*
X103294666Y-80781319D02*
X103437523Y-80828938D01*
X104389904Y-81781319D02*
X103818476Y-81781319D01*
X104104190Y-81781319D02*
X104104190Y-80781319D01*
X104104190Y-80781319D02*
X104008952Y-80924176D01*
X104008952Y-80924176D02*
X103913714Y-81019414D01*
X103913714Y-81019414D02*
X103818476Y-81067033D01*
X199634267Y-99622500D02*
X199777124Y-99670119D01*
X199777124Y-99670119D02*
X200015219Y-99670119D01*
X200015219Y-99670119D02*
X200110457Y-99622500D01*
X200110457Y-99622500D02*
X200158076Y-99574880D01*
X200158076Y-99574880D02*
X200205695Y-99479642D01*
X200205695Y-99479642D02*
X200205695Y-99384404D01*
X200205695Y-99384404D02*
X200158076Y-99289166D01*
X200158076Y-99289166D02*
X200110457Y-99241547D01*
X200110457Y-99241547D02*
X200015219Y-99193928D01*
X200015219Y-99193928D02*
X199824743Y-99146309D01*
X199824743Y-99146309D02*
X199729505Y-99098690D01*
X199729505Y-99098690D02*
X199681886Y-99051071D01*
X199681886Y-99051071D02*
X199634267Y-98955833D01*
X199634267Y-98955833D02*
X199634267Y-98860595D01*
X199634267Y-98860595D02*
X199681886Y-98765357D01*
X199681886Y-98765357D02*
X199729505Y-98717738D01*
X199729505Y-98717738D02*
X199824743Y-98670119D01*
X199824743Y-98670119D02*
X200062838Y-98670119D01*
X200062838Y-98670119D02*
X200205695Y-98717738D01*
X200539029Y-98670119D02*
X200777124Y-99670119D01*
X200777124Y-99670119D02*
X200967600Y-98955833D01*
X200967600Y-98955833D02*
X201158076Y-99670119D01*
X201158076Y-99670119D02*
X201396172Y-98670119D01*
X202300933Y-99670119D02*
X201729505Y-99670119D01*
X202015219Y-99670119D02*
X202015219Y-98670119D01*
X202015219Y-98670119D02*
X201919981Y-98812976D01*
X201919981Y-98812976D02*
X201824743Y-98908214D01*
X201824743Y-98908214D02*
X201729505Y-98955833D01*
X133966667Y-119507200D02*
X134109524Y-119554819D01*
X134109524Y-119554819D02*
X134347619Y-119554819D01*
X134347619Y-119554819D02*
X134442857Y-119507200D01*
X134442857Y-119507200D02*
X134490476Y-119459580D01*
X134490476Y-119459580D02*
X134538095Y-119364342D01*
X134538095Y-119364342D02*
X134538095Y-119269104D01*
X134538095Y-119269104D02*
X134490476Y-119173866D01*
X134490476Y-119173866D02*
X134442857Y-119126247D01*
X134442857Y-119126247D02*
X134347619Y-119078628D01*
X134347619Y-119078628D02*
X134157143Y-119031009D01*
X134157143Y-119031009D02*
X134061905Y-118983390D01*
X134061905Y-118983390D02*
X134014286Y-118935771D01*
X134014286Y-118935771D02*
X133966667Y-118840533D01*
X133966667Y-118840533D02*
X133966667Y-118745295D01*
X133966667Y-118745295D02*
X134014286Y-118650057D01*
X134014286Y-118650057D02*
X134061905Y-118602438D01*
X134061905Y-118602438D02*
X134157143Y-118554819D01*
X134157143Y-118554819D02*
X134395238Y-118554819D01*
X134395238Y-118554819D02*
X134538095Y-118602438D01*
X134871429Y-118554819D02*
X135109524Y-119554819D01*
X135109524Y-119554819D02*
X135300000Y-118840533D01*
X135300000Y-118840533D02*
X135490476Y-119554819D01*
X135490476Y-119554819D02*
X135728572Y-118554819D01*
X136014286Y-118554819D02*
X136633333Y-118554819D01*
X136633333Y-118554819D02*
X136300000Y-118935771D01*
X136300000Y-118935771D02*
X136442857Y-118935771D01*
X136442857Y-118935771D02*
X136538095Y-118983390D01*
X136538095Y-118983390D02*
X136585714Y-119031009D01*
X136585714Y-119031009D02*
X136633333Y-119126247D01*
X136633333Y-119126247D02*
X136633333Y-119364342D01*
X136633333Y-119364342D02*
X136585714Y-119459580D01*
X136585714Y-119459580D02*
X136538095Y-119507200D01*
X136538095Y-119507200D02*
X136442857Y-119554819D01*
X136442857Y-119554819D02*
X136157143Y-119554819D01*
X136157143Y-119554819D02*
X136061905Y-119507200D01*
X136061905Y-119507200D02*
X136014286Y-119459580D01*
X156766667Y-119507200D02*
X156909524Y-119554819D01*
X156909524Y-119554819D02*
X157147619Y-119554819D01*
X157147619Y-119554819D02*
X157242857Y-119507200D01*
X157242857Y-119507200D02*
X157290476Y-119459580D01*
X157290476Y-119459580D02*
X157338095Y-119364342D01*
X157338095Y-119364342D02*
X157338095Y-119269104D01*
X157338095Y-119269104D02*
X157290476Y-119173866D01*
X157290476Y-119173866D02*
X157242857Y-119126247D01*
X157242857Y-119126247D02*
X157147619Y-119078628D01*
X157147619Y-119078628D02*
X156957143Y-119031009D01*
X156957143Y-119031009D02*
X156861905Y-118983390D01*
X156861905Y-118983390D02*
X156814286Y-118935771D01*
X156814286Y-118935771D02*
X156766667Y-118840533D01*
X156766667Y-118840533D02*
X156766667Y-118745295D01*
X156766667Y-118745295D02*
X156814286Y-118650057D01*
X156814286Y-118650057D02*
X156861905Y-118602438D01*
X156861905Y-118602438D02*
X156957143Y-118554819D01*
X156957143Y-118554819D02*
X157195238Y-118554819D01*
X157195238Y-118554819D02*
X157338095Y-118602438D01*
X157671429Y-118554819D02*
X157909524Y-119554819D01*
X157909524Y-119554819D02*
X158100000Y-118840533D01*
X158100000Y-118840533D02*
X158290476Y-119554819D01*
X158290476Y-119554819D02*
X158528572Y-118554819D01*
X159338095Y-118888152D02*
X159338095Y-119554819D01*
X159100000Y-118507200D02*
X158861905Y-119221485D01*
X158861905Y-119221485D02*
X159480952Y-119221485D01*
D15*
X105915000Y-131185000D02*
X105915000Y-117215000D01*
X105915000Y-117215000D02*
X119885000Y-117215000D01*
X119885000Y-117215000D02*
X119885000Y-131185000D01*
X119885000Y-131185000D02*
X105915000Y-131185000D01*
X202968400Y-100276500D02*
X202968400Y-88476500D01*
X197368400Y-94376500D02*
X196368400Y-94376500D01*
X204068400Y-98476500D02*
X204368400Y-98176500D01*
X198868400Y-100276500D02*
X202968400Y-100276500D01*
X204368400Y-98176500D02*
X204668400Y-98476500D01*
X190768400Y-88476500D02*
X194868400Y-88476500D01*
X194868400Y-100276500D02*
X190768400Y-100276500D01*
X190768400Y-95676500D02*
X190768400Y-93076500D01*
X190768400Y-100276500D02*
X190768400Y-97876500D01*
X190768400Y-90876500D02*
X190768400Y-88476500D01*
X198868400Y-88476500D02*
X202968400Y-88476500D01*
X196868400Y-94876500D02*
X196868400Y-93876500D01*
X204668400Y-98476500D02*
X204068400Y-98476500D01*
X199868400Y-94376500D02*
G75*
G02*
X193868400Y-94376500I-3000000J0D01*
G01*
X193868400Y-94376500D02*
G75*
G02*
X199868400Y-94376500I3000000J0D01*
G01*
X142735000Y-117215000D02*
X142735000Y-131185000D01*
X128765000Y-131185000D02*
X128765000Y-117215000D01*
X128765000Y-117215000D02*
X142735000Y-117215000D01*
X142735000Y-131185000D02*
X128765000Y-131185000D01*
X151615000Y-131185000D02*
X151615000Y-117215000D01*
X165585000Y-131185000D02*
X151615000Y-131185000D01*
X165585000Y-117215000D02*
X165585000Y-131185000D01*
X151615000Y-117215000D02*
X165585000Y-117215000D01*
%LPC*%
D16*
X122500000Y-60487500D03*
X122500000Y-67487500D03*
D17*
X124800000Y-70187500D03*
X120200000Y-65087500D03*
X120200000Y-69087500D03*
X120200000Y-62087500D03*
D16*
X140000000Y-60487500D03*
X140000000Y-67487500D03*
D17*
X142300000Y-70187500D03*
X137700000Y-65087500D03*
X137700000Y-69087500D03*
X137700000Y-62087500D03*
D16*
X107000000Y-60487500D03*
X107000000Y-67487500D03*
D17*
X109300000Y-70187500D03*
X104700000Y-65087500D03*
X104700000Y-69087500D03*
X104700000Y-62087500D03*
D16*
X155500000Y-60487500D03*
X155500000Y-67487500D03*
D17*
X157800000Y-70187500D03*
X153200000Y-65087500D03*
X153200000Y-69087500D03*
X153200000Y-62087500D03*
D18*
X164100000Y-62700000D03*
D19*
X107820000Y-124200000D03*
D20*
X112900000Y-124200000D03*
D19*
X117980000Y-124200000D03*
D21*
X115440000Y-119120000D03*
X109090000Y-121660000D03*
D22*
X97628900Y-109877200D03*
X97628900Y-78876500D03*
D23*
X103128000Y-78876500D03*
D24*
X105668000Y-78876500D03*
X108208000Y-78876500D03*
X110748000Y-78876500D03*
X113288000Y-78876500D03*
X115828000Y-78876500D03*
X118368000Y-78876500D03*
X120908000Y-78876500D03*
X123448000Y-78876500D03*
X125988000Y-78876500D03*
X128528000Y-78876500D03*
X131068000Y-78876500D03*
X133608000Y-78876500D03*
X136148000Y-78876500D03*
X138688000Y-78876500D03*
X141228000Y-78876500D03*
D25*
X204368400Y-96876500D03*
D26*
X204368400Y-91876500D03*
X204368400Y-94376500D03*
D27*
X196868400Y-99976500D03*
D28*
X196868400Y-88776500D03*
D26*
X189868400Y-91876500D03*
X189868400Y-96876500D03*
D19*
X130670000Y-124200000D03*
X140830000Y-124200000D03*
D20*
X135750000Y-124200000D03*
D21*
X138290000Y-119120000D03*
X131940000Y-121660000D03*
D18*
X97900000Y-137000000D03*
D19*
X153520000Y-124200000D03*
D20*
X158600000Y-124200000D03*
D19*
X163680000Y-124200000D03*
D21*
X161140000Y-119120000D03*
X154790000Y-121660000D03*
D18*
X172618400Y-136892400D03*
X221618400Y-78892400D03*
X172618400Y-78892400D03*
X221618400Y-136892400D03*
D29*
X173918400Y-132042400D03*
D30*
X171378400Y-132042400D03*
X173918400Y-129502400D03*
X171378400Y-129502400D03*
X173918400Y-126962400D03*
X171378400Y-126962400D03*
X173918400Y-124422400D03*
X171378400Y-124422400D03*
X173918400Y-121882400D03*
X171378400Y-121882400D03*
X173918400Y-119342400D03*
X171378400Y-119342400D03*
X173918400Y-116802400D03*
X171378400Y-116802400D03*
X173918400Y-114262400D03*
X171378400Y-114262400D03*
X173918400Y-111722400D03*
X171378400Y-111722400D03*
X173918400Y-109182400D03*
X171378400Y-109182400D03*
X173918400Y-106642400D03*
X171378400Y-106642400D03*
X173918400Y-104102400D03*
X171378400Y-104102400D03*
X173918400Y-101562400D03*
X171378400Y-101562400D03*
X173918400Y-99022400D03*
X171378400Y-99022400D03*
X173918400Y-96482400D03*
X171378400Y-96482400D03*
X173918400Y-93942400D03*
X171378400Y-93942400D03*
X173918400Y-91402400D03*
X171378400Y-91402400D03*
X173918400Y-88862400D03*
X171378400Y-88862400D03*
X173918400Y-86322400D03*
X171378400Y-86322400D03*
X173918400Y-83782400D03*
X171378400Y-83782400D03*
D18*
X97900000Y-62700000D03*
D25*
X103900000Y-86760000D03*
D26*
X101400000Y-91760000D03*
X98900000Y-86760000D03*
D31*
X160325000Y-104300000D03*
D30*
X162865000Y-104300000D03*
%LPD*%
M02*
