G04 #@! TF.GenerationSoftware,KiCad,Pcbnew,8.0.1*
G04 #@! TF.CreationDate,2025-03-29T00:02:57-06:00*
G04 #@! TF.ProjectId,minidexed,6d696e69-6465-4786-9564-2e6b69636164,rev?*
G04 #@! TF.SameCoordinates,Original*
G04 #@! TF.FileFunction,Soldermask,Top*
G04 #@! TF.FilePolarity,Negative*
%FSLAX46Y46*%
G04 Gerber Fmt 4.6, Leading zero omitted, Abs format (unit mm)*
G04 Created by KiCad (PCBNEW 8.0.1) date 2025-03-29 00:02:57*
%MOMM*%
%LPD*%
G01*
G04 APERTURE LIST*
G04 Aperture macros list*
%AMRoundRect*
0 Rectangle with rounded corners*
0 $1 Rounding radius*
0 $2 $3 $4 $5 $6 $7 $8 $9 X,Y pos of 4 corners*
0 Add a 4 corners polygon primitive as box body*
4,1,4,$2,$3,$4,$5,$6,$7,$8,$9,$2,$3,0*
0 Add four circle primitives for the rounded corners*
1,1,$1+$1,$2,$3*
1,1,$1+$1,$4,$5*
1,1,$1+$1,$6,$7*
1,1,$1+$1,$8,$9*
0 Add four rect primitives between the rounded corners*
20,1,$1+$1,$2,$3,$4,$5,0*
20,1,$1+$1,$4,$5,$6,$7,0*
20,1,$1+$1,$6,$7,$8,$9,0*
20,1,$1+$1,$8,$9,$2,$3,0*%
G04 Aperture macros list end*
%ADD10C,0.900000*%
%ADD11O,1.700000X2.100000*%
%ADD12C,2.800000*%
%ADD13C,1.800000*%
%ADD14C,4.100000*%
%ADD15C,2.300000*%
%ADD16C,3.100000*%
%ADD17RoundRect,0.050000X-0.900000X-1.300000X0.900000X-1.300000X0.900000X1.300000X-0.900000X1.300000X0*%
%ADD18O,1.900000X2.700000*%
%ADD19RoundRect,0.050000X1.000000X1.000000X-1.000000X1.000000X-1.000000X-1.000000X1.000000X-1.000000X0*%
%ADD20C,2.100000*%
%ADD21RoundRect,0.050000X1.750000X1.250000X-1.750000X1.250000X-1.750000X-1.250000X1.750000X-1.250000X0*%
%ADD22RoundRect,0.050000X1.750000X1.400000X-1.750000X1.400000X-1.750000X-1.400000X1.750000X-1.400000X0*%
%ADD23RoundRect,0.050000X0.850000X0.850000X-0.850000X0.850000X-0.850000X-0.850000X0.850000X-0.850000X0*%
%ADD24O,1.800000X1.800000*%
%ADD25RoundRect,0.050000X-0.850000X0.850000X-0.850000X-0.850000X0.850000X-0.850000X0.850000X0.850000X0*%
G04 APERTURE END LIST*
D10*
X122500000Y-60487500D03*
X122500000Y-67487500D03*
D11*
X124800000Y-70187500D03*
X120200000Y-65087500D03*
X120200000Y-69087500D03*
X120200000Y-62087500D03*
D10*
X140000000Y-60487500D03*
X140000000Y-67487500D03*
D11*
X142300000Y-70187500D03*
X137700000Y-65087500D03*
X137700000Y-69087500D03*
X137700000Y-62087500D03*
D10*
X107000000Y-60487500D03*
X107000000Y-67487500D03*
D11*
X109300000Y-70187500D03*
X104700000Y-65087500D03*
X104700000Y-69087500D03*
X104700000Y-62087500D03*
D10*
X155500000Y-60487500D03*
X155500000Y-67487500D03*
D11*
X157800000Y-70187500D03*
X153200000Y-65087500D03*
X153200000Y-69087500D03*
X153200000Y-62087500D03*
D12*
X164100000Y-62700000D03*
D13*
X107820000Y-124200000D03*
D14*
X112900000Y-124200000D03*
D13*
X117980000Y-124200000D03*
D15*
X115440000Y-119120000D03*
X109090000Y-121660000D03*
D16*
X97628900Y-109877200D03*
X97628900Y-78876500D03*
D17*
X103128000Y-78876500D03*
D18*
X105668000Y-78876500D03*
X108208000Y-78876500D03*
X110748000Y-78876500D03*
X113288000Y-78876500D03*
X115828000Y-78876500D03*
X118368000Y-78876500D03*
X120908000Y-78876500D03*
X123448000Y-78876500D03*
X125988000Y-78876500D03*
X128528000Y-78876500D03*
X131068000Y-78876500D03*
X133608000Y-78876500D03*
X136148000Y-78876500D03*
X138688000Y-78876500D03*
X141228000Y-78876500D03*
D19*
X204368400Y-96876500D03*
D20*
X204368400Y-91876500D03*
X204368400Y-94376500D03*
D21*
X196868400Y-99976500D03*
D22*
X196868400Y-88776500D03*
D20*
X189868400Y-91876500D03*
X189868400Y-96876500D03*
D13*
X130670000Y-124200000D03*
X140830000Y-124200000D03*
D14*
X135750000Y-124200000D03*
D15*
X138290000Y-119120000D03*
X131940000Y-121660000D03*
D12*
X97900000Y-137000000D03*
D13*
X153520000Y-124200000D03*
D14*
X158600000Y-124200000D03*
D13*
X163680000Y-124200000D03*
D15*
X161140000Y-119120000D03*
X154790000Y-121660000D03*
D12*
X172618400Y-136892400D03*
X221618400Y-78892400D03*
X172618400Y-78892400D03*
X221618400Y-136892400D03*
D23*
X173918400Y-132042400D03*
D24*
X171378400Y-132042400D03*
X173918400Y-129502400D03*
X171378400Y-129502400D03*
X173918400Y-126962400D03*
X171378400Y-126962400D03*
X173918400Y-124422400D03*
X171378400Y-124422400D03*
X173918400Y-121882400D03*
X171378400Y-121882400D03*
X173918400Y-119342400D03*
X171378400Y-119342400D03*
X173918400Y-116802400D03*
X171378400Y-116802400D03*
X173918400Y-114262400D03*
X171378400Y-114262400D03*
X173918400Y-111722400D03*
X171378400Y-111722400D03*
X173918400Y-109182400D03*
X171378400Y-109182400D03*
X173918400Y-106642400D03*
X171378400Y-106642400D03*
X173918400Y-104102400D03*
X171378400Y-104102400D03*
X173918400Y-101562400D03*
X171378400Y-101562400D03*
X173918400Y-99022400D03*
X171378400Y-99022400D03*
X173918400Y-96482400D03*
X171378400Y-96482400D03*
X173918400Y-93942400D03*
X171378400Y-93942400D03*
X173918400Y-91402400D03*
X171378400Y-91402400D03*
X173918400Y-88862400D03*
X171378400Y-88862400D03*
X173918400Y-86322400D03*
X171378400Y-86322400D03*
X173918400Y-83782400D03*
X171378400Y-83782400D03*
D12*
X97900000Y-62700000D03*
D19*
X103900000Y-86760000D03*
D20*
X101400000Y-91760000D03*
X98900000Y-86760000D03*
D25*
X160325000Y-104300000D03*
D24*
X162865000Y-104300000D03*
M02*
