%TF.GenerationSoftware,KiCad,Pcbnew,8.0.1*%
%TF.CreationDate,2025-03-29T00:02:54-06:00*%
%TF.ProjectId,minidexed,6d696e69-6465-4786-9564-2e6b69636164,rev?*%
%TF.SameCoordinates,Original*%
%TF.FileFunction,Drillmap*%
%TF.FilePolarity,Positive*%
%FSLAX45Y45*%
G04 Gerber Fmt 4.5, Leading zero omitted, Abs format (unit mm)*
G04 Created by KiCad (PCBNEW 8.0.1) date 2025-03-29 00:02:54*
%MOMM*%
%LPD*%
G01*
G04 APERTURE LIST*
%ADD10C,0.100000*%
%ADD11C,0.200000*%
%ADD12C,0.170000*%
%ADD13C,0.270000*%
%ADD14C,0.400000*%
G04 APERTURE END LIST*
D10*
X22525000Y-7600000D02*
X22525000Y-14050000D01*
X9450000Y-14050000D02*
X9450000Y-5900000D01*
X16750000Y-7600000D02*
X22525000Y-7600000D01*
X22525000Y-14050000D02*
X9450000Y-14050000D01*
X9450000Y-5900000D02*
X16750000Y-5900000D01*
X16750000Y-5900000D02*
X16750000Y-7600000D01*
D11*
D10*
X10660000Y-6008750D02*
X10740000Y-6088750D01*
X10740000Y-6008750D02*
X10660000Y-6088750D01*
X10660000Y-6708750D02*
X10740000Y-6788750D01*
X10740000Y-6708750D02*
X10660000Y-6788750D01*
X12210000Y-6008750D02*
X12290000Y-6088750D01*
X12290000Y-6008750D02*
X12210000Y-6088750D01*
X12210000Y-6708750D02*
X12290000Y-6788750D01*
X12290000Y-6708750D02*
X12210000Y-6788750D01*
X13960000Y-6008750D02*
X14040000Y-6088750D01*
X14040000Y-6008750D02*
X13960000Y-6088750D01*
X13960000Y-6708750D02*
X14040000Y-6788750D01*
X14040000Y-6708750D02*
X13960000Y-6788750D01*
X15510000Y-6008750D02*
X15590000Y-6088750D01*
X15590000Y-6008750D02*
X15510000Y-6088750D01*
X15510000Y-6708750D02*
X15590000Y-6788750D01*
X15590000Y-6708750D02*
X15510000Y-6788750D01*
D12*
X10867000Y-12420000D02*
G75*
G02*
X10697000Y-12420000I-85000J0D01*
G01*
X10697000Y-12420000D02*
G75*
G02*
X10867000Y-12420000I85000J0D01*
G01*
X11883000Y-12420000D02*
G75*
G02*
X11713000Y-12420000I-85000J0D01*
G01*
X11713000Y-12420000D02*
G75*
G02*
X11883000Y-12420000I85000J0D01*
G01*
X13152000Y-12420000D02*
G75*
G02*
X12982000Y-12420000I-85000J0D01*
G01*
X12982000Y-12420000D02*
G75*
G02*
X13152000Y-12420000I85000J0D01*
G01*
X14168000Y-12420000D02*
G75*
G02*
X13998000Y-12420000I-85000J0D01*
G01*
X13998000Y-12420000D02*
G75*
G02*
X14168000Y-12420000I85000J0D01*
G01*
X15437000Y-12420000D02*
G75*
G02*
X15267000Y-12420000I-85000J0D01*
G01*
X15267000Y-12420000D02*
G75*
G02*
X15437000Y-12420000I85000J0D01*
G01*
X16453000Y-12420000D02*
G75*
G02*
X16283000Y-12420000I-85000J0D01*
G01*
X16283000Y-12420000D02*
G75*
G02*
X16453000Y-12420000I85000J0D01*
G01*
D13*
X9790000Y-6135000D02*
X9790000Y-6405000D01*
X9655000Y-6270000D02*
X9925000Y-6270000D01*
X9790000Y-13565000D02*
X9790000Y-13835000D01*
X9655000Y-13700000D02*
X9925000Y-13700000D01*
X16410000Y-6135000D02*
X16410000Y-6405000D01*
X16275000Y-6270000D02*
X16545000Y-6270000D01*
X17261840Y-7754240D02*
X17261840Y-8024240D01*
X17126840Y-7889240D02*
X17396840Y-7889240D01*
X17261840Y-13554240D02*
X17261840Y-13824240D01*
X17126840Y-13689240D02*
X17396840Y-13689240D01*
X22161840Y-7754240D02*
X22161840Y-8024240D01*
X22026840Y-7889240D02*
X22296840Y-7889240D01*
X22161840Y-13554240D02*
X22161840Y-13824240D01*
X22026840Y-13689240D02*
X22296840Y-13689240D01*
D14*
X11431423Y-12561423D02*
X11431423Y-12278577D01*
X11148577Y-12278577D01*
X11148577Y-12561423D01*
X11431423Y-12561423D01*
X13716423Y-12561423D02*
X13716423Y-12278577D01*
X13433577Y-12278577D01*
X13433577Y-12561423D01*
X13716423Y-12561423D01*
X16001423Y-12561423D02*
X16001423Y-12278577D01*
X15718577Y-12278577D01*
X15718577Y-12561423D01*
X16001423Y-12561423D01*
D11*
X9705777Y-14366484D02*
X9705777Y-14166484D01*
X9705777Y-14166484D02*
X9753396Y-14166484D01*
X9753396Y-14166484D02*
X9781967Y-14176008D01*
X9781967Y-14176008D02*
X9801015Y-14195055D01*
X9801015Y-14195055D02*
X9810539Y-14214103D01*
X9810539Y-14214103D02*
X9820063Y-14252198D01*
X9820063Y-14252198D02*
X9820063Y-14280769D01*
X9820063Y-14280769D02*
X9810539Y-14318865D01*
X9810539Y-14318865D02*
X9801015Y-14337912D01*
X9801015Y-14337912D02*
X9781967Y-14356960D01*
X9781967Y-14356960D02*
X9753396Y-14366484D01*
X9753396Y-14366484D02*
X9705777Y-14366484D01*
X9905777Y-14366484D02*
X9905777Y-14233150D01*
X9905777Y-14271246D02*
X9915301Y-14252198D01*
X9915301Y-14252198D02*
X9924824Y-14242674D01*
X9924824Y-14242674D02*
X9943872Y-14233150D01*
X9943872Y-14233150D02*
X9962920Y-14233150D01*
X10029586Y-14366484D02*
X10029586Y-14233150D01*
X10029586Y-14166484D02*
X10020063Y-14176008D01*
X10020063Y-14176008D02*
X10029586Y-14185531D01*
X10029586Y-14185531D02*
X10039110Y-14176008D01*
X10039110Y-14176008D02*
X10029586Y-14166484D01*
X10029586Y-14166484D02*
X10029586Y-14185531D01*
X10153396Y-14366484D02*
X10134348Y-14356960D01*
X10134348Y-14356960D02*
X10124824Y-14337912D01*
X10124824Y-14337912D02*
X10124824Y-14166484D01*
X10258158Y-14366484D02*
X10239110Y-14356960D01*
X10239110Y-14356960D02*
X10229586Y-14337912D01*
X10229586Y-14337912D02*
X10229586Y-14166484D01*
X10486729Y-14366484D02*
X10486729Y-14166484D01*
X10486729Y-14166484D02*
X10553396Y-14309341D01*
X10553396Y-14309341D02*
X10620063Y-14166484D01*
X10620063Y-14166484D02*
X10620063Y-14366484D01*
X10801015Y-14366484D02*
X10801015Y-14261722D01*
X10801015Y-14261722D02*
X10791491Y-14242674D01*
X10791491Y-14242674D02*
X10772444Y-14233150D01*
X10772444Y-14233150D02*
X10734348Y-14233150D01*
X10734348Y-14233150D02*
X10715301Y-14242674D01*
X10801015Y-14356960D02*
X10781967Y-14366484D01*
X10781967Y-14366484D02*
X10734348Y-14366484D01*
X10734348Y-14366484D02*
X10715301Y-14356960D01*
X10715301Y-14356960D02*
X10705777Y-14337912D01*
X10705777Y-14337912D02*
X10705777Y-14318865D01*
X10705777Y-14318865D02*
X10715301Y-14299817D01*
X10715301Y-14299817D02*
X10734348Y-14290293D01*
X10734348Y-14290293D02*
X10781967Y-14290293D01*
X10781967Y-14290293D02*
X10801015Y-14280769D01*
X10896253Y-14233150D02*
X10896253Y-14433150D01*
X10896253Y-14242674D02*
X10915301Y-14233150D01*
X10915301Y-14233150D02*
X10953396Y-14233150D01*
X10953396Y-14233150D02*
X10972444Y-14242674D01*
X10972444Y-14242674D02*
X10981967Y-14252198D01*
X10981967Y-14252198D02*
X10991491Y-14271246D01*
X10991491Y-14271246D02*
X10991491Y-14328388D01*
X10991491Y-14328388D02*
X10981967Y-14347436D01*
X10981967Y-14347436D02*
X10972444Y-14356960D01*
X10972444Y-14356960D02*
X10953396Y-14366484D01*
X10953396Y-14366484D02*
X10915301Y-14366484D01*
X10915301Y-14366484D02*
X10896253Y-14356960D01*
X11077205Y-14347436D02*
X11086729Y-14356960D01*
X11086729Y-14356960D02*
X11077205Y-14366484D01*
X11077205Y-14366484D02*
X11067682Y-14356960D01*
X11067682Y-14356960D02*
X11077205Y-14347436D01*
X11077205Y-14347436D02*
X11077205Y-14366484D01*
X11077205Y-14242674D02*
X11086729Y-14252198D01*
X11086729Y-14252198D02*
X11077205Y-14261722D01*
X11077205Y-14261722D02*
X11067682Y-14252198D01*
X11067682Y-14252198D02*
X11077205Y-14242674D01*
X11077205Y-14242674D02*
X11077205Y-14261722D01*
D10*
X9365000Y-14655000D02*
X9445000Y-14735000D01*
X9445000Y-14655000D02*
X9365000Y-14735000D01*
D11*
X9743872Y-14586484D02*
X9762920Y-14586484D01*
X9762920Y-14586484D02*
X9781967Y-14596008D01*
X9781967Y-14596008D02*
X9791491Y-14605531D01*
X9791491Y-14605531D02*
X9801015Y-14624579D01*
X9801015Y-14624579D02*
X9810539Y-14662674D01*
X9810539Y-14662674D02*
X9810539Y-14710293D01*
X9810539Y-14710293D02*
X9801015Y-14748388D01*
X9801015Y-14748388D02*
X9791491Y-14767436D01*
X9791491Y-14767436D02*
X9781967Y-14776960D01*
X9781967Y-14776960D02*
X9762920Y-14786484D01*
X9762920Y-14786484D02*
X9743872Y-14786484D01*
X9743872Y-14786484D02*
X9724824Y-14776960D01*
X9724824Y-14776960D02*
X9715301Y-14767436D01*
X9715301Y-14767436D02*
X9705777Y-14748388D01*
X9705777Y-14748388D02*
X9696253Y-14710293D01*
X9696253Y-14710293D02*
X9696253Y-14662674D01*
X9696253Y-14662674D02*
X9705777Y-14624579D01*
X9705777Y-14624579D02*
X9715301Y-14605531D01*
X9715301Y-14605531D02*
X9724824Y-14596008D01*
X9724824Y-14596008D02*
X9743872Y-14586484D01*
X9896253Y-14767436D02*
X9905777Y-14776960D01*
X9905777Y-14776960D02*
X9896253Y-14786484D01*
X9896253Y-14786484D02*
X9886729Y-14776960D01*
X9886729Y-14776960D02*
X9896253Y-14767436D01*
X9896253Y-14767436D02*
X9896253Y-14786484D01*
X10020063Y-14672198D02*
X10001015Y-14662674D01*
X10001015Y-14662674D02*
X9991491Y-14653150D01*
X9991491Y-14653150D02*
X9981967Y-14634103D01*
X9981967Y-14634103D02*
X9981967Y-14624579D01*
X9981967Y-14624579D02*
X9991491Y-14605531D01*
X9991491Y-14605531D02*
X10001015Y-14596008D01*
X10001015Y-14596008D02*
X10020063Y-14586484D01*
X10020063Y-14586484D02*
X10058158Y-14586484D01*
X10058158Y-14586484D02*
X10077205Y-14596008D01*
X10077205Y-14596008D02*
X10086729Y-14605531D01*
X10086729Y-14605531D02*
X10096253Y-14624579D01*
X10096253Y-14624579D02*
X10096253Y-14634103D01*
X10096253Y-14634103D02*
X10086729Y-14653150D01*
X10086729Y-14653150D02*
X10077205Y-14662674D01*
X10077205Y-14662674D02*
X10058158Y-14672198D01*
X10058158Y-14672198D02*
X10020063Y-14672198D01*
X10020063Y-14672198D02*
X10001015Y-14681722D01*
X10001015Y-14681722D02*
X9991491Y-14691246D01*
X9991491Y-14691246D02*
X9981967Y-14710293D01*
X9981967Y-14710293D02*
X9981967Y-14748388D01*
X9981967Y-14748388D02*
X9991491Y-14767436D01*
X9991491Y-14767436D02*
X10001015Y-14776960D01*
X10001015Y-14776960D02*
X10020063Y-14786484D01*
X10020063Y-14786484D02*
X10058158Y-14786484D01*
X10058158Y-14786484D02*
X10077205Y-14776960D01*
X10077205Y-14776960D02*
X10086729Y-14767436D01*
X10086729Y-14767436D02*
X10096253Y-14748388D01*
X10096253Y-14748388D02*
X10096253Y-14710293D01*
X10096253Y-14710293D02*
X10086729Y-14691246D01*
X10086729Y-14691246D02*
X10077205Y-14681722D01*
X10077205Y-14681722D02*
X10058158Y-14672198D01*
X10220063Y-14586484D02*
X10239110Y-14586484D01*
X10239110Y-14586484D02*
X10258158Y-14596008D01*
X10258158Y-14596008D02*
X10267682Y-14605531D01*
X10267682Y-14605531D02*
X10277205Y-14624579D01*
X10277205Y-14624579D02*
X10286729Y-14662674D01*
X10286729Y-14662674D02*
X10286729Y-14710293D01*
X10286729Y-14710293D02*
X10277205Y-14748388D01*
X10277205Y-14748388D02*
X10267682Y-14767436D01*
X10267682Y-14767436D02*
X10258158Y-14776960D01*
X10258158Y-14776960D02*
X10239110Y-14786484D01*
X10239110Y-14786484D02*
X10220063Y-14786484D01*
X10220063Y-14786484D02*
X10201015Y-14776960D01*
X10201015Y-14776960D02*
X10191491Y-14767436D01*
X10191491Y-14767436D02*
X10181967Y-14748388D01*
X10181967Y-14748388D02*
X10172444Y-14710293D01*
X10172444Y-14710293D02*
X10172444Y-14662674D01*
X10172444Y-14662674D02*
X10181967Y-14624579D01*
X10181967Y-14624579D02*
X10191491Y-14605531D01*
X10191491Y-14605531D02*
X10201015Y-14596008D01*
X10201015Y-14596008D02*
X10220063Y-14586484D01*
X10410539Y-14586484D02*
X10429586Y-14586484D01*
X10429586Y-14586484D02*
X10448634Y-14596008D01*
X10448634Y-14596008D02*
X10458158Y-14605531D01*
X10458158Y-14605531D02*
X10467682Y-14624579D01*
X10467682Y-14624579D02*
X10477205Y-14662674D01*
X10477205Y-14662674D02*
X10477205Y-14710293D01*
X10477205Y-14710293D02*
X10467682Y-14748388D01*
X10467682Y-14748388D02*
X10458158Y-14767436D01*
X10458158Y-14767436D02*
X10448634Y-14776960D01*
X10448634Y-14776960D02*
X10429586Y-14786484D01*
X10429586Y-14786484D02*
X10410539Y-14786484D01*
X10410539Y-14786484D02*
X10391491Y-14776960D01*
X10391491Y-14776960D02*
X10381967Y-14767436D01*
X10381967Y-14767436D02*
X10372444Y-14748388D01*
X10372444Y-14748388D02*
X10362920Y-14710293D01*
X10362920Y-14710293D02*
X10362920Y-14662674D01*
X10362920Y-14662674D02*
X10372444Y-14624579D01*
X10372444Y-14624579D02*
X10381967Y-14605531D01*
X10381967Y-14605531D02*
X10391491Y-14596008D01*
X10391491Y-14596008D02*
X10410539Y-14586484D01*
X10562920Y-14786484D02*
X10562920Y-14653150D01*
X10562920Y-14672198D02*
X10572444Y-14662674D01*
X10572444Y-14662674D02*
X10591491Y-14653150D01*
X10591491Y-14653150D02*
X10620063Y-14653150D01*
X10620063Y-14653150D02*
X10639110Y-14662674D01*
X10639110Y-14662674D02*
X10648634Y-14681722D01*
X10648634Y-14681722D02*
X10648634Y-14786484D01*
X10648634Y-14681722D02*
X10658158Y-14662674D01*
X10658158Y-14662674D02*
X10677205Y-14653150D01*
X10677205Y-14653150D02*
X10705777Y-14653150D01*
X10705777Y-14653150D02*
X10724825Y-14662674D01*
X10724825Y-14662674D02*
X10734348Y-14681722D01*
X10734348Y-14681722D02*
X10734348Y-14786484D01*
X10829586Y-14786484D02*
X10829586Y-14653150D01*
X10829586Y-14672198D02*
X10839110Y-14662674D01*
X10839110Y-14662674D02*
X10858158Y-14653150D01*
X10858158Y-14653150D02*
X10886729Y-14653150D01*
X10886729Y-14653150D02*
X10905777Y-14662674D01*
X10905777Y-14662674D02*
X10915301Y-14681722D01*
X10915301Y-14681722D02*
X10915301Y-14786484D01*
X10915301Y-14681722D02*
X10924825Y-14662674D01*
X10924825Y-14662674D02*
X10943872Y-14653150D01*
X10943872Y-14653150D02*
X10972444Y-14653150D01*
X10972444Y-14653150D02*
X10991491Y-14662674D01*
X10991491Y-14662674D02*
X11001015Y-14681722D01*
X11001015Y-14681722D02*
X11001015Y-14786484D01*
X11391491Y-14576960D02*
X11220063Y-14834103D01*
X11648634Y-14586484D02*
X11667682Y-14586484D01*
X11667682Y-14586484D02*
X11686729Y-14596008D01*
X11686729Y-14596008D02*
X11696253Y-14605531D01*
X11696253Y-14605531D02*
X11705777Y-14624579D01*
X11705777Y-14624579D02*
X11715301Y-14662674D01*
X11715301Y-14662674D02*
X11715301Y-14710293D01*
X11715301Y-14710293D02*
X11705777Y-14748388D01*
X11705777Y-14748388D02*
X11696253Y-14767436D01*
X11696253Y-14767436D02*
X11686729Y-14776960D01*
X11686729Y-14776960D02*
X11667682Y-14786484D01*
X11667682Y-14786484D02*
X11648634Y-14786484D01*
X11648634Y-14786484D02*
X11629586Y-14776960D01*
X11629586Y-14776960D02*
X11620063Y-14767436D01*
X11620063Y-14767436D02*
X11610539Y-14748388D01*
X11610539Y-14748388D02*
X11601015Y-14710293D01*
X11601015Y-14710293D02*
X11601015Y-14662674D01*
X11601015Y-14662674D02*
X11610539Y-14624579D01*
X11610539Y-14624579D02*
X11620063Y-14605531D01*
X11620063Y-14605531D02*
X11629586Y-14596008D01*
X11629586Y-14596008D02*
X11648634Y-14586484D01*
X11801015Y-14767436D02*
X11810539Y-14776960D01*
X11810539Y-14776960D02*
X11801015Y-14786484D01*
X11801015Y-14786484D02*
X11791491Y-14776960D01*
X11791491Y-14776960D02*
X11801015Y-14767436D01*
X11801015Y-14767436D02*
X11801015Y-14786484D01*
X11934348Y-14586484D02*
X11953396Y-14586484D01*
X11953396Y-14586484D02*
X11972444Y-14596008D01*
X11972444Y-14596008D02*
X11981967Y-14605531D01*
X11981967Y-14605531D02*
X11991491Y-14624579D01*
X11991491Y-14624579D02*
X12001015Y-14662674D01*
X12001015Y-14662674D02*
X12001015Y-14710293D01*
X12001015Y-14710293D02*
X11991491Y-14748388D01*
X11991491Y-14748388D02*
X11981967Y-14767436D01*
X11981967Y-14767436D02*
X11972444Y-14776960D01*
X11972444Y-14776960D02*
X11953396Y-14786484D01*
X11953396Y-14786484D02*
X11934348Y-14786484D01*
X11934348Y-14786484D02*
X11915301Y-14776960D01*
X11915301Y-14776960D02*
X11905777Y-14767436D01*
X11905777Y-14767436D02*
X11896253Y-14748388D01*
X11896253Y-14748388D02*
X11886729Y-14710293D01*
X11886729Y-14710293D02*
X11886729Y-14662674D01*
X11886729Y-14662674D02*
X11896253Y-14624579D01*
X11896253Y-14624579D02*
X11905777Y-14605531D01*
X11905777Y-14605531D02*
X11915301Y-14596008D01*
X11915301Y-14596008D02*
X11934348Y-14586484D01*
X12067682Y-14586484D02*
X12191491Y-14586484D01*
X12191491Y-14586484D02*
X12124825Y-14662674D01*
X12124825Y-14662674D02*
X12153396Y-14662674D01*
X12153396Y-14662674D02*
X12172444Y-14672198D01*
X12172444Y-14672198D02*
X12181967Y-14681722D01*
X12181967Y-14681722D02*
X12191491Y-14700769D01*
X12191491Y-14700769D02*
X12191491Y-14748388D01*
X12191491Y-14748388D02*
X12181967Y-14767436D01*
X12181967Y-14767436D02*
X12172444Y-14776960D01*
X12172444Y-14776960D02*
X12153396Y-14786484D01*
X12153396Y-14786484D02*
X12096253Y-14786484D01*
X12096253Y-14786484D02*
X12077206Y-14776960D01*
X12077206Y-14776960D02*
X12067682Y-14767436D01*
X12381967Y-14786484D02*
X12267682Y-14786484D01*
X12324825Y-14786484D02*
X12324825Y-14586484D01*
X12324825Y-14586484D02*
X12305777Y-14615055D01*
X12305777Y-14615055D02*
X12286729Y-14634103D01*
X12286729Y-14634103D02*
X12267682Y-14643627D01*
X12562920Y-14586484D02*
X12467682Y-14586484D01*
X12467682Y-14586484D02*
X12458158Y-14681722D01*
X12458158Y-14681722D02*
X12467682Y-14672198D01*
X12467682Y-14672198D02*
X12486729Y-14662674D01*
X12486729Y-14662674D02*
X12534348Y-14662674D01*
X12534348Y-14662674D02*
X12553396Y-14672198D01*
X12553396Y-14672198D02*
X12562920Y-14681722D01*
X12562920Y-14681722D02*
X12572444Y-14700769D01*
X12572444Y-14700769D02*
X12572444Y-14748388D01*
X12572444Y-14748388D02*
X12562920Y-14767436D01*
X12562920Y-14767436D02*
X12553396Y-14776960D01*
X12553396Y-14776960D02*
X12534348Y-14786484D01*
X12534348Y-14786484D02*
X12486729Y-14786484D01*
X12486729Y-14786484D02*
X12467682Y-14776960D01*
X12467682Y-14776960D02*
X12458158Y-14767436D01*
X12648634Y-14586484D02*
X12648634Y-14624579D01*
X12724825Y-14586484D02*
X12724825Y-14624579D01*
X13020063Y-14862674D02*
X13010539Y-14853150D01*
X13010539Y-14853150D02*
X12991491Y-14824579D01*
X12991491Y-14824579D02*
X12981968Y-14805531D01*
X12981968Y-14805531D02*
X12972444Y-14776960D01*
X12972444Y-14776960D02*
X12962920Y-14729341D01*
X12962920Y-14729341D02*
X12962920Y-14691246D01*
X12962920Y-14691246D02*
X12972444Y-14643627D01*
X12972444Y-14643627D02*
X12981968Y-14615055D01*
X12981968Y-14615055D02*
X12991491Y-14596008D01*
X12991491Y-14596008D02*
X13010539Y-14567436D01*
X13010539Y-14567436D02*
X13020063Y-14557912D01*
X13124825Y-14672198D02*
X13105777Y-14662674D01*
X13105777Y-14662674D02*
X13096253Y-14653150D01*
X13096253Y-14653150D02*
X13086729Y-14634103D01*
X13086729Y-14634103D02*
X13086729Y-14624579D01*
X13086729Y-14624579D02*
X13096253Y-14605531D01*
X13096253Y-14605531D02*
X13105777Y-14596008D01*
X13105777Y-14596008D02*
X13124825Y-14586484D01*
X13124825Y-14586484D02*
X13162920Y-14586484D01*
X13162920Y-14586484D02*
X13181968Y-14596008D01*
X13181968Y-14596008D02*
X13191491Y-14605531D01*
X13191491Y-14605531D02*
X13201015Y-14624579D01*
X13201015Y-14624579D02*
X13201015Y-14634103D01*
X13201015Y-14634103D02*
X13191491Y-14653150D01*
X13191491Y-14653150D02*
X13181968Y-14662674D01*
X13181968Y-14662674D02*
X13162920Y-14672198D01*
X13162920Y-14672198D02*
X13124825Y-14672198D01*
X13124825Y-14672198D02*
X13105777Y-14681722D01*
X13105777Y-14681722D02*
X13096253Y-14691246D01*
X13096253Y-14691246D02*
X13086729Y-14710293D01*
X13086729Y-14710293D02*
X13086729Y-14748388D01*
X13086729Y-14748388D02*
X13096253Y-14767436D01*
X13096253Y-14767436D02*
X13105777Y-14776960D01*
X13105777Y-14776960D02*
X13124825Y-14786484D01*
X13124825Y-14786484D02*
X13162920Y-14786484D01*
X13162920Y-14786484D02*
X13181968Y-14776960D01*
X13181968Y-14776960D02*
X13191491Y-14767436D01*
X13191491Y-14767436D02*
X13201015Y-14748388D01*
X13201015Y-14748388D02*
X13201015Y-14710293D01*
X13201015Y-14710293D02*
X13191491Y-14691246D01*
X13191491Y-14691246D02*
X13181968Y-14681722D01*
X13181968Y-14681722D02*
X13162920Y-14672198D01*
X13439110Y-14786484D02*
X13439110Y-14586484D01*
X13524825Y-14786484D02*
X13524825Y-14681722D01*
X13524825Y-14681722D02*
X13515301Y-14662674D01*
X13515301Y-14662674D02*
X13496253Y-14653150D01*
X13496253Y-14653150D02*
X13467682Y-14653150D01*
X13467682Y-14653150D02*
X13448634Y-14662674D01*
X13448634Y-14662674D02*
X13439110Y-14672198D01*
X13648634Y-14786484D02*
X13629587Y-14776960D01*
X13629587Y-14776960D02*
X13620063Y-14767436D01*
X13620063Y-14767436D02*
X13610539Y-14748388D01*
X13610539Y-14748388D02*
X13610539Y-14691246D01*
X13610539Y-14691246D02*
X13620063Y-14672198D01*
X13620063Y-14672198D02*
X13629587Y-14662674D01*
X13629587Y-14662674D02*
X13648634Y-14653150D01*
X13648634Y-14653150D02*
X13677206Y-14653150D01*
X13677206Y-14653150D02*
X13696253Y-14662674D01*
X13696253Y-14662674D02*
X13705777Y-14672198D01*
X13705777Y-14672198D02*
X13715301Y-14691246D01*
X13715301Y-14691246D02*
X13715301Y-14748388D01*
X13715301Y-14748388D02*
X13705777Y-14767436D01*
X13705777Y-14767436D02*
X13696253Y-14776960D01*
X13696253Y-14776960D02*
X13677206Y-14786484D01*
X13677206Y-14786484D02*
X13648634Y-14786484D01*
X13829587Y-14786484D02*
X13810539Y-14776960D01*
X13810539Y-14776960D02*
X13801015Y-14757912D01*
X13801015Y-14757912D02*
X13801015Y-14586484D01*
X13981968Y-14776960D02*
X13962920Y-14786484D01*
X13962920Y-14786484D02*
X13924825Y-14786484D01*
X13924825Y-14786484D02*
X13905777Y-14776960D01*
X13905777Y-14776960D02*
X13896253Y-14757912D01*
X13896253Y-14757912D02*
X13896253Y-14681722D01*
X13896253Y-14681722D02*
X13905777Y-14662674D01*
X13905777Y-14662674D02*
X13924825Y-14653150D01*
X13924825Y-14653150D02*
X13962920Y-14653150D01*
X13962920Y-14653150D02*
X13981968Y-14662674D01*
X13981968Y-14662674D02*
X13991491Y-14681722D01*
X13991491Y-14681722D02*
X13991491Y-14700769D01*
X13991491Y-14700769D02*
X13896253Y-14719817D01*
X14067682Y-14776960D02*
X14086730Y-14786484D01*
X14086730Y-14786484D02*
X14124825Y-14786484D01*
X14124825Y-14786484D02*
X14143872Y-14776960D01*
X14143872Y-14776960D02*
X14153396Y-14757912D01*
X14153396Y-14757912D02*
X14153396Y-14748388D01*
X14153396Y-14748388D02*
X14143872Y-14729341D01*
X14143872Y-14729341D02*
X14124825Y-14719817D01*
X14124825Y-14719817D02*
X14096253Y-14719817D01*
X14096253Y-14719817D02*
X14077206Y-14710293D01*
X14077206Y-14710293D02*
X14067682Y-14691246D01*
X14067682Y-14691246D02*
X14067682Y-14681722D01*
X14067682Y-14681722D02*
X14077206Y-14662674D01*
X14077206Y-14662674D02*
X14096253Y-14653150D01*
X14096253Y-14653150D02*
X14124825Y-14653150D01*
X14124825Y-14653150D02*
X14143872Y-14662674D01*
X14220063Y-14862674D02*
X14229587Y-14853150D01*
X14229587Y-14853150D02*
X14248634Y-14824579D01*
X14248634Y-14824579D02*
X14258158Y-14805531D01*
X14258158Y-14805531D02*
X14267682Y-14776960D01*
X14267682Y-14776960D02*
X14277206Y-14729341D01*
X14277206Y-14729341D02*
X14277206Y-14691246D01*
X14277206Y-14691246D02*
X14267682Y-14643627D01*
X14267682Y-14643627D02*
X14258158Y-14615055D01*
X14258158Y-14615055D02*
X14248634Y-14596008D01*
X14248634Y-14596008D02*
X14229587Y-14567436D01*
X14229587Y-14567436D02*
X14220063Y-14557912D01*
X14581968Y-14862674D02*
X14572444Y-14853150D01*
X14572444Y-14853150D02*
X14553396Y-14824579D01*
X14553396Y-14824579D02*
X14543872Y-14805531D01*
X14543872Y-14805531D02*
X14534349Y-14776960D01*
X14534349Y-14776960D02*
X14524825Y-14729341D01*
X14524825Y-14729341D02*
X14524825Y-14691246D01*
X14524825Y-14691246D02*
X14534349Y-14643627D01*
X14534349Y-14643627D02*
X14543872Y-14615055D01*
X14543872Y-14615055D02*
X14553396Y-14596008D01*
X14553396Y-14596008D02*
X14572444Y-14567436D01*
X14572444Y-14567436D02*
X14581968Y-14557912D01*
X14658158Y-14653150D02*
X14658158Y-14786484D01*
X14658158Y-14672198D02*
X14667682Y-14662674D01*
X14667682Y-14662674D02*
X14686730Y-14653150D01*
X14686730Y-14653150D02*
X14715301Y-14653150D01*
X14715301Y-14653150D02*
X14734349Y-14662674D01*
X14734349Y-14662674D02*
X14743872Y-14681722D01*
X14743872Y-14681722D02*
X14743872Y-14786484D01*
X14867682Y-14786484D02*
X14848634Y-14776960D01*
X14848634Y-14776960D02*
X14839111Y-14767436D01*
X14839111Y-14767436D02*
X14829587Y-14748388D01*
X14829587Y-14748388D02*
X14829587Y-14691246D01*
X14829587Y-14691246D02*
X14839111Y-14672198D01*
X14839111Y-14672198D02*
X14848634Y-14662674D01*
X14848634Y-14662674D02*
X14867682Y-14653150D01*
X14867682Y-14653150D02*
X14896253Y-14653150D01*
X14896253Y-14653150D02*
X14915301Y-14662674D01*
X14915301Y-14662674D02*
X14924825Y-14672198D01*
X14924825Y-14672198D02*
X14934349Y-14691246D01*
X14934349Y-14691246D02*
X14934349Y-14748388D01*
X14934349Y-14748388D02*
X14924825Y-14767436D01*
X14924825Y-14767436D02*
X14915301Y-14776960D01*
X14915301Y-14776960D02*
X14896253Y-14786484D01*
X14896253Y-14786484D02*
X14867682Y-14786484D01*
X14991492Y-14653150D02*
X15067682Y-14653150D01*
X15020063Y-14586484D02*
X15020063Y-14757912D01*
X15020063Y-14757912D02*
X15029587Y-14776960D01*
X15029587Y-14776960D02*
X15048634Y-14786484D01*
X15048634Y-14786484D02*
X15067682Y-14786484D01*
X15286730Y-14653150D02*
X15286730Y-14853150D01*
X15286730Y-14662674D02*
X15305777Y-14653150D01*
X15305777Y-14653150D02*
X15343873Y-14653150D01*
X15343873Y-14653150D02*
X15362920Y-14662674D01*
X15362920Y-14662674D02*
X15372444Y-14672198D01*
X15372444Y-14672198D02*
X15381968Y-14691246D01*
X15381968Y-14691246D02*
X15381968Y-14748388D01*
X15381968Y-14748388D02*
X15372444Y-14767436D01*
X15372444Y-14767436D02*
X15362920Y-14776960D01*
X15362920Y-14776960D02*
X15343873Y-14786484D01*
X15343873Y-14786484D02*
X15305777Y-14786484D01*
X15305777Y-14786484D02*
X15286730Y-14776960D01*
X15496253Y-14786484D02*
X15477206Y-14776960D01*
X15477206Y-14776960D02*
X15467682Y-14757912D01*
X15467682Y-14757912D02*
X15467682Y-14586484D01*
X15658158Y-14786484D02*
X15658158Y-14681722D01*
X15658158Y-14681722D02*
X15648634Y-14662674D01*
X15648634Y-14662674D02*
X15629587Y-14653150D01*
X15629587Y-14653150D02*
X15591492Y-14653150D01*
X15591492Y-14653150D02*
X15572444Y-14662674D01*
X15658158Y-14776960D02*
X15639111Y-14786484D01*
X15639111Y-14786484D02*
X15591492Y-14786484D01*
X15591492Y-14786484D02*
X15572444Y-14776960D01*
X15572444Y-14776960D02*
X15562920Y-14757912D01*
X15562920Y-14757912D02*
X15562920Y-14738865D01*
X15562920Y-14738865D02*
X15572444Y-14719817D01*
X15572444Y-14719817D02*
X15591492Y-14710293D01*
X15591492Y-14710293D02*
X15639111Y-14710293D01*
X15639111Y-14710293D02*
X15658158Y-14700769D01*
X15724825Y-14653150D02*
X15801015Y-14653150D01*
X15753396Y-14586484D02*
X15753396Y-14757912D01*
X15753396Y-14757912D02*
X15762920Y-14776960D01*
X15762920Y-14776960D02*
X15781968Y-14786484D01*
X15781968Y-14786484D02*
X15801015Y-14786484D01*
X15943873Y-14776960D02*
X15924825Y-14786484D01*
X15924825Y-14786484D02*
X15886730Y-14786484D01*
X15886730Y-14786484D02*
X15867682Y-14776960D01*
X15867682Y-14776960D02*
X15858158Y-14757912D01*
X15858158Y-14757912D02*
X15858158Y-14681722D01*
X15858158Y-14681722D02*
X15867682Y-14662674D01*
X15867682Y-14662674D02*
X15886730Y-14653150D01*
X15886730Y-14653150D02*
X15924825Y-14653150D01*
X15924825Y-14653150D02*
X15943873Y-14662674D01*
X15943873Y-14662674D02*
X15953396Y-14681722D01*
X15953396Y-14681722D02*
X15953396Y-14700769D01*
X15953396Y-14700769D02*
X15858158Y-14719817D01*
X16124825Y-14786484D02*
X16124825Y-14586484D01*
X16124825Y-14776960D02*
X16105777Y-14786484D01*
X16105777Y-14786484D02*
X16067682Y-14786484D01*
X16067682Y-14786484D02*
X16048634Y-14776960D01*
X16048634Y-14776960D02*
X16039111Y-14767436D01*
X16039111Y-14767436D02*
X16029587Y-14748388D01*
X16029587Y-14748388D02*
X16029587Y-14691246D01*
X16029587Y-14691246D02*
X16039111Y-14672198D01*
X16039111Y-14672198D02*
X16048634Y-14662674D01*
X16048634Y-14662674D02*
X16067682Y-14653150D01*
X16067682Y-14653150D02*
X16105777Y-14653150D01*
X16105777Y-14653150D02*
X16124825Y-14662674D01*
X16201015Y-14862674D02*
X16210539Y-14853150D01*
X16210539Y-14853150D02*
X16229587Y-14824579D01*
X16229587Y-14824579D02*
X16239111Y-14805531D01*
X16239111Y-14805531D02*
X16248634Y-14776960D01*
X16248634Y-14776960D02*
X16258158Y-14729341D01*
X16258158Y-14729341D02*
X16258158Y-14691246D01*
X16258158Y-14691246D02*
X16248634Y-14643627D01*
X16248634Y-14643627D02*
X16239111Y-14615055D01*
X16239111Y-14615055D02*
X16229587Y-14596008D01*
X16229587Y-14596008D02*
X16210539Y-14567436D01*
X16210539Y-14567436D02*
X16201015Y-14557912D01*
D12*
X9445000Y-14959000D02*
G75*
G02*
X9275000Y-14959000I-85000J0D01*
G01*
X9275000Y-14959000D02*
G75*
G02*
X9445000Y-14959000I85000J0D01*
G01*
D11*
X9810539Y-15050484D02*
X9696253Y-15050484D01*
X9753396Y-15050484D02*
X9753396Y-14850484D01*
X9753396Y-14850484D02*
X9734348Y-14879055D01*
X9734348Y-14879055D02*
X9715301Y-14898103D01*
X9715301Y-14898103D02*
X9696253Y-14907627D01*
X9896253Y-15031436D02*
X9905777Y-15040960D01*
X9905777Y-15040960D02*
X9896253Y-15050484D01*
X9896253Y-15050484D02*
X9886729Y-15040960D01*
X9886729Y-15040960D02*
X9896253Y-15031436D01*
X9896253Y-15031436D02*
X9896253Y-15050484D01*
X9972444Y-14850484D02*
X10105777Y-14850484D01*
X10105777Y-14850484D02*
X10020063Y-15050484D01*
X10220063Y-14850484D02*
X10239110Y-14850484D01*
X10239110Y-14850484D02*
X10258158Y-14860008D01*
X10258158Y-14860008D02*
X10267682Y-14869531D01*
X10267682Y-14869531D02*
X10277205Y-14888579D01*
X10277205Y-14888579D02*
X10286729Y-14926674D01*
X10286729Y-14926674D02*
X10286729Y-14974293D01*
X10286729Y-14974293D02*
X10277205Y-15012388D01*
X10277205Y-15012388D02*
X10267682Y-15031436D01*
X10267682Y-15031436D02*
X10258158Y-15040960D01*
X10258158Y-15040960D02*
X10239110Y-15050484D01*
X10239110Y-15050484D02*
X10220063Y-15050484D01*
X10220063Y-15050484D02*
X10201015Y-15040960D01*
X10201015Y-15040960D02*
X10191491Y-15031436D01*
X10191491Y-15031436D02*
X10181967Y-15012388D01*
X10181967Y-15012388D02*
X10172444Y-14974293D01*
X10172444Y-14974293D02*
X10172444Y-14926674D01*
X10172444Y-14926674D02*
X10181967Y-14888579D01*
X10181967Y-14888579D02*
X10191491Y-14869531D01*
X10191491Y-14869531D02*
X10201015Y-14860008D01*
X10201015Y-14860008D02*
X10220063Y-14850484D01*
X10410539Y-14850484D02*
X10429586Y-14850484D01*
X10429586Y-14850484D02*
X10448634Y-14860008D01*
X10448634Y-14860008D02*
X10458158Y-14869531D01*
X10458158Y-14869531D02*
X10467682Y-14888579D01*
X10467682Y-14888579D02*
X10477205Y-14926674D01*
X10477205Y-14926674D02*
X10477205Y-14974293D01*
X10477205Y-14974293D02*
X10467682Y-15012388D01*
X10467682Y-15012388D02*
X10458158Y-15031436D01*
X10458158Y-15031436D02*
X10448634Y-15040960D01*
X10448634Y-15040960D02*
X10429586Y-15050484D01*
X10429586Y-15050484D02*
X10410539Y-15050484D01*
X10410539Y-15050484D02*
X10391491Y-15040960D01*
X10391491Y-15040960D02*
X10381967Y-15031436D01*
X10381967Y-15031436D02*
X10372444Y-15012388D01*
X10372444Y-15012388D02*
X10362920Y-14974293D01*
X10362920Y-14974293D02*
X10362920Y-14926674D01*
X10362920Y-14926674D02*
X10372444Y-14888579D01*
X10372444Y-14888579D02*
X10381967Y-14869531D01*
X10381967Y-14869531D02*
X10391491Y-14860008D01*
X10391491Y-14860008D02*
X10410539Y-14850484D01*
X10562920Y-15050484D02*
X10562920Y-14917150D01*
X10562920Y-14936198D02*
X10572444Y-14926674D01*
X10572444Y-14926674D02*
X10591491Y-14917150D01*
X10591491Y-14917150D02*
X10620063Y-14917150D01*
X10620063Y-14917150D02*
X10639110Y-14926674D01*
X10639110Y-14926674D02*
X10648634Y-14945722D01*
X10648634Y-14945722D02*
X10648634Y-15050484D01*
X10648634Y-14945722D02*
X10658158Y-14926674D01*
X10658158Y-14926674D02*
X10677205Y-14917150D01*
X10677205Y-14917150D02*
X10705777Y-14917150D01*
X10705777Y-14917150D02*
X10724825Y-14926674D01*
X10724825Y-14926674D02*
X10734348Y-14945722D01*
X10734348Y-14945722D02*
X10734348Y-15050484D01*
X10829586Y-15050484D02*
X10829586Y-14917150D01*
X10829586Y-14936198D02*
X10839110Y-14926674D01*
X10839110Y-14926674D02*
X10858158Y-14917150D01*
X10858158Y-14917150D02*
X10886729Y-14917150D01*
X10886729Y-14917150D02*
X10905777Y-14926674D01*
X10905777Y-14926674D02*
X10915301Y-14945722D01*
X10915301Y-14945722D02*
X10915301Y-15050484D01*
X10915301Y-14945722D02*
X10924825Y-14926674D01*
X10924825Y-14926674D02*
X10943872Y-14917150D01*
X10943872Y-14917150D02*
X10972444Y-14917150D01*
X10972444Y-14917150D02*
X10991491Y-14926674D01*
X10991491Y-14926674D02*
X11001015Y-14945722D01*
X11001015Y-14945722D02*
X11001015Y-15050484D01*
X11391491Y-14840960D02*
X11220063Y-15098103D01*
X11648634Y-14850484D02*
X11667682Y-14850484D01*
X11667682Y-14850484D02*
X11686729Y-14860008D01*
X11686729Y-14860008D02*
X11696253Y-14869531D01*
X11696253Y-14869531D02*
X11705777Y-14888579D01*
X11705777Y-14888579D02*
X11715301Y-14926674D01*
X11715301Y-14926674D02*
X11715301Y-14974293D01*
X11715301Y-14974293D02*
X11705777Y-15012388D01*
X11705777Y-15012388D02*
X11696253Y-15031436D01*
X11696253Y-15031436D02*
X11686729Y-15040960D01*
X11686729Y-15040960D02*
X11667682Y-15050484D01*
X11667682Y-15050484D02*
X11648634Y-15050484D01*
X11648634Y-15050484D02*
X11629586Y-15040960D01*
X11629586Y-15040960D02*
X11620063Y-15031436D01*
X11620063Y-15031436D02*
X11610539Y-15012388D01*
X11610539Y-15012388D02*
X11601015Y-14974293D01*
X11601015Y-14974293D02*
X11601015Y-14926674D01*
X11601015Y-14926674D02*
X11610539Y-14888579D01*
X11610539Y-14888579D02*
X11620063Y-14869531D01*
X11620063Y-14869531D02*
X11629586Y-14860008D01*
X11629586Y-14860008D02*
X11648634Y-14850484D01*
X11801015Y-15031436D02*
X11810539Y-15040960D01*
X11810539Y-15040960D02*
X11801015Y-15050484D01*
X11801015Y-15050484D02*
X11791491Y-15040960D01*
X11791491Y-15040960D02*
X11801015Y-15031436D01*
X11801015Y-15031436D02*
X11801015Y-15050484D01*
X11934348Y-14850484D02*
X11953396Y-14850484D01*
X11953396Y-14850484D02*
X11972444Y-14860008D01*
X11972444Y-14860008D02*
X11981967Y-14869531D01*
X11981967Y-14869531D02*
X11991491Y-14888579D01*
X11991491Y-14888579D02*
X12001015Y-14926674D01*
X12001015Y-14926674D02*
X12001015Y-14974293D01*
X12001015Y-14974293D02*
X11991491Y-15012388D01*
X11991491Y-15012388D02*
X11981967Y-15031436D01*
X11981967Y-15031436D02*
X11972444Y-15040960D01*
X11972444Y-15040960D02*
X11953396Y-15050484D01*
X11953396Y-15050484D02*
X11934348Y-15050484D01*
X11934348Y-15050484D02*
X11915301Y-15040960D01*
X11915301Y-15040960D02*
X11905777Y-15031436D01*
X11905777Y-15031436D02*
X11896253Y-15012388D01*
X11896253Y-15012388D02*
X11886729Y-14974293D01*
X11886729Y-14974293D02*
X11886729Y-14926674D01*
X11886729Y-14926674D02*
X11896253Y-14888579D01*
X11896253Y-14888579D02*
X11905777Y-14869531D01*
X11905777Y-14869531D02*
X11915301Y-14860008D01*
X11915301Y-14860008D02*
X11934348Y-14850484D01*
X12172444Y-14850484D02*
X12134348Y-14850484D01*
X12134348Y-14850484D02*
X12115301Y-14860008D01*
X12115301Y-14860008D02*
X12105777Y-14869531D01*
X12105777Y-14869531D02*
X12086729Y-14898103D01*
X12086729Y-14898103D02*
X12077206Y-14936198D01*
X12077206Y-14936198D02*
X12077206Y-15012388D01*
X12077206Y-15012388D02*
X12086729Y-15031436D01*
X12086729Y-15031436D02*
X12096253Y-15040960D01*
X12096253Y-15040960D02*
X12115301Y-15050484D01*
X12115301Y-15050484D02*
X12153396Y-15050484D01*
X12153396Y-15050484D02*
X12172444Y-15040960D01*
X12172444Y-15040960D02*
X12181967Y-15031436D01*
X12181967Y-15031436D02*
X12191491Y-15012388D01*
X12191491Y-15012388D02*
X12191491Y-14964769D01*
X12191491Y-14964769D02*
X12181967Y-14945722D01*
X12181967Y-14945722D02*
X12172444Y-14936198D01*
X12172444Y-14936198D02*
X12153396Y-14926674D01*
X12153396Y-14926674D02*
X12115301Y-14926674D01*
X12115301Y-14926674D02*
X12096253Y-14936198D01*
X12096253Y-14936198D02*
X12086729Y-14945722D01*
X12086729Y-14945722D02*
X12077206Y-14964769D01*
X12362920Y-14850484D02*
X12324825Y-14850484D01*
X12324825Y-14850484D02*
X12305777Y-14860008D01*
X12305777Y-14860008D02*
X12296253Y-14869531D01*
X12296253Y-14869531D02*
X12277206Y-14898103D01*
X12277206Y-14898103D02*
X12267682Y-14936198D01*
X12267682Y-14936198D02*
X12267682Y-15012388D01*
X12267682Y-15012388D02*
X12277206Y-15031436D01*
X12277206Y-15031436D02*
X12286729Y-15040960D01*
X12286729Y-15040960D02*
X12305777Y-15050484D01*
X12305777Y-15050484D02*
X12343872Y-15050484D01*
X12343872Y-15050484D02*
X12362920Y-15040960D01*
X12362920Y-15040960D02*
X12372444Y-15031436D01*
X12372444Y-15031436D02*
X12381967Y-15012388D01*
X12381967Y-15012388D02*
X12381967Y-14964769D01*
X12381967Y-14964769D02*
X12372444Y-14945722D01*
X12372444Y-14945722D02*
X12362920Y-14936198D01*
X12362920Y-14936198D02*
X12343872Y-14926674D01*
X12343872Y-14926674D02*
X12305777Y-14926674D01*
X12305777Y-14926674D02*
X12286729Y-14936198D01*
X12286729Y-14936198D02*
X12277206Y-14945722D01*
X12277206Y-14945722D02*
X12267682Y-14964769D01*
X12477206Y-15050484D02*
X12515301Y-15050484D01*
X12515301Y-15050484D02*
X12534348Y-15040960D01*
X12534348Y-15040960D02*
X12543872Y-15031436D01*
X12543872Y-15031436D02*
X12562920Y-15002865D01*
X12562920Y-15002865D02*
X12572444Y-14964769D01*
X12572444Y-14964769D02*
X12572444Y-14888579D01*
X12572444Y-14888579D02*
X12562920Y-14869531D01*
X12562920Y-14869531D02*
X12553396Y-14860008D01*
X12553396Y-14860008D02*
X12534348Y-14850484D01*
X12534348Y-14850484D02*
X12496253Y-14850484D01*
X12496253Y-14850484D02*
X12477206Y-14860008D01*
X12477206Y-14860008D02*
X12467682Y-14869531D01*
X12467682Y-14869531D02*
X12458158Y-14888579D01*
X12458158Y-14888579D02*
X12458158Y-14936198D01*
X12458158Y-14936198D02*
X12467682Y-14955246D01*
X12467682Y-14955246D02*
X12477206Y-14964769D01*
X12477206Y-14964769D02*
X12496253Y-14974293D01*
X12496253Y-14974293D02*
X12534348Y-14974293D01*
X12534348Y-14974293D02*
X12553396Y-14964769D01*
X12553396Y-14964769D02*
X12562920Y-14955246D01*
X12562920Y-14955246D02*
X12572444Y-14936198D01*
X12648634Y-14850484D02*
X12648634Y-14888579D01*
X12724825Y-14850484D02*
X12724825Y-14888579D01*
X13020063Y-15126674D02*
X13010539Y-15117150D01*
X13010539Y-15117150D02*
X12991491Y-15088579D01*
X12991491Y-15088579D02*
X12981968Y-15069531D01*
X12981968Y-15069531D02*
X12972444Y-15040960D01*
X12972444Y-15040960D02*
X12962920Y-14993341D01*
X12962920Y-14993341D02*
X12962920Y-14955246D01*
X12962920Y-14955246D02*
X12972444Y-14907627D01*
X12972444Y-14907627D02*
X12981968Y-14879055D01*
X12981968Y-14879055D02*
X12991491Y-14860008D01*
X12991491Y-14860008D02*
X13010539Y-14831436D01*
X13010539Y-14831436D02*
X13020063Y-14821912D01*
X13181968Y-14850484D02*
X13143872Y-14850484D01*
X13143872Y-14850484D02*
X13124825Y-14860008D01*
X13124825Y-14860008D02*
X13115301Y-14869531D01*
X13115301Y-14869531D02*
X13096253Y-14898103D01*
X13096253Y-14898103D02*
X13086729Y-14936198D01*
X13086729Y-14936198D02*
X13086729Y-15012388D01*
X13086729Y-15012388D02*
X13096253Y-15031436D01*
X13096253Y-15031436D02*
X13105777Y-15040960D01*
X13105777Y-15040960D02*
X13124825Y-15050484D01*
X13124825Y-15050484D02*
X13162920Y-15050484D01*
X13162920Y-15050484D02*
X13181968Y-15040960D01*
X13181968Y-15040960D02*
X13191491Y-15031436D01*
X13191491Y-15031436D02*
X13201015Y-15012388D01*
X13201015Y-15012388D02*
X13201015Y-14964769D01*
X13201015Y-14964769D02*
X13191491Y-14945722D01*
X13191491Y-14945722D02*
X13181968Y-14936198D01*
X13181968Y-14936198D02*
X13162920Y-14926674D01*
X13162920Y-14926674D02*
X13124825Y-14926674D01*
X13124825Y-14926674D02*
X13105777Y-14936198D01*
X13105777Y-14936198D02*
X13096253Y-14945722D01*
X13096253Y-14945722D02*
X13086729Y-14964769D01*
X13439110Y-15050484D02*
X13439110Y-14850484D01*
X13524825Y-15050484D02*
X13524825Y-14945722D01*
X13524825Y-14945722D02*
X13515301Y-14926674D01*
X13515301Y-14926674D02*
X13496253Y-14917150D01*
X13496253Y-14917150D02*
X13467682Y-14917150D01*
X13467682Y-14917150D02*
X13448634Y-14926674D01*
X13448634Y-14926674D02*
X13439110Y-14936198D01*
X13648634Y-15050484D02*
X13629587Y-15040960D01*
X13629587Y-15040960D02*
X13620063Y-15031436D01*
X13620063Y-15031436D02*
X13610539Y-15012388D01*
X13610539Y-15012388D02*
X13610539Y-14955246D01*
X13610539Y-14955246D02*
X13620063Y-14936198D01*
X13620063Y-14936198D02*
X13629587Y-14926674D01*
X13629587Y-14926674D02*
X13648634Y-14917150D01*
X13648634Y-14917150D02*
X13677206Y-14917150D01*
X13677206Y-14917150D02*
X13696253Y-14926674D01*
X13696253Y-14926674D02*
X13705777Y-14936198D01*
X13705777Y-14936198D02*
X13715301Y-14955246D01*
X13715301Y-14955246D02*
X13715301Y-15012388D01*
X13715301Y-15012388D02*
X13705777Y-15031436D01*
X13705777Y-15031436D02*
X13696253Y-15040960D01*
X13696253Y-15040960D02*
X13677206Y-15050484D01*
X13677206Y-15050484D02*
X13648634Y-15050484D01*
X13829587Y-15050484D02*
X13810539Y-15040960D01*
X13810539Y-15040960D02*
X13801015Y-15021912D01*
X13801015Y-15021912D02*
X13801015Y-14850484D01*
X13981968Y-15040960D02*
X13962920Y-15050484D01*
X13962920Y-15050484D02*
X13924825Y-15050484D01*
X13924825Y-15050484D02*
X13905777Y-15040960D01*
X13905777Y-15040960D02*
X13896253Y-15021912D01*
X13896253Y-15021912D02*
X13896253Y-14945722D01*
X13896253Y-14945722D02*
X13905777Y-14926674D01*
X13905777Y-14926674D02*
X13924825Y-14917150D01*
X13924825Y-14917150D02*
X13962920Y-14917150D01*
X13962920Y-14917150D02*
X13981968Y-14926674D01*
X13981968Y-14926674D02*
X13991491Y-14945722D01*
X13991491Y-14945722D02*
X13991491Y-14964769D01*
X13991491Y-14964769D02*
X13896253Y-14983817D01*
X14067682Y-15040960D02*
X14086730Y-15050484D01*
X14086730Y-15050484D02*
X14124825Y-15050484D01*
X14124825Y-15050484D02*
X14143872Y-15040960D01*
X14143872Y-15040960D02*
X14153396Y-15021912D01*
X14153396Y-15021912D02*
X14153396Y-15012388D01*
X14153396Y-15012388D02*
X14143872Y-14993341D01*
X14143872Y-14993341D02*
X14124825Y-14983817D01*
X14124825Y-14983817D02*
X14096253Y-14983817D01*
X14096253Y-14983817D02*
X14077206Y-14974293D01*
X14077206Y-14974293D02*
X14067682Y-14955246D01*
X14067682Y-14955246D02*
X14067682Y-14945722D01*
X14067682Y-14945722D02*
X14077206Y-14926674D01*
X14077206Y-14926674D02*
X14096253Y-14917150D01*
X14096253Y-14917150D02*
X14124825Y-14917150D01*
X14124825Y-14917150D02*
X14143872Y-14926674D01*
X14220063Y-15126674D02*
X14229587Y-15117150D01*
X14229587Y-15117150D02*
X14248634Y-15088579D01*
X14248634Y-15088579D02*
X14258158Y-15069531D01*
X14258158Y-15069531D02*
X14267682Y-15040960D01*
X14267682Y-15040960D02*
X14277206Y-14993341D01*
X14277206Y-14993341D02*
X14277206Y-14955246D01*
X14277206Y-14955246D02*
X14267682Y-14907627D01*
X14267682Y-14907627D02*
X14258158Y-14879055D01*
X14258158Y-14879055D02*
X14248634Y-14860008D01*
X14248634Y-14860008D02*
X14229587Y-14831436D01*
X14229587Y-14831436D02*
X14220063Y-14821912D01*
X14581968Y-15126674D02*
X14572444Y-15117150D01*
X14572444Y-15117150D02*
X14553396Y-15088579D01*
X14553396Y-15088579D02*
X14543872Y-15069531D01*
X14543872Y-15069531D02*
X14534349Y-15040960D01*
X14534349Y-15040960D02*
X14524825Y-14993341D01*
X14524825Y-14993341D02*
X14524825Y-14955246D01*
X14524825Y-14955246D02*
X14534349Y-14907627D01*
X14534349Y-14907627D02*
X14543872Y-14879055D01*
X14543872Y-14879055D02*
X14553396Y-14860008D01*
X14553396Y-14860008D02*
X14572444Y-14831436D01*
X14572444Y-14831436D02*
X14581968Y-14821912D01*
X14658158Y-14917150D02*
X14658158Y-15050484D01*
X14658158Y-14936198D02*
X14667682Y-14926674D01*
X14667682Y-14926674D02*
X14686730Y-14917150D01*
X14686730Y-14917150D02*
X14715301Y-14917150D01*
X14715301Y-14917150D02*
X14734349Y-14926674D01*
X14734349Y-14926674D02*
X14743872Y-14945722D01*
X14743872Y-14945722D02*
X14743872Y-15050484D01*
X14867682Y-15050484D02*
X14848634Y-15040960D01*
X14848634Y-15040960D02*
X14839111Y-15031436D01*
X14839111Y-15031436D02*
X14829587Y-15012388D01*
X14829587Y-15012388D02*
X14829587Y-14955246D01*
X14829587Y-14955246D02*
X14839111Y-14936198D01*
X14839111Y-14936198D02*
X14848634Y-14926674D01*
X14848634Y-14926674D02*
X14867682Y-14917150D01*
X14867682Y-14917150D02*
X14896253Y-14917150D01*
X14896253Y-14917150D02*
X14915301Y-14926674D01*
X14915301Y-14926674D02*
X14924825Y-14936198D01*
X14924825Y-14936198D02*
X14934349Y-14955246D01*
X14934349Y-14955246D02*
X14934349Y-15012388D01*
X14934349Y-15012388D02*
X14924825Y-15031436D01*
X14924825Y-15031436D02*
X14915301Y-15040960D01*
X14915301Y-15040960D02*
X14896253Y-15050484D01*
X14896253Y-15050484D02*
X14867682Y-15050484D01*
X14991492Y-14917150D02*
X15067682Y-14917150D01*
X15020063Y-14850484D02*
X15020063Y-15021912D01*
X15020063Y-15021912D02*
X15029587Y-15040960D01*
X15029587Y-15040960D02*
X15048634Y-15050484D01*
X15048634Y-15050484D02*
X15067682Y-15050484D01*
X15286730Y-14917150D02*
X15286730Y-15117150D01*
X15286730Y-14926674D02*
X15305777Y-14917150D01*
X15305777Y-14917150D02*
X15343873Y-14917150D01*
X15343873Y-14917150D02*
X15362920Y-14926674D01*
X15362920Y-14926674D02*
X15372444Y-14936198D01*
X15372444Y-14936198D02*
X15381968Y-14955246D01*
X15381968Y-14955246D02*
X15381968Y-15012388D01*
X15381968Y-15012388D02*
X15372444Y-15031436D01*
X15372444Y-15031436D02*
X15362920Y-15040960D01*
X15362920Y-15040960D02*
X15343873Y-15050484D01*
X15343873Y-15050484D02*
X15305777Y-15050484D01*
X15305777Y-15050484D02*
X15286730Y-15040960D01*
X15496253Y-15050484D02*
X15477206Y-15040960D01*
X15477206Y-15040960D02*
X15467682Y-15021912D01*
X15467682Y-15021912D02*
X15467682Y-14850484D01*
X15658158Y-15050484D02*
X15658158Y-14945722D01*
X15658158Y-14945722D02*
X15648634Y-14926674D01*
X15648634Y-14926674D02*
X15629587Y-14917150D01*
X15629587Y-14917150D02*
X15591492Y-14917150D01*
X15591492Y-14917150D02*
X15572444Y-14926674D01*
X15658158Y-15040960D02*
X15639111Y-15050484D01*
X15639111Y-15050484D02*
X15591492Y-15050484D01*
X15591492Y-15050484D02*
X15572444Y-15040960D01*
X15572444Y-15040960D02*
X15562920Y-15021912D01*
X15562920Y-15021912D02*
X15562920Y-15002865D01*
X15562920Y-15002865D02*
X15572444Y-14983817D01*
X15572444Y-14983817D02*
X15591492Y-14974293D01*
X15591492Y-14974293D02*
X15639111Y-14974293D01*
X15639111Y-14974293D02*
X15658158Y-14964769D01*
X15724825Y-14917150D02*
X15801015Y-14917150D01*
X15753396Y-14850484D02*
X15753396Y-15021912D01*
X15753396Y-15021912D02*
X15762920Y-15040960D01*
X15762920Y-15040960D02*
X15781968Y-15050484D01*
X15781968Y-15050484D02*
X15801015Y-15050484D01*
X15943873Y-15040960D02*
X15924825Y-15050484D01*
X15924825Y-15050484D02*
X15886730Y-15050484D01*
X15886730Y-15050484D02*
X15867682Y-15040960D01*
X15867682Y-15040960D02*
X15858158Y-15021912D01*
X15858158Y-15021912D02*
X15858158Y-14945722D01*
X15858158Y-14945722D02*
X15867682Y-14926674D01*
X15867682Y-14926674D02*
X15886730Y-14917150D01*
X15886730Y-14917150D02*
X15924825Y-14917150D01*
X15924825Y-14917150D02*
X15943873Y-14926674D01*
X15943873Y-14926674D02*
X15953396Y-14945722D01*
X15953396Y-14945722D02*
X15953396Y-14964769D01*
X15953396Y-14964769D02*
X15858158Y-14983817D01*
X16124825Y-15050484D02*
X16124825Y-14850484D01*
X16124825Y-15040960D02*
X16105777Y-15050484D01*
X16105777Y-15050484D02*
X16067682Y-15050484D01*
X16067682Y-15050484D02*
X16048634Y-15040960D01*
X16048634Y-15040960D02*
X16039111Y-15031436D01*
X16039111Y-15031436D02*
X16029587Y-15012388D01*
X16029587Y-15012388D02*
X16029587Y-14955246D01*
X16029587Y-14955246D02*
X16039111Y-14936198D01*
X16039111Y-14936198D02*
X16048634Y-14926674D01*
X16048634Y-14926674D02*
X16067682Y-14917150D01*
X16067682Y-14917150D02*
X16105777Y-14917150D01*
X16105777Y-14917150D02*
X16124825Y-14926674D01*
X16201015Y-15126674D02*
X16210539Y-15117150D01*
X16210539Y-15117150D02*
X16229587Y-15088579D01*
X16229587Y-15088579D02*
X16239111Y-15069531D01*
X16239111Y-15069531D02*
X16248634Y-15040960D01*
X16248634Y-15040960D02*
X16258158Y-14993341D01*
X16258158Y-14993341D02*
X16258158Y-14955246D01*
X16258158Y-14955246D02*
X16248634Y-14907627D01*
X16248634Y-14907627D02*
X16239111Y-14879055D01*
X16239111Y-14879055D02*
X16229587Y-14860008D01*
X16229587Y-14860008D02*
X16210539Y-14831436D01*
X16210539Y-14831436D02*
X16201015Y-14821912D01*
X9345000Y-15149000D02*
X9345000Y-15349000D01*
X9245000Y-15249000D02*
X9445000Y-15249000D01*
X9696253Y-15159531D02*
X9705777Y-15150008D01*
X9705777Y-15150008D02*
X9724824Y-15140484D01*
X9724824Y-15140484D02*
X9772444Y-15140484D01*
X9772444Y-15140484D02*
X9791491Y-15150008D01*
X9791491Y-15150008D02*
X9801015Y-15159531D01*
X9801015Y-15159531D02*
X9810539Y-15178579D01*
X9810539Y-15178579D02*
X9810539Y-15197627D01*
X9810539Y-15197627D02*
X9801015Y-15226198D01*
X9801015Y-15226198D02*
X9686729Y-15340484D01*
X9686729Y-15340484D02*
X9810539Y-15340484D01*
X9896253Y-15321436D02*
X9905777Y-15330960D01*
X9905777Y-15330960D02*
X9896253Y-15340484D01*
X9896253Y-15340484D02*
X9886729Y-15330960D01*
X9886729Y-15330960D02*
X9896253Y-15321436D01*
X9896253Y-15321436D02*
X9896253Y-15340484D01*
X9972444Y-15140484D02*
X10105777Y-15140484D01*
X10105777Y-15140484D02*
X10020063Y-15340484D01*
X10220063Y-15140484D02*
X10239110Y-15140484D01*
X10239110Y-15140484D02*
X10258158Y-15150008D01*
X10258158Y-15150008D02*
X10267682Y-15159531D01*
X10267682Y-15159531D02*
X10277205Y-15178579D01*
X10277205Y-15178579D02*
X10286729Y-15216674D01*
X10286729Y-15216674D02*
X10286729Y-15264293D01*
X10286729Y-15264293D02*
X10277205Y-15302388D01*
X10277205Y-15302388D02*
X10267682Y-15321436D01*
X10267682Y-15321436D02*
X10258158Y-15330960D01*
X10258158Y-15330960D02*
X10239110Y-15340484D01*
X10239110Y-15340484D02*
X10220063Y-15340484D01*
X10220063Y-15340484D02*
X10201015Y-15330960D01*
X10201015Y-15330960D02*
X10191491Y-15321436D01*
X10191491Y-15321436D02*
X10181967Y-15302388D01*
X10181967Y-15302388D02*
X10172444Y-15264293D01*
X10172444Y-15264293D02*
X10172444Y-15216674D01*
X10172444Y-15216674D02*
X10181967Y-15178579D01*
X10181967Y-15178579D02*
X10191491Y-15159531D01*
X10191491Y-15159531D02*
X10201015Y-15150008D01*
X10201015Y-15150008D02*
X10220063Y-15140484D01*
X10410539Y-15140484D02*
X10429586Y-15140484D01*
X10429586Y-15140484D02*
X10448634Y-15150008D01*
X10448634Y-15150008D02*
X10458158Y-15159531D01*
X10458158Y-15159531D02*
X10467682Y-15178579D01*
X10467682Y-15178579D02*
X10477205Y-15216674D01*
X10477205Y-15216674D02*
X10477205Y-15264293D01*
X10477205Y-15264293D02*
X10467682Y-15302388D01*
X10467682Y-15302388D02*
X10458158Y-15321436D01*
X10458158Y-15321436D02*
X10448634Y-15330960D01*
X10448634Y-15330960D02*
X10429586Y-15340484D01*
X10429586Y-15340484D02*
X10410539Y-15340484D01*
X10410539Y-15340484D02*
X10391491Y-15330960D01*
X10391491Y-15330960D02*
X10381967Y-15321436D01*
X10381967Y-15321436D02*
X10372444Y-15302388D01*
X10372444Y-15302388D02*
X10362920Y-15264293D01*
X10362920Y-15264293D02*
X10362920Y-15216674D01*
X10362920Y-15216674D02*
X10372444Y-15178579D01*
X10372444Y-15178579D02*
X10381967Y-15159531D01*
X10381967Y-15159531D02*
X10391491Y-15150008D01*
X10391491Y-15150008D02*
X10410539Y-15140484D01*
X10562920Y-15340484D02*
X10562920Y-15207150D01*
X10562920Y-15226198D02*
X10572444Y-15216674D01*
X10572444Y-15216674D02*
X10591491Y-15207150D01*
X10591491Y-15207150D02*
X10620063Y-15207150D01*
X10620063Y-15207150D02*
X10639110Y-15216674D01*
X10639110Y-15216674D02*
X10648634Y-15235722D01*
X10648634Y-15235722D02*
X10648634Y-15340484D01*
X10648634Y-15235722D02*
X10658158Y-15216674D01*
X10658158Y-15216674D02*
X10677205Y-15207150D01*
X10677205Y-15207150D02*
X10705777Y-15207150D01*
X10705777Y-15207150D02*
X10724825Y-15216674D01*
X10724825Y-15216674D02*
X10734348Y-15235722D01*
X10734348Y-15235722D02*
X10734348Y-15340484D01*
X10829586Y-15340484D02*
X10829586Y-15207150D01*
X10829586Y-15226198D02*
X10839110Y-15216674D01*
X10839110Y-15216674D02*
X10858158Y-15207150D01*
X10858158Y-15207150D02*
X10886729Y-15207150D01*
X10886729Y-15207150D02*
X10905777Y-15216674D01*
X10905777Y-15216674D02*
X10915301Y-15235722D01*
X10915301Y-15235722D02*
X10915301Y-15340484D01*
X10915301Y-15235722D02*
X10924825Y-15216674D01*
X10924825Y-15216674D02*
X10943872Y-15207150D01*
X10943872Y-15207150D02*
X10972444Y-15207150D01*
X10972444Y-15207150D02*
X10991491Y-15216674D01*
X10991491Y-15216674D02*
X11001015Y-15235722D01*
X11001015Y-15235722D02*
X11001015Y-15340484D01*
X11391491Y-15130960D02*
X11220063Y-15388103D01*
X11648634Y-15140484D02*
X11667682Y-15140484D01*
X11667682Y-15140484D02*
X11686729Y-15150008D01*
X11686729Y-15150008D02*
X11696253Y-15159531D01*
X11696253Y-15159531D02*
X11705777Y-15178579D01*
X11705777Y-15178579D02*
X11715301Y-15216674D01*
X11715301Y-15216674D02*
X11715301Y-15264293D01*
X11715301Y-15264293D02*
X11705777Y-15302388D01*
X11705777Y-15302388D02*
X11696253Y-15321436D01*
X11696253Y-15321436D02*
X11686729Y-15330960D01*
X11686729Y-15330960D02*
X11667682Y-15340484D01*
X11667682Y-15340484D02*
X11648634Y-15340484D01*
X11648634Y-15340484D02*
X11629586Y-15330960D01*
X11629586Y-15330960D02*
X11620063Y-15321436D01*
X11620063Y-15321436D02*
X11610539Y-15302388D01*
X11610539Y-15302388D02*
X11601015Y-15264293D01*
X11601015Y-15264293D02*
X11601015Y-15216674D01*
X11601015Y-15216674D02*
X11610539Y-15178579D01*
X11610539Y-15178579D02*
X11620063Y-15159531D01*
X11620063Y-15159531D02*
X11629586Y-15150008D01*
X11629586Y-15150008D02*
X11648634Y-15140484D01*
X11801015Y-15321436D02*
X11810539Y-15330960D01*
X11810539Y-15330960D02*
X11801015Y-15340484D01*
X11801015Y-15340484D02*
X11791491Y-15330960D01*
X11791491Y-15330960D02*
X11801015Y-15321436D01*
X11801015Y-15321436D02*
X11801015Y-15340484D01*
X12001015Y-15340484D02*
X11886729Y-15340484D01*
X11943872Y-15340484D02*
X11943872Y-15140484D01*
X11943872Y-15140484D02*
X11924825Y-15169055D01*
X11924825Y-15169055D02*
X11905777Y-15188103D01*
X11905777Y-15188103D02*
X11886729Y-15197627D01*
X12124825Y-15140484D02*
X12143872Y-15140484D01*
X12143872Y-15140484D02*
X12162920Y-15150008D01*
X12162920Y-15150008D02*
X12172444Y-15159531D01*
X12172444Y-15159531D02*
X12181967Y-15178579D01*
X12181967Y-15178579D02*
X12191491Y-15216674D01*
X12191491Y-15216674D02*
X12191491Y-15264293D01*
X12191491Y-15264293D02*
X12181967Y-15302388D01*
X12181967Y-15302388D02*
X12172444Y-15321436D01*
X12172444Y-15321436D02*
X12162920Y-15330960D01*
X12162920Y-15330960D02*
X12143872Y-15340484D01*
X12143872Y-15340484D02*
X12124825Y-15340484D01*
X12124825Y-15340484D02*
X12105777Y-15330960D01*
X12105777Y-15330960D02*
X12096253Y-15321436D01*
X12096253Y-15321436D02*
X12086729Y-15302388D01*
X12086729Y-15302388D02*
X12077206Y-15264293D01*
X12077206Y-15264293D02*
X12077206Y-15216674D01*
X12077206Y-15216674D02*
X12086729Y-15178579D01*
X12086729Y-15178579D02*
X12096253Y-15159531D01*
X12096253Y-15159531D02*
X12105777Y-15150008D01*
X12105777Y-15150008D02*
X12124825Y-15140484D01*
X12362920Y-15140484D02*
X12324825Y-15140484D01*
X12324825Y-15140484D02*
X12305777Y-15150008D01*
X12305777Y-15150008D02*
X12296253Y-15159531D01*
X12296253Y-15159531D02*
X12277206Y-15188103D01*
X12277206Y-15188103D02*
X12267682Y-15226198D01*
X12267682Y-15226198D02*
X12267682Y-15302388D01*
X12267682Y-15302388D02*
X12277206Y-15321436D01*
X12277206Y-15321436D02*
X12286729Y-15330960D01*
X12286729Y-15330960D02*
X12305777Y-15340484D01*
X12305777Y-15340484D02*
X12343872Y-15340484D01*
X12343872Y-15340484D02*
X12362920Y-15330960D01*
X12362920Y-15330960D02*
X12372444Y-15321436D01*
X12372444Y-15321436D02*
X12381967Y-15302388D01*
X12381967Y-15302388D02*
X12381967Y-15254769D01*
X12381967Y-15254769D02*
X12372444Y-15235722D01*
X12372444Y-15235722D02*
X12362920Y-15226198D01*
X12362920Y-15226198D02*
X12343872Y-15216674D01*
X12343872Y-15216674D02*
X12305777Y-15216674D01*
X12305777Y-15216674D02*
X12286729Y-15226198D01*
X12286729Y-15226198D02*
X12277206Y-15235722D01*
X12277206Y-15235722D02*
X12267682Y-15254769D01*
X12448634Y-15140484D02*
X12572444Y-15140484D01*
X12572444Y-15140484D02*
X12505777Y-15216674D01*
X12505777Y-15216674D02*
X12534348Y-15216674D01*
X12534348Y-15216674D02*
X12553396Y-15226198D01*
X12553396Y-15226198D02*
X12562920Y-15235722D01*
X12562920Y-15235722D02*
X12572444Y-15254769D01*
X12572444Y-15254769D02*
X12572444Y-15302388D01*
X12572444Y-15302388D02*
X12562920Y-15321436D01*
X12562920Y-15321436D02*
X12553396Y-15330960D01*
X12553396Y-15330960D02*
X12534348Y-15340484D01*
X12534348Y-15340484D02*
X12477206Y-15340484D01*
X12477206Y-15340484D02*
X12458158Y-15330960D01*
X12458158Y-15330960D02*
X12448634Y-15321436D01*
X12648634Y-15140484D02*
X12648634Y-15178579D01*
X12724825Y-15140484D02*
X12724825Y-15178579D01*
X13020063Y-15416674D02*
X13010539Y-15407150D01*
X13010539Y-15407150D02*
X12991491Y-15378579D01*
X12991491Y-15378579D02*
X12981968Y-15359531D01*
X12981968Y-15359531D02*
X12972444Y-15330960D01*
X12972444Y-15330960D02*
X12962920Y-15283341D01*
X12962920Y-15283341D02*
X12962920Y-15245246D01*
X12962920Y-15245246D02*
X12972444Y-15197627D01*
X12972444Y-15197627D02*
X12981968Y-15169055D01*
X12981968Y-15169055D02*
X12991491Y-15150008D01*
X12991491Y-15150008D02*
X13010539Y-15121436D01*
X13010539Y-15121436D02*
X13020063Y-15111912D01*
X13077206Y-15140484D02*
X13210539Y-15140484D01*
X13210539Y-15140484D02*
X13124825Y-15340484D01*
X13439110Y-15340484D02*
X13439110Y-15140484D01*
X13524825Y-15340484D02*
X13524825Y-15235722D01*
X13524825Y-15235722D02*
X13515301Y-15216674D01*
X13515301Y-15216674D02*
X13496253Y-15207150D01*
X13496253Y-15207150D02*
X13467682Y-15207150D01*
X13467682Y-15207150D02*
X13448634Y-15216674D01*
X13448634Y-15216674D02*
X13439110Y-15226198D01*
X13648634Y-15340484D02*
X13629587Y-15330960D01*
X13629587Y-15330960D02*
X13620063Y-15321436D01*
X13620063Y-15321436D02*
X13610539Y-15302388D01*
X13610539Y-15302388D02*
X13610539Y-15245246D01*
X13610539Y-15245246D02*
X13620063Y-15226198D01*
X13620063Y-15226198D02*
X13629587Y-15216674D01*
X13629587Y-15216674D02*
X13648634Y-15207150D01*
X13648634Y-15207150D02*
X13677206Y-15207150D01*
X13677206Y-15207150D02*
X13696253Y-15216674D01*
X13696253Y-15216674D02*
X13705777Y-15226198D01*
X13705777Y-15226198D02*
X13715301Y-15245246D01*
X13715301Y-15245246D02*
X13715301Y-15302388D01*
X13715301Y-15302388D02*
X13705777Y-15321436D01*
X13705777Y-15321436D02*
X13696253Y-15330960D01*
X13696253Y-15330960D02*
X13677206Y-15340484D01*
X13677206Y-15340484D02*
X13648634Y-15340484D01*
X13829587Y-15340484D02*
X13810539Y-15330960D01*
X13810539Y-15330960D02*
X13801015Y-15311912D01*
X13801015Y-15311912D02*
X13801015Y-15140484D01*
X13981968Y-15330960D02*
X13962920Y-15340484D01*
X13962920Y-15340484D02*
X13924825Y-15340484D01*
X13924825Y-15340484D02*
X13905777Y-15330960D01*
X13905777Y-15330960D02*
X13896253Y-15311912D01*
X13896253Y-15311912D02*
X13896253Y-15235722D01*
X13896253Y-15235722D02*
X13905777Y-15216674D01*
X13905777Y-15216674D02*
X13924825Y-15207150D01*
X13924825Y-15207150D02*
X13962920Y-15207150D01*
X13962920Y-15207150D02*
X13981968Y-15216674D01*
X13981968Y-15216674D02*
X13991491Y-15235722D01*
X13991491Y-15235722D02*
X13991491Y-15254769D01*
X13991491Y-15254769D02*
X13896253Y-15273817D01*
X14067682Y-15330960D02*
X14086730Y-15340484D01*
X14086730Y-15340484D02*
X14124825Y-15340484D01*
X14124825Y-15340484D02*
X14143872Y-15330960D01*
X14143872Y-15330960D02*
X14153396Y-15311912D01*
X14153396Y-15311912D02*
X14153396Y-15302388D01*
X14153396Y-15302388D02*
X14143872Y-15283341D01*
X14143872Y-15283341D02*
X14124825Y-15273817D01*
X14124825Y-15273817D02*
X14096253Y-15273817D01*
X14096253Y-15273817D02*
X14077206Y-15264293D01*
X14077206Y-15264293D02*
X14067682Y-15245246D01*
X14067682Y-15245246D02*
X14067682Y-15235722D01*
X14067682Y-15235722D02*
X14077206Y-15216674D01*
X14077206Y-15216674D02*
X14096253Y-15207150D01*
X14096253Y-15207150D02*
X14124825Y-15207150D01*
X14124825Y-15207150D02*
X14143872Y-15216674D01*
X14220063Y-15416674D02*
X14229587Y-15407150D01*
X14229587Y-15407150D02*
X14248634Y-15378579D01*
X14248634Y-15378579D02*
X14258158Y-15359531D01*
X14258158Y-15359531D02*
X14267682Y-15330960D01*
X14267682Y-15330960D02*
X14277206Y-15283341D01*
X14277206Y-15283341D02*
X14277206Y-15245246D01*
X14277206Y-15245246D02*
X14267682Y-15197627D01*
X14267682Y-15197627D02*
X14258158Y-15169055D01*
X14258158Y-15169055D02*
X14248634Y-15150008D01*
X14248634Y-15150008D02*
X14229587Y-15121436D01*
X14229587Y-15121436D02*
X14220063Y-15111912D01*
X14581968Y-15416674D02*
X14572444Y-15407150D01*
X14572444Y-15407150D02*
X14553396Y-15378579D01*
X14553396Y-15378579D02*
X14543872Y-15359531D01*
X14543872Y-15359531D02*
X14534349Y-15330960D01*
X14534349Y-15330960D02*
X14524825Y-15283341D01*
X14524825Y-15283341D02*
X14524825Y-15245246D01*
X14524825Y-15245246D02*
X14534349Y-15197627D01*
X14534349Y-15197627D02*
X14543872Y-15169055D01*
X14543872Y-15169055D02*
X14553396Y-15150008D01*
X14553396Y-15150008D02*
X14572444Y-15121436D01*
X14572444Y-15121436D02*
X14581968Y-15111912D01*
X14658158Y-15207150D02*
X14658158Y-15340484D01*
X14658158Y-15226198D02*
X14667682Y-15216674D01*
X14667682Y-15216674D02*
X14686730Y-15207150D01*
X14686730Y-15207150D02*
X14715301Y-15207150D01*
X14715301Y-15207150D02*
X14734349Y-15216674D01*
X14734349Y-15216674D02*
X14743872Y-15235722D01*
X14743872Y-15235722D02*
X14743872Y-15340484D01*
X14867682Y-15340484D02*
X14848634Y-15330960D01*
X14848634Y-15330960D02*
X14839111Y-15321436D01*
X14839111Y-15321436D02*
X14829587Y-15302388D01*
X14829587Y-15302388D02*
X14829587Y-15245246D01*
X14829587Y-15245246D02*
X14839111Y-15226198D01*
X14839111Y-15226198D02*
X14848634Y-15216674D01*
X14848634Y-15216674D02*
X14867682Y-15207150D01*
X14867682Y-15207150D02*
X14896253Y-15207150D01*
X14896253Y-15207150D02*
X14915301Y-15216674D01*
X14915301Y-15216674D02*
X14924825Y-15226198D01*
X14924825Y-15226198D02*
X14934349Y-15245246D01*
X14934349Y-15245246D02*
X14934349Y-15302388D01*
X14934349Y-15302388D02*
X14924825Y-15321436D01*
X14924825Y-15321436D02*
X14915301Y-15330960D01*
X14915301Y-15330960D02*
X14896253Y-15340484D01*
X14896253Y-15340484D02*
X14867682Y-15340484D01*
X14991492Y-15207150D02*
X15067682Y-15207150D01*
X15020063Y-15140484D02*
X15020063Y-15311912D01*
X15020063Y-15311912D02*
X15029587Y-15330960D01*
X15029587Y-15330960D02*
X15048634Y-15340484D01*
X15048634Y-15340484D02*
X15067682Y-15340484D01*
X15286730Y-15207150D02*
X15286730Y-15407150D01*
X15286730Y-15216674D02*
X15305777Y-15207150D01*
X15305777Y-15207150D02*
X15343873Y-15207150D01*
X15343873Y-15207150D02*
X15362920Y-15216674D01*
X15362920Y-15216674D02*
X15372444Y-15226198D01*
X15372444Y-15226198D02*
X15381968Y-15245246D01*
X15381968Y-15245246D02*
X15381968Y-15302388D01*
X15381968Y-15302388D02*
X15372444Y-15321436D01*
X15372444Y-15321436D02*
X15362920Y-15330960D01*
X15362920Y-15330960D02*
X15343873Y-15340484D01*
X15343873Y-15340484D02*
X15305777Y-15340484D01*
X15305777Y-15340484D02*
X15286730Y-15330960D01*
X15496253Y-15340484D02*
X15477206Y-15330960D01*
X15477206Y-15330960D02*
X15467682Y-15311912D01*
X15467682Y-15311912D02*
X15467682Y-15140484D01*
X15658158Y-15340484D02*
X15658158Y-15235722D01*
X15658158Y-15235722D02*
X15648634Y-15216674D01*
X15648634Y-15216674D02*
X15629587Y-15207150D01*
X15629587Y-15207150D02*
X15591492Y-15207150D01*
X15591492Y-15207150D02*
X15572444Y-15216674D01*
X15658158Y-15330960D02*
X15639111Y-15340484D01*
X15639111Y-15340484D02*
X15591492Y-15340484D01*
X15591492Y-15340484D02*
X15572444Y-15330960D01*
X15572444Y-15330960D02*
X15562920Y-15311912D01*
X15562920Y-15311912D02*
X15562920Y-15292865D01*
X15562920Y-15292865D02*
X15572444Y-15273817D01*
X15572444Y-15273817D02*
X15591492Y-15264293D01*
X15591492Y-15264293D02*
X15639111Y-15264293D01*
X15639111Y-15264293D02*
X15658158Y-15254769D01*
X15724825Y-15207150D02*
X15801015Y-15207150D01*
X15753396Y-15140484D02*
X15753396Y-15311912D01*
X15753396Y-15311912D02*
X15762920Y-15330960D01*
X15762920Y-15330960D02*
X15781968Y-15340484D01*
X15781968Y-15340484D02*
X15801015Y-15340484D01*
X15943873Y-15330960D02*
X15924825Y-15340484D01*
X15924825Y-15340484D02*
X15886730Y-15340484D01*
X15886730Y-15340484D02*
X15867682Y-15330960D01*
X15867682Y-15330960D02*
X15858158Y-15311912D01*
X15858158Y-15311912D02*
X15858158Y-15235722D01*
X15858158Y-15235722D02*
X15867682Y-15216674D01*
X15867682Y-15216674D02*
X15886730Y-15207150D01*
X15886730Y-15207150D02*
X15924825Y-15207150D01*
X15924825Y-15207150D02*
X15943873Y-15216674D01*
X15943873Y-15216674D02*
X15953396Y-15235722D01*
X15953396Y-15235722D02*
X15953396Y-15254769D01*
X15953396Y-15254769D02*
X15858158Y-15273817D01*
X16124825Y-15340484D02*
X16124825Y-15140484D01*
X16124825Y-15330960D02*
X16105777Y-15340484D01*
X16105777Y-15340484D02*
X16067682Y-15340484D01*
X16067682Y-15340484D02*
X16048634Y-15330960D01*
X16048634Y-15330960D02*
X16039111Y-15321436D01*
X16039111Y-15321436D02*
X16029587Y-15302388D01*
X16029587Y-15302388D02*
X16029587Y-15245246D01*
X16029587Y-15245246D02*
X16039111Y-15226198D01*
X16039111Y-15226198D02*
X16048634Y-15216674D01*
X16048634Y-15216674D02*
X16067682Y-15207150D01*
X16067682Y-15207150D02*
X16105777Y-15207150D01*
X16105777Y-15207150D02*
X16124825Y-15216674D01*
X16201015Y-15416674D02*
X16210539Y-15407150D01*
X16210539Y-15407150D02*
X16229587Y-15378579D01*
X16229587Y-15378579D02*
X16239111Y-15359531D01*
X16239111Y-15359531D02*
X16248634Y-15330960D01*
X16248634Y-15330960D02*
X16258158Y-15283341D01*
X16258158Y-15283341D02*
X16258158Y-15245246D01*
X16258158Y-15245246D02*
X16248634Y-15197627D01*
X16248634Y-15197627D02*
X16239111Y-15169055D01*
X16239111Y-15169055D02*
X16229587Y-15150008D01*
X16229587Y-15150008D02*
X16210539Y-15121436D01*
X16210539Y-15121436D02*
X16201015Y-15111912D01*
X9415711Y-15639711D02*
X9415711Y-15498289D01*
X9274289Y-15498289D01*
X9274289Y-15639711D01*
X9415711Y-15639711D01*
X9791491Y-15527150D02*
X9791491Y-15660484D01*
X9743872Y-15450960D02*
X9696253Y-15593817D01*
X9696253Y-15593817D02*
X9820063Y-15593817D01*
X9896253Y-15641436D02*
X9905777Y-15650960D01*
X9905777Y-15650960D02*
X9896253Y-15660484D01*
X9896253Y-15660484D02*
X9886729Y-15650960D01*
X9886729Y-15650960D02*
X9896253Y-15641436D01*
X9896253Y-15641436D02*
X9896253Y-15660484D01*
X10029586Y-15460484D02*
X10048634Y-15460484D01*
X10048634Y-15460484D02*
X10067682Y-15470008D01*
X10067682Y-15470008D02*
X10077205Y-15479531D01*
X10077205Y-15479531D02*
X10086729Y-15498579D01*
X10086729Y-15498579D02*
X10096253Y-15536674D01*
X10096253Y-15536674D02*
X10096253Y-15584293D01*
X10096253Y-15584293D02*
X10086729Y-15622388D01*
X10086729Y-15622388D02*
X10077205Y-15641436D01*
X10077205Y-15641436D02*
X10067682Y-15650960D01*
X10067682Y-15650960D02*
X10048634Y-15660484D01*
X10048634Y-15660484D02*
X10029586Y-15660484D01*
X10029586Y-15660484D02*
X10010539Y-15650960D01*
X10010539Y-15650960D02*
X10001015Y-15641436D01*
X10001015Y-15641436D02*
X9991491Y-15622388D01*
X9991491Y-15622388D02*
X9981967Y-15584293D01*
X9981967Y-15584293D02*
X9981967Y-15536674D01*
X9981967Y-15536674D02*
X9991491Y-15498579D01*
X9991491Y-15498579D02*
X10001015Y-15479531D01*
X10001015Y-15479531D02*
X10010539Y-15470008D01*
X10010539Y-15470008D02*
X10029586Y-15460484D01*
X10220063Y-15460484D02*
X10239110Y-15460484D01*
X10239110Y-15460484D02*
X10258158Y-15470008D01*
X10258158Y-15470008D02*
X10267682Y-15479531D01*
X10267682Y-15479531D02*
X10277205Y-15498579D01*
X10277205Y-15498579D02*
X10286729Y-15536674D01*
X10286729Y-15536674D02*
X10286729Y-15584293D01*
X10286729Y-15584293D02*
X10277205Y-15622388D01*
X10277205Y-15622388D02*
X10267682Y-15641436D01*
X10267682Y-15641436D02*
X10258158Y-15650960D01*
X10258158Y-15650960D02*
X10239110Y-15660484D01*
X10239110Y-15660484D02*
X10220063Y-15660484D01*
X10220063Y-15660484D02*
X10201015Y-15650960D01*
X10201015Y-15650960D02*
X10191491Y-15641436D01*
X10191491Y-15641436D02*
X10181967Y-15622388D01*
X10181967Y-15622388D02*
X10172444Y-15584293D01*
X10172444Y-15584293D02*
X10172444Y-15536674D01*
X10172444Y-15536674D02*
X10181967Y-15498579D01*
X10181967Y-15498579D02*
X10191491Y-15479531D01*
X10191491Y-15479531D02*
X10201015Y-15470008D01*
X10201015Y-15470008D02*
X10220063Y-15460484D01*
X10410539Y-15460484D02*
X10429586Y-15460484D01*
X10429586Y-15460484D02*
X10448634Y-15470008D01*
X10448634Y-15470008D02*
X10458158Y-15479531D01*
X10458158Y-15479531D02*
X10467682Y-15498579D01*
X10467682Y-15498579D02*
X10477205Y-15536674D01*
X10477205Y-15536674D02*
X10477205Y-15584293D01*
X10477205Y-15584293D02*
X10467682Y-15622388D01*
X10467682Y-15622388D02*
X10458158Y-15641436D01*
X10458158Y-15641436D02*
X10448634Y-15650960D01*
X10448634Y-15650960D02*
X10429586Y-15660484D01*
X10429586Y-15660484D02*
X10410539Y-15660484D01*
X10410539Y-15660484D02*
X10391491Y-15650960D01*
X10391491Y-15650960D02*
X10381967Y-15641436D01*
X10381967Y-15641436D02*
X10372444Y-15622388D01*
X10372444Y-15622388D02*
X10362920Y-15584293D01*
X10362920Y-15584293D02*
X10362920Y-15536674D01*
X10362920Y-15536674D02*
X10372444Y-15498579D01*
X10372444Y-15498579D02*
X10381967Y-15479531D01*
X10381967Y-15479531D02*
X10391491Y-15470008D01*
X10391491Y-15470008D02*
X10410539Y-15460484D01*
X10562920Y-15660484D02*
X10562920Y-15527150D01*
X10562920Y-15546198D02*
X10572444Y-15536674D01*
X10572444Y-15536674D02*
X10591491Y-15527150D01*
X10591491Y-15527150D02*
X10620063Y-15527150D01*
X10620063Y-15527150D02*
X10639110Y-15536674D01*
X10639110Y-15536674D02*
X10648634Y-15555722D01*
X10648634Y-15555722D02*
X10648634Y-15660484D01*
X10648634Y-15555722D02*
X10658158Y-15536674D01*
X10658158Y-15536674D02*
X10677205Y-15527150D01*
X10677205Y-15527150D02*
X10705777Y-15527150D01*
X10705777Y-15527150D02*
X10724825Y-15536674D01*
X10724825Y-15536674D02*
X10734348Y-15555722D01*
X10734348Y-15555722D02*
X10734348Y-15660484D01*
X10829586Y-15660484D02*
X10829586Y-15527150D01*
X10829586Y-15546198D02*
X10839110Y-15536674D01*
X10839110Y-15536674D02*
X10858158Y-15527150D01*
X10858158Y-15527150D02*
X10886729Y-15527150D01*
X10886729Y-15527150D02*
X10905777Y-15536674D01*
X10905777Y-15536674D02*
X10915301Y-15555722D01*
X10915301Y-15555722D02*
X10915301Y-15660484D01*
X10915301Y-15555722D02*
X10924825Y-15536674D01*
X10924825Y-15536674D02*
X10943872Y-15527150D01*
X10943872Y-15527150D02*
X10972444Y-15527150D01*
X10972444Y-15527150D02*
X10991491Y-15536674D01*
X10991491Y-15536674D02*
X11001015Y-15555722D01*
X11001015Y-15555722D02*
X11001015Y-15660484D01*
X11391491Y-15450960D02*
X11220063Y-15708103D01*
X11648634Y-15460484D02*
X11667682Y-15460484D01*
X11667682Y-15460484D02*
X11686729Y-15470008D01*
X11686729Y-15470008D02*
X11696253Y-15479531D01*
X11696253Y-15479531D02*
X11705777Y-15498579D01*
X11705777Y-15498579D02*
X11715301Y-15536674D01*
X11715301Y-15536674D02*
X11715301Y-15584293D01*
X11715301Y-15584293D02*
X11705777Y-15622388D01*
X11705777Y-15622388D02*
X11696253Y-15641436D01*
X11696253Y-15641436D02*
X11686729Y-15650960D01*
X11686729Y-15650960D02*
X11667682Y-15660484D01*
X11667682Y-15660484D02*
X11648634Y-15660484D01*
X11648634Y-15660484D02*
X11629586Y-15650960D01*
X11629586Y-15650960D02*
X11620063Y-15641436D01*
X11620063Y-15641436D02*
X11610539Y-15622388D01*
X11610539Y-15622388D02*
X11601015Y-15584293D01*
X11601015Y-15584293D02*
X11601015Y-15536674D01*
X11601015Y-15536674D02*
X11610539Y-15498579D01*
X11610539Y-15498579D02*
X11620063Y-15479531D01*
X11620063Y-15479531D02*
X11629586Y-15470008D01*
X11629586Y-15470008D02*
X11648634Y-15460484D01*
X11801015Y-15641436D02*
X11810539Y-15650960D01*
X11810539Y-15650960D02*
X11801015Y-15660484D01*
X11801015Y-15660484D02*
X11791491Y-15650960D01*
X11791491Y-15650960D02*
X11801015Y-15641436D01*
X11801015Y-15641436D02*
X11801015Y-15660484D01*
X12001015Y-15660484D02*
X11886729Y-15660484D01*
X11943872Y-15660484D02*
X11943872Y-15460484D01*
X11943872Y-15460484D02*
X11924825Y-15489055D01*
X11924825Y-15489055D02*
X11905777Y-15508103D01*
X11905777Y-15508103D02*
X11886729Y-15517627D01*
X12181967Y-15460484D02*
X12086729Y-15460484D01*
X12086729Y-15460484D02*
X12077206Y-15555722D01*
X12077206Y-15555722D02*
X12086729Y-15546198D01*
X12086729Y-15546198D02*
X12105777Y-15536674D01*
X12105777Y-15536674D02*
X12153396Y-15536674D01*
X12153396Y-15536674D02*
X12172444Y-15546198D01*
X12172444Y-15546198D02*
X12181967Y-15555722D01*
X12181967Y-15555722D02*
X12191491Y-15574769D01*
X12191491Y-15574769D02*
X12191491Y-15622388D01*
X12191491Y-15622388D02*
X12181967Y-15641436D01*
X12181967Y-15641436D02*
X12172444Y-15650960D01*
X12172444Y-15650960D02*
X12153396Y-15660484D01*
X12153396Y-15660484D02*
X12105777Y-15660484D01*
X12105777Y-15660484D02*
X12086729Y-15650960D01*
X12086729Y-15650960D02*
X12077206Y-15641436D01*
X12258158Y-15460484D02*
X12391491Y-15460484D01*
X12391491Y-15460484D02*
X12305777Y-15660484D01*
X12562920Y-15460484D02*
X12467682Y-15460484D01*
X12467682Y-15460484D02*
X12458158Y-15555722D01*
X12458158Y-15555722D02*
X12467682Y-15546198D01*
X12467682Y-15546198D02*
X12486729Y-15536674D01*
X12486729Y-15536674D02*
X12534348Y-15536674D01*
X12534348Y-15536674D02*
X12553396Y-15546198D01*
X12553396Y-15546198D02*
X12562920Y-15555722D01*
X12562920Y-15555722D02*
X12572444Y-15574769D01*
X12572444Y-15574769D02*
X12572444Y-15622388D01*
X12572444Y-15622388D02*
X12562920Y-15641436D01*
X12562920Y-15641436D02*
X12553396Y-15650960D01*
X12553396Y-15650960D02*
X12534348Y-15660484D01*
X12534348Y-15660484D02*
X12486729Y-15660484D01*
X12486729Y-15660484D02*
X12467682Y-15650960D01*
X12467682Y-15650960D02*
X12458158Y-15641436D01*
X12648634Y-15460484D02*
X12648634Y-15498579D01*
X12724825Y-15460484D02*
X12724825Y-15498579D01*
X13020063Y-15736674D02*
X13010539Y-15727150D01*
X13010539Y-15727150D02*
X12991491Y-15698579D01*
X12991491Y-15698579D02*
X12981968Y-15679531D01*
X12981968Y-15679531D02*
X12972444Y-15650960D01*
X12972444Y-15650960D02*
X12962920Y-15603341D01*
X12962920Y-15603341D02*
X12962920Y-15565246D01*
X12962920Y-15565246D02*
X12972444Y-15517627D01*
X12972444Y-15517627D02*
X12981968Y-15489055D01*
X12981968Y-15489055D02*
X12991491Y-15470008D01*
X12991491Y-15470008D02*
X13010539Y-15441436D01*
X13010539Y-15441436D02*
X13020063Y-15431912D01*
X13077206Y-15460484D02*
X13201015Y-15460484D01*
X13201015Y-15460484D02*
X13134348Y-15536674D01*
X13134348Y-15536674D02*
X13162920Y-15536674D01*
X13162920Y-15536674D02*
X13181968Y-15546198D01*
X13181968Y-15546198D02*
X13191491Y-15555722D01*
X13191491Y-15555722D02*
X13201015Y-15574769D01*
X13201015Y-15574769D02*
X13201015Y-15622388D01*
X13201015Y-15622388D02*
X13191491Y-15641436D01*
X13191491Y-15641436D02*
X13181968Y-15650960D01*
X13181968Y-15650960D02*
X13162920Y-15660484D01*
X13162920Y-15660484D02*
X13105777Y-15660484D01*
X13105777Y-15660484D02*
X13086729Y-15650960D01*
X13086729Y-15650960D02*
X13077206Y-15641436D01*
X13439110Y-15660484D02*
X13439110Y-15460484D01*
X13524825Y-15660484D02*
X13524825Y-15555722D01*
X13524825Y-15555722D02*
X13515301Y-15536674D01*
X13515301Y-15536674D02*
X13496253Y-15527150D01*
X13496253Y-15527150D02*
X13467682Y-15527150D01*
X13467682Y-15527150D02*
X13448634Y-15536674D01*
X13448634Y-15536674D02*
X13439110Y-15546198D01*
X13648634Y-15660484D02*
X13629587Y-15650960D01*
X13629587Y-15650960D02*
X13620063Y-15641436D01*
X13620063Y-15641436D02*
X13610539Y-15622388D01*
X13610539Y-15622388D02*
X13610539Y-15565246D01*
X13610539Y-15565246D02*
X13620063Y-15546198D01*
X13620063Y-15546198D02*
X13629587Y-15536674D01*
X13629587Y-15536674D02*
X13648634Y-15527150D01*
X13648634Y-15527150D02*
X13677206Y-15527150D01*
X13677206Y-15527150D02*
X13696253Y-15536674D01*
X13696253Y-15536674D02*
X13705777Y-15546198D01*
X13705777Y-15546198D02*
X13715301Y-15565246D01*
X13715301Y-15565246D02*
X13715301Y-15622388D01*
X13715301Y-15622388D02*
X13705777Y-15641436D01*
X13705777Y-15641436D02*
X13696253Y-15650960D01*
X13696253Y-15650960D02*
X13677206Y-15660484D01*
X13677206Y-15660484D02*
X13648634Y-15660484D01*
X13829587Y-15660484D02*
X13810539Y-15650960D01*
X13810539Y-15650960D02*
X13801015Y-15631912D01*
X13801015Y-15631912D02*
X13801015Y-15460484D01*
X13981968Y-15650960D02*
X13962920Y-15660484D01*
X13962920Y-15660484D02*
X13924825Y-15660484D01*
X13924825Y-15660484D02*
X13905777Y-15650960D01*
X13905777Y-15650960D02*
X13896253Y-15631912D01*
X13896253Y-15631912D02*
X13896253Y-15555722D01*
X13896253Y-15555722D02*
X13905777Y-15536674D01*
X13905777Y-15536674D02*
X13924825Y-15527150D01*
X13924825Y-15527150D02*
X13962920Y-15527150D01*
X13962920Y-15527150D02*
X13981968Y-15536674D01*
X13981968Y-15536674D02*
X13991491Y-15555722D01*
X13991491Y-15555722D02*
X13991491Y-15574769D01*
X13991491Y-15574769D02*
X13896253Y-15593817D01*
X14067682Y-15650960D02*
X14086730Y-15660484D01*
X14086730Y-15660484D02*
X14124825Y-15660484D01*
X14124825Y-15660484D02*
X14143872Y-15650960D01*
X14143872Y-15650960D02*
X14153396Y-15631912D01*
X14153396Y-15631912D02*
X14153396Y-15622388D01*
X14153396Y-15622388D02*
X14143872Y-15603341D01*
X14143872Y-15603341D02*
X14124825Y-15593817D01*
X14124825Y-15593817D02*
X14096253Y-15593817D01*
X14096253Y-15593817D02*
X14077206Y-15584293D01*
X14077206Y-15584293D02*
X14067682Y-15565246D01*
X14067682Y-15565246D02*
X14067682Y-15555722D01*
X14067682Y-15555722D02*
X14077206Y-15536674D01*
X14077206Y-15536674D02*
X14096253Y-15527150D01*
X14096253Y-15527150D02*
X14124825Y-15527150D01*
X14124825Y-15527150D02*
X14143872Y-15536674D01*
X14220063Y-15736674D02*
X14229587Y-15727150D01*
X14229587Y-15727150D02*
X14248634Y-15698579D01*
X14248634Y-15698579D02*
X14258158Y-15679531D01*
X14258158Y-15679531D02*
X14267682Y-15650960D01*
X14267682Y-15650960D02*
X14277206Y-15603341D01*
X14277206Y-15603341D02*
X14277206Y-15565246D01*
X14277206Y-15565246D02*
X14267682Y-15517627D01*
X14267682Y-15517627D02*
X14258158Y-15489055D01*
X14258158Y-15489055D02*
X14248634Y-15470008D01*
X14248634Y-15470008D02*
X14229587Y-15441436D01*
X14229587Y-15441436D02*
X14220063Y-15431912D01*
X14581968Y-15736674D02*
X14572444Y-15727150D01*
X14572444Y-15727150D02*
X14553396Y-15698579D01*
X14553396Y-15698579D02*
X14543872Y-15679531D01*
X14543872Y-15679531D02*
X14534349Y-15650960D01*
X14534349Y-15650960D02*
X14524825Y-15603341D01*
X14524825Y-15603341D02*
X14524825Y-15565246D01*
X14524825Y-15565246D02*
X14534349Y-15517627D01*
X14534349Y-15517627D02*
X14543872Y-15489055D01*
X14543872Y-15489055D02*
X14553396Y-15470008D01*
X14553396Y-15470008D02*
X14572444Y-15441436D01*
X14572444Y-15441436D02*
X14581968Y-15431912D01*
X14658158Y-15527150D02*
X14658158Y-15660484D01*
X14658158Y-15546198D02*
X14667682Y-15536674D01*
X14667682Y-15536674D02*
X14686730Y-15527150D01*
X14686730Y-15527150D02*
X14715301Y-15527150D01*
X14715301Y-15527150D02*
X14734349Y-15536674D01*
X14734349Y-15536674D02*
X14743872Y-15555722D01*
X14743872Y-15555722D02*
X14743872Y-15660484D01*
X14867682Y-15660484D02*
X14848634Y-15650960D01*
X14848634Y-15650960D02*
X14839111Y-15641436D01*
X14839111Y-15641436D02*
X14829587Y-15622388D01*
X14829587Y-15622388D02*
X14829587Y-15565246D01*
X14829587Y-15565246D02*
X14839111Y-15546198D01*
X14839111Y-15546198D02*
X14848634Y-15536674D01*
X14848634Y-15536674D02*
X14867682Y-15527150D01*
X14867682Y-15527150D02*
X14896253Y-15527150D01*
X14896253Y-15527150D02*
X14915301Y-15536674D01*
X14915301Y-15536674D02*
X14924825Y-15546198D01*
X14924825Y-15546198D02*
X14934349Y-15565246D01*
X14934349Y-15565246D02*
X14934349Y-15622388D01*
X14934349Y-15622388D02*
X14924825Y-15641436D01*
X14924825Y-15641436D02*
X14915301Y-15650960D01*
X14915301Y-15650960D02*
X14896253Y-15660484D01*
X14896253Y-15660484D02*
X14867682Y-15660484D01*
X14991492Y-15527150D02*
X15067682Y-15527150D01*
X15020063Y-15460484D02*
X15020063Y-15631912D01*
X15020063Y-15631912D02*
X15029587Y-15650960D01*
X15029587Y-15650960D02*
X15048634Y-15660484D01*
X15048634Y-15660484D02*
X15067682Y-15660484D01*
X15286730Y-15527150D02*
X15286730Y-15727150D01*
X15286730Y-15536674D02*
X15305777Y-15527150D01*
X15305777Y-15527150D02*
X15343873Y-15527150D01*
X15343873Y-15527150D02*
X15362920Y-15536674D01*
X15362920Y-15536674D02*
X15372444Y-15546198D01*
X15372444Y-15546198D02*
X15381968Y-15565246D01*
X15381968Y-15565246D02*
X15381968Y-15622388D01*
X15381968Y-15622388D02*
X15372444Y-15641436D01*
X15372444Y-15641436D02*
X15362920Y-15650960D01*
X15362920Y-15650960D02*
X15343873Y-15660484D01*
X15343873Y-15660484D02*
X15305777Y-15660484D01*
X15305777Y-15660484D02*
X15286730Y-15650960D01*
X15496253Y-15660484D02*
X15477206Y-15650960D01*
X15477206Y-15650960D02*
X15467682Y-15631912D01*
X15467682Y-15631912D02*
X15467682Y-15460484D01*
X15658158Y-15660484D02*
X15658158Y-15555722D01*
X15658158Y-15555722D02*
X15648634Y-15536674D01*
X15648634Y-15536674D02*
X15629587Y-15527150D01*
X15629587Y-15527150D02*
X15591492Y-15527150D01*
X15591492Y-15527150D02*
X15572444Y-15536674D01*
X15658158Y-15650960D02*
X15639111Y-15660484D01*
X15639111Y-15660484D02*
X15591492Y-15660484D01*
X15591492Y-15660484D02*
X15572444Y-15650960D01*
X15572444Y-15650960D02*
X15562920Y-15631912D01*
X15562920Y-15631912D02*
X15562920Y-15612865D01*
X15562920Y-15612865D02*
X15572444Y-15593817D01*
X15572444Y-15593817D02*
X15591492Y-15584293D01*
X15591492Y-15584293D02*
X15639111Y-15584293D01*
X15639111Y-15584293D02*
X15658158Y-15574769D01*
X15724825Y-15527150D02*
X15801015Y-15527150D01*
X15753396Y-15460484D02*
X15753396Y-15631912D01*
X15753396Y-15631912D02*
X15762920Y-15650960D01*
X15762920Y-15650960D02*
X15781968Y-15660484D01*
X15781968Y-15660484D02*
X15801015Y-15660484D01*
X15943873Y-15650960D02*
X15924825Y-15660484D01*
X15924825Y-15660484D02*
X15886730Y-15660484D01*
X15886730Y-15660484D02*
X15867682Y-15650960D01*
X15867682Y-15650960D02*
X15858158Y-15631912D01*
X15858158Y-15631912D02*
X15858158Y-15555722D01*
X15858158Y-15555722D02*
X15867682Y-15536674D01*
X15867682Y-15536674D02*
X15886730Y-15527150D01*
X15886730Y-15527150D02*
X15924825Y-15527150D01*
X15924825Y-15527150D02*
X15943873Y-15536674D01*
X15943873Y-15536674D02*
X15953396Y-15555722D01*
X15953396Y-15555722D02*
X15953396Y-15574769D01*
X15953396Y-15574769D02*
X15858158Y-15593817D01*
X16124825Y-15660484D02*
X16124825Y-15460484D01*
X16124825Y-15650960D02*
X16105777Y-15660484D01*
X16105777Y-15660484D02*
X16067682Y-15660484D01*
X16067682Y-15660484D02*
X16048634Y-15650960D01*
X16048634Y-15650960D02*
X16039111Y-15641436D01*
X16039111Y-15641436D02*
X16029587Y-15622388D01*
X16029587Y-15622388D02*
X16029587Y-15565246D01*
X16029587Y-15565246D02*
X16039111Y-15546198D01*
X16039111Y-15546198D02*
X16048634Y-15536674D01*
X16048634Y-15536674D02*
X16067682Y-15527150D01*
X16067682Y-15527150D02*
X16105777Y-15527150D01*
X16105777Y-15527150D02*
X16124825Y-15536674D01*
X16201015Y-15736674D02*
X16210539Y-15727150D01*
X16210539Y-15727150D02*
X16229587Y-15698579D01*
X16229587Y-15698579D02*
X16239111Y-15679531D01*
X16239111Y-15679531D02*
X16248634Y-15650960D01*
X16248634Y-15650960D02*
X16258158Y-15603341D01*
X16258158Y-15603341D02*
X16258158Y-15565246D01*
X16258158Y-15565246D02*
X16248634Y-15517627D01*
X16248634Y-15517627D02*
X16239111Y-15489055D01*
X16239111Y-15489055D02*
X16229587Y-15470008D01*
X16229587Y-15470008D02*
X16210539Y-15441436D01*
X16210539Y-15441436D02*
X16201015Y-15431912D01*
M02*
