G04 #@! TF.GenerationSoftware,KiCad,Pcbnew,8.0.1*
G04 #@! TF.CreationDate,2025-03-27T22:51:35-07:00*
G04 #@! TF.ProjectId,minidexed,6d696e69-6465-4786-9564-2e6b69636164,rev?*
G04 #@! TF.SameCoordinates,Original*
G04 #@! TF.FileFunction,Profile,NP*
%FSLAX46Y46*%
G04 Gerber Fmt 4.6, Leading zero omitted, Abs format (unit mm)*
G04 Created by KiCad (PCBNEW 8.0.1) date 2025-03-27 22:51:35*
%MOMM*%
%LPD*%
G01*
G04 APERTURE LIST*
G04 #@! TA.AperFunction,Profile*
%ADD10C,0.100000*%
G04 #@! TD*
G04 #@! TA.AperFunction,Profile*
%ADD11C,0.120000*%
G04 #@! TD*
G04 APERTURE END LIST*
D10*
X225250000Y-76000000D02*
X225250000Y-140500000D01*
X94500000Y-140500000D02*
X94500000Y-59000000D01*
X167500000Y-76000000D02*
X225250000Y-76000000D01*
X225250000Y-140500000D02*
X94500000Y-140500000D01*
X94500000Y-59000000D02*
X167500000Y-59000000D01*
X167500000Y-59000000D02*
X167500000Y-76000000D01*
D11*
X109300000Y-67350000D02*
G75*
G02*
X107700000Y-67350000I-800000J0D01*
G01*
X107700000Y-67350000D02*
G75*
G02*
X109300000Y-67350000I800000J0D01*
G01*
X109300000Y-61350000D02*
G75*
G02*
X107700000Y-61350000I-800000J0D01*
G01*
X107700000Y-61350000D02*
G75*
G02*
X109300000Y-61350000I800000J0D01*
G01*
X123300000Y-67350000D02*
G75*
G02*
X121700000Y-67350000I-800000J0D01*
G01*
X121700000Y-67350000D02*
G75*
G02*
X123300000Y-67350000I800000J0D01*
G01*
X123300000Y-61350000D02*
G75*
G02*
X121700000Y-61350000I-800000J0D01*
G01*
X121700000Y-61350000D02*
G75*
G02*
X123300000Y-61350000I800000J0D01*
G01*
X137800000Y-67350000D02*
G75*
G02*
X136200000Y-67350000I-800000J0D01*
G01*
X136200000Y-67350000D02*
G75*
G02*
X137800000Y-67350000I800000J0D01*
G01*
X137800000Y-61350000D02*
G75*
G02*
X136200000Y-61350000I-800000J0D01*
G01*
X136200000Y-61350000D02*
G75*
G02*
X137800000Y-61350000I800000J0D01*
G01*
X153300000Y-61350000D02*
G75*
G02*
X151700000Y-61350000I-800000J0D01*
G01*
X151700000Y-61350000D02*
G75*
G02*
X153300000Y-61350000I800000J0D01*
G01*
X153300000Y-67350000D02*
G75*
G02*
X151700000Y-67350000I-800000J0D01*
G01*
X151700000Y-67350000D02*
G75*
G02*
X153300000Y-67350000I800000J0D01*
G01*
M02*
