%TF.GenerationSoftware,KiCad,Pcbnew,8.0.1*%
%TF.CreationDate,2025-03-27T22:51:32-07:00*%
%TF.ProjectId,minidexed,6d696e69-6465-4786-9564-2e6b69636164,rev?*%
%TF.SameCoordinates,Original*%
%TF.FileFunction,Drillmap*%
%TF.FilePolarity,Positive*%
%FSLAX45Y45*%
G04 Gerber Fmt 4.5, Leading zero omitted, Abs format (unit mm)*
G04 Created by KiCad (PCBNEW 8.0.1) date 2025-03-27 22:51:32*
%MOMM*%
%LPD*%
G01*
G04 APERTURE LIST*
%ADD10C,0.100000*%
%ADD11C,0.120000*%
%ADD12C,0.200000*%
%ADD13C,0.170000*%
%ADD14C,0.270000*%
%ADD15C,0.400000*%
G04 APERTURE END LIST*
D10*
X22525000Y-7600000D02*
X22525000Y-14050000D01*
X9450000Y-14050000D02*
X9450000Y-5900000D01*
X16750000Y-7600000D02*
X22525000Y-7600000D01*
X22525000Y-14050000D02*
X9450000Y-14050000D01*
X9450000Y-5900000D02*
X16750000Y-5900000D01*
X16750000Y-5900000D02*
X16750000Y-7600000D01*
D11*
X10930000Y-6735000D02*
G75*
G02*
X10770000Y-6735000I-80000J0D01*
G01*
X10770000Y-6735000D02*
G75*
G02*
X10930000Y-6735000I80000J0D01*
G01*
X10930000Y-6135000D02*
G75*
G02*
X10770000Y-6135000I-80000J0D01*
G01*
X10770000Y-6135000D02*
G75*
G02*
X10930000Y-6135000I80000J0D01*
G01*
X12330000Y-6735000D02*
G75*
G02*
X12170000Y-6735000I-80000J0D01*
G01*
X12170000Y-6735000D02*
G75*
G02*
X12330000Y-6735000I80000J0D01*
G01*
X12330000Y-6135000D02*
G75*
G02*
X12170000Y-6135000I-80000J0D01*
G01*
X12170000Y-6135000D02*
G75*
G02*
X12330000Y-6135000I80000J0D01*
G01*
X13780000Y-6735000D02*
G75*
G02*
X13620000Y-6735000I-80000J0D01*
G01*
X13620000Y-6735000D02*
G75*
G02*
X13780000Y-6735000I80000J0D01*
G01*
X13780000Y-6135000D02*
G75*
G02*
X13620000Y-6135000I-80000J0D01*
G01*
X13620000Y-6135000D02*
G75*
G02*
X13780000Y-6135000I80000J0D01*
G01*
X15330000Y-6135000D02*
G75*
G02*
X15170000Y-6135000I-80000J0D01*
G01*
X15170000Y-6135000D02*
G75*
G02*
X15330000Y-6135000I80000J0D01*
G01*
X15330000Y-6735000D02*
G75*
G02*
X15170000Y-6735000I-80000J0D01*
G01*
X15170000Y-6735000D02*
G75*
G02*
X15330000Y-6735000I80000J0D01*
G01*
D12*
D13*
X10697000Y-12335000D02*
X10867000Y-12505000D01*
X10867000Y-12335000D02*
X10697000Y-12505000D01*
X11713000Y-12335000D02*
X11883000Y-12505000D01*
X11883000Y-12335000D02*
X11713000Y-12505000D01*
X12982000Y-12335000D02*
X13152000Y-12505000D01*
X13152000Y-12335000D02*
X12982000Y-12505000D01*
X13998000Y-12335000D02*
X14168000Y-12505000D01*
X14168000Y-12335000D02*
X13998000Y-12505000D01*
X15267000Y-12335000D02*
X15437000Y-12505000D01*
X15437000Y-12335000D02*
X15267000Y-12505000D01*
X16283000Y-12335000D02*
X16453000Y-12505000D01*
X16453000Y-12335000D02*
X16283000Y-12505000D01*
D14*
X9925000Y-6270000D02*
G75*
G02*
X9655000Y-6270000I-135000J0D01*
G01*
X9655000Y-6270000D02*
G75*
G02*
X9925000Y-6270000I135000J0D01*
G01*
X9925000Y-13700000D02*
G75*
G02*
X9655000Y-13700000I-135000J0D01*
G01*
X9655000Y-13700000D02*
G75*
G02*
X9925000Y-13700000I135000J0D01*
G01*
X16545000Y-6270000D02*
G75*
G02*
X16275000Y-6270000I-135000J0D01*
G01*
X16275000Y-6270000D02*
G75*
G02*
X16545000Y-6270000I135000J0D01*
G01*
X17396840Y-7889240D02*
G75*
G02*
X17126840Y-7889240I-135000J0D01*
G01*
X17126840Y-7889240D02*
G75*
G02*
X17396840Y-7889240I135000J0D01*
G01*
X17396840Y-13689240D02*
G75*
G02*
X17126840Y-13689240I-135000J0D01*
G01*
X17126840Y-13689240D02*
G75*
G02*
X17396840Y-13689240I135000J0D01*
G01*
X22296840Y-7889240D02*
G75*
G02*
X22026840Y-7889240I-135000J0D01*
G01*
X22026840Y-7889240D02*
G75*
G02*
X22296840Y-7889240I135000J0D01*
G01*
X22296840Y-13689240D02*
G75*
G02*
X22026840Y-13689240I-135000J0D01*
G01*
X22026840Y-13689240D02*
G75*
G02*
X22296840Y-13689240I135000J0D01*
G01*
D15*
X11290000Y-12220000D02*
X11290000Y-12620000D01*
X11090000Y-12420000D02*
X11490000Y-12420000D01*
X13575000Y-12220000D02*
X13575000Y-12620000D01*
X13375000Y-12420000D02*
X13775000Y-12420000D01*
X15860000Y-12220000D02*
X15860000Y-12620000D01*
X15660000Y-12420000D02*
X16060000Y-12420000D01*
D12*
X9705777Y-14366484D02*
X9705777Y-14166484D01*
X9705777Y-14166484D02*
X9753396Y-14166484D01*
X9753396Y-14166484D02*
X9781967Y-14176008D01*
X9781967Y-14176008D02*
X9801015Y-14195055D01*
X9801015Y-14195055D02*
X9810539Y-14214103D01*
X9810539Y-14214103D02*
X9820063Y-14252198D01*
X9820063Y-14252198D02*
X9820063Y-14280769D01*
X9820063Y-14280769D02*
X9810539Y-14318865D01*
X9810539Y-14318865D02*
X9801015Y-14337912D01*
X9801015Y-14337912D02*
X9781967Y-14356960D01*
X9781967Y-14356960D02*
X9753396Y-14366484D01*
X9753396Y-14366484D02*
X9705777Y-14366484D01*
X9905777Y-14366484D02*
X9905777Y-14233150D01*
X9905777Y-14271246D02*
X9915301Y-14252198D01*
X9915301Y-14252198D02*
X9924824Y-14242674D01*
X9924824Y-14242674D02*
X9943872Y-14233150D01*
X9943872Y-14233150D02*
X9962920Y-14233150D01*
X10029586Y-14366484D02*
X10029586Y-14233150D01*
X10029586Y-14166484D02*
X10020063Y-14176008D01*
X10020063Y-14176008D02*
X10029586Y-14185531D01*
X10029586Y-14185531D02*
X10039110Y-14176008D01*
X10039110Y-14176008D02*
X10029586Y-14166484D01*
X10029586Y-14166484D02*
X10029586Y-14185531D01*
X10153396Y-14366484D02*
X10134348Y-14356960D01*
X10134348Y-14356960D02*
X10124824Y-14337912D01*
X10124824Y-14337912D02*
X10124824Y-14166484D01*
X10258158Y-14366484D02*
X10239110Y-14356960D01*
X10239110Y-14356960D02*
X10229586Y-14337912D01*
X10229586Y-14337912D02*
X10229586Y-14166484D01*
X10486729Y-14366484D02*
X10486729Y-14166484D01*
X10486729Y-14166484D02*
X10553396Y-14309341D01*
X10553396Y-14309341D02*
X10620063Y-14166484D01*
X10620063Y-14166484D02*
X10620063Y-14366484D01*
X10801015Y-14366484D02*
X10801015Y-14261722D01*
X10801015Y-14261722D02*
X10791491Y-14242674D01*
X10791491Y-14242674D02*
X10772444Y-14233150D01*
X10772444Y-14233150D02*
X10734348Y-14233150D01*
X10734348Y-14233150D02*
X10715301Y-14242674D01*
X10801015Y-14356960D02*
X10781967Y-14366484D01*
X10781967Y-14366484D02*
X10734348Y-14366484D01*
X10734348Y-14366484D02*
X10715301Y-14356960D01*
X10715301Y-14356960D02*
X10705777Y-14337912D01*
X10705777Y-14337912D02*
X10705777Y-14318865D01*
X10705777Y-14318865D02*
X10715301Y-14299817D01*
X10715301Y-14299817D02*
X10734348Y-14290293D01*
X10734348Y-14290293D02*
X10781967Y-14290293D01*
X10781967Y-14290293D02*
X10801015Y-14280769D01*
X10896253Y-14233150D02*
X10896253Y-14433150D01*
X10896253Y-14242674D02*
X10915301Y-14233150D01*
X10915301Y-14233150D02*
X10953396Y-14233150D01*
X10953396Y-14233150D02*
X10972444Y-14242674D01*
X10972444Y-14242674D02*
X10981967Y-14252198D01*
X10981967Y-14252198D02*
X10991491Y-14271246D01*
X10991491Y-14271246D02*
X10991491Y-14328388D01*
X10991491Y-14328388D02*
X10981967Y-14347436D01*
X10981967Y-14347436D02*
X10972444Y-14356960D01*
X10972444Y-14356960D02*
X10953396Y-14366484D01*
X10953396Y-14366484D02*
X10915301Y-14366484D01*
X10915301Y-14366484D02*
X10896253Y-14356960D01*
X11077205Y-14347436D02*
X11086729Y-14356960D01*
X11086729Y-14356960D02*
X11077205Y-14366484D01*
X11077205Y-14366484D02*
X11067682Y-14356960D01*
X11067682Y-14356960D02*
X11077205Y-14347436D01*
X11077205Y-14347436D02*
X11077205Y-14366484D01*
X11077205Y-14242674D02*
X11086729Y-14252198D01*
X11086729Y-14252198D02*
X11077205Y-14261722D01*
X11077205Y-14261722D02*
X11067682Y-14252198D01*
X11067682Y-14252198D02*
X11077205Y-14242674D01*
X11077205Y-14242674D02*
X11077205Y-14261722D01*
D13*
X9275000Y-14610000D02*
X9445000Y-14780000D01*
X9445000Y-14610000D02*
X9275000Y-14780000D01*
D12*
X9810539Y-14786484D02*
X9696253Y-14786484D01*
X9753396Y-14786484D02*
X9753396Y-14586484D01*
X9753396Y-14586484D02*
X9734348Y-14615055D01*
X9734348Y-14615055D02*
X9715301Y-14634103D01*
X9715301Y-14634103D02*
X9696253Y-14643627D01*
X9896253Y-14767436D02*
X9905777Y-14776960D01*
X9905777Y-14776960D02*
X9896253Y-14786484D01*
X9896253Y-14786484D02*
X9886729Y-14776960D01*
X9886729Y-14776960D02*
X9896253Y-14767436D01*
X9896253Y-14767436D02*
X9896253Y-14786484D01*
X9972444Y-14586484D02*
X10105777Y-14586484D01*
X10105777Y-14586484D02*
X10020063Y-14786484D01*
X10220063Y-14586484D02*
X10239110Y-14586484D01*
X10239110Y-14586484D02*
X10258158Y-14596008D01*
X10258158Y-14596008D02*
X10267682Y-14605531D01*
X10267682Y-14605531D02*
X10277205Y-14624579D01*
X10277205Y-14624579D02*
X10286729Y-14662674D01*
X10286729Y-14662674D02*
X10286729Y-14710293D01*
X10286729Y-14710293D02*
X10277205Y-14748388D01*
X10277205Y-14748388D02*
X10267682Y-14767436D01*
X10267682Y-14767436D02*
X10258158Y-14776960D01*
X10258158Y-14776960D02*
X10239110Y-14786484D01*
X10239110Y-14786484D02*
X10220063Y-14786484D01*
X10220063Y-14786484D02*
X10201015Y-14776960D01*
X10201015Y-14776960D02*
X10191491Y-14767436D01*
X10191491Y-14767436D02*
X10181967Y-14748388D01*
X10181967Y-14748388D02*
X10172444Y-14710293D01*
X10172444Y-14710293D02*
X10172444Y-14662674D01*
X10172444Y-14662674D02*
X10181967Y-14624579D01*
X10181967Y-14624579D02*
X10191491Y-14605531D01*
X10191491Y-14605531D02*
X10201015Y-14596008D01*
X10201015Y-14596008D02*
X10220063Y-14586484D01*
X10410539Y-14586484D02*
X10429586Y-14586484D01*
X10429586Y-14586484D02*
X10448634Y-14596008D01*
X10448634Y-14596008D02*
X10458158Y-14605531D01*
X10458158Y-14605531D02*
X10467682Y-14624579D01*
X10467682Y-14624579D02*
X10477205Y-14662674D01*
X10477205Y-14662674D02*
X10477205Y-14710293D01*
X10477205Y-14710293D02*
X10467682Y-14748388D01*
X10467682Y-14748388D02*
X10458158Y-14767436D01*
X10458158Y-14767436D02*
X10448634Y-14776960D01*
X10448634Y-14776960D02*
X10429586Y-14786484D01*
X10429586Y-14786484D02*
X10410539Y-14786484D01*
X10410539Y-14786484D02*
X10391491Y-14776960D01*
X10391491Y-14776960D02*
X10381967Y-14767436D01*
X10381967Y-14767436D02*
X10372444Y-14748388D01*
X10372444Y-14748388D02*
X10362920Y-14710293D01*
X10362920Y-14710293D02*
X10362920Y-14662674D01*
X10362920Y-14662674D02*
X10372444Y-14624579D01*
X10372444Y-14624579D02*
X10381967Y-14605531D01*
X10381967Y-14605531D02*
X10391491Y-14596008D01*
X10391491Y-14596008D02*
X10410539Y-14586484D01*
X10562920Y-14786484D02*
X10562920Y-14653150D01*
X10562920Y-14672198D02*
X10572444Y-14662674D01*
X10572444Y-14662674D02*
X10591491Y-14653150D01*
X10591491Y-14653150D02*
X10620063Y-14653150D01*
X10620063Y-14653150D02*
X10639110Y-14662674D01*
X10639110Y-14662674D02*
X10648634Y-14681722D01*
X10648634Y-14681722D02*
X10648634Y-14786484D01*
X10648634Y-14681722D02*
X10658158Y-14662674D01*
X10658158Y-14662674D02*
X10677205Y-14653150D01*
X10677205Y-14653150D02*
X10705777Y-14653150D01*
X10705777Y-14653150D02*
X10724825Y-14662674D01*
X10724825Y-14662674D02*
X10734348Y-14681722D01*
X10734348Y-14681722D02*
X10734348Y-14786484D01*
X10829586Y-14786484D02*
X10829586Y-14653150D01*
X10829586Y-14672198D02*
X10839110Y-14662674D01*
X10839110Y-14662674D02*
X10858158Y-14653150D01*
X10858158Y-14653150D02*
X10886729Y-14653150D01*
X10886729Y-14653150D02*
X10905777Y-14662674D01*
X10905777Y-14662674D02*
X10915301Y-14681722D01*
X10915301Y-14681722D02*
X10915301Y-14786484D01*
X10915301Y-14681722D02*
X10924825Y-14662674D01*
X10924825Y-14662674D02*
X10943872Y-14653150D01*
X10943872Y-14653150D02*
X10972444Y-14653150D01*
X10972444Y-14653150D02*
X10991491Y-14662674D01*
X10991491Y-14662674D02*
X11001015Y-14681722D01*
X11001015Y-14681722D02*
X11001015Y-14786484D01*
X11391491Y-14576960D02*
X11220063Y-14834103D01*
X11648634Y-14586484D02*
X11667682Y-14586484D01*
X11667682Y-14586484D02*
X11686729Y-14596008D01*
X11686729Y-14596008D02*
X11696253Y-14605531D01*
X11696253Y-14605531D02*
X11705777Y-14624579D01*
X11705777Y-14624579D02*
X11715301Y-14662674D01*
X11715301Y-14662674D02*
X11715301Y-14710293D01*
X11715301Y-14710293D02*
X11705777Y-14748388D01*
X11705777Y-14748388D02*
X11696253Y-14767436D01*
X11696253Y-14767436D02*
X11686729Y-14776960D01*
X11686729Y-14776960D02*
X11667682Y-14786484D01*
X11667682Y-14786484D02*
X11648634Y-14786484D01*
X11648634Y-14786484D02*
X11629586Y-14776960D01*
X11629586Y-14776960D02*
X11620063Y-14767436D01*
X11620063Y-14767436D02*
X11610539Y-14748388D01*
X11610539Y-14748388D02*
X11601015Y-14710293D01*
X11601015Y-14710293D02*
X11601015Y-14662674D01*
X11601015Y-14662674D02*
X11610539Y-14624579D01*
X11610539Y-14624579D02*
X11620063Y-14605531D01*
X11620063Y-14605531D02*
X11629586Y-14596008D01*
X11629586Y-14596008D02*
X11648634Y-14586484D01*
X11801015Y-14767436D02*
X11810539Y-14776960D01*
X11810539Y-14776960D02*
X11801015Y-14786484D01*
X11801015Y-14786484D02*
X11791491Y-14776960D01*
X11791491Y-14776960D02*
X11801015Y-14767436D01*
X11801015Y-14767436D02*
X11801015Y-14786484D01*
X11934348Y-14586484D02*
X11953396Y-14586484D01*
X11953396Y-14586484D02*
X11972444Y-14596008D01*
X11972444Y-14596008D02*
X11981967Y-14605531D01*
X11981967Y-14605531D02*
X11991491Y-14624579D01*
X11991491Y-14624579D02*
X12001015Y-14662674D01*
X12001015Y-14662674D02*
X12001015Y-14710293D01*
X12001015Y-14710293D02*
X11991491Y-14748388D01*
X11991491Y-14748388D02*
X11981967Y-14767436D01*
X11981967Y-14767436D02*
X11972444Y-14776960D01*
X11972444Y-14776960D02*
X11953396Y-14786484D01*
X11953396Y-14786484D02*
X11934348Y-14786484D01*
X11934348Y-14786484D02*
X11915301Y-14776960D01*
X11915301Y-14776960D02*
X11905777Y-14767436D01*
X11905777Y-14767436D02*
X11896253Y-14748388D01*
X11896253Y-14748388D02*
X11886729Y-14710293D01*
X11886729Y-14710293D02*
X11886729Y-14662674D01*
X11886729Y-14662674D02*
X11896253Y-14624579D01*
X11896253Y-14624579D02*
X11905777Y-14605531D01*
X11905777Y-14605531D02*
X11915301Y-14596008D01*
X11915301Y-14596008D02*
X11934348Y-14586484D01*
X12172444Y-14586484D02*
X12134348Y-14586484D01*
X12134348Y-14586484D02*
X12115301Y-14596008D01*
X12115301Y-14596008D02*
X12105777Y-14605531D01*
X12105777Y-14605531D02*
X12086729Y-14634103D01*
X12086729Y-14634103D02*
X12077206Y-14672198D01*
X12077206Y-14672198D02*
X12077206Y-14748388D01*
X12077206Y-14748388D02*
X12086729Y-14767436D01*
X12086729Y-14767436D02*
X12096253Y-14776960D01*
X12096253Y-14776960D02*
X12115301Y-14786484D01*
X12115301Y-14786484D02*
X12153396Y-14786484D01*
X12153396Y-14786484D02*
X12172444Y-14776960D01*
X12172444Y-14776960D02*
X12181967Y-14767436D01*
X12181967Y-14767436D02*
X12191491Y-14748388D01*
X12191491Y-14748388D02*
X12191491Y-14700769D01*
X12191491Y-14700769D02*
X12181967Y-14681722D01*
X12181967Y-14681722D02*
X12172444Y-14672198D01*
X12172444Y-14672198D02*
X12153396Y-14662674D01*
X12153396Y-14662674D02*
X12115301Y-14662674D01*
X12115301Y-14662674D02*
X12096253Y-14672198D01*
X12096253Y-14672198D02*
X12086729Y-14681722D01*
X12086729Y-14681722D02*
X12077206Y-14700769D01*
X12362920Y-14586484D02*
X12324825Y-14586484D01*
X12324825Y-14586484D02*
X12305777Y-14596008D01*
X12305777Y-14596008D02*
X12296253Y-14605531D01*
X12296253Y-14605531D02*
X12277206Y-14634103D01*
X12277206Y-14634103D02*
X12267682Y-14672198D01*
X12267682Y-14672198D02*
X12267682Y-14748388D01*
X12267682Y-14748388D02*
X12277206Y-14767436D01*
X12277206Y-14767436D02*
X12286729Y-14776960D01*
X12286729Y-14776960D02*
X12305777Y-14786484D01*
X12305777Y-14786484D02*
X12343872Y-14786484D01*
X12343872Y-14786484D02*
X12362920Y-14776960D01*
X12362920Y-14776960D02*
X12372444Y-14767436D01*
X12372444Y-14767436D02*
X12381967Y-14748388D01*
X12381967Y-14748388D02*
X12381967Y-14700769D01*
X12381967Y-14700769D02*
X12372444Y-14681722D01*
X12372444Y-14681722D02*
X12362920Y-14672198D01*
X12362920Y-14672198D02*
X12343872Y-14662674D01*
X12343872Y-14662674D02*
X12305777Y-14662674D01*
X12305777Y-14662674D02*
X12286729Y-14672198D01*
X12286729Y-14672198D02*
X12277206Y-14681722D01*
X12277206Y-14681722D02*
X12267682Y-14700769D01*
X12477206Y-14786484D02*
X12515301Y-14786484D01*
X12515301Y-14786484D02*
X12534348Y-14776960D01*
X12534348Y-14776960D02*
X12543872Y-14767436D01*
X12543872Y-14767436D02*
X12562920Y-14738865D01*
X12562920Y-14738865D02*
X12572444Y-14700769D01*
X12572444Y-14700769D02*
X12572444Y-14624579D01*
X12572444Y-14624579D02*
X12562920Y-14605531D01*
X12562920Y-14605531D02*
X12553396Y-14596008D01*
X12553396Y-14596008D02*
X12534348Y-14586484D01*
X12534348Y-14586484D02*
X12496253Y-14586484D01*
X12496253Y-14586484D02*
X12477206Y-14596008D01*
X12477206Y-14596008D02*
X12467682Y-14605531D01*
X12467682Y-14605531D02*
X12458158Y-14624579D01*
X12458158Y-14624579D02*
X12458158Y-14672198D01*
X12458158Y-14672198D02*
X12467682Y-14691246D01*
X12467682Y-14691246D02*
X12477206Y-14700769D01*
X12477206Y-14700769D02*
X12496253Y-14710293D01*
X12496253Y-14710293D02*
X12534348Y-14710293D01*
X12534348Y-14710293D02*
X12553396Y-14700769D01*
X12553396Y-14700769D02*
X12562920Y-14691246D01*
X12562920Y-14691246D02*
X12572444Y-14672198D01*
X12648634Y-14586484D02*
X12648634Y-14624579D01*
X12724825Y-14586484D02*
X12724825Y-14624579D01*
X13020063Y-14862674D02*
X13010539Y-14853150D01*
X13010539Y-14853150D02*
X12991491Y-14824579D01*
X12991491Y-14824579D02*
X12981968Y-14805531D01*
X12981968Y-14805531D02*
X12972444Y-14776960D01*
X12972444Y-14776960D02*
X12962920Y-14729341D01*
X12962920Y-14729341D02*
X12962920Y-14691246D01*
X12962920Y-14691246D02*
X12972444Y-14643627D01*
X12972444Y-14643627D02*
X12981968Y-14615055D01*
X12981968Y-14615055D02*
X12991491Y-14596008D01*
X12991491Y-14596008D02*
X13010539Y-14567436D01*
X13010539Y-14567436D02*
X13020063Y-14557912D01*
X13181968Y-14586484D02*
X13143872Y-14586484D01*
X13143872Y-14586484D02*
X13124825Y-14596008D01*
X13124825Y-14596008D02*
X13115301Y-14605531D01*
X13115301Y-14605531D02*
X13096253Y-14634103D01*
X13096253Y-14634103D02*
X13086729Y-14672198D01*
X13086729Y-14672198D02*
X13086729Y-14748388D01*
X13086729Y-14748388D02*
X13096253Y-14767436D01*
X13096253Y-14767436D02*
X13105777Y-14776960D01*
X13105777Y-14776960D02*
X13124825Y-14786484D01*
X13124825Y-14786484D02*
X13162920Y-14786484D01*
X13162920Y-14786484D02*
X13181968Y-14776960D01*
X13181968Y-14776960D02*
X13191491Y-14767436D01*
X13191491Y-14767436D02*
X13201015Y-14748388D01*
X13201015Y-14748388D02*
X13201015Y-14700769D01*
X13201015Y-14700769D02*
X13191491Y-14681722D01*
X13191491Y-14681722D02*
X13181968Y-14672198D01*
X13181968Y-14672198D02*
X13162920Y-14662674D01*
X13162920Y-14662674D02*
X13124825Y-14662674D01*
X13124825Y-14662674D02*
X13105777Y-14672198D01*
X13105777Y-14672198D02*
X13096253Y-14681722D01*
X13096253Y-14681722D02*
X13086729Y-14700769D01*
X13439110Y-14786484D02*
X13439110Y-14586484D01*
X13524825Y-14786484D02*
X13524825Y-14681722D01*
X13524825Y-14681722D02*
X13515301Y-14662674D01*
X13515301Y-14662674D02*
X13496253Y-14653150D01*
X13496253Y-14653150D02*
X13467682Y-14653150D01*
X13467682Y-14653150D02*
X13448634Y-14662674D01*
X13448634Y-14662674D02*
X13439110Y-14672198D01*
X13648634Y-14786484D02*
X13629587Y-14776960D01*
X13629587Y-14776960D02*
X13620063Y-14767436D01*
X13620063Y-14767436D02*
X13610539Y-14748388D01*
X13610539Y-14748388D02*
X13610539Y-14691246D01*
X13610539Y-14691246D02*
X13620063Y-14672198D01*
X13620063Y-14672198D02*
X13629587Y-14662674D01*
X13629587Y-14662674D02*
X13648634Y-14653150D01*
X13648634Y-14653150D02*
X13677206Y-14653150D01*
X13677206Y-14653150D02*
X13696253Y-14662674D01*
X13696253Y-14662674D02*
X13705777Y-14672198D01*
X13705777Y-14672198D02*
X13715301Y-14691246D01*
X13715301Y-14691246D02*
X13715301Y-14748388D01*
X13715301Y-14748388D02*
X13705777Y-14767436D01*
X13705777Y-14767436D02*
X13696253Y-14776960D01*
X13696253Y-14776960D02*
X13677206Y-14786484D01*
X13677206Y-14786484D02*
X13648634Y-14786484D01*
X13829587Y-14786484D02*
X13810539Y-14776960D01*
X13810539Y-14776960D02*
X13801015Y-14757912D01*
X13801015Y-14757912D02*
X13801015Y-14586484D01*
X13981968Y-14776960D02*
X13962920Y-14786484D01*
X13962920Y-14786484D02*
X13924825Y-14786484D01*
X13924825Y-14786484D02*
X13905777Y-14776960D01*
X13905777Y-14776960D02*
X13896253Y-14757912D01*
X13896253Y-14757912D02*
X13896253Y-14681722D01*
X13896253Y-14681722D02*
X13905777Y-14662674D01*
X13905777Y-14662674D02*
X13924825Y-14653150D01*
X13924825Y-14653150D02*
X13962920Y-14653150D01*
X13962920Y-14653150D02*
X13981968Y-14662674D01*
X13981968Y-14662674D02*
X13991491Y-14681722D01*
X13991491Y-14681722D02*
X13991491Y-14700769D01*
X13991491Y-14700769D02*
X13896253Y-14719817D01*
X14067682Y-14776960D02*
X14086730Y-14786484D01*
X14086730Y-14786484D02*
X14124825Y-14786484D01*
X14124825Y-14786484D02*
X14143872Y-14776960D01*
X14143872Y-14776960D02*
X14153396Y-14757912D01*
X14153396Y-14757912D02*
X14153396Y-14748388D01*
X14153396Y-14748388D02*
X14143872Y-14729341D01*
X14143872Y-14729341D02*
X14124825Y-14719817D01*
X14124825Y-14719817D02*
X14096253Y-14719817D01*
X14096253Y-14719817D02*
X14077206Y-14710293D01*
X14077206Y-14710293D02*
X14067682Y-14691246D01*
X14067682Y-14691246D02*
X14067682Y-14681722D01*
X14067682Y-14681722D02*
X14077206Y-14662674D01*
X14077206Y-14662674D02*
X14096253Y-14653150D01*
X14096253Y-14653150D02*
X14124825Y-14653150D01*
X14124825Y-14653150D02*
X14143872Y-14662674D01*
X14220063Y-14862674D02*
X14229587Y-14853150D01*
X14229587Y-14853150D02*
X14248634Y-14824579D01*
X14248634Y-14824579D02*
X14258158Y-14805531D01*
X14258158Y-14805531D02*
X14267682Y-14776960D01*
X14267682Y-14776960D02*
X14277206Y-14729341D01*
X14277206Y-14729341D02*
X14277206Y-14691246D01*
X14277206Y-14691246D02*
X14267682Y-14643627D01*
X14267682Y-14643627D02*
X14258158Y-14615055D01*
X14258158Y-14615055D02*
X14248634Y-14596008D01*
X14248634Y-14596008D02*
X14229587Y-14567436D01*
X14229587Y-14567436D02*
X14220063Y-14557912D01*
X14581968Y-14862674D02*
X14572444Y-14853150D01*
X14572444Y-14853150D02*
X14553396Y-14824579D01*
X14553396Y-14824579D02*
X14543872Y-14805531D01*
X14543872Y-14805531D02*
X14534349Y-14776960D01*
X14534349Y-14776960D02*
X14524825Y-14729341D01*
X14524825Y-14729341D02*
X14524825Y-14691246D01*
X14524825Y-14691246D02*
X14534349Y-14643627D01*
X14534349Y-14643627D02*
X14543872Y-14615055D01*
X14543872Y-14615055D02*
X14553396Y-14596008D01*
X14553396Y-14596008D02*
X14572444Y-14567436D01*
X14572444Y-14567436D02*
X14581968Y-14557912D01*
X14658158Y-14653150D02*
X14658158Y-14786484D01*
X14658158Y-14672198D02*
X14667682Y-14662674D01*
X14667682Y-14662674D02*
X14686730Y-14653150D01*
X14686730Y-14653150D02*
X14715301Y-14653150D01*
X14715301Y-14653150D02*
X14734349Y-14662674D01*
X14734349Y-14662674D02*
X14743872Y-14681722D01*
X14743872Y-14681722D02*
X14743872Y-14786484D01*
X14867682Y-14786484D02*
X14848634Y-14776960D01*
X14848634Y-14776960D02*
X14839111Y-14767436D01*
X14839111Y-14767436D02*
X14829587Y-14748388D01*
X14829587Y-14748388D02*
X14829587Y-14691246D01*
X14829587Y-14691246D02*
X14839111Y-14672198D01*
X14839111Y-14672198D02*
X14848634Y-14662674D01*
X14848634Y-14662674D02*
X14867682Y-14653150D01*
X14867682Y-14653150D02*
X14896253Y-14653150D01*
X14896253Y-14653150D02*
X14915301Y-14662674D01*
X14915301Y-14662674D02*
X14924825Y-14672198D01*
X14924825Y-14672198D02*
X14934349Y-14691246D01*
X14934349Y-14691246D02*
X14934349Y-14748388D01*
X14934349Y-14748388D02*
X14924825Y-14767436D01*
X14924825Y-14767436D02*
X14915301Y-14776960D01*
X14915301Y-14776960D02*
X14896253Y-14786484D01*
X14896253Y-14786484D02*
X14867682Y-14786484D01*
X14991492Y-14653150D02*
X15067682Y-14653150D01*
X15020063Y-14586484D02*
X15020063Y-14757912D01*
X15020063Y-14757912D02*
X15029587Y-14776960D01*
X15029587Y-14776960D02*
X15048634Y-14786484D01*
X15048634Y-14786484D02*
X15067682Y-14786484D01*
X15286730Y-14653150D02*
X15286730Y-14853150D01*
X15286730Y-14662674D02*
X15305777Y-14653150D01*
X15305777Y-14653150D02*
X15343873Y-14653150D01*
X15343873Y-14653150D02*
X15362920Y-14662674D01*
X15362920Y-14662674D02*
X15372444Y-14672198D01*
X15372444Y-14672198D02*
X15381968Y-14691246D01*
X15381968Y-14691246D02*
X15381968Y-14748388D01*
X15381968Y-14748388D02*
X15372444Y-14767436D01*
X15372444Y-14767436D02*
X15362920Y-14776960D01*
X15362920Y-14776960D02*
X15343873Y-14786484D01*
X15343873Y-14786484D02*
X15305777Y-14786484D01*
X15305777Y-14786484D02*
X15286730Y-14776960D01*
X15496253Y-14786484D02*
X15477206Y-14776960D01*
X15477206Y-14776960D02*
X15467682Y-14757912D01*
X15467682Y-14757912D02*
X15467682Y-14586484D01*
X15658158Y-14786484D02*
X15658158Y-14681722D01*
X15658158Y-14681722D02*
X15648634Y-14662674D01*
X15648634Y-14662674D02*
X15629587Y-14653150D01*
X15629587Y-14653150D02*
X15591492Y-14653150D01*
X15591492Y-14653150D02*
X15572444Y-14662674D01*
X15658158Y-14776960D02*
X15639111Y-14786484D01*
X15639111Y-14786484D02*
X15591492Y-14786484D01*
X15591492Y-14786484D02*
X15572444Y-14776960D01*
X15572444Y-14776960D02*
X15562920Y-14757912D01*
X15562920Y-14757912D02*
X15562920Y-14738865D01*
X15562920Y-14738865D02*
X15572444Y-14719817D01*
X15572444Y-14719817D02*
X15591492Y-14710293D01*
X15591492Y-14710293D02*
X15639111Y-14710293D01*
X15639111Y-14710293D02*
X15658158Y-14700769D01*
X15724825Y-14653150D02*
X15801015Y-14653150D01*
X15753396Y-14586484D02*
X15753396Y-14757912D01*
X15753396Y-14757912D02*
X15762920Y-14776960D01*
X15762920Y-14776960D02*
X15781968Y-14786484D01*
X15781968Y-14786484D02*
X15801015Y-14786484D01*
X15943873Y-14776960D02*
X15924825Y-14786484D01*
X15924825Y-14786484D02*
X15886730Y-14786484D01*
X15886730Y-14786484D02*
X15867682Y-14776960D01*
X15867682Y-14776960D02*
X15858158Y-14757912D01*
X15858158Y-14757912D02*
X15858158Y-14681722D01*
X15858158Y-14681722D02*
X15867682Y-14662674D01*
X15867682Y-14662674D02*
X15886730Y-14653150D01*
X15886730Y-14653150D02*
X15924825Y-14653150D01*
X15924825Y-14653150D02*
X15943873Y-14662674D01*
X15943873Y-14662674D02*
X15953396Y-14681722D01*
X15953396Y-14681722D02*
X15953396Y-14700769D01*
X15953396Y-14700769D02*
X15858158Y-14719817D01*
X16124825Y-14786484D02*
X16124825Y-14586484D01*
X16124825Y-14776960D02*
X16105777Y-14786484D01*
X16105777Y-14786484D02*
X16067682Y-14786484D01*
X16067682Y-14786484D02*
X16048634Y-14776960D01*
X16048634Y-14776960D02*
X16039111Y-14767436D01*
X16039111Y-14767436D02*
X16029587Y-14748388D01*
X16029587Y-14748388D02*
X16029587Y-14691246D01*
X16029587Y-14691246D02*
X16039111Y-14672198D01*
X16039111Y-14672198D02*
X16048634Y-14662674D01*
X16048634Y-14662674D02*
X16067682Y-14653150D01*
X16067682Y-14653150D02*
X16105777Y-14653150D01*
X16105777Y-14653150D02*
X16124825Y-14662674D01*
X16201015Y-14862674D02*
X16210539Y-14853150D01*
X16210539Y-14853150D02*
X16229587Y-14824579D01*
X16229587Y-14824579D02*
X16239111Y-14805531D01*
X16239111Y-14805531D02*
X16248634Y-14776960D01*
X16248634Y-14776960D02*
X16258158Y-14729341D01*
X16258158Y-14729341D02*
X16258158Y-14691246D01*
X16258158Y-14691246D02*
X16248634Y-14643627D01*
X16248634Y-14643627D02*
X16239111Y-14615055D01*
X16239111Y-14615055D02*
X16229587Y-14596008D01*
X16229587Y-14596008D02*
X16210539Y-14567436D01*
X16210539Y-14567436D02*
X16201015Y-14557912D01*
X9445000Y-14985000D02*
G75*
G02*
X9245000Y-14985000I-100000J0D01*
G01*
X9245000Y-14985000D02*
G75*
G02*
X9445000Y-14985000I100000J0D01*
G01*
X9696253Y-14895531D02*
X9705777Y-14886008D01*
X9705777Y-14886008D02*
X9724824Y-14876484D01*
X9724824Y-14876484D02*
X9772444Y-14876484D01*
X9772444Y-14876484D02*
X9791491Y-14886008D01*
X9791491Y-14886008D02*
X9801015Y-14895531D01*
X9801015Y-14895531D02*
X9810539Y-14914579D01*
X9810539Y-14914579D02*
X9810539Y-14933627D01*
X9810539Y-14933627D02*
X9801015Y-14962198D01*
X9801015Y-14962198D02*
X9686729Y-15076484D01*
X9686729Y-15076484D02*
X9810539Y-15076484D01*
X9896253Y-15057436D02*
X9905777Y-15066960D01*
X9905777Y-15066960D02*
X9896253Y-15076484D01*
X9896253Y-15076484D02*
X9886729Y-15066960D01*
X9886729Y-15066960D02*
X9896253Y-15057436D01*
X9896253Y-15057436D02*
X9896253Y-15076484D01*
X9972444Y-14876484D02*
X10105777Y-14876484D01*
X10105777Y-14876484D02*
X10020063Y-15076484D01*
X10220063Y-14876484D02*
X10239110Y-14876484D01*
X10239110Y-14876484D02*
X10258158Y-14886008D01*
X10258158Y-14886008D02*
X10267682Y-14895531D01*
X10267682Y-14895531D02*
X10277205Y-14914579D01*
X10277205Y-14914579D02*
X10286729Y-14952674D01*
X10286729Y-14952674D02*
X10286729Y-15000293D01*
X10286729Y-15000293D02*
X10277205Y-15038388D01*
X10277205Y-15038388D02*
X10267682Y-15057436D01*
X10267682Y-15057436D02*
X10258158Y-15066960D01*
X10258158Y-15066960D02*
X10239110Y-15076484D01*
X10239110Y-15076484D02*
X10220063Y-15076484D01*
X10220063Y-15076484D02*
X10201015Y-15066960D01*
X10201015Y-15066960D02*
X10191491Y-15057436D01*
X10191491Y-15057436D02*
X10181967Y-15038388D01*
X10181967Y-15038388D02*
X10172444Y-15000293D01*
X10172444Y-15000293D02*
X10172444Y-14952674D01*
X10172444Y-14952674D02*
X10181967Y-14914579D01*
X10181967Y-14914579D02*
X10191491Y-14895531D01*
X10191491Y-14895531D02*
X10201015Y-14886008D01*
X10201015Y-14886008D02*
X10220063Y-14876484D01*
X10410539Y-14876484D02*
X10429586Y-14876484D01*
X10429586Y-14876484D02*
X10448634Y-14886008D01*
X10448634Y-14886008D02*
X10458158Y-14895531D01*
X10458158Y-14895531D02*
X10467682Y-14914579D01*
X10467682Y-14914579D02*
X10477205Y-14952674D01*
X10477205Y-14952674D02*
X10477205Y-15000293D01*
X10477205Y-15000293D02*
X10467682Y-15038388D01*
X10467682Y-15038388D02*
X10458158Y-15057436D01*
X10458158Y-15057436D02*
X10448634Y-15066960D01*
X10448634Y-15066960D02*
X10429586Y-15076484D01*
X10429586Y-15076484D02*
X10410539Y-15076484D01*
X10410539Y-15076484D02*
X10391491Y-15066960D01*
X10391491Y-15066960D02*
X10381967Y-15057436D01*
X10381967Y-15057436D02*
X10372444Y-15038388D01*
X10372444Y-15038388D02*
X10362920Y-15000293D01*
X10362920Y-15000293D02*
X10362920Y-14952674D01*
X10362920Y-14952674D02*
X10372444Y-14914579D01*
X10372444Y-14914579D02*
X10381967Y-14895531D01*
X10381967Y-14895531D02*
X10391491Y-14886008D01*
X10391491Y-14886008D02*
X10410539Y-14876484D01*
X10562920Y-15076484D02*
X10562920Y-14943150D01*
X10562920Y-14962198D02*
X10572444Y-14952674D01*
X10572444Y-14952674D02*
X10591491Y-14943150D01*
X10591491Y-14943150D02*
X10620063Y-14943150D01*
X10620063Y-14943150D02*
X10639110Y-14952674D01*
X10639110Y-14952674D02*
X10648634Y-14971722D01*
X10648634Y-14971722D02*
X10648634Y-15076484D01*
X10648634Y-14971722D02*
X10658158Y-14952674D01*
X10658158Y-14952674D02*
X10677205Y-14943150D01*
X10677205Y-14943150D02*
X10705777Y-14943150D01*
X10705777Y-14943150D02*
X10724825Y-14952674D01*
X10724825Y-14952674D02*
X10734348Y-14971722D01*
X10734348Y-14971722D02*
X10734348Y-15076484D01*
X10829586Y-15076484D02*
X10829586Y-14943150D01*
X10829586Y-14962198D02*
X10839110Y-14952674D01*
X10839110Y-14952674D02*
X10858158Y-14943150D01*
X10858158Y-14943150D02*
X10886729Y-14943150D01*
X10886729Y-14943150D02*
X10905777Y-14952674D01*
X10905777Y-14952674D02*
X10915301Y-14971722D01*
X10915301Y-14971722D02*
X10915301Y-15076484D01*
X10915301Y-14971722D02*
X10924825Y-14952674D01*
X10924825Y-14952674D02*
X10943872Y-14943150D01*
X10943872Y-14943150D02*
X10972444Y-14943150D01*
X10972444Y-14943150D02*
X10991491Y-14952674D01*
X10991491Y-14952674D02*
X11001015Y-14971722D01*
X11001015Y-14971722D02*
X11001015Y-15076484D01*
X11391491Y-14866960D02*
X11220063Y-15124103D01*
X11648634Y-14876484D02*
X11667682Y-14876484D01*
X11667682Y-14876484D02*
X11686729Y-14886008D01*
X11686729Y-14886008D02*
X11696253Y-14895531D01*
X11696253Y-14895531D02*
X11705777Y-14914579D01*
X11705777Y-14914579D02*
X11715301Y-14952674D01*
X11715301Y-14952674D02*
X11715301Y-15000293D01*
X11715301Y-15000293D02*
X11705777Y-15038388D01*
X11705777Y-15038388D02*
X11696253Y-15057436D01*
X11696253Y-15057436D02*
X11686729Y-15066960D01*
X11686729Y-15066960D02*
X11667682Y-15076484D01*
X11667682Y-15076484D02*
X11648634Y-15076484D01*
X11648634Y-15076484D02*
X11629586Y-15066960D01*
X11629586Y-15066960D02*
X11620063Y-15057436D01*
X11620063Y-15057436D02*
X11610539Y-15038388D01*
X11610539Y-15038388D02*
X11601015Y-15000293D01*
X11601015Y-15000293D02*
X11601015Y-14952674D01*
X11601015Y-14952674D02*
X11610539Y-14914579D01*
X11610539Y-14914579D02*
X11620063Y-14895531D01*
X11620063Y-14895531D02*
X11629586Y-14886008D01*
X11629586Y-14886008D02*
X11648634Y-14876484D01*
X11801015Y-15057436D02*
X11810539Y-15066960D01*
X11810539Y-15066960D02*
X11801015Y-15076484D01*
X11801015Y-15076484D02*
X11791491Y-15066960D01*
X11791491Y-15066960D02*
X11801015Y-15057436D01*
X11801015Y-15057436D02*
X11801015Y-15076484D01*
X12001015Y-15076484D02*
X11886729Y-15076484D01*
X11943872Y-15076484D02*
X11943872Y-14876484D01*
X11943872Y-14876484D02*
X11924825Y-14905055D01*
X11924825Y-14905055D02*
X11905777Y-14924103D01*
X11905777Y-14924103D02*
X11886729Y-14933627D01*
X12124825Y-14876484D02*
X12143872Y-14876484D01*
X12143872Y-14876484D02*
X12162920Y-14886008D01*
X12162920Y-14886008D02*
X12172444Y-14895531D01*
X12172444Y-14895531D02*
X12181967Y-14914579D01*
X12181967Y-14914579D02*
X12191491Y-14952674D01*
X12191491Y-14952674D02*
X12191491Y-15000293D01*
X12191491Y-15000293D02*
X12181967Y-15038388D01*
X12181967Y-15038388D02*
X12172444Y-15057436D01*
X12172444Y-15057436D02*
X12162920Y-15066960D01*
X12162920Y-15066960D02*
X12143872Y-15076484D01*
X12143872Y-15076484D02*
X12124825Y-15076484D01*
X12124825Y-15076484D02*
X12105777Y-15066960D01*
X12105777Y-15066960D02*
X12096253Y-15057436D01*
X12096253Y-15057436D02*
X12086729Y-15038388D01*
X12086729Y-15038388D02*
X12077206Y-15000293D01*
X12077206Y-15000293D02*
X12077206Y-14952674D01*
X12077206Y-14952674D02*
X12086729Y-14914579D01*
X12086729Y-14914579D02*
X12096253Y-14895531D01*
X12096253Y-14895531D02*
X12105777Y-14886008D01*
X12105777Y-14886008D02*
X12124825Y-14876484D01*
X12362920Y-14876484D02*
X12324825Y-14876484D01*
X12324825Y-14876484D02*
X12305777Y-14886008D01*
X12305777Y-14886008D02*
X12296253Y-14895531D01*
X12296253Y-14895531D02*
X12277206Y-14924103D01*
X12277206Y-14924103D02*
X12267682Y-14962198D01*
X12267682Y-14962198D02*
X12267682Y-15038388D01*
X12267682Y-15038388D02*
X12277206Y-15057436D01*
X12277206Y-15057436D02*
X12286729Y-15066960D01*
X12286729Y-15066960D02*
X12305777Y-15076484D01*
X12305777Y-15076484D02*
X12343872Y-15076484D01*
X12343872Y-15076484D02*
X12362920Y-15066960D01*
X12362920Y-15066960D02*
X12372444Y-15057436D01*
X12372444Y-15057436D02*
X12381967Y-15038388D01*
X12381967Y-15038388D02*
X12381967Y-14990769D01*
X12381967Y-14990769D02*
X12372444Y-14971722D01*
X12372444Y-14971722D02*
X12362920Y-14962198D01*
X12362920Y-14962198D02*
X12343872Y-14952674D01*
X12343872Y-14952674D02*
X12305777Y-14952674D01*
X12305777Y-14952674D02*
X12286729Y-14962198D01*
X12286729Y-14962198D02*
X12277206Y-14971722D01*
X12277206Y-14971722D02*
X12267682Y-14990769D01*
X12448634Y-14876484D02*
X12572444Y-14876484D01*
X12572444Y-14876484D02*
X12505777Y-14952674D01*
X12505777Y-14952674D02*
X12534348Y-14952674D01*
X12534348Y-14952674D02*
X12553396Y-14962198D01*
X12553396Y-14962198D02*
X12562920Y-14971722D01*
X12562920Y-14971722D02*
X12572444Y-14990769D01*
X12572444Y-14990769D02*
X12572444Y-15038388D01*
X12572444Y-15038388D02*
X12562920Y-15057436D01*
X12562920Y-15057436D02*
X12553396Y-15066960D01*
X12553396Y-15066960D02*
X12534348Y-15076484D01*
X12534348Y-15076484D02*
X12477206Y-15076484D01*
X12477206Y-15076484D02*
X12458158Y-15066960D01*
X12458158Y-15066960D02*
X12448634Y-15057436D01*
X12648634Y-14876484D02*
X12648634Y-14914579D01*
X12724825Y-14876484D02*
X12724825Y-14914579D01*
X13020063Y-15152674D02*
X13010539Y-15143150D01*
X13010539Y-15143150D02*
X12991491Y-15114579D01*
X12991491Y-15114579D02*
X12981968Y-15095531D01*
X12981968Y-15095531D02*
X12972444Y-15066960D01*
X12972444Y-15066960D02*
X12962920Y-15019341D01*
X12962920Y-15019341D02*
X12962920Y-14981246D01*
X12962920Y-14981246D02*
X12972444Y-14933627D01*
X12972444Y-14933627D02*
X12981968Y-14905055D01*
X12981968Y-14905055D02*
X12991491Y-14886008D01*
X12991491Y-14886008D02*
X13010539Y-14857436D01*
X13010539Y-14857436D02*
X13020063Y-14847912D01*
X13077206Y-14876484D02*
X13210539Y-14876484D01*
X13210539Y-14876484D02*
X13124825Y-15076484D01*
X13439110Y-15076484D02*
X13439110Y-14876484D01*
X13524825Y-15076484D02*
X13524825Y-14971722D01*
X13524825Y-14971722D02*
X13515301Y-14952674D01*
X13515301Y-14952674D02*
X13496253Y-14943150D01*
X13496253Y-14943150D02*
X13467682Y-14943150D01*
X13467682Y-14943150D02*
X13448634Y-14952674D01*
X13448634Y-14952674D02*
X13439110Y-14962198D01*
X13648634Y-15076484D02*
X13629587Y-15066960D01*
X13629587Y-15066960D02*
X13620063Y-15057436D01*
X13620063Y-15057436D02*
X13610539Y-15038388D01*
X13610539Y-15038388D02*
X13610539Y-14981246D01*
X13610539Y-14981246D02*
X13620063Y-14962198D01*
X13620063Y-14962198D02*
X13629587Y-14952674D01*
X13629587Y-14952674D02*
X13648634Y-14943150D01*
X13648634Y-14943150D02*
X13677206Y-14943150D01*
X13677206Y-14943150D02*
X13696253Y-14952674D01*
X13696253Y-14952674D02*
X13705777Y-14962198D01*
X13705777Y-14962198D02*
X13715301Y-14981246D01*
X13715301Y-14981246D02*
X13715301Y-15038388D01*
X13715301Y-15038388D02*
X13705777Y-15057436D01*
X13705777Y-15057436D02*
X13696253Y-15066960D01*
X13696253Y-15066960D02*
X13677206Y-15076484D01*
X13677206Y-15076484D02*
X13648634Y-15076484D01*
X13829587Y-15076484D02*
X13810539Y-15066960D01*
X13810539Y-15066960D02*
X13801015Y-15047912D01*
X13801015Y-15047912D02*
X13801015Y-14876484D01*
X13981968Y-15066960D02*
X13962920Y-15076484D01*
X13962920Y-15076484D02*
X13924825Y-15076484D01*
X13924825Y-15076484D02*
X13905777Y-15066960D01*
X13905777Y-15066960D02*
X13896253Y-15047912D01*
X13896253Y-15047912D02*
X13896253Y-14971722D01*
X13896253Y-14971722D02*
X13905777Y-14952674D01*
X13905777Y-14952674D02*
X13924825Y-14943150D01*
X13924825Y-14943150D02*
X13962920Y-14943150D01*
X13962920Y-14943150D02*
X13981968Y-14952674D01*
X13981968Y-14952674D02*
X13991491Y-14971722D01*
X13991491Y-14971722D02*
X13991491Y-14990769D01*
X13991491Y-14990769D02*
X13896253Y-15009817D01*
X14067682Y-15066960D02*
X14086730Y-15076484D01*
X14086730Y-15076484D02*
X14124825Y-15076484D01*
X14124825Y-15076484D02*
X14143872Y-15066960D01*
X14143872Y-15066960D02*
X14153396Y-15047912D01*
X14153396Y-15047912D02*
X14153396Y-15038388D01*
X14153396Y-15038388D02*
X14143872Y-15019341D01*
X14143872Y-15019341D02*
X14124825Y-15009817D01*
X14124825Y-15009817D02*
X14096253Y-15009817D01*
X14096253Y-15009817D02*
X14077206Y-15000293D01*
X14077206Y-15000293D02*
X14067682Y-14981246D01*
X14067682Y-14981246D02*
X14067682Y-14971722D01*
X14067682Y-14971722D02*
X14077206Y-14952674D01*
X14077206Y-14952674D02*
X14096253Y-14943150D01*
X14096253Y-14943150D02*
X14124825Y-14943150D01*
X14124825Y-14943150D02*
X14143872Y-14952674D01*
X14220063Y-15152674D02*
X14229587Y-15143150D01*
X14229587Y-15143150D02*
X14248634Y-15114579D01*
X14248634Y-15114579D02*
X14258158Y-15095531D01*
X14258158Y-15095531D02*
X14267682Y-15066960D01*
X14267682Y-15066960D02*
X14277206Y-15019341D01*
X14277206Y-15019341D02*
X14277206Y-14981246D01*
X14277206Y-14981246D02*
X14267682Y-14933627D01*
X14267682Y-14933627D02*
X14258158Y-14905055D01*
X14258158Y-14905055D02*
X14248634Y-14886008D01*
X14248634Y-14886008D02*
X14229587Y-14857436D01*
X14229587Y-14857436D02*
X14220063Y-14847912D01*
X14581968Y-15152674D02*
X14572444Y-15143150D01*
X14572444Y-15143150D02*
X14553396Y-15114579D01*
X14553396Y-15114579D02*
X14543872Y-15095531D01*
X14543872Y-15095531D02*
X14534349Y-15066960D01*
X14534349Y-15066960D02*
X14524825Y-15019341D01*
X14524825Y-15019341D02*
X14524825Y-14981246D01*
X14524825Y-14981246D02*
X14534349Y-14933627D01*
X14534349Y-14933627D02*
X14543872Y-14905055D01*
X14543872Y-14905055D02*
X14553396Y-14886008D01*
X14553396Y-14886008D02*
X14572444Y-14857436D01*
X14572444Y-14857436D02*
X14581968Y-14847912D01*
X14658158Y-14943150D02*
X14658158Y-15076484D01*
X14658158Y-14962198D02*
X14667682Y-14952674D01*
X14667682Y-14952674D02*
X14686730Y-14943150D01*
X14686730Y-14943150D02*
X14715301Y-14943150D01*
X14715301Y-14943150D02*
X14734349Y-14952674D01*
X14734349Y-14952674D02*
X14743872Y-14971722D01*
X14743872Y-14971722D02*
X14743872Y-15076484D01*
X14867682Y-15076484D02*
X14848634Y-15066960D01*
X14848634Y-15066960D02*
X14839111Y-15057436D01*
X14839111Y-15057436D02*
X14829587Y-15038388D01*
X14829587Y-15038388D02*
X14829587Y-14981246D01*
X14829587Y-14981246D02*
X14839111Y-14962198D01*
X14839111Y-14962198D02*
X14848634Y-14952674D01*
X14848634Y-14952674D02*
X14867682Y-14943150D01*
X14867682Y-14943150D02*
X14896253Y-14943150D01*
X14896253Y-14943150D02*
X14915301Y-14952674D01*
X14915301Y-14952674D02*
X14924825Y-14962198D01*
X14924825Y-14962198D02*
X14934349Y-14981246D01*
X14934349Y-14981246D02*
X14934349Y-15038388D01*
X14934349Y-15038388D02*
X14924825Y-15057436D01*
X14924825Y-15057436D02*
X14915301Y-15066960D01*
X14915301Y-15066960D02*
X14896253Y-15076484D01*
X14896253Y-15076484D02*
X14867682Y-15076484D01*
X14991492Y-14943150D02*
X15067682Y-14943150D01*
X15020063Y-14876484D02*
X15020063Y-15047912D01*
X15020063Y-15047912D02*
X15029587Y-15066960D01*
X15029587Y-15066960D02*
X15048634Y-15076484D01*
X15048634Y-15076484D02*
X15067682Y-15076484D01*
X15286730Y-14943150D02*
X15286730Y-15143150D01*
X15286730Y-14952674D02*
X15305777Y-14943150D01*
X15305777Y-14943150D02*
X15343873Y-14943150D01*
X15343873Y-14943150D02*
X15362920Y-14952674D01*
X15362920Y-14952674D02*
X15372444Y-14962198D01*
X15372444Y-14962198D02*
X15381968Y-14981246D01*
X15381968Y-14981246D02*
X15381968Y-15038388D01*
X15381968Y-15038388D02*
X15372444Y-15057436D01*
X15372444Y-15057436D02*
X15362920Y-15066960D01*
X15362920Y-15066960D02*
X15343873Y-15076484D01*
X15343873Y-15076484D02*
X15305777Y-15076484D01*
X15305777Y-15076484D02*
X15286730Y-15066960D01*
X15496253Y-15076484D02*
X15477206Y-15066960D01*
X15477206Y-15066960D02*
X15467682Y-15047912D01*
X15467682Y-15047912D02*
X15467682Y-14876484D01*
X15658158Y-15076484D02*
X15658158Y-14971722D01*
X15658158Y-14971722D02*
X15648634Y-14952674D01*
X15648634Y-14952674D02*
X15629587Y-14943150D01*
X15629587Y-14943150D02*
X15591492Y-14943150D01*
X15591492Y-14943150D02*
X15572444Y-14952674D01*
X15658158Y-15066960D02*
X15639111Y-15076484D01*
X15639111Y-15076484D02*
X15591492Y-15076484D01*
X15591492Y-15076484D02*
X15572444Y-15066960D01*
X15572444Y-15066960D02*
X15562920Y-15047912D01*
X15562920Y-15047912D02*
X15562920Y-15028865D01*
X15562920Y-15028865D02*
X15572444Y-15009817D01*
X15572444Y-15009817D02*
X15591492Y-15000293D01*
X15591492Y-15000293D02*
X15639111Y-15000293D01*
X15639111Y-15000293D02*
X15658158Y-14990769D01*
X15724825Y-14943150D02*
X15801015Y-14943150D01*
X15753396Y-14876484D02*
X15753396Y-15047912D01*
X15753396Y-15047912D02*
X15762920Y-15066960D01*
X15762920Y-15066960D02*
X15781968Y-15076484D01*
X15781968Y-15076484D02*
X15801015Y-15076484D01*
X15943873Y-15066960D02*
X15924825Y-15076484D01*
X15924825Y-15076484D02*
X15886730Y-15076484D01*
X15886730Y-15076484D02*
X15867682Y-15066960D01*
X15867682Y-15066960D02*
X15858158Y-15047912D01*
X15858158Y-15047912D02*
X15858158Y-14971722D01*
X15858158Y-14971722D02*
X15867682Y-14952674D01*
X15867682Y-14952674D02*
X15886730Y-14943150D01*
X15886730Y-14943150D02*
X15924825Y-14943150D01*
X15924825Y-14943150D02*
X15943873Y-14952674D01*
X15943873Y-14952674D02*
X15953396Y-14971722D01*
X15953396Y-14971722D02*
X15953396Y-14990769D01*
X15953396Y-14990769D02*
X15858158Y-15009817D01*
X16124825Y-15076484D02*
X16124825Y-14876484D01*
X16124825Y-15066960D02*
X16105777Y-15076484D01*
X16105777Y-15076484D02*
X16067682Y-15076484D01*
X16067682Y-15076484D02*
X16048634Y-15066960D01*
X16048634Y-15066960D02*
X16039111Y-15057436D01*
X16039111Y-15057436D02*
X16029587Y-15038388D01*
X16029587Y-15038388D02*
X16029587Y-14981246D01*
X16029587Y-14981246D02*
X16039111Y-14962198D01*
X16039111Y-14962198D02*
X16048634Y-14952674D01*
X16048634Y-14952674D02*
X16067682Y-14943150D01*
X16067682Y-14943150D02*
X16105777Y-14943150D01*
X16105777Y-14943150D02*
X16124825Y-14952674D01*
X16201015Y-15152674D02*
X16210539Y-15143150D01*
X16210539Y-15143150D02*
X16229587Y-15114579D01*
X16229587Y-15114579D02*
X16239111Y-15095531D01*
X16239111Y-15095531D02*
X16248634Y-15066960D01*
X16248634Y-15066960D02*
X16258158Y-15019341D01*
X16258158Y-15019341D02*
X16258158Y-14981246D01*
X16258158Y-14981246D02*
X16248634Y-14933627D01*
X16248634Y-14933627D02*
X16239111Y-14905055D01*
X16239111Y-14905055D02*
X16229587Y-14886008D01*
X16229587Y-14886008D02*
X16210539Y-14857436D01*
X16210539Y-14857436D02*
X16201015Y-14847912D01*
X9345000Y-15205000D02*
X9345000Y-15405000D01*
X9245000Y-15305000D02*
X9445000Y-15305000D01*
X9791491Y-15263150D02*
X9791491Y-15396484D01*
X9743872Y-15186960D02*
X9696253Y-15329817D01*
X9696253Y-15329817D02*
X9820063Y-15329817D01*
X9896253Y-15377436D02*
X9905777Y-15386960D01*
X9905777Y-15386960D02*
X9896253Y-15396484D01*
X9896253Y-15396484D02*
X9886729Y-15386960D01*
X9886729Y-15386960D02*
X9896253Y-15377436D01*
X9896253Y-15377436D02*
X9896253Y-15396484D01*
X10029586Y-15196484D02*
X10048634Y-15196484D01*
X10048634Y-15196484D02*
X10067682Y-15206008D01*
X10067682Y-15206008D02*
X10077205Y-15215531D01*
X10077205Y-15215531D02*
X10086729Y-15234579D01*
X10086729Y-15234579D02*
X10096253Y-15272674D01*
X10096253Y-15272674D02*
X10096253Y-15320293D01*
X10096253Y-15320293D02*
X10086729Y-15358388D01*
X10086729Y-15358388D02*
X10077205Y-15377436D01*
X10077205Y-15377436D02*
X10067682Y-15386960D01*
X10067682Y-15386960D02*
X10048634Y-15396484D01*
X10048634Y-15396484D02*
X10029586Y-15396484D01*
X10029586Y-15396484D02*
X10010539Y-15386960D01*
X10010539Y-15386960D02*
X10001015Y-15377436D01*
X10001015Y-15377436D02*
X9991491Y-15358388D01*
X9991491Y-15358388D02*
X9981967Y-15320293D01*
X9981967Y-15320293D02*
X9981967Y-15272674D01*
X9981967Y-15272674D02*
X9991491Y-15234579D01*
X9991491Y-15234579D02*
X10001015Y-15215531D01*
X10001015Y-15215531D02*
X10010539Y-15206008D01*
X10010539Y-15206008D02*
X10029586Y-15196484D01*
X10220063Y-15196484D02*
X10239110Y-15196484D01*
X10239110Y-15196484D02*
X10258158Y-15206008D01*
X10258158Y-15206008D02*
X10267682Y-15215531D01*
X10267682Y-15215531D02*
X10277205Y-15234579D01*
X10277205Y-15234579D02*
X10286729Y-15272674D01*
X10286729Y-15272674D02*
X10286729Y-15320293D01*
X10286729Y-15320293D02*
X10277205Y-15358388D01*
X10277205Y-15358388D02*
X10267682Y-15377436D01*
X10267682Y-15377436D02*
X10258158Y-15386960D01*
X10258158Y-15386960D02*
X10239110Y-15396484D01*
X10239110Y-15396484D02*
X10220063Y-15396484D01*
X10220063Y-15396484D02*
X10201015Y-15386960D01*
X10201015Y-15386960D02*
X10191491Y-15377436D01*
X10191491Y-15377436D02*
X10181967Y-15358388D01*
X10181967Y-15358388D02*
X10172444Y-15320293D01*
X10172444Y-15320293D02*
X10172444Y-15272674D01*
X10172444Y-15272674D02*
X10181967Y-15234579D01*
X10181967Y-15234579D02*
X10191491Y-15215531D01*
X10191491Y-15215531D02*
X10201015Y-15206008D01*
X10201015Y-15206008D02*
X10220063Y-15196484D01*
X10410539Y-15196484D02*
X10429586Y-15196484D01*
X10429586Y-15196484D02*
X10448634Y-15206008D01*
X10448634Y-15206008D02*
X10458158Y-15215531D01*
X10458158Y-15215531D02*
X10467682Y-15234579D01*
X10467682Y-15234579D02*
X10477205Y-15272674D01*
X10477205Y-15272674D02*
X10477205Y-15320293D01*
X10477205Y-15320293D02*
X10467682Y-15358388D01*
X10467682Y-15358388D02*
X10458158Y-15377436D01*
X10458158Y-15377436D02*
X10448634Y-15386960D01*
X10448634Y-15386960D02*
X10429586Y-15396484D01*
X10429586Y-15396484D02*
X10410539Y-15396484D01*
X10410539Y-15396484D02*
X10391491Y-15386960D01*
X10391491Y-15386960D02*
X10381967Y-15377436D01*
X10381967Y-15377436D02*
X10372444Y-15358388D01*
X10372444Y-15358388D02*
X10362920Y-15320293D01*
X10362920Y-15320293D02*
X10362920Y-15272674D01*
X10362920Y-15272674D02*
X10372444Y-15234579D01*
X10372444Y-15234579D02*
X10381967Y-15215531D01*
X10381967Y-15215531D02*
X10391491Y-15206008D01*
X10391491Y-15206008D02*
X10410539Y-15196484D01*
X10562920Y-15396484D02*
X10562920Y-15263150D01*
X10562920Y-15282198D02*
X10572444Y-15272674D01*
X10572444Y-15272674D02*
X10591491Y-15263150D01*
X10591491Y-15263150D02*
X10620063Y-15263150D01*
X10620063Y-15263150D02*
X10639110Y-15272674D01*
X10639110Y-15272674D02*
X10648634Y-15291722D01*
X10648634Y-15291722D02*
X10648634Y-15396484D01*
X10648634Y-15291722D02*
X10658158Y-15272674D01*
X10658158Y-15272674D02*
X10677205Y-15263150D01*
X10677205Y-15263150D02*
X10705777Y-15263150D01*
X10705777Y-15263150D02*
X10724825Y-15272674D01*
X10724825Y-15272674D02*
X10734348Y-15291722D01*
X10734348Y-15291722D02*
X10734348Y-15396484D01*
X10829586Y-15396484D02*
X10829586Y-15263150D01*
X10829586Y-15282198D02*
X10839110Y-15272674D01*
X10839110Y-15272674D02*
X10858158Y-15263150D01*
X10858158Y-15263150D02*
X10886729Y-15263150D01*
X10886729Y-15263150D02*
X10905777Y-15272674D01*
X10905777Y-15272674D02*
X10915301Y-15291722D01*
X10915301Y-15291722D02*
X10915301Y-15396484D01*
X10915301Y-15291722D02*
X10924825Y-15272674D01*
X10924825Y-15272674D02*
X10943872Y-15263150D01*
X10943872Y-15263150D02*
X10972444Y-15263150D01*
X10972444Y-15263150D02*
X10991491Y-15272674D01*
X10991491Y-15272674D02*
X11001015Y-15291722D01*
X11001015Y-15291722D02*
X11001015Y-15396484D01*
X11391491Y-15186960D02*
X11220063Y-15444103D01*
X11648634Y-15196484D02*
X11667682Y-15196484D01*
X11667682Y-15196484D02*
X11686729Y-15206008D01*
X11686729Y-15206008D02*
X11696253Y-15215531D01*
X11696253Y-15215531D02*
X11705777Y-15234579D01*
X11705777Y-15234579D02*
X11715301Y-15272674D01*
X11715301Y-15272674D02*
X11715301Y-15320293D01*
X11715301Y-15320293D02*
X11705777Y-15358388D01*
X11705777Y-15358388D02*
X11696253Y-15377436D01*
X11696253Y-15377436D02*
X11686729Y-15386960D01*
X11686729Y-15386960D02*
X11667682Y-15396484D01*
X11667682Y-15396484D02*
X11648634Y-15396484D01*
X11648634Y-15396484D02*
X11629586Y-15386960D01*
X11629586Y-15386960D02*
X11620063Y-15377436D01*
X11620063Y-15377436D02*
X11610539Y-15358388D01*
X11610539Y-15358388D02*
X11601015Y-15320293D01*
X11601015Y-15320293D02*
X11601015Y-15272674D01*
X11601015Y-15272674D02*
X11610539Y-15234579D01*
X11610539Y-15234579D02*
X11620063Y-15215531D01*
X11620063Y-15215531D02*
X11629586Y-15206008D01*
X11629586Y-15206008D02*
X11648634Y-15196484D01*
X11801015Y-15377436D02*
X11810539Y-15386960D01*
X11810539Y-15386960D02*
X11801015Y-15396484D01*
X11801015Y-15396484D02*
X11791491Y-15386960D01*
X11791491Y-15386960D02*
X11801015Y-15377436D01*
X11801015Y-15377436D02*
X11801015Y-15396484D01*
X12001015Y-15396484D02*
X11886729Y-15396484D01*
X11943872Y-15396484D02*
X11943872Y-15196484D01*
X11943872Y-15196484D02*
X11924825Y-15225055D01*
X11924825Y-15225055D02*
X11905777Y-15244103D01*
X11905777Y-15244103D02*
X11886729Y-15253627D01*
X12181967Y-15196484D02*
X12086729Y-15196484D01*
X12086729Y-15196484D02*
X12077206Y-15291722D01*
X12077206Y-15291722D02*
X12086729Y-15282198D01*
X12086729Y-15282198D02*
X12105777Y-15272674D01*
X12105777Y-15272674D02*
X12153396Y-15272674D01*
X12153396Y-15272674D02*
X12172444Y-15282198D01*
X12172444Y-15282198D02*
X12181967Y-15291722D01*
X12181967Y-15291722D02*
X12191491Y-15310769D01*
X12191491Y-15310769D02*
X12191491Y-15358388D01*
X12191491Y-15358388D02*
X12181967Y-15377436D01*
X12181967Y-15377436D02*
X12172444Y-15386960D01*
X12172444Y-15386960D02*
X12153396Y-15396484D01*
X12153396Y-15396484D02*
X12105777Y-15396484D01*
X12105777Y-15396484D02*
X12086729Y-15386960D01*
X12086729Y-15386960D02*
X12077206Y-15377436D01*
X12258158Y-15196484D02*
X12391491Y-15196484D01*
X12391491Y-15196484D02*
X12305777Y-15396484D01*
X12562920Y-15196484D02*
X12467682Y-15196484D01*
X12467682Y-15196484D02*
X12458158Y-15291722D01*
X12458158Y-15291722D02*
X12467682Y-15282198D01*
X12467682Y-15282198D02*
X12486729Y-15272674D01*
X12486729Y-15272674D02*
X12534348Y-15272674D01*
X12534348Y-15272674D02*
X12553396Y-15282198D01*
X12553396Y-15282198D02*
X12562920Y-15291722D01*
X12562920Y-15291722D02*
X12572444Y-15310769D01*
X12572444Y-15310769D02*
X12572444Y-15358388D01*
X12572444Y-15358388D02*
X12562920Y-15377436D01*
X12562920Y-15377436D02*
X12553396Y-15386960D01*
X12553396Y-15386960D02*
X12534348Y-15396484D01*
X12534348Y-15396484D02*
X12486729Y-15396484D01*
X12486729Y-15396484D02*
X12467682Y-15386960D01*
X12467682Y-15386960D02*
X12458158Y-15377436D01*
X12648634Y-15196484D02*
X12648634Y-15234579D01*
X12724825Y-15196484D02*
X12724825Y-15234579D01*
X13020063Y-15472674D02*
X13010539Y-15463150D01*
X13010539Y-15463150D02*
X12991491Y-15434579D01*
X12991491Y-15434579D02*
X12981968Y-15415531D01*
X12981968Y-15415531D02*
X12972444Y-15386960D01*
X12972444Y-15386960D02*
X12962920Y-15339341D01*
X12962920Y-15339341D02*
X12962920Y-15301246D01*
X12962920Y-15301246D02*
X12972444Y-15253627D01*
X12972444Y-15253627D02*
X12981968Y-15225055D01*
X12981968Y-15225055D02*
X12991491Y-15206008D01*
X12991491Y-15206008D02*
X13010539Y-15177436D01*
X13010539Y-15177436D02*
X13020063Y-15167912D01*
X13077206Y-15196484D02*
X13201015Y-15196484D01*
X13201015Y-15196484D02*
X13134348Y-15272674D01*
X13134348Y-15272674D02*
X13162920Y-15272674D01*
X13162920Y-15272674D02*
X13181968Y-15282198D01*
X13181968Y-15282198D02*
X13191491Y-15291722D01*
X13191491Y-15291722D02*
X13201015Y-15310769D01*
X13201015Y-15310769D02*
X13201015Y-15358388D01*
X13201015Y-15358388D02*
X13191491Y-15377436D01*
X13191491Y-15377436D02*
X13181968Y-15386960D01*
X13181968Y-15386960D02*
X13162920Y-15396484D01*
X13162920Y-15396484D02*
X13105777Y-15396484D01*
X13105777Y-15396484D02*
X13086729Y-15386960D01*
X13086729Y-15386960D02*
X13077206Y-15377436D01*
X13439110Y-15396484D02*
X13439110Y-15196484D01*
X13524825Y-15396484D02*
X13524825Y-15291722D01*
X13524825Y-15291722D02*
X13515301Y-15272674D01*
X13515301Y-15272674D02*
X13496253Y-15263150D01*
X13496253Y-15263150D02*
X13467682Y-15263150D01*
X13467682Y-15263150D02*
X13448634Y-15272674D01*
X13448634Y-15272674D02*
X13439110Y-15282198D01*
X13648634Y-15396484D02*
X13629587Y-15386960D01*
X13629587Y-15386960D02*
X13620063Y-15377436D01*
X13620063Y-15377436D02*
X13610539Y-15358388D01*
X13610539Y-15358388D02*
X13610539Y-15301246D01*
X13610539Y-15301246D02*
X13620063Y-15282198D01*
X13620063Y-15282198D02*
X13629587Y-15272674D01*
X13629587Y-15272674D02*
X13648634Y-15263150D01*
X13648634Y-15263150D02*
X13677206Y-15263150D01*
X13677206Y-15263150D02*
X13696253Y-15272674D01*
X13696253Y-15272674D02*
X13705777Y-15282198D01*
X13705777Y-15282198D02*
X13715301Y-15301246D01*
X13715301Y-15301246D02*
X13715301Y-15358388D01*
X13715301Y-15358388D02*
X13705777Y-15377436D01*
X13705777Y-15377436D02*
X13696253Y-15386960D01*
X13696253Y-15386960D02*
X13677206Y-15396484D01*
X13677206Y-15396484D02*
X13648634Y-15396484D01*
X13829587Y-15396484D02*
X13810539Y-15386960D01*
X13810539Y-15386960D02*
X13801015Y-15367912D01*
X13801015Y-15367912D02*
X13801015Y-15196484D01*
X13981968Y-15386960D02*
X13962920Y-15396484D01*
X13962920Y-15396484D02*
X13924825Y-15396484D01*
X13924825Y-15396484D02*
X13905777Y-15386960D01*
X13905777Y-15386960D02*
X13896253Y-15367912D01*
X13896253Y-15367912D02*
X13896253Y-15291722D01*
X13896253Y-15291722D02*
X13905777Y-15272674D01*
X13905777Y-15272674D02*
X13924825Y-15263150D01*
X13924825Y-15263150D02*
X13962920Y-15263150D01*
X13962920Y-15263150D02*
X13981968Y-15272674D01*
X13981968Y-15272674D02*
X13991491Y-15291722D01*
X13991491Y-15291722D02*
X13991491Y-15310769D01*
X13991491Y-15310769D02*
X13896253Y-15329817D01*
X14067682Y-15386960D02*
X14086730Y-15396484D01*
X14086730Y-15396484D02*
X14124825Y-15396484D01*
X14124825Y-15396484D02*
X14143872Y-15386960D01*
X14143872Y-15386960D02*
X14153396Y-15367912D01*
X14153396Y-15367912D02*
X14153396Y-15358388D01*
X14153396Y-15358388D02*
X14143872Y-15339341D01*
X14143872Y-15339341D02*
X14124825Y-15329817D01*
X14124825Y-15329817D02*
X14096253Y-15329817D01*
X14096253Y-15329817D02*
X14077206Y-15320293D01*
X14077206Y-15320293D02*
X14067682Y-15301246D01*
X14067682Y-15301246D02*
X14067682Y-15291722D01*
X14067682Y-15291722D02*
X14077206Y-15272674D01*
X14077206Y-15272674D02*
X14096253Y-15263150D01*
X14096253Y-15263150D02*
X14124825Y-15263150D01*
X14124825Y-15263150D02*
X14143872Y-15272674D01*
X14220063Y-15472674D02*
X14229587Y-15463150D01*
X14229587Y-15463150D02*
X14248634Y-15434579D01*
X14248634Y-15434579D02*
X14258158Y-15415531D01*
X14258158Y-15415531D02*
X14267682Y-15386960D01*
X14267682Y-15386960D02*
X14277206Y-15339341D01*
X14277206Y-15339341D02*
X14277206Y-15301246D01*
X14277206Y-15301246D02*
X14267682Y-15253627D01*
X14267682Y-15253627D02*
X14258158Y-15225055D01*
X14258158Y-15225055D02*
X14248634Y-15206008D01*
X14248634Y-15206008D02*
X14229587Y-15177436D01*
X14229587Y-15177436D02*
X14220063Y-15167912D01*
X14581968Y-15472674D02*
X14572444Y-15463150D01*
X14572444Y-15463150D02*
X14553396Y-15434579D01*
X14553396Y-15434579D02*
X14543872Y-15415531D01*
X14543872Y-15415531D02*
X14534349Y-15386960D01*
X14534349Y-15386960D02*
X14524825Y-15339341D01*
X14524825Y-15339341D02*
X14524825Y-15301246D01*
X14524825Y-15301246D02*
X14534349Y-15253627D01*
X14534349Y-15253627D02*
X14543872Y-15225055D01*
X14543872Y-15225055D02*
X14553396Y-15206008D01*
X14553396Y-15206008D02*
X14572444Y-15177436D01*
X14572444Y-15177436D02*
X14581968Y-15167912D01*
X14658158Y-15263150D02*
X14658158Y-15396484D01*
X14658158Y-15282198D02*
X14667682Y-15272674D01*
X14667682Y-15272674D02*
X14686730Y-15263150D01*
X14686730Y-15263150D02*
X14715301Y-15263150D01*
X14715301Y-15263150D02*
X14734349Y-15272674D01*
X14734349Y-15272674D02*
X14743872Y-15291722D01*
X14743872Y-15291722D02*
X14743872Y-15396484D01*
X14867682Y-15396484D02*
X14848634Y-15386960D01*
X14848634Y-15386960D02*
X14839111Y-15377436D01*
X14839111Y-15377436D02*
X14829587Y-15358388D01*
X14829587Y-15358388D02*
X14829587Y-15301246D01*
X14829587Y-15301246D02*
X14839111Y-15282198D01*
X14839111Y-15282198D02*
X14848634Y-15272674D01*
X14848634Y-15272674D02*
X14867682Y-15263150D01*
X14867682Y-15263150D02*
X14896253Y-15263150D01*
X14896253Y-15263150D02*
X14915301Y-15272674D01*
X14915301Y-15272674D02*
X14924825Y-15282198D01*
X14924825Y-15282198D02*
X14934349Y-15301246D01*
X14934349Y-15301246D02*
X14934349Y-15358388D01*
X14934349Y-15358388D02*
X14924825Y-15377436D01*
X14924825Y-15377436D02*
X14915301Y-15386960D01*
X14915301Y-15386960D02*
X14896253Y-15396484D01*
X14896253Y-15396484D02*
X14867682Y-15396484D01*
X14991492Y-15263150D02*
X15067682Y-15263150D01*
X15020063Y-15196484D02*
X15020063Y-15367912D01*
X15020063Y-15367912D02*
X15029587Y-15386960D01*
X15029587Y-15386960D02*
X15048634Y-15396484D01*
X15048634Y-15396484D02*
X15067682Y-15396484D01*
X15286730Y-15263150D02*
X15286730Y-15463150D01*
X15286730Y-15272674D02*
X15305777Y-15263150D01*
X15305777Y-15263150D02*
X15343873Y-15263150D01*
X15343873Y-15263150D02*
X15362920Y-15272674D01*
X15362920Y-15272674D02*
X15372444Y-15282198D01*
X15372444Y-15282198D02*
X15381968Y-15301246D01*
X15381968Y-15301246D02*
X15381968Y-15358388D01*
X15381968Y-15358388D02*
X15372444Y-15377436D01*
X15372444Y-15377436D02*
X15362920Y-15386960D01*
X15362920Y-15386960D02*
X15343873Y-15396484D01*
X15343873Y-15396484D02*
X15305777Y-15396484D01*
X15305777Y-15396484D02*
X15286730Y-15386960D01*
X15496253Y-15396484D02*
X15477206Y-15386960D01*
X15477206Y-15386960D02*
X15467682Y-15367912D01*
X15467682Y-15367912D02*
X15467682Y-15196484D01*
X15658158Y-15396484D02*
X15658158Y-15291722D01*
X15658158Y-15291722D02*
X15648634Y-15272674D01*
X15648634Y-15272674D02*
X15629587Y-15263150D01*
X15629587Y-15263150D02*
X15591492Y-15263150D01*
X15591492Y-15263150D02*
X15572444Y-15272674D01*
X15658158Y-15386960D02*
X15639111Y-15396484D01*
X15639111Y-15396484D02*
X15591492Y-15396484D01*
X15591492Y-15396484D02*
X15572444Y-15386960D01*
X15572444Y-15386960D02*
X15562920Y-15367912D01*
X15562920Y-15367912D02*
X15562920Y-15348865D01*
X15562920Y-15348865D02*
X15572444Y-15329817D01*
X15572444Y-15329817D02*
X15591492Y-15320293D01*
X15591492Y-15320293D02*
X15639111Y-15320293D01*
X15639111Y-15320293D02*
X15658158Y-15310769D01*
X15724825Y-15263150D02*
X15801015Y-15263150D01*
X15753396Y-15196484D02*
X15753396Y-15367912D01*
X15753396Y-15367912D02*
X15762920Y-15386960D01*
X15762920Y-15386960D02*
X15781968Y-15396484D01*
X15781968Y-15396484D02*
X15801015Y-15396484D01*
X15943873Y-15386960D02*
X15924825Y-15396484D01*
X15924825Y-15396484D02*
X15886730Y-15396484D01*
X15886730Y-15396484D02*
X15867682Y-15386960D01*
X15867682Y-15386960D02*
X15858158Y-15367912D01*
X15858158Y-15367912D02*
X15858158Y-15291722D01*
X15858158Y-15291722D02*
X15867682Y-15272674D01*
X15867682Y-15272674D02*
X15886730Y-15263150D01*
X15886730Y-15263150D02*
X15924825Y-15263150D01*
X15924825Y-15263150D02*
X15943873Y-15272674D01*
X15943873Y-15272674D02*
X15953396Y-15291722D01*
X15953396Y-15291722D02*
X15953396Y-15310769D01*
X15953396Y-15310769D02*
X15858158Y-15329817D01*
X16124825Y-15396484D02*
X16124825Y-15196484D01*
X16124825Y-15386960D02*
X16105777Y-15396484D01*
X16105777Y-15396484D02*
X16067682Y-15396484D01*
X16067682Y-15396484D02*
X16048634Y-15386960D01*
X16048634Y-15386960D02*
X16039111Y-15377436D01*
X16039111Y-15377436D02*
X16029587Y-15358388D01*
X16029587Y-15358388D02*
X16029587Y-15301246D01*
X16029587Y-15301246D02*
X16039111Y-15282198D01*
X16039111Y-15282198D02*
X16048634Y-15272674D01*
X16048634Y-15272674D02*
X16067682Y-15263150D01*
X16067682Y-15263150D02*
X16105777Y-15263150D01*
X16105777Y-15263150D02*
X16124825Y-15272674D01*
X16201015Y-15472674D02*
X16210539Y-15463150D01*
X16210539Y-15463150D02*
X16229587Y-15434579D01*
X16229587Y-15434579D02*
X16239111Y-15415531D01*
X16239111Y-15415531D02*
X16248634Y-15386960D01*
X16248634Y-15386960D02*
X16258158Y-15339341D01*
X16258158Y-15339341D02*
X16258158Y-15301246D01*
X16258158Y-15301246D02*
X16248634Y-15253627D01*
X16248634Y-15253627D02*
X16239111Y-15225055D01*
X16239111Y-15225055D02*
X16229587Y-15206008D01*
X16229587Y-15206008D02*
X16210539Y-15177436D01*
X16210539Y-15177436D02*
X16201015Y-15167912D01*
M02*
