G04 #@! TF.GenerationSoftware,KiCad,Pcbnew,8.0.1*
G04 #@! TF.CreationDate,2025-03-27T22:51:34-07:00*
G04 #@! TF.ProjectId,minidexed,6d696e69-6465-4786-9564-2e6b69636164,rev?*
G04 #@! TF.SameCoordinates,Original*
G04 #@! TF.FileFunction,Copper,L1,Top*
G04 #@! TF.FilePolarity,Positive*
%FSLAX46Y46*%
G04 Gerber Fmt 4.6, Leading zero omitted, Abs format (unit mm)*
G04 Created by KiCad (PCBNEW 8.0.1) date 2025-03-27 22:51:34*
%MOMM*%
%LPD*%
G01*
G04 APERTURE LIST*
G04 #@! TA.AperFunction,ComponentPad*
%ADD10O,1.600000X2.500000*%
G04 #@! TD*
G04 #@! TA.AperFunction,ComponentPad*
%ADD11O,1.500000X3.000000*%
G04 #@! TD*
G04 #@! TA.AperFunction,ComponentPad*
%ADD12C,2.200000*%
G04 #@! TD*
G04 #@! TA.AperFunction,ComponentPad*
%ADD13C,3.000000*%
G04 #@! TD*
G04 #@! TA.AperFunction,ComponentPad*
%ADD14R,1.800000X2.600000*%
G04 #@! TD*
G04 #@! TA.AperFunction,ComponentPad*
%ADD15O,1.800000X2.600000*%
G04 #@! TD*
G04 #@! TA.AperFunction,ComponentPad*
%ADD16R,2.000000X2.000000*%
G04 #@! TD*
G04 #@! TA.AperFunction,ComponentPad*
%ADD17C,2.000000*%
G04 #@! TD*
G04 #@! TA.AperFunction,ComponentPad*
%ADD18R,3.500000X2.500000*%
G04 #@! TD*
G04 #@! TA.AperFunction,ComponentPad*
%ADD19R,3.500000X2.800000*%
G04 #@! TD*
G04 #@! TA.AperFunction,ComponentPad*
%ADD20R,1.700000X1.700000*%
G04 #@! TD*
G04 #@! TA.AperFunction,ComponentPad*
%ADD21O,1.700000X1.700000*%
G04 #@! TD*
G04 #@! TA.AperFunction,ViaPad*
%ADD22C,0.800000*%
G04 #@! TD*
G04 #@! TA.AperFunction,Conductor*
%ADD23C,0.762000*%
G04 #@! TD*
G04 #@! TA.AperFunction,Conductor*
%ADD24C,0.254000*%
G04 #@! TD*
G04 APERTURE END LIST*
D10*
X106300000Y-69450000D03*
D11*
X111000000Y-67650000D03*
X106000000Y-63650000D03*
X111000000Y-60750000D03*
D10*
X120300000Y-69450000D03*
D11*
X125000000Y-67650000D03*
X120000000Y-63650000D03*
X125000000Y-60750000D03*
D10*
X134800000Y-69450000D03*
D11*
X139500000Y-67650000D03*
X134500000Y-63650000D03*
X139500000Y-60750000D03*
D10*
X150300000Y-69450000D03*
D11*
X155000000Y-67650000D03*
X155000000Y-60750000D03*
X150000000Y-63650000D03*
D12*
X115440000Y-119120000D03*
X109090000Y-121660000D03*
D13*
X97628900Y-109877200D03*
X97628900Y-78876500D03*
D14*
X103128000Y-78876500D03*
D15*
X105668000Y-78876500D03*
X108208000Y-78876500D03*
X110748000Y-78876500D03*
X113288000Y-78876500D03*
X115828000Y-78876500D03*
X118368000Y-78876500D03*
X120908000Y-78876500D03*
X123448000Y-78876500D03*
X125988000Y-78876500D03*
X128528000Y-78876500D03*
X131068000Y-78876500D03*
X133608000Y-78876500D03*
X136148000Y-78876500D03*
X138688000Y-78876500D03*
X141228000Y-78876500D03*
D16*
X204368400Y-96876500D03*
D17*
X204368400Y-91876500D03*
X204368400Y-94376500D03*
D18*
X196868400Y-99976500D03*
D19*
X196868400Y-88776500D03*
D17*
X189868400Y-91876500D03*
X189868400Y-96876500D03*
D12*
X138290000Y-119120000D03*
X131940000Y-121660000D03*
X161140000Y-119120000D03*
X154790000Y-121660000D03*
D20*
X173918400Y-132042400D03*
D21*
X171378400Y-132042400D03*
X173918400Y-129502400D03*
X171378400Y-129502400D03*
X173918400Y-126962400D03*
X171378400Y-126962400D03*
X173918400Y-124422400D03*
X171378400Y-124422400D03*
X173918400Y-121882400D03*
X171378400Y-121882400D03*
X173918400Y-119342400D03*
X171378400Y-119342400D03*
X173918400Y-116802400D03*
X171378400Y-116802400D03*
X173918400Y-114262400D03*
X171378400Y-114262400D03*
X173918400Y-111722400D03*
X171378400Y-111722400D03*
X173918400Y-109182400D03*
X171378400Y-109182400D03*
X173918400Y-106642400D03*
X171378400Y-106642400D03*
X173918400Y-104102400D03*
X171378400Y-104102400D03*
X173918400Y-101562400D03*
X171378400Y-101562400D03*
X173918400Y-99022400D03*
X171378400Y-99022400D03*
X173918400Y-96482400D03*
X171378400Y-96482400D03*
X173918400Y-93942400D03*
X171378400Y-93942400D03*
X173918400Y-91402400D03*
X171378400Y-91402400D03*
X173918400Y-88862400D03*
X171378400Y-88862400D03*
X173918400Y-86322400D03*
X171378400Y-86322400D03*
X173918400Y-83782400D03*
X171378400Y-83782400D03*
D16*
X103900000Y-86760000D03*
D17*
X101400000Y-91760000D03*
X98900000Y-86760000D03*
D20*
X160325000Y-104300000D03*
D21*
X162865000Y-104300000D03*
D22*
X130100000Y-76400000D03*
X138600000Y-76400000D03*
X117000000Y-76400000D03*
X120200000Y-106800000D03*
X121100000Y-93200000D03*
X175500000Y-118400000D03*
X124700000Y-81800000D03*
X162000000Y-83400000D03*
X163800000Y-76200000D03*
X139800000Y-105000000D03*
X162600000Y-92400000D03*
X166800000Y-124800000D03*
X148500000Y-123500000D03*
X150500000Y-116200000D03*
X129800000Y-81800000D03*
X150900000Y-86000000D03*
X167000000Y-82000000D03*
X113500000Y-104100000D03*
X124000000Y-104100000D03*
X155700000Y-118673500D03*
D23*
X168920800Y-134500000D02*
X107000000Y-134500000D01*
X103100000Y-123900000D02*
X109600000Y-117400000D01*
X103100000Y-130600000D02*
X103100000Y-125500000D01*
X116200000Y-76400000D02*
X114800000Y-75000000D01*
X114800000Y-75000000D02*
X108722500Y-75000000D01*
X98900000Y-99800000D02*
X98900000Y-86760000D01*
X118200000Y-108800000D02*
X120200000Y-106800000D01*
X109600000Y-117400000D02*
X109600000Y-110500000D01*
X108722500Y-75000000D02*
X107322500Y-76400000D01*
X117000000Y-76400000D02*
X116200000Y-76400000D01*
X109600000Y-110500000D02*
X98900000Y-99800000D01*
X105668000Y-78054500D02*
X107322500Y-76400000D01*
X107000000Y-134500000D02*
X103100000Y-130600000D01*
X103100000Y-125500000D02*
X103100000Y-123900000D01*
X117000000Y-76400000D02*
X130100000Y-76400000D01*
X98900000Y-86760000D02*
X105668000Y-79992000D01*
X130100000Y-76400000D02*
X138600000Y-76400000D01*
X171378400Y-132042400D02*
X168920800Y-134500000D01*
X105668000Y-79992000D02*
X105668000Y-78876500D01*
X109600000Y-117400000D02*
X118200000Y-108800000D01*
X154900000Y-82000000D02*
X150900000Y-86000000D01*
X167000000Y-82000000D02*
X154900000Y-82000000D01*
X124000000Y-104100000D02*
X113500000Y-104100000D01*
D24*
X101400000Y-91760000D02*
X103840000Y-91760000D01*
X108208000Y-87392000D02*
X108208000Y-78876500D01*
X103840000Y-91760000D02*
X108208000Y-87392000D01*
X170890870Y-125599400D02*
X172741400Y-125599400D01*
X110748000Y-78876500D02*
X110748000Y-88748000D01*
X169490270Y-127000000D02*
X170890870Y-125599400D01*
X110748000Y-88748000D02*
X149000000Y-127000000D01*
X149000000Y-127000000D02*
X169490270Y-127000000D01*
X172741400Y-125599400D02*
X173918400Y-124422400D01*
X164500000Y-117600000D02*
X164879400Y-117979400D01*
X141900000Y-117600000D02*
X164500000Y-117600000D01*
X172555400Y-117979400D02*
X173918400Y-119342400D01*
X164879400Y-117979400D02*
X172555400Y-117979400D01*
X115828000Y-91528000D02*
X141900000Y-117600000D01*
X115828000Y-78876500D02*
X115828000Y-91528000D01*
X128528000Y-78876500D02*
X128528000Y-82572000D01*
X126700000Y-89800000D02*
X138773000Y-101873000D01*
X128528000Y-82572000D02*
X126700000Y-84400000D01*
X138773000Y-101873000D02*
X138773000Y-112073000D01*
X126700000Y-84400000D02*
X126700000Y-89800000D01*
X142139400Y-115439400D02*
X172741400Y-115439400D01*
X138773000Y-112073000D02*
X142139400Y-115439400D01*
X172741400Y-115439400D02*
X173918400Y-114262400D01*
X131068000Y-78876500D02*
X131068000Y-91968000D01*
X145462400Y-114262400D02*
X171378400Y-114262400D01*
X131068000Y-91968000D02*
X140800000Y-101700000D01*
X140800000Y-101700000D02*
X140800000Y-109600000D01*
X140800000Y-109600000D02*
X145462400Y-114262400D01*
X145877600Y-111722400D02*
X171378400Y-111722400D01*
X143000000Y-100700000D02*
X143000000Y-109000000D01*
X133608000Y-78876500D02*
X133608000Y-91308000D01*
X143000000Y-109000000D02*
X145800000Y-111800000D01*
X145800000Y-111800000D02*
X145877600Y-111722400D01*
X133608000Y-91308000D02*
X143000000Y-100700000D01*
X136148000Y-78876500D02*
X136148000Y-90748000D01*
X136148000Y-90748000D02*
X146500000Y-101100000D01*
X146500000Y-101100000D02*
X146500000Y-104400000D01*
X146500000Y-104400000D02*
X148742400Y-106642400D01*
X148742400Y-106642400D02*
X171378400Y-106642400D01*
X154790000Y-119583500D02*
X155700000Y-118673500D01*
X154790000Y-121660000D02*
X154790000Y-119583500D01*
X129400000Y-119500000D02*
X135323372Y-119500000D01*
X114050000Y-116700000D02*
X126600000Y-116700000D01*
X174380530Y-90200000D02*
X172716000Y-90200000D01*
X126600000Y-116700000D02*
X129400000Y-119500000D01*
X138800000Y-126700000D02*
X140425400Y-128325400D01*
X135323372Y-119500000D02*
X138800000Y-122976628D01*
X172716000Y-90200000D02*
X171378400Y-88862400D01*
X138800000Y-122976628D02*
X138800000Y-126700000D01*
X109090000Y-121660000D02*
X114050000Y-116700000D01*
X175502734Y-128325400D02*
X177800000Y-126028134D01*
X177800000Y-126028134D02*
X177800000Y-93619470D01*
X177800000Y-93619470D02*
X174380530Y-90200000D01*
X140425400Y-128325400D02*
X175502734Y-128325400D01*
X180800000Y-125300000D02*
X180800000Y-93204000D01*
X177800000Y-128300000D02*
X180800000Y-125300000D01*
X131940000Y-121660000D02*
X132047001Y-121767001D01*
X176534600Y-130865400D02*
X177800000Y-129600000D01*
X138200000Y-132100000D02*
X169500000Y-132100000D01*
X180800000Y-93204000D02*
X173918400Y-86322400D01*
X132047001Y-125947001D02*
X135900000Y-129800000D01*
X169500000Y-132100000D02*
X170734600Y-130865400D01*
X132047001Y-121767001D02*
X132047001Y-125947001D01*
X170734600Y-130865400D02*
X176534600Y-130865400D01*
X135900000Y-129800000D02*
X138200000Y-132100000D01*
X177800000Y-129600000D02*
X177800000Y-128300000D01*
G04 #@! TA.AperFunction,Conductor*
G36*
X109515221Y-79323192D02*
G01*
X109574393Y-79362425D01*
X109602448Y-79423855D01*
X109621928Y-79546846D01*
X109621929Y-79546851D01*
X109678081Y-79719669D01*
X109678083Y-79719674D01*
X109760583Y-79881590D01*
X109760585Y-79881593D01*
X109867398Y-80028608D01*
X109995891Y-80157101D01*
X109995894Y-80157103D01*
X110142910Y-80263917D01*
X110297704Y-80342788D01*
X110349318Y-80391535D01*
X110366500Y-80455054D01*
X110366500Y-88798223D01*
X110366499Y-88798223D01*
X110366500Y-88798225D01*
X110383694Y-88862395D01*
X110392500Y-88895256D01*
X110424736Y-88951091D01*
X110442721Y-88982243D01*
X110442729Y-88982253D01*
X138812053Y-117351577D01*
X138846079Y-117413889D01*
X138841014Y-117484704D01*
X138798467Y-117541540D01*
X138731947Y-117566351D01*
X138693544Y-117563191D01*
X138542323Y-117526886D01*
X138290000Y-117507028D01*
X138037676Y-117526886D01*
X137791565Y-117585971D01*
X137557727Y-117682830D01*
X137343387Y-117814176D01*
X137343387Y-117814178D01*
X137969974Y-118440765D01*
X137934742Y-118455359D01*
X137811903Y-118537437D01*
X137707437Y-118641903D01*
X137625359Y-118764742D01*
X137610765Y-118799974D01*
X136984178Y-118173387D01*
X136984176Y-118173387D01*
X136852830Y-118387727D01*
X136755971Y-118621565D01*
X136696886Y-118867676D01*
X136677028Y-119120000D01*
X136696886Y-119372323D01*
X136755971Y-119618434D01*
X136852830Y-119852272D01*
X136984177Y-120066611D01*
X136984178Y-120066611D01*
X137610764Y-119440024D01*
X137625359Y-119475258D01*
X137707437Y-119598097D01*
X137811903Y-119702563D01*
X137934742Y-119784641D01*
X137969973Y-119799234D01*
X137343387Y-120425820D01*
X137343387Y-120425822D01*
X137557727Y-120557169D01*
X137791565Y-120654028D01*
X138037676Y-120713113D01*
X138290000Y-120732971D01*
X138542323Y-120713113D01*
X138788434Y-120654028D01*
X139022277Y-120557167D01*
X139236611Y-120425822D01*
X139236611Y-120425820D01*
X138610025Y-119799234D01*
X138645258Y-119784641D01*
X138768097Y-119702563D01*
X138872563Y-119598097D01*
X138954641Y-119475258D01*
X138969234Y-119440025D01*
X139595820Y-120066611D01*
X139595822Y-120066611D01*
X139727167Y-119852277D01*
X139824028Y-119618434D01*
X139883113Y-119372323D01*
X139902971Y-119120000D01*
X139883113Y-118867676D01*
X139846808Y-118716454D01*
X139850355Y-118645546D01*
X139891675Y-118587812D01*
X139957648Y-118561582D01*
X140027330Y-118575184D01*
X140058422Y-118597945D01*
X148694724Y-127234247D01*
X148765753Y-127305276D01*
X148765754Y-127305277D01*
X148765756Y-127305278D01*
X148852741Y-127355499D01*
X148852743Y-127355499D01*
X148852746Y-127355501D01*
X148949775Y-127381500D01*
X148949777Y-127381500D01*
X169540493Y-127381500D01*
X169540495Y-127381500D01*
X169637524Y-127355501D01*
X169637527Y-127355499D01*
X169637528Y-127355499D01*
X169681020Y-127330388D01*
X169724517Y-127305276D01*
X169795546Y-127234247D01*
X169813260Y-127216533D01*
X169813269Y-127216523D01*
X169838888Y-127190904D01*
X169901200Y-127156878D01*
X169972015Y-127161943D01*
X170028851Y-127204490D01*
X170050127Y-127249067D01*
X170089577Y-127404852D01*
X170089579Y-127404856D01*
X170179981Y-127610951D01*
X170270163Y-127748985D01*
X170290676Y-127816953D01*
X170271187Y-127885222D01*
X170217882Y-127932117D01*
X170164680Y-127943900D01*
X140635613Y-127943900D01*
X140567492Y-127923898D01*
X140546518Y-127906995D01*
X139218405Y-126578882D01*
X139184379Y-126516570D01*
X139181500Y-126489787D01*
X139181500Y-124298417D01*
X139579500Y-124298417D01*
X139610291Y-124492826D01*
X139671116Y-124680025D01*
X139745056Y-124825141D01*
X139760478Y-124855408D01*
X139876173Y-125014648D01*
X140015351Y-125153826D01*
X140037172Y-125169680D01*
X140174595Y-125269524D01*
X140349975Y-125358884D01*
X140537174Y-125419709D01*
X140731583Y-125450500D01*
X140731586Y-125450500D01*
X140928414Y-125450500D01*
X140928417Y-125450500D01*
X141122826Y-125419709D01*
X141310025Y-125358884D01*
X141485405Y-125269524D01*
X141644646Y-125153828D01*
X141783828Y-125014646D01*
X141899524Y-124855405D01*
X141988884Y-124680025D01*
X142049709Y-124492826D01*
X142080500Y-124298417D01*
X142080500Y-124101583D01*
X142049709Y-123907174D01*
X141988884Y-123719975D01*
X141899524Y-123544595D01*
X141815870Y-123429456D01*
X141783826Y-123385351D01*
X141644648Y-123246173D01*
X141485408Y-123130478D01*
X141485407Y-123130477D01*
X141485405Y-123130476D01*
X141310025Y-123041116D01*
X141122826Y-122980291D01*
X140928417Y-122949500D01*
X140731583Y-122949500D01*
X140537174Y-122980291D01*
X140537171Y-122980291D01*
X140537170Y-122980292D01*
X140506191Y-122990358D01*
X140349975Y-123041116D01*
X140349973Y-123041116D01*
X140349973Y-123041117D01*
X140174591Y-123130478D01*
X140015351Y-123246173D01*
X139876173Y-123385351D01*
X139760478Y-123544591D01*
X139760476Y-123544595D01*
X139671116Y-123719975D01*
X139610291Y-123907174D01*
X139579500Y-124101583D01*
X139579500Y-124298417D01*
X139181500Y-124298417D01*
X139181500Y-122926404D01*
X139180961Y-122924392D01*
X139155501Y-122829374D01*
X139155499Y-122829371D01*
X139155499Y-122829369D01*
X139105278Y-122742384D01*
X139105270Y-122742374D01*
X139029858Y-122666962D01*
X139029835Y-122666941D01*
X135557625Y-119194729D01*
X135557615Y-119194721D01*
X135470630Y-119144500D01*
X135448532Y-119138579D01*
X135373597Y-119118500D01*
X135373595Y-119118500D01*
X129610213Y-119118500D01*
X129542092Y-119098498D01*
X129521118Y-119081595D01*
X126834253Y-116394729D01*
X126834243Y-116394721D01*
X126801561Y-116375852D01*
X126801559Y-116375852D01*
X126747254Y-116344499D01*
X126650225Y-116318500D01*
X113999775Y-116318500D01*
X113940390Y-116334412D01*
X113902741Y-116344500D01*
X113815756Y-116394721D01*
X113815751Y-116394725D01*
X113790073Y-116420404D01*
X113744724Y-116465753D01*
X113744722Y-116465755D01*
X109805681Y-120404794D01*
X109743369Y-120438820D01*
X109672553Y-120433755D01*
X109656623Y-120426515D01*
X109635961Y-120415334D01*
X109635960Y-120415333D01*
X109635959Y-120415333D01*
X109635957Y-120415332D01*
X109423654Y-120342448D01*
X109423645Y-120342446D01*
X109379620Y-120335099D01*
X109202237Y-120305500D01*
X108977763Y-120305500D01*
X108829979Y-120330160D01*
X108756354Y-120342446D01*
X108756345Y-120342448D01*
X108544042Y-120415332D01*
X108544039Y-120415333D01*
X108346620Y-120522171D01*
X108346619Y-120522172D01*
X108169471Y-120660052D01*
X108017447Y-120825195D01*
X107894668Y-121013123D01*
X107804501Y-121218683D01*
X107804498Y-121218690D01*
X107749396Y-121436285D01*
X107749395Y-121436291D01*
X107749395Y-121436293D01*
X107730858Y-121660000D01*
X107749286Y-121882395D01*
X107749396Y-121883714D01*
X107804498Y-122101309D01*
X107804501Y-122101316D01*
X107894668Y-122306876D01*
X107894670Y-122306880D01*
X107944010Y-122382400D01*
X108017447Y-122494804D01*
X108169471Y-122659947D01*
X108169476Y-122659951D01*
X108169478Y-122659953D01*
X108346619Y-122797827D01*
X108349632Y-122800172D01*
X108391103Y-122857797D01*
X108394837Y-122928696D01*
X108359647Y-122990358D01*
X108296706Y-123023206D01*
X108233305Y-123019437D01*
X108112831Y-122980292D01*
X108112827Y-122980291D01*
X108112826Y-122980291D01*
X107918417Y-122949500D01*
X107721583Y-122949500D01*
X107527174Y-122980291D01*
X107527171Y-122980291D01*
X107527170Y-122980292D01*
X107496191Y-122990358D01*
X107339975Y-123041116D01*
X107339973Y-123041116D01*
X107339973Y-123041117D01*
X107164591Y-123130478D01*
X107005351Y-123246173D01*
X106866173Y-123385351D01*
X106750478Y-123544591D01*
X106750476Y-123544595D01*
X106661116Y-123719975D01*
X106600291Y-123907174D01*
X106569500Y-124101583D01*
X106569500Y-124298417D01*
X106600291Y-124492826D01*
X106661116Y-124680025D01*
X106735056Y-124825141D01*
X106750478Y-124855408D01*
X106866173Y-125014648D01*
X107005351Y-125153826D01*
X107027172Y-125169680D01*
X107164595Y-125269524D01*
X107339975Y-125358884D01*
X107527174Y-125419709D01*
X107721583Y-125450500D01*
X107721586Y-125450500D01*
X107918414Y-125450500D01*
X107918417Y-125450500D01*
X108112826Y-125419709D01*
X108300025Y-125358884D01*
X108475405Y-125269524D01*
X108634646Y-125153828D01*
X108773828Y-125014646D01*
X108889524Y-124855405D01*
X108978884Y-124680025D01*
X109039709Y-124492826D01*
X109064736Y-124334810D01*
X110499500Y-124334810D01*
X110529688Y-124602735D01*
X110589685Y-124865597D01*
X110678726Y-125120061D01*
X110678737Y-125120088D01*
X110795717Y-125363000D01*
X110939159Y-125591286D01*
X111107268Y-125802088D01*
X111297911Y-125992731D01*
X111508713Y-126160840D01*
X111736999Y-126304282D01*
X111737002Y-126304283D01*
X111737003Y-126304284D01*
X111979921Y-126421267D01*
X111979937Y-126421272D01*
X111979938Y-126421273D01*
X112234402Y-126510314D01*
X112234405Y-126510314D01*
X112234409Y-126510316D01*
X112497268Y-126570312D01*
X112687248Y-126591717D01*
X112765189Y-126600500D01*
X112765191Y-126600500D01*
X113034811Y-126600500D01*
X113102853Y-126592833D01*
X113302732Y-126570312D01*
X113565591Y-126510316D01*
X113605147Y-126496475D01*
X113702527Y-126462400D01*
X113820079Y-126421267D01*
X114062997Y-126304284D01*
X114291289Y-126160838D01*
X114502085Y-125992734D01*
X114692734Y-125802085D01*
X114860838Y-125591289D01*
X114901297Y-125526900D01*
X115004282Y-125363000D01*
X115004281Y-125363000D01*
X115004284Y-125362997D01*
X115121267Y-125120079D01*
X115210316Y-124865591D01*
X115270312Y-124602732D01*
X115300500Y-124334809D01*
X115300500Y-124298417D01*
X116729500Y-124298417D01*
X116760291Y-124492826D01*
X116821116Y-124680025D01*
X116895056Y-124825141D01*
X116910478Y-124855408D01*
X117026173Y-125014648D01*
X117165351Y-125153826D01*
X117187172Y-125169680D01*
X117324595Y-125269524D01*
X117499975Y-125358884D01*
X117687174Y-125419709D01*
X117881583Y-125450500D01*
X117881586Y-125450500D01*
X118078414Y-125450500D01*
X118078417Y-125450500D01*
X118272826Y-125419709D01*
X118460025Y-125358884D01*
X118635405Y-125269524D01*
X118794646Y-125153828D01*
X118933828Y-125014646D01*
X119049524Y-124855405D01*
X119138884Y-124680025D01*
X119199709Y-124492826D01*
X119230500Y-124298417D01*
X119230500Y-124101583D01*
X119199709Y-123907174D01*
X119138884Y-123719975D01*
X119049524Y-123544595D01*
X118965870Y-123429456D01*
X118933826Y-123385351D01*
X118794648Y-123246173D01*
X118635408Y-123130478D01*
X118635407Y-123130477D01*
X118635405Y-123130476D01*
X118460025Y-123041116D01*
X118272826Y-122980291D01*
X118078417Y-122949500D01*
X117881583Y-122949500D01*
X117687174Y-122980291D01*
X117687171Y-122980291D01*
X117687170Y-122980292D01*
X117656191Y-122990358D01*
X117499975Y-123041116D01*
X117499973Y-123041116D01*
X117499973Y-123041117D01*
X117324591Y-123130478D01*
X117165351Y-123246173D01*
X117026173Y-123385351D01*
X116910478Y-123544591D01*
X116910476Y-123544595D01*
X116821116Y-123719975D01*
X116760291Y-123907174D01*
X116729500Y-124101583D01*
X116729500Y-124298417D01*
X115300500Y-124298417D01*
X115300500Y-124065191D01*
X115270312Y-123797268D01*
X115210316Y-123534409D01*
X115196488Y-123494892D01*
X115121273Y-123279938D01*
X115121272Y-123279937D01*
X115121267Y-123279921D01*
X115004284Y-123037003D01*
X115004283Y-123037002D01*
X115004282Y-123036999D01*
X114860840Y-122808713D01*
X114692731Y-122597911D01*
X114502088Y-122407268D01*
X114291286Y-122239159D01*
X114063000Y-122095717D01*
X113820088Y-121978737D01*
X113820083Y-121978735D01*
X113820079Y-121978733D01*
X113820073Y-121978730D01*
X113820061Y-121978726D01*
X113565597Y-121889685D01*
X113302735Y-121829688D01*
X113034811Y-121799500D01*
X113034809Y-121799500D01*
X112765191Y-121799500D01*
X112765189Y-121799500D01*
X112497264Y-121829688D01*
X112234402Y-121889685D01*
X111979938Y-121978726D01*
X111979911Y-121978737D01*
X111736999Y-122095717D01*
X111508713Y-122239159D01*
X111297911Y-122407268D01*
X111107268Y-122597911D01*
X110939159Y-122808713D01*
X110795717Y-123036999D01*
X110678737Y-123279911D01*
X110678726Y-123279938D01*
X110589685Y-123534402D01*
X110529688Y-123797264D01*
X110499500Y-124065189D01*
X110499500Y-124334810D01*
X109064736Y-124334810D01*
X109070500Y-124298417D01*
X109070500Y-124101583D01*
X109039709Y-123907174D01*
X108978884Y-123719975D01*
X108889524Y-123544595D01*
X108805870Y-123429456D01*
X108773826Y-123385351D01*
X108634652Y-123246177D01*
X108634648Y-123246174D01*
X108634646Y-123246172D01*
X108504646Y-123151721D01*
X108461294Y-123095499D01*
X108455219Y-123024763D01*
X108488351Y-122961971D01*
X108550171Y-122927060D01*
X108619619Y-122930612D01*
X108756350Y-122977553D01*
X108977763Y-123014500D01*
X108977767Y-123014500D01*
X109202233Y-123014500D01*
X109202237Y-123014500D01*
X109423650Y-122977553D01*
X109635961Y-122904666D01*
X109833380Y-122797828D01*
X110010522Y-122659953D01*
X110054370Y-122612322D01*
X110162552Y-122494804D01*
X110162551Y-122494804D01*
X110162554Y-122494802D01*
X110285330Y-122306880D01*
X110375500Y-122101313D01*
X110430605Y-121883707D01*
X110449142Y-121660000D01*
X110430605Y-121436293D01*
X110416958Y-121382400D01*
X110375501Y-121218690D01*
X110375498Y-121218683D01*
X110317188Y-121085750D01*
X110308141Y-121015332D01*
X110338601Y-120951202D01*
X110343462Y-120946059D01*
X112169521Y-119120000D01*
X113827028Y-119120000D01*
X113846886Y-119372323D01*
X113905971Y-119618434D01*
X114002830Y-119852272D01*
X114134177Y-120066611D01*
X114134178Y-120066611D01*
X114760764Y-119440024D01*
X114775359Y-119475258D01*
X114857437Y-119598097D01*
X114961903Y-119702563D01*
X115084742Y-119784641D01*
X115119973Y-119799234D01*
X114493387Y-120425820D01*
X114493387Y-120425822D01*
X114707727Y-120557169D01*
X114941565Y-120654028D01*
X115187676Y-120713113D01*
X115440000Y-120732971D01*
X115692323Y-120713113D01*
X115938434Y-120654028D01*
X116172277Y-120557167D01*
X116386611Y-120425822D01*
X116386611Y-120425820D01*
X115760025Y-119799234D01*
X115795258Y-119784641D01*
X115918097Y-119702563D01*
X116022563Y-119598097D01*
X116104641Y-119475258D01*
X116119234Y-119440025D01*
X116745820Y-120066611D01*
X116745822Y-120066611D01*
X116877167Y-119852277D01*
X116974028Y-119618434D01*
X117033113Y-119372323D01*
X117052971Y-119120000D01*
X117033113Y-118867676D01*
X116974028Y-118621565D01*
X116877169Y-118387727D01*
X116745822Y-118173387D01*
X116745820Y-118173387D01*
X116119234Y-118799973D01*
X116104641Y-118764742D01*
X116022563Y-118641903D01*
X115918097Y-118537437D01*
X115795258Y-118455359D01*
X115760025Y-118440764D01*
X116386611Y-117814178D01*
X116386611Y-117814177D01*
X116172272Y-117682830D01*
X115938434Y-117585971D01*
X115692323Y-117526886D01*
X115440000Y-117507028D01*
X115187676Y-117526886D01*
X114941565Y-117585971D01*
X114707727Y-117682830D01*
X114493387Y-117814176D01*
X114493387Y-117814178D01*
X115119974Y-118440765D01*
X115084742Y-118455359D01*
X114961903Y-118537437D01*
X114857437Y-118641903D01*
X114775359Y-118764742D01*
X114760765Y-118799974D01*
X114134178Y-118173387D01*
X114134176Y-118173387D01*
X114002830Y-118387727D01*
X113905971Y-118621565D01*
X113846886Y-118867676D01*
X113827028Y-119120000D01*
X112169521Y-119120000D01*
X114171117Y-117118405D01*
X114233429Y-117084379D01*
X114260212Y-117081500D01*
X126389787Y-117081500D01*
X126457908Y-117101502D01*
X126478882Y-117118405D01*
X129094724Y-119734247D01*
X129165753Y-119805276D01*
X129165754Y-119805277D01*
X129165756Y-119805278D01*
X129252741Y-119855499D01*
X129252743Y-119855499D01*
X129252746Y-119855501D01*
X129349775Y-119881500D01*
X129450225Y-119881500D01*
X135113159Y-119881500D01*
X135181280Y-119901502D01*
X135202254Y-119918405D01*
X136779467Y-121495618D01*
X137439601Y-122155751D01*
X137473626Y-122218063D01*
X137468562Y-122288878D01*
X137426015Y-122345714D01*
X137359495Y-122370525D01*
X137290121Y-122355434D01*
X137271947Y-122343357D01*
X137141290Y-122239162D01*
X136913000Y-122095717D01*
X136670088Y-121978737D01*
X136670083Y-121978735D01*
X136670079Y-121978733D01*
X136670073Y-121978730D01*
X136670061Y-121978726D01*
X136415597Y-121889685D01*
X136152735Y-121829688D01*
X135884811Y-121799500D01*
X135884809Y-121799500D01*
X135615191Y-121799500D01*
X135615189Y-121799500D01*
X135347264Y-121829688D01*
X135084402Y-121889685D01*
X134829938Y-121978726D01*
X134829911Y-121978737D01*
X134586999Y-122095717D01*
X134358713Y-122239159D01*
X134147911Y-122407268D01*
X133957268Y-122597911D01*
X133789159Y-122808713D01*
X133645717Y-123036999D01*
X133528737Y-123279911D01*
X133528726Y-123279938D01*
X133439685Y-123534402D01*
X133379688Y-123797264D01*
X133349500Y-124065189D01*
X133349500Y-124334810D01*
X133379688Y-124602735D01*
X133439685Y-124865597D01*
X133528726Y-125120061D01*
X133528737Y-125120088D01*
X133645717Y-125363000D01*
X133789159Y-125591286D01*
X133957268Y-125802088D01*
X134147911Y-125992731D01*
X134358713Y-126160840D01*
X134586999Y-126304282D01*
X134587002Y-126304283D01*
X134587003Y-126304284D01*
X134829921Y-126421267D01*
X134829937Y-126421272D01*
X134829938Y-126421273D01*
X135084402Y-126510314D01*
X135084405Y-126510314D01*
X135084409Y-126510316D01*
X135347268Y-126570312D01*
X135537248Y-126591717D01*
X135615189Y-126600500D01*
X135615191Y-126600500D01*
X135884811Y-126600500D01*
X135952853Y-126592833D01*
X136152732Y-126570312D01*
X136415591Y-126510316D01*
X136455147Y-126496475D01*
X136552527Y-126462400D01*
X136670079Y-126421267D01*
X136912997Y-126304284D01*
X137141289Y-126160838D01*
X137352085Y-125992734D01*
X137542734Y-125802085D01*
X137710838Y-125591289D01*
X137751297Y-125526900D01*
X137854282Y-125363000D01*
X137854281Y-125363000D01*
X137854284Y-125362997D01*
X137971267Y-125120079D01*
X138060316Y-124865591D01*
X138120312Y-124602732D01*
X138150500Y-124334809D01*
X138150500Y-124065191D01*
X138120312Y-123797268D01*
X138060316Y-123534409D01*
X138046488Y-123494892D01*
X137971273Y-123279938D01*
X137971272Y-123279937D01*
X137971267Y-123279921D01*
X137854284Y-123037003D01*
X137854283Y-123037002D01*
X137854282Y-123036999D01*
X137710837Y-122808709D01*
X137606642Y-122678052D01*
X137579808Y-122612322D01*
X137592770Y-122542519D01*
X137641413Y-122490805D01*
X137710293Y-122473598D01*
X137777541Y-122496362D01*
X137794248Y-122510398D01*
X138381595Y-123097745D01*
X138415621Y-123160057D01*
X138418500Y-123186840D01*
X138418500Y-126750223D01*
X138418499Y-126750223D01*
X138423640Y-126769407D01*
X138444499Y-126847254D01*
X138452136Y-126860481D01*
X138459773Y-126873710D01*
X138494722Y-126934244D01*
X138494730Y-126934254D01*
X140191146Y-128630670D01*
X140191151Y-128630674D01*
X140191153Y-128630676D01*
X140278147Y-128680902D01*
X140375175Y-128706901D01*
X140375177Y-128706901D01*
X140483343Y-128706901D01*
X140483359Y-128706900D01*
X170342036Y-128706900D01*
X170410157Y-128726902D01*
X170456650Y-128780558D01*
X170466754Y-128850832D01*
X170442587Y-128908831D01*
X170435312Y-128918463D01*
X170344071Y-129101701D01*
X170288054Y-129298580D01*
X170269168Y-129502395D01*
X170269168Y-129502404D01*
X170288054Y-129706219D01*
X170324480Y-129834243D01*
X170344072Y-129903101D01*
X170435312Y-130086335D01*
X170435313Y-130086336D01*
X170558669Y-130249687D01*
X170617314Y-130303149D01*
X170654181Y-130363823D01*
X170652392Y-130434797D01*
X170612516Y-130493537D01*
X170593894Y-130504723D01*
X170594498Y-130505769D01*
X170539698Y-130537408D01*
X170500356Y-130560121D01*
X170500346Y-130560129D01*
X169378882Y-131681595D01*
X169316570Y-131715620D01*
X169289787Y-131718500D01*
X138410213Y-131718500D01*
X138342092Y-131698498D01*
X138321118Y-131681595D01*
X136129858Y-129490334D01*
X136129835Y-129490313D01*
X132465406Y-125825883D01*
X132431380Y-125763571D01*
X132428501Y-125736788D01*
X132428501Y-123010841D01*
X132448503Y-122942720D01*
X132494530Y-122900028D01*
X132683380Y-122797828D01*
X132860522Y-122659953D01*
X132904370Y-122612322D01*
X133012552Y-122494804D01*
X133012551Y-122494804D01*
X133012554Y-122494802D01*
X133135330Y-122306880D01*
X133225500Y-122101313D01*
X133280605Y-121883707D01*
X133299142Y-121660000D01*
X133280605Y-121436293D01*
X133266958Y-121382400D01*
X133225501Y-121218690D01*
X133225498Y-121218683D01*
X133135331Y-121013123D01*
X133135330Y-121013120D01*
X133012554Y-120825198D01*
X133012553Y-120825197D01*
X133012552Y-120825195D01*
X132860528Y-120660052D01*
X132852788Y-120654028D01*
X132683380Y-120522172D01*
X132683379Y-120522171D01*
X132485960Y-120415333D01*
X132485957Y-120415332D01*
X132273654Y-120342448D01*
X132273645Y-120342446D01*
X132229620Y-120335099D01*
X132052237Y-120305500D01*
X131827763Y-120305500D01*
X131679979Y-120330160D01*
X131606354Y-120342446D01*
X131606345Y-120342448D01*
X131394042Y-120415332D01*
X131394039Y-120415333D01*
X131196620Y-120522171D01*
X131196619Y-120522172D01*
X131019471Y-120660052D01*
X130867447Y-120825195D01*
X130744668Y-121013123D01*
X130654501Y-121218683D01*
X130654498Y-121218690D01*
X130599396Y-121436285D01*
X130599395Y-121436291D01*
X130599395Y-121436293D01*
X130580858Y-121660000D01*
X130599286Y-121882395D01*
X130599396Y-121883714D01*
X130654498Y-122101309D01*
X130654501Y-122101316D01*
X130744668Y-122306876D01*
X130744670Y-122306880D01*
X130794010Y-122382400D01*
X130867447Y-122494804D01*
X131019471Y-122659947D01*
X131019476Y-122659951D01*
X131019478Y-122659953D01*
X131196619Y-122797827D01*
X131199632Y-122800172D01*
X131241103Y-122857797D01*
X131244837Y-122928696D01*
X131209647Y-122990358D01*
X131146706Y-123023206D01*
X131083305Y-123019437D01*
X130962831Y-122980292D01*
X130962827Y-122980291D01*
X130962826Y-122980291D01*
X130768417Y-122949500D01*
X130571583Y-122949500D01*
X130377174Y-122980291D01*
X130377171Y-122980291D01*
X130377170Y-122980292D01*
X130346191Y-122990358D01*
X130189975Y-123041116D01*
X130189973Y-123041116D01*
X130189973Y-123041117D01*
X130014591Y-123130478D01*
X129855351Y-123246173D01*
X129716173Y-123385351D01*
X129600478Y-123544591D01*
X129600476Y-123544595D01*
X129511116Y-123719975D01*
X129450291Y-123907174D01*
X129419500Y-124101583D01*
X129419500Y-124298417D01*
X129450291Y-124492826D01*
X129511116Y-124680025D01*
X129585056Y-124825141D01*
X129600478Y-124855408D01*
X129716173Y-125014648D01*
X129855351Y-125153826D01*
X129877172Y-125169680D01*
X130014595Y-125269524D01*
X130189975Y-125358884D01*
X130377174Y-125419709D01*
X130571583Y-125450500D01*
X130571586Y-125450500D01*
X130768414Y-125450500D01*
X130768417Y-125450500D01*
X130962826Y-125419709D01*
X131150025Y-125358884D01*
X131325405Y-125269524D01*
X131465443Y-125167779D01*
X131532307Y-125143923D01*
X131601458Y-125160002D01*
X131650939Y-125210916D01*
X131665501Y-125269717D01*
X131665501Y-125997224D01*
X131665500Y-125997224D01*
X131691500Y-126094256D01*
X131699347Y-126107847D01*
X131731990Y-126164387D01*
X131741725Y-126181248D01*
X131741728Y-126181251D01*
X131741731Y-126181255D01*
X135590313Y-130029835D01*
X135590334Y-130029858D01*
X137894724Y-132334247D01*
X137965753Y-132405276D01*
X137965754Y-132405277D01*
X137965756Y-132405278D01*
X138052741Y-132455499D01*
X138052743Y-132455499D01*
X138052746Y-132455501D01*
X138149775Y-132481500D01*
X138149777Y-132481500D01*
X169550223Y-132481500D01*
X169550225Y-132481500D01*
X169647254Y-132455501D01*
X169647257Y-132455499D01*
X169647258Y-132455499D01*
X169690750Y-132430388D01*
X169734247Y-132405276D01*
X169805276Y-132334247D01*
X170064785Y-132074737D01*
X170127097Y-132040713D01*
X170197912Y-132045777D01*
X170254748Y-132088324D01*
X170279343Y-132152211D01*
X170281561Y-132176155D01*
X170267927Y-132245830D01*
X170245193Y-132276872D01*
X168694470Y-133827596D01*
X168632160Y-133861620D01*
X168605377Y-133864500D01*
X107315423Y-133864500D01*
X107247302Y-133844498D01*
X107226328Y-133827595D01*
X103772405Y-130373672D01*
X103738379Y-130311360D01*
X103735500Y-130284577D01*
X103735500Y-124215423D01*
X103755502Y-124147302D01*
X103772405Y-124126328D01*
X111224333Y-116674400D01*
X118693625Y-109205108D01*
X120522258Y-107376473D01*
X120552792Y-107354006D01*
X120574529Y-107342599D01*
X120693498Y-107237201D01*
X120783787Y-107106395D01*
X120840149Y-106957782D01*
X120840149Y-106957781D01*
X120840150Y-106957779D01*
X120859307Y-106800003D01*
X120859307Y-106799996D01*
X120840150Y-106642220D01*
X120826538Y-106606331D01*
X120783787Y-106493605D01*
X120693498Y-106362799D01*
X120574529Y-106257401D01*
X120574528Y-106257400D01*
X120574525Y-106257398D01*
X120433797Y-106183539D01*
X120433795Y-106183538D01*
X120433793Y-106183537D01*
X120433791Y-106183536D01*
X120433790Y-106183536D01*
X120279472Y-106145500D01*
X120279471Y-106145500D01*
X120120529Y-106145500D01*
X120120527Y-106145500D01*
X119966209Y-106183536D01*
X119966202Y-106183539D01*
X119825474Y-106257398D01*
X119825469Y-106257402D01*
X119706501Y-106362799D01*
X119641767Y-106456581D01*
X119627167Y-106474098D01*
X117794892Y-108306375D01*
X110450595Y-115650672D01*
X110388283Y-115684698D01*
X110317468Y-115679633D01*
X110260632Y-115637086D01*
X110235821Y-115570566D01*
X110235500Y-115561577D01*
X110235500Y-110437410D01*
X110235499Y-110437406D01*
X110211078Y-110314631D01*
X110163173Y-110198978D01*
X110093625Y-110094892D01*
X110005108Y-110006375D01*
X104098736Y-104100003D01*
X112840693Y-104100003D01*
X112859849Y-104257779D01*
X112900827Y-104365826D01*
X112916213Y-104406395D01*
X113006502Y-104537201D01*
X113125471Y-104642599D01*
X113125472Y-104642599D01*
X113125474Y-104642601D01*
X113200200Y-104681820D01*
X113266207Y-104716463D01*
X113420529Y-104754500D01*
X113420530Y-104754500D01*
X113579470Y-104754500D01*
X113579471Y-104754500D01*
X113641704Y-104739161D01*
X113671858Y-104735500D01*
X123828142Y-104735500D01*
X123858296Y-104739161D01*
X123920529Y-104754500D01*
X123920530Y-104754500D01*
X124079470Y-104754500D01*
X124079471Y-104754500D01*
X124233793Y-104716463D01*
X124374529Y-104642599D01*
X124493498Y-104537201D01*
X124583787Y-104406395D01*
X124640149Y-104257782D01*
X124640149Y-104257781D01*
X124640150Y-104257779D01*
X124659307Y-104100003D01*
X124659307Y-104099996D01*
X124640150Y-103942220D01*
X124608038Y-103857550D01*
X124583787Y-103793605D01*
X124493498Y-103662799D01*
X124374529Y-103557401D01*
X124374528Y-103557400D01*
X124374525Y-103557398D01*
X124233797Y-103483539D01*
X124233795Y-103483538D01*
X124233793Y-103483537D01*
X124233791Y-103483536D01*
X124233790Y-103483536D01*
X124079472Y-103445500D01*
X124079471Y-103445500D01*
X123920529Y-103445500D01*
X123920527Y-103445500D01*
X123858296Y-103460839D01*
X123828142Y-103464500D01*
X113671858Y-103464500D01*
X113641704Y-103460839D01*
X113579472Y-103445500D01*
X113579471Y-103445500D01*
X113420529Y-103445500D01*
X113420527Y-103445500D01*
X113266209Y-103483536D01*
X113266202Y-103483539D01*
X113125474Y-103557398D01*
X113125469Y-103557402D01*
X113006501Y-103662800D01*
X112916215Y-103793601D01*
X112916212Y-103793607D01*
X112859849Y-103942220D01*
X112840693Y-104099996D01*
X112840693Y-104100003D01*
X104098736Y-104100003D01*
X99572405Y-99573672D01*
X99538379Y-99511360D01*
X99535500Y-99484577D01*
X99535500Y-87912070D01*
X99555502Y-87843949D01*
X99589226Y-87808859D01*
X99589600Y-87808597D01*
X102392000Y-87808597D01*
X102398505Y-87869093D01*
X102449555Y-88005964D01*
X102449555Y-88005965D01*
X102537095Y-88122904D01*
X102654034Y-88210444D01*
X102790906Y-88261494D01*
X102851402Y-88267999D01*
X102851415Y-88268000D01*
X103646000Y-88268000D01*
X103646000Y-87190702D01*
X103707007Y-87225925D01*
X103834174Y-87260000D01*
X103965826Y-87260000D01*
X104092993Y-87225925D01*
X104154000Y-87190702D01*
X104154000Y-88268000D01*
X104948585Y-88268000D01*
X104948597Y-88267999D01*
X105009093Y-88261494D01*
X105145964Y-88210444D01*
X105145965Y-88210444D01*
X105262904Y-88122904D01*
X105350444Y-88005965D01*
X105350444Y-88005964D01*
X105401494Y-87869093D01*
X105407999Y-87808597D01*
X105408000Y-87808585D01*
X105408000Y-87014000D01*
X104330703Y-87014000D01*
X104365925Y-86952993D01*
X104400000Y-86825826D01*
X104400000Y-86694174D01*
X104365925Y-86567007D01*
X104330703Y-86506000D01*
X105408000Y-86506000D01*
X105408000Y-85711414D01*
X105407999Y-85711402D01*
X105401494Y-85650906D01*
X105350444Y-85514035D01*
X105350444Y-85514034D01*
X105262904Y-85397095D01*
X105145965Y-85309555D01*
X105009093Y-85258505D01*
X104948597Y-85252000D01*
X104154000Y-85252000D01*
X104154000Y-86329297D01*
X104092993Y-86294075D01*
X103965826Y-86260000D01*
X103834174Y-86260000D01*
X103707007Y-86294075D01*
X103646000Y-86329297D01*
X103646000Y-85252000D01*
X102851402Y-85252000D01*
X102790906Y-85258505D01*
X102654035Y-85309555D01*
X102654034Y-85309555D01*
X102537095Y-85397095D01*
X102449555Y-85514034D01*
X102449555Y-85514035D01*
X102398505Y-85650906D01*
X102392000Y-85711402D01*
X102392000Y-86506000D01*
X103469297Y-86506000D01*
X103434075Y-86567007D01*
X103400000Y-86694174D01*
X103400000Y-86825826D01*
X103434075Y-86952993D01*
X103469297Y-87014000D01*
X102392000Y-87014000D01*
X102392000Y-87808597D01*
X99589600Y-87808597D01*
X99709457Y-87724674D01*
X99864674Y-87569457D01*
X99990579Y-87389646D01*
X100083347Y-87190703D01*
X100140161Y-86978674D01*
X100159292Y-86760000D01*
X100140161Y-86541326D01*
X100133047Y-86514777D01*
X100134735Y-86443807D01*
X100165656Y-86393075D01*
X106161625Y-80397108D01*
X106220755Y-80308614D01*
X106268324Y-80266344D01*
X106273090Y-80263917D01*
X106420106Y-80157103D01*
X106548603Y-80028606D01*
X106655417Y-79881590D01*
X106737917Y-79719674D01*
X106794072Y-79546846D01*
X106813551Y-79423855D01*
X106843964Y-79359705D01*
X106904232Y-79322178D01*
X106975221Y-79323192D01*
X107034393Y-79362425D01*
X107062448Y-79423855D01*
X107081928Y-79546846D01*
X107081929Y-79546851D01*
X107138081Y-79719669D01*
X107138083Y-79719674D01*
X107220583Y-79881590D01*
X107220585Y-79881593D01*
X107327398Y-80028608D01*
X107455891Y-80157101D01*
X107455894Y-80157103D01*
X107602910Y-80263917D01*
X107757704Y-80342788D01*
X107809318Y-80391535D01*
X107826500Y-80455054D01*
X107826500Y-87181787D01*
X107806498Y-87249908D01*
X107789595Y-87270882D01*
X103718882Y-91341595D01*
X103656570Y-91375621D01*
X103629787Y-91378500D01*
X102686562Y-91378500D01*
X102618441Y-91358498D01*
X102572367Y-91305750D01*
X102527442Y-91209407D01*
X102490579Y-91130354D01*
X102364674Y-90950543D01*
X102209457Y-90795326D01*
X102196025Y-90785921D01*
X102029646Y-90669421D01*
X101830706Y-90576654D01*
X101830700Y-90576652D01*
X101741091Y-90552641D01*
X101618674Y-90519839D01*
X101400000Y-90500708D01*
X101181326Y-90519839D01*
X100969299Y-90576652D01*
X100969293Y-90576654D01*
X100770353Y-90669421D01*
X100590546Y-90795323D01*
X100590540Y-90795328D01*
X100435328Y-90950540D01*
X100435323Y-90950546D01*
X100309421Y-91130353D01*
X100216654Y-91329293D01*
X100216652Y-91329299D01*
X100195864Y-91406882D01*
X100159839Y-91541326D01*
X100140708Y-91760000D01*
X100159839Y-91978674D01*
X100161892Y-91986335D01*
X100216652Y-92190700D01*
X100216654Y-92190706D01*
X100309421Y-92389646D01*
X100416917Y-92543167D01*
X100435326Y-92569457D01*
X100590543Y-92724674D01*
X100770354Y-92850579D01*
X100969297Y-92943347D01*
X101181326Y-93000161D01*
X101400000Y-93019292D01*
X101618674Y-93000161D01*
X101830703Y-92943347D01*
X102029646Y-92850579D01*
X102209457Y-92724674D01*
X102364674Y-92569457D01*
X102490579Y-92389646D01*
X102572367Y-92214250D01*
X102619284Y-92160965D01*
X102686562Y-92141500D01*
X103890223Y-92141500D01*
X103890225Y-92141500D01*
X103987254Y-92115501D01*
X103987257Y-92115499D01*
X103987258Y-92115499D01*
X104030750Y-92090388D01*
X104074247Y-92065276D01*
X104145276Y-91994247D01*
X108513276Y-87626247D01*
X108563502Y-87539253D01*
X108589500Y-87442225D01*
X108589500Y-87341775D01*
X108589500Y-80455054D01*
X108609502Y-80386933D01*
X108658295Y-80342788D01*
X108813090Y-80263917D01*
X108960106Y-80157103D01*
X109088603Y-80028606D01*
X109195417Y-79881590D01*
X109277917Y-79719674D01*
X109334072Y-79546846D01*
X109353551Y-79423855D01*
X109383964Y-79359705D01*
X109444232Y-79322178D01*
X109515221Y-79323192D01*
G37*
G04 #@! TD.AperFunction*
G04 #@! TA.AperFunction,Conductor*
G36*
X113542000Y-80661820D02*
G01*
X113617709Y-80649829D01*
X113617711Y-80649829D01*
X113828483Y-80581344D01*
X113828485Y-80581343D01*
X114025956Y-80480727D01*
X114205253Y-80350460D01*
X114361960Y-80193753D01*
X114492229Y-80014453D01*
X114587987Y-79826516D01*
X114636735Y-79774900D01*
X114705649Y-79757834D01*
X114772851Y-79780734D01*
X114812521Y-79826515D01*
X114840584Y-79881592D01*
X114947398Y-80028608D01*
X115075891Y-80157101D01*
X115075894Y-80157103D01*
X115222910Y-80263917D01*
X115377704Y-80342788D01*
X115429318Y-80391535D01*
X115446500Y-80455054D01*
X115446500Y-91578223D01*
X115446499Y-91578223D01*
X115472499Y-91675254D01*
X115480723Y-91689498D01*
X115480723Y-91689499D01*
X115522721Y-91762243D01*
X115522729Y-91762253D01*
X141594724Y-117834247D01*
X141665753Y-117905276D01*
X141665754Y-117905277D01*
X141665756Y-117905278D01*
X141752741Y-117955499D01*
X141752743Y-117955499D01*
X141752746Y-117955501D01*
X141849775Y-117981500D01*
X141950225Y-117981500D01*
X155161876Y-117981500D01*
X155229997Y-118001502D01*
X155276490Y-118055158D01*
X155286594Y-118125432D01*
X155257100Y-118190012D01*
X155245430Y-118201812D01*
X155206501Y-118236300D01*
X155116215Y-118367101D01*
X155116212Y-118367107D01*
X155059849Y-118515720D01*
X155040693Y-118673496D01*
X155040693Y-118673503D01*
X155046267Y-118719412D01*
X155034622Y-118789447D01*
X155010281Y-118823694D01*
X154538030Y-119295945D01*
X154538028Y-119295948D01*
X154484729Y-119349246D01*
X154484721Y-119349256D01*
X154434500Y-119436241D01*
X154408500Y-119533276D01*
X154408500Y-120268911D01*
X154388498Y-120337032D01*
X154334842Y-120383525D01*
X154323414Y-120388084D01*
X154284427Y-120401468D01*
X154244039Y-120415334D01*
X154244037Y-120415334D01*
X154244037Y-120415335D01*
X154046620Y-120522171D01*
X154046619Y-120522172D01*
X153869471Y-120660052D01*
X153717447Y-120825195D01*
X153594668Y-121013123D01*
X153504501Y-121218683D01*
X153504498Y-121218690D01*
X153449396Y-121436285D01*
X153449395Y-121436291D01*
X153449395Y-121436293D01*
X153430858Y-121660000D01*
X153449286Y-121882395D01*
X153449396Y-121883714D01*
X153504498Y-122101309D01*
X153504501Y-122101316D01*
X153594668Y-122306876D01*
X153594670Y-122306880D01*
X153644010Y-122382400D01*
X153717447Y-122494804D01*
X153869471Y-122659947D01*
X153869476Y-122659951D01*
X153869478Y-122659953D01*
X154046619Y-122797827D01*
X154049632Y-122800172D01*
X154091103Y-122857797D01*
X154094837Y-122928696D01*
X154059647Y-122990358D01*
X153996706Y-123023206D01*
X153933305Y-123019437D01*
X153812831Y-122980292D01*
X153812827Y-122980291D01*
X153812826Y-122980291D01*
X153618417Y-122949500D01*
X153421583Y-122949500D01*
X153227174Y-122980291D01*
X153227171Y-122980291D01*
X153227170Y-122980292D01*
X153196191Y-122990358D01*
X153039975Y-123041116D01*
X153039973Y-123041116D01*
X153039973Y-123041117D01*
X152864591Y-123130478D01*
X152705351Y-123246173D01*
X152566173Y-123385351D01*
X152450478Y-123544591D01*
X152450476Y-123544595D01*
X152361116Y-123719975D01*
X152300291Y-123907174D01*
X152269500Y-124101583D01*
X152269500Y-124298417D01*
X152300291Y-124492826D01*
X152361116Y-124680025D01*
X152435056Y-124825141D01*
X152450478Y-124855408D01*
X152566173Y-125014648D01*
X152705351Y-125153826D01*
X152727172Y-125169680D01*
X152864595Y-125269524D01*
X153039975Y-125358884D01*
X153227174Y-125419709D01*
X153421583Y-125450500D01*
X153421586Y-125450500D01*
X153618414Y-125450500D01*
X153618417Y-125450500D01*
X153812826Y-125419709D01*
X154000025Y-125358884D01*
X154175405Y-125269524D01*
X154334646Y-125153828D01*
X154473828Y-125014646D01*
X154589524Y-124855405D01*
X154678884Y-124680025D01*
X154739709Y-124492826D01*
X154770500Y-124298417D01*
X154770500Y-124101583D01*
X154739709Y-123907174D01*
X154678884Y-123719975D01*
X154589524Y-123544595D01*
X154505870Y-123429456D01*
X154473826Y-123385351D01*
X154334652Y-123246177D01*
X154334648Y-123246174D01*
X154334646Y-123246172D01*
X154204646Y-123151721D01*
X154161294Y-123095499D01*
X154155219Y-123024763D01*
X154188351Y-122961971D01*
X154250171Y-122927060D01*
X154319619Y-122930612D01*
X154456350Y-122977553D01*
X154677763Y-123014500D01*
X154677767Y-123014500D01*
X154902233Y-123014500D01*
X154902237Y-123014500D01*
X155123650Y-122977553D01*
X155335961Y-122904666D01*
X155533380Y-122797828D01*
X155710522Y-122659953D01*
X155754370Y-122612322D01*
X155862552Y-122494804D01*
X155862551Y-122494804D01*
X155862554Y-122494802D01*
X155985330Y-122306880D01*
X156075500Y-122101313D01*
X156130605Y-121883707D01*
X156149142Y-121660000D01*
X156130605Y-121436293D01*
X156116958Y-121382400D01*
X156075501Y-121218690D01*
X156075498Y-121218683D01*
X155985331Y-121013123D01*
X155985330Y-121013120D01*
X155862554Y-120825198D01*
X155862553Y-120825197D01*
X155862552Y-120825195D01*
X155710528Y-120660052D01*
X155702788Y-120654028D01*
X155533380Y-120522172D01*
X155533379Y-120522171D01*
X155434670Y-120468753D01*
X155335961Y-120415334D01*
X155281618Y-120396678D01*
X155256586Y-120388084D01*
X155198652Y-120347046D01*
X155172101Y-120281201D01*
X155171500Y-120268911D01*
X155171500Y-119793712D01*
X155191502Y-119725591D01*
X155208405Y-119704617D01*
X155548117Y-119364905D01*
X155610429Y-119330879D01*
X155637212Y-119328000D01*
X155779470Y-119328000D01*
X155779471Y-119328000D01*
X155933793Y-119289963D01*
X156074529Y-119216099D01*
X156193498Y-119110701D01*
X156283787Y-118979895D01*
X156340149Y-118831282D01*
X156340149Y-118831281D01*
X156340150Y-118831279D01*
X156359307Y-118673503D01*
X156359307Y-118673496D01*
X156340150Y-118515720D01*
X156317961Y-118457214D01*
X156283787Y-118367105D01*
X156193498Y-118236299D01*
X156154569Y-118201811D01*
X156116845Y-118141667D01*
X156117625Y-118070675D01*
X156156663Y-118011374D01*
X156221564Y-117982593D01*
X156238124Y-117981500D01*
X159726778Y-117981500D01*
X159794899Y-118001502D01*
X159841392Y-118055158D01*
X159851496Y-118125432D01*
X159834211Y-118173335D01*
X159702830Y-118387727D01*
X159605971Y-118621565D01*
X159546886Y-118867676D01*
X159527028Y-119120000D01*
X159546886Y-119372323D01*
X159605971Y-119618434D01*
X159702830Y-119852272D01*
X159834177Y-120066611D01*
X159834178Y-120066611D01*
X160460764Y-119440024D01*
X160475359Y-119475258D01*
X160557437Y-119598097D01*
X160661903Y-119702563D01*
X160784742Y-119784641D01*
X160819973Y-119799234D01*
X160193387Y-120425820D01*
X160193387Y-120425822D01*
X160407727Y-120557169D01*
X160641565Y-120654028D01*
X160887676Y-120713113D01*
X161140000Y-120732971D01*
X161392323Y-120713113D01*
X161638434Y-120654028D01*
X161872277Y-120557167D01*
X162086611Y-120425822D01*
X162086611Y-120425820D01*
X161460025Y-119799234D01*
X161495258Y-119784641D01*
X161618097Y-119702563D01*
X161722563Y-119598097D01*
X161804641Y-119475258D01*
X161819234Y-119440025D01*
X162445820Y-120066611D01*
X162445822Y-120066611D01*
X162577167Y-119852277D01*
X162674028Y-119618434D01*
X162733113Y-119372323D01*
X162752971Y-119120000D01*
X162733113Y-118867676D01*
X162674028Y-118621565D01*
X162577169Y-118387727D01*
X162445789Y-118173335D01*
X162427251Y-118104801D01*
X162448707Y-118037125D01*
X162503346Y-117991792D01*
X162553222Y-117981500D01*
X164289787Y-117981500D01*
X164357908Y-118001502D01*
X164378877Y-118018400D01*
X164645153Y-118284676D01*
X164732147Y-118334902D01*
X164829175Y-118360901D01*
X164829177Y-118360901D01*
X164937343Y-118360901D01*
X164937359Y-118360900D01*
X170490345Y-118360900D01*
X170558466Y-118380902D01*
X170604959Y-118434558D01*
X170615063Y-118504832D01*
X170585569Y-118569412D01*
X170575231Y-118580014D01*
X170558669Y-118595112D01*
X170435313Y-118758463D01*
X170344071Y-118941701D01*
X170288054Y-119138580D01*
X170269168Y-119342395D01*
X170269168Y-119342404D01*
X170288054Y-119546219D01*
X170288055Y-119546221D01*
X170344072Y-119743101D01*
X170435312Y-119926335D01*
X170435313Y-119926336D01*
X170558666Y-120089684D01*
X170709936Y-120227585D01*
X170883966Y-120335340D01*
X170883968Y-120335340D01*
X170883973Y-120335344D01*
X171074844Y-120409288D01*
X171276053Y-120446900D01*
X171276055Y-120446900D01*
X171480745Y-120446900D01*
X171480747Y-120446900D01*
X171681956Y-120409288D01*
X171872827Y-120335344D01*
X172046862Y-120227586D01*
X172198132Y-120089685D01*
X172321488Y-119926335D01*
X172412728Y-119743101D01*
X172468745Y-119546221D01*
X172487632Y-119342400D01*
X172487295Y-119338767D01*
X172469294Y-119144500D01*
X172468745Y-119138579D01*
X172412728Y-118941699D01*
X172321488Y-118758465D01*
X172198132Y-118595115D01*
X172198130Y-118595112D01*
X172181569Y-118580014D01*
X172144703Y-118519340D01*
X172146492Y-118448366D01*
X172186369Y-118389626D01*
X172251673Y-118361770D01*
X172266455Y-118360900D01*
X172345187Y-118360900D01*
X172413308Y-118380902D01*
X172434282Y-118397805D01*
X172852557Y-118816080D01*
X172886583Y-118878392D01*
X172884652Y-118939656D01*
X172828054Y-119138580D01*
X172809168Y-119342395D01*
X172809168Y-119342404D01*
X172828054Y-119546219D01*
X172828055Y-119546221D01*
X172884072Y-119743101D01*
X172975312Y-119926335D01*
X172975313Y-119926336D01*
X173098666Y-120089684D01*
X173249936Y-120227585D01*
X173423966Y-120335340D01*
X173423968Y-120335340D01*
X173423973Y-120335344D01*
X173473733Y-120354621D01*
X173486809Y-120359687D01*
X173543104Y-120402946D01*
X173567074Y-120469774D01*
X173551110Y-120538952D01*
X173500279Y-120588518D01*
X173482204Y-120596351D01*
X173371031Y-120634516D01*
X173371028Y-120634517D01*
X173173099Y-120741631D01*
X173173098Y-120741632D01*
X172995497Y-120879865D01*
X172843074Y-121045441D01*
X172719980Y-121233851D01*
X172627484Y-121444720D01*
X172625872Y-121444012D01*
X172589303Y-121495618D01*
X172523453Y-121522157D01*
X172453709Y-121508881D01*
X172402213Y-121460006D01*
X172398405Y-121452935D01*
X172321488Y-121298465D01*
X172261240Y-121218683D01*
X172198133Y-121135115D01*
X172046863Y-120997214D01*
X171872833Y-120889459D01*
X171872828Y-120889457D01*
X171872827Y-120889456D01*
X171848070Y-120879865D01*
X171681959Y-120815513D01*
X171681960Y-120815513D01*
X171681957Y-120815512D01*
X171681956Y-120815512D01*
X171480747Y-120777900D01*
X171276053Y-120777900D01*
X171074844Y-120815512D01*
X171074839Y-120815513D01*
X170883977Y-120889454D01*
X170883966Y-120889459D01*
X170709936Y-120997214D01*
X170558666Y-121135115D01*
X170435313Y-121298463D01*
X170344071Y-121481701D01*
X170288054Y-121678580D01*
X170269168Y-121882395D01*
X170269168Y-121882404D01*
X170288054Y-122086219D01*
X170337447Y-122259818D01*
X170344072Y-122283101D01*
X170435312Y-122466335D01*
X170435313Y-122466336D01*
X170558666Y-122629684D01*
X170709936Y-122767585D01*
X170883966Y-122875340D01*
X170883968Y-122875340D01*
X170883973Y-122875344D01*
X171074844Y-122949288D01*
X171276053Y-122986900D01*
X171276055Y-122986900D01*
X171480745Y-122986900D01*
X171480747Y-122986900D01*
X171681956Y-122949288D01*
X171872827Y-122875344D01*
X172046862Y-122767586D01*
X172198132Y-122629685D01*
X172321488Y-122466335D01*
X172398398Y-122311878D01*
X172446665Y-122259818D01*
X172515419Y-122242115D01*
X172582830Y-122264394D01*
X172627494Y-122319581D01*
X172628963Y-122323452D01*
X172719980Y-122530948D01*
X172843074Y-122719358D01*
X172995497Y-122884934D01*
X173173098Y-123023167D01*
X173173099Y-123023168D01*
X173371028Y-123130282D01*
X173371034Y-123130284D01*
X173482203Y-123168448D01*
X173540139Y-123209484D01*
X173566691Y-123275329D01*
X173553430Y-123345076D01*
X173504566Y-123396582D01*
X173486810Y-123405112D01*
X173423974Y-123429455D01*
X173423966Y-123429459D01*
X173249936Y-123537214D01*
X173098666Y-123675115D01*
X172975313Y-123838463D01*
X172884071Y-124021701D01*
X172828054Y-124218580D01*
X172809168Y-124422395D01*
X172809168Y-124422404D01*
X172828054Y-124626219D01*
X172884652Y-124825141D01*
X172884056Y-124896135D01*
X172852558Y-124948717D01*
X172620282Y-125180995D01*
X172557970Y-125215020D01*
X172531186Y-125217900D01*
X172414764Y-125217900D01*
X172346643Y-125197898D01*
X172300150Y-125144242D01*
X172290046Y-125073968D01*
X172314213Y-125015969D01*
X172321487Y-125006336D01*
X172321486Y-125006336D01*
X172321488Y-125006335D01*
X172412728Y-124823101D01*
X172468745Y-124626221D01*
X172487632Y-124422400D01*
X172479515Y-124334809D01*
X172468745Y-124218580D01*
X172467847Y-124215423D01*
X172412728Y-124021699D01*
X172321488Y-123838465D01*
X172280938Y-123784768D01*
X172198133Y-123675115D01*
X172046863Y-123537214D01*
X171872833Y-123429459D01*
X171872828Y-123429457D01*
X171872827Y-123429456D01*
X171758979Y-123385351D01*
X171681959Y-123355513D01*
X171681960Y-123355513D01*
X171681957Y-123355512D01*
X171681956Y-123355512D01*
X171480747Y-123317900D01*
X171276053Y-123317900D01*
X171074844Y-123355512D01*
X171074839Y-123355513D01*
X170883977Y-123429454D01*
X170883966Y-123429459D01*
X170709936Y-123537214D01*
X170558666Y-123675115D01*
X170435313Y-123838463D01*
X170344071Y-124021701D01*
X170288054Y-124218580D01*
X170269168Y-124422395D01*
X170269168Y-124422404D01*
X170288054Y-124626219D01*
X170344071Y-124823098D01*
X170344072Y-124823101D01*
X170435312Y-125006335D01*
X170558668Y-125169685D01*
X170577487Y-125186841D01*
X170614353Y-125247513D01*
X170612565Y-125318487D01*
X170581696Y-125369050D01*
X169369152Y-126581595D01*
X169306840Y-126615620D01*
X169280057Y-126618500D01*
X159662562Y-126618500D01*
X159594441Y-126598498D01*
X159547948Y-126544842D01*
X159537844Y-126474568D01*
X159567338Y-126409988D01*
X159607893Y-126378978D01*
X159608960Y-126378464D01*
X159762997Y-126304284D01*
X159991289Y-126160838D01*
X160202085Y-125992734D01*
X160392734Y-125802085D01*
X160560838Y-125591289D01*
X160601297Y-125526900D01*
X160704282Y-125363000D01*
X160704281Y-125363000D01*
X160704284Y-125362997D01*
X160821267Y-125120079D01*
X160910316Y-124865591D01*
X160970312Y-124602732D01*
X161000500Y-124334809D01*
X161000500Y-124298417D01*
X162429500Y-124298417D01*
X162460291Y-124492826D01*
X162521116Y-124680025D01*
X162595056Y-124825141D01*
X162610478Y-124855408D01*
X162726173Y-125014648D01*
X162865351Y-125153826D01*
X162887172Y-125169680D01*
X163024595Y-125269524D01*
X163199975Y-125358884D01*
X163387174Y-125419709D01*
X163581583Y-125450500D01*
X163581586Y-125450500D01*
X163778414Y-125450500D01*
X163778417Y-125450500D01*
X163972826Y-125419709D01*
X164160025Y-125358884D01*
X164335405Y-125269524D01*
X164494646Y-125153828D01*
X164633828Y-125014646D01*
X164749524Y-124855405D01*
X164838884Y-124680025D01*
X164899709Y-124492826D01*
X164930500Y-124298417D01*
X164930500Y-124101583D01*
X164899709Y-123907174D01*
X164838884Y-123719975D01*
X164749524Y-123544595D01*
X164665870Y-123429456D01*
X164633826Y-123385351D01*
X164494648Y-123246173D01*
X164335408Y-123130478D01*
X164335407Y-123130477D01*
X164335405Y-123130476D01*
X164160025Y-123041116D01*
X163972826Y-122980291D01*
X163778417Y-122949500D01*
X163581583Y-122949500D01*
X163387174Y-122980291D01*
X163387171Y-122980291D01*
X163387170Y-122980292D01*
X163356191Y-122990358D01*
X163199975Y-123041116D01*
X163199973Y-123041116D01*
X163199973Y-123041117D01*
X163024591Y-123130478D01*
X162865351Y-123246173D01*
X162726173Y-123385351D01*
X162610478Y-123544591D01*
X162610476Y-123544595D01*
X162521116Y-123719975D01*
X162460291Y-123907174D01*
X162429500Y-124101583D01*
X162429500Y-124298417D01*
X161000500Y-124298417D01*
X161000500Y-124065191D01*
X160970312Y-123797268D01*
X160910316Y-123534409D01*
X160896488Y-123494892D01*
X160821273Y-123279938D01*
X160821272Y-123279937D01*
X160821267Y-123279921D01*
X160704284Y-123037003D01*
X160704283Y-123037002D01*
X160704282Y-123036999D01*
X160560840Y-122808713D01*
X160392731Y-122597911D01*
X160202088Y-122407268D01*
X159991286Y-122239159D01*
X159763000Y-122095717D01*
X159520088Y-121978737D01*
X159520083Y-121978735D01*
X159520079Y-121978733D01*
X159520073Y-121978730D01*
X159520061Y-121978726D01*
X159265597Y-121889685D01*
X159002735Y-121829688D01*
X158734811Y-121799500D01*
X158734809Y-121799500D01*
X158465191Y-121799500D01*
X158465189Y-121799500D01*
X158197264Y-121829688D01*
X157934402Y-121889685D01*
X157679938Y-121978726D01*
X157679911Y-121978737D01*
X157436999Y-122095717D01*
X157208713Y-122239159D01*
X156997911Y-122407268D01*
X156807268Y-122597911D01*
X156639159Y-122808713D01*
X156495717Y-123036999D01*
X156378737Y-123279911D01*
X156378726Y-123279938D01*
X156289685Y-123534402D01*
X156229688Y-123797264D01*
X156199500Y-124065189D01*
X156199500Y-124334810D01*
X156229688Y-124602735D01*
X156289685Y-124865597D01*
X156378726Y-125120061D01*
X156378737Y-125120088D01*
X156495717Y-125363000D01*
X156639159Y-125591286D01*
X156807268Y-125802088D01*
X156997911Y-125992731D01*
X157208713Y-126160840D01*
X157436999Y-126304282D01*
X157437002Y-126304283D01*
X157437003Y-126304284D01*
X157591040Y-126378464D01*
X157592107Y-126378978D01*
X157644803Y-126426556D01*
X157663412Y-126495070D01*
X157642024Y-126562769D01*
X157587431Y-126608157D01*
X157537438Y-126618500D01*
X149210213Y-126618500D01*
X149142092Y-126598498D01*
X149121118Y-126581595D01*
X111166405Y-88626882D01*
X111132379Y-88564570D01*
X111129500Y-88537787D01*
X111129500Y-80455054D01*
X111149502Y-80386933D01*
X111198295Y-80342788D01*
X111353090Y-80263917D01*
X111500106Y-80157103D01*
X111628603Y-80028606D01*
X111735417Y-79881590D01*
X111763479Y-79826514D01*
X111812225Y-79774900D01*
X111881140Y-79757834D01*
X111948342Y-79780734D01*
X111988012Y-79826516D01*
X112083770Y-80014453D01*
X112214039Y-80193753D01*
X112370746Y-80350460D01*
X112550043Y-80480727D01*
X112747514Y-80581343D01*
X112747516Y-80581344D01*
X112958289Y-80649829D01*
X113034000Y-80661820D01*
X113034000Y-79422673D01*
X113056409Y-79435611D01*
X113209009Y-79476500D01*
X113366991Y-79476500D01*
X113519591Y-79435611D01*
X113542000Y-79422673D01*
X113542000Y-80661820D01*
G37*
G04 #@! TD.AperFunction*
G04 #@! TA.AperFunction,Conductor*
G36*
X127295221Y-79323192D02*
G01*
X127354393Y-79362425D01*
X127382448Y-79423855D01*
X127401928Y-79546846D01*
X127401929Y-79546851D01*
X127458081Y-79719669D01*
X127458083Y-79719674D01*
X127540583Y-79881590D01*
X127540585Y-79881593D01*
X127647398Y-80028608D01*
X127775891Y-80157101D01*
X127775894Y-80157103D01*
X127922910Y-80263917D01*
X128077704Y-80342788D01*
X128129318Y-80391535D01*
X128146500Y-80455054D01*
X128146500Y-82361786D01*
X128126498Y-82429907D01*
X128109595Y-82450881D01*
X126448030Y-84112445D01*
X126448028Y-84112448D01*
X126394729Y-84165746D01*
X126394721Y-84165756D01*
X126344500Y-84252741D01*
X126318500Y-84349776D01*
X126318500Y-89850223D01*
X126318499Y-89850223D01*
X126337986Y-89922946D01*
X126344499Y-89947254D01*
X126355842Y-89966900D01*
X126394724Y-90034247D01*
X126394727Y-90034250D01*
X126394730Y-90034254D01*
X138354595Y-101994117D01*
X138388621Y-102056429D01*
X138391500Y-102083212D01*
X138391500Y-112123223D01*
X138391499Y-112123223D01*
X138417498Y-112220251D01*
X138417500Y-112220256D01*
X138461481Y-112296433D01*
X138461481Y-112296435D01*
X138467721Y-112307243D01*
X138467729Y-112307253D01*
X141829713Y-115669235D01*
X141829723Y-115669246D01*
X141834123Y-115673646D01*
X141834124Y-115673647D01*
X141905153Y-115744676D01*
X141955374Y-115773670D01*
X141955379Y-115773675D01*
X141955380Y-115773674D01*
X141992141Y-115794899D01*
X141992143Y-115794900D01*
X141992144Y-115794900D01*
X141992147Y-115794902D01*
X142089175Y-115820901D01*
X142089177Y-115820901D01*
X142197343Y-115820901D01*
X142197359Y-115820900D01*
X170164680Y-115820900D01*
X170232801Y-115840902D01*
X170279294Y-115894558D01*
X170289398Y-115964832D01*
X170270163Y-116015815D01*
X170179981Y-116153848D01*
X170089579Y-116359943D01*
X170089576Y-116359950D01*
X170041855Y-116548399D01*
X170041856Y-116548400D01*
X170947697Y-116548400D01*
X170912475Y-116609407D01*
X170878400Y-116736574D01*
X170878400Y-116868226D01*
X170912475Y-116995393D01*
X170947697Y-117056400D01*
X170041855Y-117056400D01*
X170089576Y-117244849D01*
X170089579Y-117244856D01*
X170166969Y-117421286D01*
X170176016Y-117491704D01*
X170145556Y-117555834D01*
X170085259Y-117593316D01*
X170051582Y-117597900D01*
X165089613Y-117597900D01*
X165021492Y-117577898D01*
X165000522Y-117560999D01*
X164734247Y-117294724D01*
X164734245Y-117294723D01*
X164734243Y-117294721D01*
X164647258Y-117244500D01*
X164630762Y-117240080D01*
X164550225Y-117218500D01*
X164550223Y-117218500D01*
X142110213Y-117218500D01*
X142042092Y-117198498D01*
X142021118Y-117181595D01*
X116246405Y-91406882D01*
X116212379Y-91344570D01*
X116209500Y-91317787D01*
X116209500Y-80455054D01*
X116229502Y-80386933D01*
X116278295Y-80342788D01*
X116433090Y-80263917D01*
X116580106Y-80157103D01*
X116708603Y-80028606D01*
X116815417Y-79881590D01*
X116897917Y-79719674D01*
X116954072Y-79546846D01*
X116973551Y-79423855D01*
X117003964Y-79359705D01*
X117064232Y-79322178D01*
X117135221Y-79323192D01*
X117194393Y-79362425D01*
X117222448Y-79423855D01*
X117241928Y-79546846D01*
X117241929Y-79546851D01*
X117298081Y-79719669D01*
X117298083Y-79719674D01*
X117380583Y-79881590D01*
X117380585Y-79881593D01*
X117487398Y-80028608D01*
X117615891Y-80157101D01*
X117615894Y-80157103D01*
X117762910Y-80263917D01*
X117924826Y-80346417D01*
X118097654Y-80402572D01*
X118277139Y-80431000D01*
X118277142Y-80431000D01*
X118458858Y-80431000D01*
X118458861Y-80431000D01*
X118638346Y-80402572D01*
X118811174Y-80346417D01*
X118973090Y-80263917D01*
X119120106Y-80157103D01*
X119248603Y-80028606D01*
X119355417Y-79881590D01*
X119437917Y-79719674D01*
X119494072Y-79546846D01*
X119513551Y-79423855D01*
X119543964Y-79359705D01*
X119604232Y-79322178D01*
X119675221Y-79323192D01*
X119734393Y-79362425D01*
X119762448Y-79423855D01*
X119781928Y-79546846D01*
X119781929Y-79546851D01*
X119838081Y-79719669D01*
X119838083Y-79719674D01*
X119920583Y-79881590D01*
X119920585Y-79881593D01*
X120027398Y-80028608D01*
X120155891Y-80157101D01*
X120155894Y-80157103D01*
X120302910Y-80263917D01*
X120464826Y-80346417D01*
X120637654Y-80402572D01*
X120817139Y-80431000D01*
X120817142Y-80431000D01*
X120998858Y-80431000D01*
X120998861Y-80431000D01*
X121178346Y-80402572D01*
X121351174Y-80346417D01*
X121513090Y-80263917D01*
X121660106Y-80157103D01*
X121788603Y-80028606D01*
X121895417Y-79881590D01*
X121977917Y-79719674D01*
X122034072Y-79546846D01*
X122053551Y-79423855D01*
X122083964Y-79359705D01*
X122144232Y-79322178D01*
X122215221Y-79323192D01*
X122274393Y-79362425D01*
X122302448Y-79423855D01*
X122321928Y-79546846D01*
X122321929Y-79546851D01*
X122378081Y-79719669D01*
X122378083Y-79719674D01*
X122460583Y-79881590D01*
X122460585Y-79881593D01*
X122567398Y-80028608D01*
X122695891Y-80157101D01*
X122695894Y-80157103D01*
X122842910Y-80263917D01*
X123004826Y-80346417D01*
X123177654Y-80402572D01*
X123357139Y-80431000D01*
X123357142Y-80431000D01*
X123538858Y-80431000D01*
X123538861Y-80431000D01*
X123718346Y-80402572D01*
X123891174Y-80346417D01*
X124053090Y-80263917D01*
X124200106Y-80157103D01*
X124328603Y-80028606D01*
X124435417Y-79881590D01*
X124517917Y-79719674D01*
X124574072Y-79546846D01*
X124593551Y-79423855D01*
X124623964Y-79359705D01*
X124684232Y-79322178D01*
X124755221Y-79323192D01*
X124814393Y-79362425D01*
X124842448Y-79423855D01*
X124861928Y-79546846D01*
X124861929Y-79546851D01*
X124918081Y-79719669D01*
X124918083Y-79719674D01*
X125000583Y-79881590D01*
X125000585Y-79881593D01*
X125107398Y-80028608D01*
X125235891Y-80157101D01*
X125235894Y-80157103D01*
X125382910Y-80263917D01*
X125544826Y-80346417D01*
X125717654Y-80402572D01*
X125897139Y-80431000D01*
X125897142Y-80431000D01*
X126078858Y-80431000D01*
X126078861Y-80431000D01*
X126258346Y-80402572D01*
X126431174Y-80346417D01*
X126593090Y-80263917D01*
X126740106Y-80157103D01*
X126868603Y-80028606D01*
X126975417Y-79881590D01*
X127057917Y-79719674D01*
X127114072Y-79546846D01*
X127133551Y-79423855D01*
X127163964Y-79359705D01*
X127224232Y-79322178D01*
X127295221Y-79323192D01*
G37*
G04 #@! TD.AperFunction*
G04 #@! TA.AperFunction,Conductor*
G36*
X129835221Y-79323192D02*
G01*
X129894393Y-79362425D01*
X129922448Y-79423855D01*
X129941928Y-79546846D01*
X129941929Y-79546851D01*
X129998081Y-79719669D01*
X129998083Y-79719674D01*
X130080583Y-79881590D01*
X130080585Y-79881593D01*
X130187398Y-80028608D01*
X130315891Y-80157101D01*
X130315894Y-80157103D01*
X130462910Y-80263917D01*
X130617704Y-80342788D01*
X130669318Y-80391535D01*
X130686500Y-80455054D01*
X130686500Y-92018223D01*
X130686499Y-92018223D01*
X130712500Y-92115257D01*
X130725007Y-92136920D01*
X130727652Y-92141500D01*
X130762724Y-92202247D01*
X130762725Y-92202248D01*
X130762729Y-92202253D01*
X140381595Y-101821117D01*
X140415621Y-101883429D01*
X140418500Y-101910212D01*
X140418500Y-109650223D01*
X140418499Y-109650223D01*
X140444500Y-109747258D01*
X140494721Y-109834243D01*
X140494729Y-109834253D01*
X145152713Y-114492235D01*
X145152734Y-114492258D01*
X145228146Y-114567670D01*
X145228151Y-114567674D01*
X145228153Y-114567676D01*
X145228154Y-114567677D01*
X145228156Y-114567678D01*
X145315141Y-114617899D01*
X145315143Y-114617899D01*
X145315146Y-114617901D01*
X145412175Y-114643900D01*
X145512625Y-114643900D01*
X170256495Y-114643900D01*
X170324616Y-114663902D01*
X170369285Y-114713737D01*
X170435308Y-114846330D01*
X170435311Y-114846334D01*
X170442587Y-114855969D01*
X170467676Y-114922385D01*
X170452875Y-114991822D01*
X170402884Y-115042234D01*
X170342036Y-115057900D01*
X142349612Y-115057900D01*
X142281491Y-115037898D01*
X142260517Y-115020995D01*
X139191405Y-111951882D01*
X139157379Y-111889570D01*
X139154500Y-111862787D01*
X139154500Y-101822776D01*
X139154500Y-101822775D01*
X139128501Y-101725746D01*
X139128499Y-101725743D01*
X139128499Y-101725741D01*
X139078278Y-101638756D01*
X139078270Y-101638746D01*
X139002858Y-101563334D01*
X139002835Y-101563313D01*
X127118405Y-89678882D01*
X127084379Y-89616570D01*
X127081500Y-89589787D01*
X127081500Y-84610211D01*
X127101502Y-84542090D01*
X127118400Y-84521121D01*
X128751870Y-82887650D01*
X128751880Y-82887643D01*
X128833270Y-82806253D01*
X128833276Y-82806247D01*
X128883501Y-82719254D01*
X128909500Y-82622225D01*
X128909500Y-80455054D01*
X128929502Y-80386933D01*
X128978295Y-80342788D01*
X129133090Y-80263917D01*
X129280106Y-80157103D01*
X129408603Y-80028606D01*
X129515417Y-79881590D01*
X129597917Y-79719674D01*
X129654072Y-79546846D01*
X129673551Y-79423855D01*
X129703964Y-79359705D01*
X129764232Y-79322178D01*
X129835221Y-79323192D01*
G37*
G04 #@! TD.AperFunction*
G04 #@! TA.AperFunction,Conductor*
G36*
X134915221Y-79323192D02*
G01*
X134974393Y-79362425D01*
X135002448Y-79423855D01*
X135021928Y-79546846D01*
X135021929Y-79546851D01*
X135078081Y-79719669D01*
X135078083Y-79719674D01*
X135160583Y-79881590D01*
X135160585Y-79881593D01*
X135267398Y-80028608D01*
X135395891Y-80157101D01*
X135395894Y-80157103D01*
X135542910Y-80263917D01*
X135697704Y-80342788D01*
X135749318Y-80391535D01*
X135766500Y-80455054D01*
X135766500Y-90798223D01*
X135766499Y-90798223D01*
X135792498Y-90895252D01*
X135792501Y-90895259D01*
X135802067Y-90911827D01*
X135842721Y-90982243D01*
X135842729Y-90982253D01*
X146081595Y-101221118D01*
X146115621Y-101283430D01*
X146118500Y-101310213D01*
X146118500Y-104450223D01*
X146118499Y-104450223D01*
X146118500Y-104450225D01*
X146144499Y-104547254D01*
X146171271Y-104593625D01*
X146194724Y-104634247D01*
X146194725Y-104634248D01*
X146194729Y-104634253D01*
X148432713Y-106872235D01*
X148432734Y-106872258D01*
X148508146Y-106947670D01*
X148508151Y-106947674D01*
X148508153Y-106947676D01*
X148508154Y-106947677D01*
X148508156Y-106947678D01*
X148595141Y-106997899D01*
X148595143Y-106997899D01*
X148595146Y-106997901D01*
X148692175Y-107023900D01*
X170256495Y-107023900D01*
X170324616Y-107043902D01*
X170369285Y-107093737D01*
X170435308Y-107226330D01*
X170435312Y-107226335D01*
X170558666Y-107389684D01*
X170709936Y-107527585D01*
X170883966Y-107635340D01*
X170883968Y-107635340D01*
X170883973Y-107635344D01*
X170933733Y-107654621D01*
X170946809Y-107659687D01*
X171003104Y-107702946D01*
X171027074Y-107769774D01*
X171011110Y-107838952D01*
X170960279Y-107888518D01*
X170942204Y-107896351D01*
X170831031Y-107934516D01*
X170831028Y-107934517D01*
X170633099Y-108041631D01*
X170633098Y-108041632D01*
X170455497Y-108179865D01*
X170303074Y-108345441D01*
X170179980Y-108533851D01*
X170089579Y-108739943D01*
X170089576Y-108739950D01*
X170041855Y-108928399D01*
X170041856Y-108928400D01*
X170947697Y-108928400D01*
X170912475Y-108989407D01*
X170878400Y-109116574D01*
X170878400Y-109248226D01*
X170912475Y-109375393D01*
X170947697Y-109436400D01*
X170041855Y-109436400D01*
X170089576Y-109624849D01*
X170089579Y-109624856D01*
X170179980Y-109830948D01*
X170303074Y-110019358D01*
X170455497Y-110184934D01*
X170633098Y-110323167D01*
X170633099Y-110323168D01*
X170831028Y-110430282D01*
X170831034Y-110430284D01*
X170942203Y-110468448D01*
X171000139Y-110509484D01*
X171026691Y-110575329D01*
X171013430Y-110645076D01*
X170964566Y-110696582D01*
X170946810Y-110705112D01*
X170883974Y-110729455D01*
X170883966Y-110729459D01*
X170709936Y-110837214D01*
X170558666Y-110975115D01*
X170435312Y-111138464D01*
X170435308Y-111138469D01*
X170369285Y-111271063D01*
X170321016Y-111323127D01*
X170256495Y-111340900D01*
X145932613Y-111340900D01*
X145864492Y-111320898D01*
X145843518Y-111303995D01*
X143418405Y-108878882D01*
X143384379Y-108816570D01*
X143381500Y-108789787D01*
X143381500Y-100760388D01*
X143381501Y-100760375D01*
X143381501Y-100649776D01*
X143359979Y-100569456D01*
X143355502Y-100552747D01*
X143322458Y-100495513D01*
X143305278Y-100465756D01*
X143305270Y-100465746D01*
X134026405Y-91186881D01*
X133992379Y-91124569D01*
X133989500Y-91097786D01*
X133989500Y-80455054D01*
X134009502Y-80386933D01*
X134058295Y-80342788D01*
X134213090Y-80263917D01*
X134360106Y-80157103D01*
X134488603Y-80028606D01*
X134595417Y-79881590D01*
X134677917Y-79719674D01*
X134734072Y-79546846D01*
X134753551Y-79423855D01*
X134783964Y-79359705D01*
X134844232Y-79322178D01*
X134915221Y-79323192D01*
G37*
G04 #@! TD.AperFunction*
G04 #@! TA.AperFunction,Conductor*
G36*
X162399075Y-104107007D02*
G01*
X162365000Y-104234174D01*
X162365000Y-104365826D01*
X162399075Y-104492993D01*
X162434297Y-104554000D01*
X160755703Y-104554000D01*
X160790925Y-104492993D01*
X160825000Y-104365826D01*
X160825000Y-104234174D01*
X160790925Y-104107007D01*
X160755703Y-104046000D01*
X162434297Y-104046000D01*
X162399075Y-104107007D01*
G37*
G04 #@! TD.AperFunction*
G04 #@! TA.AperFunction,Conductor*
G36*
X110091681Y-59320502D02*
G01*
X110138174Y-59374158D01*
X110148278Y-59444432D01*
X110128326Y-59496501D01*
X110109823Y-59524192D01*
X110034104Y-59706994D01*
X110034103Y-59706997D01*
X109995500Y-59901061D01*
X109995500Y-61598938D01*
X110034103Y-61793002D01*
X110034104Y-61793005D01*
X110038808Y-61804361D01*
X110109824Y-61975809D01*
X110219754Y-62140331D01*
X110359669Y-62280246D01*
X110524191Y-62390176D01*
X110706998Y-62465897D01*
X110901065Y-62504500D01*
X111098935Y-62504500D01*
X111293002Y-62465897D01*
X111475809Y-62390176D01*
X111640331Y-62280246D01*
X111780246Y-62140331D01*
X111890176Y-61975809D01*
X111965897Y-61793002D01*
X112004500Y-61598935D01*
X112004500Y-59901065D01*
X111965897Y-59706998D01*
X111890176Y-59524191D01*
X111871673Y-59496500D01*
X111850460Y-59428748D01*
X111869243Y-59360281D01*
X111922061Y-59312839D01*
X111976440Y-59300500D01*
X123738914Y-59300500D01*
X123807035Y-59320502D01*
X123853528Y-59374158D01*
X123863632Y-59444432D01*
X123851181Y-59483703D01*
X123834165Y-59517097D01*
X123772977Y-59705414D01*
X123742000Y-59900996D01*
X123742000Y-60496000D01*
X124650000Y-60496000D01*
X124650000Y-61004000D01*
X123741999Y-61004000D01*
X123740814Y-61005185D01*
X123678502Y-61039209D01*
X123607686Y-61034143D01*
X123550851Y-60991596D01*
X123533215Y-60955984D01*
X123532689Y-60956188D01*
X123530584Y-60950756D01*
X123530583Y-60950754D01*
X123530582Y-60950750D01*
X123439673Y-60768179D01*
X123439670Y-60768175D01*
X123316765Y-60605421D01*
X123166040Y-60468018D01*
X123166039Y-60468017D01*
X122992648Y-60360658D01*
X122992641Y-60360654D01*
X122992637Y-60360652D01*
X122876133Y-60315518D01*
X122802457Y-60286976D01*
X122735629Y-60274484D01*
X122601976Y-60249500D01*
X122398024Y-60249500D01*
X122297784Y-60268238D01*
X122197542Y-60286976D01*
X122050190Y-60344060D01*
X122007363Y-60360652D01*
X122007362Y-60360652D01*
X122007361Y-60360653D01*
X122007351Y-60360658D01*
X121833960Y-60468017D01*
X121833959Y-60468018D01*
X121683234Y-60605421D01*
X121560329Y-60768175D01*
X121469416Y-60950754D01*
X121413603Y-61146915D01*
X121394785Y-61350000D01*
X121413603Y-61553084D01*
X121469416Y-61749245D01*
X121469417Y-61749247D01*
X121469418Y-61749250D01*
X121560327Y-61931821D01*
X121560328Y-61931822D01*
X121560329Y-61931824D01*
X121683234Y-62094578D01*
X121833959Y-62231981D01*
X121833960Y-62231982D01*
X122007351Y-62339341D01*
X122007354Y-62339342D01*
X122007363Y-62339348D01*
X122197544Y-62413024D01*
X122398024Y-62450500D01*
X122398026Y-62450500D01*
X122601974Y-62450500D01*
X122601976Y-62450500D01*
X122802456Y-62413024D01*
X122992637Y-62339348D01*
X123166041Y-62231981D01*
X123316764Y-62094579D01*
X123439673Y-61931821D01*
X123530582Y-61749250D01*
X123530583Y-61749246D01*
X123533178Y-61744035D01*
X123535551Y-61745216D01*
X123571869Y-61697860D01*
X123638674Y-61673825D01*
X123707867Y-61689722D01*
X123757482Y-61740505D01*
X123770648Y-61779886D01*
X123772975Y-61794581D01*
X123834165Y-61982902D01*
X123924064Y-62159339D01*
X124040453Y-62319534D01*
X124040455Y-62319537D01*
X124180462Y-62459544D01*
X124180465Y-62459546D01*
X124340660Y-62575935D01*
X124517097Y-62665834D01*
X124705417Y-62727023D01*
X124705424Y-62727025D01*
X124746000Y-62733451D01*
X124746000Y-61740975D01*
X124785095Y-61780070D01*
X124864905Y-61826148D01*
X124953922Y-61850000D01*
X125046078Y-61850000D01*
X125135095Y-61826148D01*
X125214905Y-61780070D01*
X125254000Y-61740975D01*
X125254000Y-62733450D01*
X125294575Y-62727025D01*
X125294582Y-62727023D01*
X125482902Y-62665834D01*
X125659339Y-62575935D01*
X125819534Y-62459546D01*
X125819537Y-62459544D01*
X125959544Y-62319537D01*
X125959546Y-62319534D01*
X126075935Y-62159339D01*
X126165834Y-61982902D01*
X126227022Y-61794585D01*
X126258000Y-61599003D01*
X126258000Y-61004000D01*
X125350000Y-61004000D01*
X125350000Y-60496000D01*
X126258000Y-60496000D01*
X126258000Y-59900996D01*
X126227022Y-59705414D01*
X126165834Y-59517097D01*
X126148819Y-59483703D01*
X126135715Y-59413926D01*
X126162415Y-59348141D01*
X126220443Y-59307235D01*
X126261086Y-59300500D01*
X138238914Y-59300500D01*
X138307035Y-59320502D01*
X138353528Y-59374158D01*
X138363632Y-59444432D01*
X138351181Y-59483703D01*
X138334165Y-59517097D01*
X138272977Y-59705414D01*
X138242000Y-59900996D01*
X138242000Y-60496000D01*
X139150000Y-60496000D01*
X139150000Y-61004000D01*
X138241999Y-61004000D01*
X138240814Y-61005185D01*
X138178502Y-61039209D01*
X138107686Y-61034143D01*
X138050851Y-60991596D01*
X138033215Y-60955984D01*
X138032689Y-60956188D01*
X138030584Y-60950756D01*
X138030583Y-60950754D01*
X138030582Y-60950750D01*
X137939673Y-60768179D01*
X137939670Y-60768175D01*
X137816765Y-60605421D01*
X137666040Y-60468018D01*
X137666039Y-60468017D01*
X137492648Y-60360658D01*
X137492641Y-60360654D01*
X137492637Y-60360652D01*
X137376133Y-60315518D01*
X137302457Y-60286976D01*
X137235629Y-60274484D01*
X137101976Y-60249500D01*
X136898024Y-60249500D01*
X136797784Y-60268238D01*
X136697542Y-60286976D01*
X136550190Y-60344060D01*
X136507363Y-60360652D01*
X136507362Y-60360652D01*
X136507361Y-60360653D01*
X136507351Y-60360658D01*
X136333960Y-60468017D01*
X136333959Y-60468018D01*
X136183234Y-60605421D01*
X136060329Y-60768175D01*
X135969416Y-60950754D01*
X135913603Y-61146915D01*
X135894785Y-61350000D01*
X135913603Y-61553084D01*
X135969416Y-61749245D01*
X135969417Y-61749247D01*
X135969418Y-61749250D01*
X136060327Y-61931821D01*
X136060328Y-61931822D01*
X136060329Y-61931824D01*
X136183234Y-62094578D01*
X136333959Y-62231981D01*
X136333960Y-62231982D01*
X136507351Y-62339341D01*
X136507354Y-62339342D01*
X136507363Y-62339348D01*
X136697544Y-62413024D01*
X136898024Y-62450500D01*
X136898026Y-62450500D01*
X137101974Y-62450500D01*
X137101976Y-62450500D01*
X137302456Y-62413024D01*
X137492637Y-62339348D01*
X137666041Y-62231981D01*
X137816764Y-62094579D01*
X137939673Y-61931821D01*
X138030582Y-61749250D01*
X138030583Y-61749246D01*
X138033178Y-61744035D01*
X138035551Y-61745216D01*
X138071869Y-61697860D01*
X138138674Y-61673825D01*
X138207867Y-61689722D01*
X138257482Y-61740505D01*
X138270648Y-61779886D01*
X138272975Y-61794581D01*
X138334165Y-61982902D01*
X138424064Y-62159339D01*
X138540453Y-62319534D01*
X138540455Y-62319537D01*
X138680462Y-62459544D01*
X138680465Y-62459546D01*
X138840660Y-62575935D01*
X139017097Y-62665834D01*
X139205417Y-62727023D01*
X139205424Y-62727025D01*
X139246000Y-62733451D01*
X139246000Y-61740975D01*
X139285095Y-61780070D01*
X139364905Y-61826148D01*
X139453922Y-61850000D01*
X139546078Y-61850000D01*
X139635095Y-61826148D01*
X139714905Y-61780070D01*
X139754000Y-61740975D01*
X139754000Y-62733450D01*
X139794575Y-62727025D01*
X139794582Y-62727023D01*
X139982902Y-62665834D01*
X140159339Y-62575935D01*
X140319534Y-62459546D01*
X140319537Y-62459544D01*
X140459544Y-62319537D01*
X140459546Y-62319534D01*
X140575935Y-62159339D01*
X140665834Y-61982902D01*
X140727022Y-61794585D01*
X140758000Y-61599003D01*
X140758000Y-61004000D01*
X139850000Y-61004000D01*
X139850000Y-60496000D01*
X140758000Y-60496000D01*
X140758000Y-59900996D01*
X140727022Y-59705414D01*
X140665834Y-59517097D01*
X140648819Y-59483703D01*
X140635715Y-59413926D01*
X140662415Y-59348141D01*
X140720443Y-59307235D01*
X140761086Y-59300500D01*
X153738914Y-59300500D01*
X153807035Y-59320502D01*
X153853528Y-59374158D01*
X153863632Y-59444432D01*
X153851181Y-59483703D01*
X153834165Y-59517097D01*
X153772977Y-59705414D01*
X153742000Y-59900996D01*
X153742000Y-60496000D01*
X154650000Y-60496000D01*
X154650000Y-61004000D01*
X153741999Y-61004000D01*
X153740814Y-61005185D01*
X153678502Y-61039209D01*
X153607686Y-61034143D01*
X153550851Y-60991596D01*
X153533215Y-60955984D01*
X153532689Y-60956188D01*
X153530584Y-60950756D01*
X153530583Y-60950754D01*
X153530582Y-60950750D01*
X153439673Y-60768179D01*
X153439670Y-60768175D01*
X153316765Y-60605421D01*
X153166040Y-60468018D01*
X153166039Y-60468017D01*
X152992648Y-60360658D01*
X152992641Y-60360654D01*
X152992637Y-60360652D01*
X152876133Y-60315518D01*
X152802457Y-60286976D01*
X152735629Y-60274484D01*
X152601976Y-60249500D01*
X152398024Y-60249500D01*
X152297784Y-60268238D01*
X152197542Y-60286976D01*
X152050190Y-60344060D01*
X152007363Y-60360652D01*
X152007362Y-60360652D01*
X152007361Y-60360653D01*
X152007351Y-60360658D01*
X151833960Y-60468017D01*
X151833959Y-60468018D01*
X151683234Y-60605421D01*
X151560329Y-60768175D01*
X151469416Y-60950754D01*
X151413603Y-61146915D01*
X151394785Y-61350000D01*
X151413603Y-61553084D01*
X151469416Y-61749245D01*
X151469417Y-61749247D01*
X151469418Y-61749250D01*
X151560327Y-61931821D01*
X151560328Y-61931822D01*
X151560329Y-61931824D01*
X151683234Y-62094578D01*
X151833959Y-62231981D01*
X151833960Y-62231982D01*
X152007351Y-62339341D01*
X152007354Y-62339342D01*
X152007363Y-62339348D01*
X152197544Y-62413024D01*
X152398024Y-62450500D01*
X152398026Y-62450500D01*
X152601974Y-62450500D01*
X152601976Y-62450500D01*
X152802456Y-62413024D01*
X152992637Y-62339348D01*
X153166041Y-62231981D01*
X153316764Y-62094579D01*
X153439673Y-61931821D01*
X153530582Y-61749250D01*
X153530583Y-61749246D01*
X153533178Y-61744035D01*
X153535551Y-61745216D01*
X153571869Y-61697860D01*
X153638674Y-61673825D01*
X153707867Y-61689722D01*
X153757482Y-61740505D01*
X153770648Y-61779886D01*
X153772975Y-61794581D01*
X153834165Y-61982902D01*
X153924064Y-62159339D01*
X154040453Y-62319534D01*
X154040455Y-62319537D01*
X154180462Y-62459544D01*
X154180465Y-62459546D01*
X154340660Y-62575935D01*
X154517097Y-62665834D01*
X154705417Y-62727023D01*
X154705424Y-62727025D01*
X154746000Y-62733451D01*
X154746000Y-61740975D01*
X154785095Y-61780070D01*
X154864905Y-61826148D01*
X154953922Y-61850000D01*
X155046078Y-61850000D01*
X155135095Y-61826148D01*
X155214905Y-61780070D01*
X155254000Y-61740975D01*
X155254000Y-62733450D01*
X155294575Y-62727025D01*
X155294582Y-62727023D01*
X155482902Y-62665834D01*
X155659339Y-62575935D01*
X155819534Y-62459546D01*
X155819537Y-62459544D01*
X155959544Y-62319537D01*
X155959546Y-62319534D01*
X156075935Y-62159339D01*
X156165834Y-61982902D01*
X156227022Y-61794585D01*
X156258000Y-61599003D01*
X156258000Y-61004000D01*
X155350000Y-61004000D01*
X155350000Y-60496000D01*
X156258000Y-60496000D01*
X156258000Y-59900996D01*
X156227022Y-59705414D01*
X156165834Y-59517097D01*
X156148819Y-59483703D01*
X156135715Y-59413926D01*
X156162415Y-59348141D01*
X156220443Y-59307235D01*
X156261086Y-59300500D01*
X167073500Y-59300500D01*
X167141621Y-59320502D01*
X167188114Y-59374158D01*
X167199500Y-59426500D01*
X167199500Y-76039565D01*
X167219977Y-76115985D01*
X167219978Y-76115988D01*
X167219979Y-76115989D01*
X167259540Y-76184511D01*
X167259542Y-76184513D01*
X167259545Y-76184517D01*
X167315482Y-76240454D01*
X167315486Y-76240457D01*
X167315489Y-76240460D01*
X167384011Y-76280021D01*
X167384013Y-76280021D01*
X167384014Y-76280022D01*
X167460434Y-76300499D01*
X167460438Y-76300500D01*
X167539562Y-76300500D01*
X224823500Y-76300500D01*
X224891621Y-76320502D01*
X224938114Y-76374158D01*
X224949500Y-76426500D01*
X224949500Y-140073500D01*
X224929498Y-140141621D01*
X224875842Y-140188114D01*
X224823500Y-140199500D01*
X94926500Y-140199500D01*
X94858379Y-140179498D01*
X94811886Y-140125842D01*
X94800500Y-140073500D01*
X94800500Y-137114736D01*
X96149500Y-137114736D01*
X96179450Y-137342231D01*
X96179452Y-137342238D01*
X96238842Y-137563887D01*
X96326656Y-137775888D01*
X96326657Y-137775889D01*
X96326662Y-137775900D01*
X96441386Y-137974608D01*
X96441391Y-137974615D01*
X96581073Y-138156652D01*
X96581092Y-138156673D01*
X96743326Y-138318907D01*
X96743347Y-138318926D01*
X96925384Y-138458608D01*
X96925391Y-138458613D01*
X97124099Y-138573337D01*
X97124103Y-138573338D01*
X97124112Y-138573344D01*
X97336113Y-138661158D01*
X97557762Y-138720548D01*
X97557766Y-138720548D01*
X97557768Y-138720549D01*
X97616398Y-138728267D01*
X97785266Y-138750500D01*
X97785273Y-138750500D01*
X98014727Y-138750500D01*
X98014734Y-138750500D01*
X98220345Y-138723430D01*
X98242231Y-138720549D01*
X98242231Y-138720548D01*
X98242238Y-138720548D01*
X98463887Y-138661158D01*
X98675888Y-138573344D01*
X98874612Y-138458611D01*
X99056661Y-138318919D01*
X99218919Y-138156661D01*
X99358611Y-137974612D01*
X99473344Y-137775888D01*
X99561158Y-137563887D01*
X99620548Y-137342238D01*
X99650500Y-137114734D01*
X99650500Y-137007136D01*
X170867900Y-137007136D01*
X170897850Y-137234631D01*
X170897852Y-137234638D01*
X170957242Y-137456287D01*
X171045056Y-137668288D01*
X171045057Y-137668289D01*
X171045062Y-137668300D01*
X171159786Y-137867008D01*
X171159791Y-137867015D01*
X171299473Y-138049052D01*
X171299492Y-138049073D01*
X171461726Y-138211307D01*
X171461747Y-138211326D01*
X171643784Y-138351008D01*
X171643791Y-138351013D01*
X171842499Y-138465737D01*
X171842503Y-138465738D01*
X171842512Y-138465744D01*
X172054513Y-138553558D01*
X172276162Y-138612948D01*
X172276166Y-138612948D01*
X172276168Y-138612949D01*
X172334798Y-138620667D01*
X172503666Y-138642900D01*
X172503673Y-138642900D01*
X172733127Y-138642900D01*
X172733134Y-138642900D01*
X172938745Y-138615830D01*
X172960631Y-138612949D01*
X172960631Y-138612948D01*
X172960638Y-138612948D01*
X173182287Y-138553558D01*
X173394288Y-138465744D01*
X173593012Y-138351011D01*
X173775061Y-138211319D01*
X173937319Y-138049061D01*
X174077011Y-137867012D01*
X174191744Y-137668288D01*
X174279558Y-137456287D01*
X174338948Y-137234638D01*
X174368900Y-137007136D01*
X219867900Y-137007136D01*
X219897850Y-137234631D01*
X219897852Y-137234638D01*
X219957242Y-137456287D01*
X220045056Y-137668288D01*
X220045057Y-137668289D01*
X220045062Y-137668300D01*
X220159786Y-137867008D01*
X220159791Y-137867015D01*
X220299473Y-138049052D01*
X220299492Y-138049073D01*
X220461726Y-138211307D01*
X220461747Y-138211326D01*
X220643784Y-138351008D01*
X220643791Y-138351013D01*
X220842499Y-138465737D01*
X220842503Y-138465738D01*
X220842512Y-138465744D01*
X221054513Y-138553558D01*
X221276162Y-138612948D01*
X221276166Y-138612948D01*
X221276168Y-138612949D01*
X221334798Y-138620667D01*
X221503666Y-138642900D01*
X221503673Y-138642900D01*
X221733127Y-138642900D01*
X221733134Y-138642900D01*
X221938745Y-138615830D01*
X221960631Y-138612949D01*
X221960631Y-138612948D01*
X221960638Y-138612948D01*
X222182287Y-138553558D01*
X222394288Y-138465744D01*
X222593012Y-138351011D01*
X222775061Y-138211319D01*
X222937319Y-138049061D01*
X223077011Y-137867012D01*
X223191744Y-137668288D01*
X223279558Y-137456287D01*
X223338948Y-137234638D01*
X223368900Y-137007134D01*
X223368900Y-136777666D01*
X223338948Y-136550162D01*
X223279558Y-136328513D01*
X223191744Y-136116512D01*
X223191738Y-136116503D01*
X223191737Y-136116499D01*
X223077013Y-135917791D01*
X223077008Y-135917784D01*
X222937326Y-135735747D01*
X222937307Y-135735726D01*
X222775073Y-135573492D01*
X222775052Y-135573473D01*
X222593015Y-135433791D01*
X222593008Y-135433786D01*
X222394300Y-135319062D01*
X222394292Y-135319058D01*
X222394288Y-135319056D01*
X222182287Y-135231242D01*
X221960638Y-135171852D01*
X221960631Y-135171850D01*
X221733136Y-135141900D01*
X221733134Y-135141900D01*
X221503666Y-135141900D01*
X221503663Y-135141900D01*
X221276168Y-135171850D01*
X221054513Y-135231242D01*
X221010435Y-135249500D01*
X220842510Y-135319057D01*
X220842499Y-135319062D01*
X220643791Y-135433786D01*
X220643784Y-135433791D01*
X220461747Y-135573473D01*
X220461726Y-135573492D01*
X220299492Y-135735726D01*
X220299473Y-135735747D01*
X220159791Y-135917784D01*
X220159786Y-135917791D01*
X220045062Y-136116499D01*
X220045057Y-136116510D01*
X220045056Y-136116512D01*
X219957242Y-136328513D01*
X219897850Y-136550168D01*
X219867900Y-136777663D01*
X219867900Y-137007136D01*
X174368900Y-137007136D01*
X174368900Y-137007134D01*
X174368900Y-136777666D01*
X174338948Y-136550162D01*
X174279558Y-136328513D01*
X174191744Y-136116512D01*
X174191738Y-136116503D01*
X174191737Y-136116499D01*
X174077013Y-135917791D01*
X174077008Y-135917784D01*
X173937326Y-135735747D01*
X173937307Y-135735726D01*
X173775073Y-135573492D01*
X173775052Y-135573473D01*
X173593015Y-135433791D01*
X173593008Y-135433786D01*
X173394300Y-135319062D01*
X173394292Y-135319058D01*
X173394288Y-135319056D01*
X173182287Y-135231242D01*
X172960638Y-135171852D01*
X172960631Y-135171850D01*
X172733136Y-135141900D01*
X172733134Y-135141900D01*
X172503666Y-135141900D01*
X172503663Y-135141900D01*
X172276168Y-135171850D01*
X172054513Y-135231242D01*
X172010435Y-135249500D01*
X171842510Y-135319057D01*
X171842499Y-135319062D01*
X171643791Y-135433786D01*
X171643784Y-135433791D01*
X171461747Y-135573473D01*
X171461726Y-135573492D01*
X171299492Y-135735726D01*
X171299473Y-135735747D01*
X171159791Y-135917784D01*
X171159786Y-135917791D01*
X171045062Y-136116499D01*
X171045057Y-136116510D01*
X171045056Y-136116512D01*
X170957242Y-136328513D01*
X170897850Y-136550168D01*
X170867900Y-136777663D01*
X170867900Y-137007136D01*
X99650500Y-137007136D01*
X99650500Y-136885266D01*
X99620548Y-136657762D01*
X99561158Y-136436113D01*
X99473344Y-136224112D01*
X99473338Y-136224103D01*
X99473337Y-136224099D01*
X99358613Y-136025391D01*
X99358608Y-136025384D01*
X99218926Y-135843347D01*
X99218907Y-135843326D01*
X99056673Y-135681092D01*
X99056652Y-135681073D01*
X98874615Y-135541391D01*
X98874608Y-135541386D01*
X98675900Y-135426662D01*
X98675892Y-135426658D01*
X98675888Y-135426656D01*
X98463887Y-135338842D01*
X98242238Y-135279452D01*
X98242231Y-135279450D01*
X98014736Y-135249500D01*
X98014734Y-135249500D01*
X97785266Y-135249500D01*
X97785263Y-135249500D01*
X97557768Y-135279450D01*
X97336113Y-135338842D01*
X97124110Y-135426657D01*
X97124099Y-135426662D01*
X96925391Y-135541386D01*
X96925384Y-135541391D01*
X96743347Y-135681073D01*
X96743326Y-135681092D01*
X96581092Y-135843326D01*
X96581073Y-135843347D01*
X96441391Y-136025384D01*
X96441386Y-136025391D01*
X96326662Y-136224099D01*
X96326657Y-136224110D01*
X96238842Y-136436113D01*
X96179450Y-136657768D01*
X96149500Y-136885263D01*
X96149500Y-137114736D01*
X94800500Y-137114736D01*
X94800500Y-109877200D01*
X95869480Y-109877200D01*
X95889131Y-110139431D01*
X95947646Y-110395799D01*
X95947647Y-110395802D01*
X96043713Y-110640577D01*
X96043715Y-110640581D01*
X96175196Y-110868313D01*
X96339157Y-111073914D01*
X96408732Y-111138469D01*
X96531920Y-111252770D01*
X96531926Y-111252774D01*
X96749180Y-111400896D01*
X96749187Y-111400900D01*
X96749190Y-111400902D01*
X96986112Y-111514998D01*
X97206807Y-111583073D01*
X97237385Y-111592506D01*
X97237392Y-111592508D01*
X97497418Y-111631700D01*
X97497422Y-111631700D01*
X97760378Y-111631700D01*
X97760382Y-111631700D01*
X98020408Y-111592508D01*
X98271688Y-111514998D01*
X98508610Y-111400902D01*
X98725880Y-111252770D01*
X98918646Y-111073910D01*
X99082601Y-110868317D01*
X99214083Y-110640584D01*
X99310154Y-110395798D01*
X99368669Y-110139428D01*
X99388320Y-109877200D01*
X99368669Y-109614972D01*
X99310154Y-109358602D01*
X99261350Y-109234251D01*
X99214086Y-109113822D01*
X99214084Y-109113818D01*
X99082603Y-108886086D01*
X99047427Y-108841977D01*
X98918646Y-108680490D01*
X98918645Y-108680489D01*
X98918642Y-108680485D01*
X98725885Y-108501635D01*
X98725880Y-108501630D01*
X98725873Y-108501625D01*
X98508619Y-108353503D01*
X98508612Y-108353499D01*
X98271693Y-108239404D01*
X98271690Y-108239403D01*
X98271688Y-108239402D01*
X98183796Y-108212290D01*
X98020414Y-108161893D01*
X98020409Y-108161892D01*
X98020408Y-108161892D01*
X97760382Y-108122700D01*
X97497418Y-108122700D01*
X97237392Y-108161892D01*
X97237391Y-108161892D01*
X97237385Y-108161893D01*
X96986106Y-108239404D01*
X96749187Y-108353499D01*
X96749180Y-108353503D01*
X96531926Y-108501625D01*
X96531914Y-108501635D01*
X96339157Y-108680485D01*
X96175196Y-108886086D01*
X96043715Y-109113818D01*
X96043713Y-109113822D01*
X95947647Y-109358597D01*
X95947646Y-109358600D01*
X95889131Y-109614968D01*
X95869480Y-109877200D01*
X94800500Y-109877200D01*
X94800500Y-86760000D01*
X97640708Y-86760000D01*
X97659839Y-86978674D01*
X97684226Y-87069685D01*
X97716652Y-87190700D01*
X97716654Y-87190706D01*
X97809421Y-87389646D01*
X97835506Y-87426900D01*
X97935326Y-87569457D01*
X98090543Y-87724674D01*
X98210772Y-87808858D01*
X98255099Y-87864313D01*
X98264500Y-87912070D01*
X98264500Y-99737409D01*
X98264500Y-99862591D01*
X98288922Y-99985369D01*
X98336827Y-100101022D01*
X98406375Y-100205108D01*
X98406377Y-100205110D01*
X108927595Y-110726328D01*
X108961621Y-110788640D01*
X108964500Y-110815423D01*
X108964500Y-117084577D01*
X108944498Y-117152698D01*
X108927595Y-117173672D01*
X102606377Y-123494889D01*
X102606372Y-123494896D01*
X102536827Y-123598977D01*
X102488924Y-123714625D01*
X102488922Y-123714630D01*
X102464500Y-123837406D01*
X102464500Y-123837409D01*
X102464500Y-125437409D01*
X102464500Y-130537409D01*
X102464500Y-130662591D01*
X102488922Y-130785369D01*
X102536827Y-130901022D01*
X102606375Y-131005108D01*
X106594892Y-134993625D01*
X106698978Y-135063173D01*
X106814631Y-135111078D01*
X106937409Y-135135500D01*
X106937410Y-135135500D01*
X168983390Y-135135500D01*
X168983391Y-135135500D01*
X169106169Y-135111078D01*
X169221822Y-135063173D01*
X169325908Y-134993625D01*
X171141959Y-133177572D01*
X171204268Y-133143550D01*
X171254204Y-133142816D01*
X171276051Y-133146900D01*
X171276053Y-133146900D01*
X171480745Y-133146900D01*
X171480747Y-133146900D01*
X171681956Y-133109288D01*
X171872827Y-133035344D01*
X172046862Y-132927586D01*
X172198132Y-132789685D01*
X172321488Y-132626335D01*
X172412728Y-132443101D01*
X172468745Y-132246221D01*
X172477456Y-132152211D01*
X172487632Y-132042404D01*
X172487632Y-132042395D01*
X172468745Y-131838580D01*
X172468745Y-131838579D01*
X172412728Y-131641699D01*
X172321488Y-131458465D01*
X172321487Y-131458464D01*
X172321487Y-131458463D01*
X172314213Y-131448831D01*
X172289124Y-131382415D01*
X172303925Y-131312978D01*
X172353916Y-131262566D01*
X172414764Y-131246900D01*
X172687900Y-131246900D01*
X172756021Y-131266902D01*
X172802514Y-131320558D01*
X172813900Y-131372900D01*
X172813900Y-132917463D01*
X172813901Y-132917473D01*
X172828665Y-132991700D01*
X172884916Y-133075884D01*
X172969097Y-133132133D01*
X172969099Y-133132134D01*
X173043333Y-133146900D01*
X174793466Y-133146899D01*
X174793469Y-133146898D01*
X174793473Y-133146898D01*
X174842726Y-133137101D01*
X174867701Y-133132134D01*
X174951884Y-133075884D01*
X175008134Y-132991701D01*
X175022900Y-132917467D01*
X175022899Y-131372899D01*
X175042901Y-131304779D01*
X175096557Y-131258286D01*
X175148899Y-131246900D01*
X176584823Y-131246900D01*
X176584825Y-131246900D01*
X176681854Y-131220901D01*
X176681857Y-131220899D01*
X176681858Y-131220899D01*
X176725350Y-131195788D01*
X176768847Y-131170676D01*
X176839876Y-131099647D01*
X178105276Y-129834247D01*
X178155502Y-129747253D01*
X178181500Y-129650225D01*
X178181500Y-129549775D01*
X178181500Y-128510213D01*
X178201502Y-128442092D01*
X178218405Y-128421118D01*
X181105270Y-125534253D01*
X181105276Y-125534247D01*
X181155502Y-125447253D01*
X181181501Y-125350225D01*
X181181501Y-125249775D01*
X181181501Y-125242058D01*
X181181500Y-125242040D01*
X181181500Y-101251563D01*
X194863900Y-101251563D01*
X194863901Y-101251573D01*
X194878665Y-101325800D01*
X194934916Y-101409984D01*
X195019097Y-101466233D01*
X195019099Y-101466234D01*
X195093333Y-101481000D01*
X198643466Y-101480999D01*
X198643469Y-101480998D01*
X198643472Y-101480998D01*
X198680063Y-101473719D01*
X198717701Y-101466234D01*
X198801884Y-101409984D01*
X198858134Y-101325801D01*
X198872900Y-101251567D01*
X198872899Y-98701434D01*
X198872898Y-98701430D01*
X198872898Y-98701426D01*
X198858134Y-98627199D01*
X198801883Y-98543015D01*
X198717702Y-98486766D01*
X198643467Y-98472000D01*
X195093336Y-98472000D01*
X195093327Y-98472001D01*
X195019099Y-98486765D01*
X194934915Y-98543016D01*
X194878666Y-98627197D01*
X194863900Y-98701430D01*
X194863900Y-101251563D01*
X181181500Y-101251563D01*
X181181500Y-96876500D01*
X188355737Y-96876500D01*
X188374360Y-97113132D01*
X188429771Y-97343937D01*
X188520608Y-97563238D01*
X188635296Y-97750390D01*
X188635297Y-97750390D01*
X189384241Y-97001446D01*
X189402475Y-97069493D01*
X189468301Y-97183507D01*
X189561393Y-97276599D01*
X189675407Y-97342425D01*
X189743451Y-97360657D01*
X188994507Y-98109601D01*
X188994508Y-98109602D01*
X189181661Y-98224291D01*
X189400962Y-98315128D01*
X189631767Y-98370539D01*
X189868400Y-98389162D01*
X190105032Y-98370539D01*
X190335837Y-98315128D01*
X190555138Y-98224291D01*
X190742290Y-98109602D01*
X190742291Y-98109602D01*
X189993347Y-97360658D01*
X190061393Y-97342425D01*
X190175407Y-97276599D01*
X190268499Y-97183507D01*
X190334325Y-97069493D01*
X190352558Y-97001447D01*
X191101502Y-97750391D01*
X191101502Y-97750390D01*
X191216191Y-97563238D01*
X191307028Y-97343937D01*
X191362439Y-97113132D01*
X191381062Y-96876500D01*
X191362439Y-96639867D01*
X191307028Y-96409062D01*
X191216191Y-96189761D01*
X191101502Y-96002608D01*
X191101501Y-96002607D01*
X190352557Y-96751551D01*
X190334325Y-96683507D01*
X190268499Y-96569493D01*
X190175407Y-96476401D01*
X190061393Y-96410575D01*
X189993346Y-96392341D01*
X190742290Y-95643397D01*
X190742290Y-95643396D01*
X190555138Y-95528708D01*
X190335837Y-95437871D01*
X190105032Y-95382460D01*
X189868400Y-95363837D01*
X189631767Y-95382460D01*
X189400962Y-95437871D01*
X189181666Y-95528706D01*
X188994508Y-95643397D01*
X188994508Y-95643398D01*
X189743452Y-96392342D01*
X189675407Y-96410575D01*
X189561393Y-96476401D01*
X189468301Y-96569493D01*
X189402475Y-96683507D01*
X189384242Y-96751552D01*
X188635298Y-96002608D01*
X188635297Y-96002608D01*
X188520606Y-96189766D01*
X188429771Y-96409062D01*
X188374360Y-96639867D01*
X188355737Y-96876500D01*
X181181500Y-96876500D01*
X181181500Y-94376500D01*
X202855737Y-94376500D01*
X202874360Y-94613132D01*
X202929771Y-94843937D01*
X203020608Y-95063238D01*
X203135296Y-95250390D01*
X203135297Y-95250390D01*
X203884241Y-94501446D01*
X203902475Y-94569493D01*
X203968301Y-94683507D01*
X204061393Y-94776599D01*
X204175407Y-94842425D01*
X204243451Y-94860657D01*
X203519013Y-95585096D01*
X203456701Y-95619121D01*
X203429919Y-95622000D01*
X203343337Y-95622000D01*
X203343326Y-95622001D01*
X203269099Y-95636765D01*
X203184915Y-95693016D01*
X203128666Y-95777197D01*
X203113900Y-95851430D01*
X203113900Y-97901563D01*
X203113901Y-97901573D01*
X203128665Y-97975800D01*
X203184916Y-98059984D01*
X203269097Y-98116233D01*
X203269099Y-98116234D01*
X203343333Y-98131000D01*
X205393466Y-98130999D01*
X205393469Y-98130998D01*
X205393473Y-98130998D01*
X205442726Y-98121201D01*
X205467701Y-98116234D01*
X205551884Y-98059984D01*
X205608134Y-97975801D01*
X205622900Y-97901567D01*
X205622899Y-95851434D01*
X205622898Y-95851430D01*
X205622898Y-95851426D01*
X205608134Y-95777199D01*
X205551883Y-95693015D01*
X205467702Y-95636766D01*
X205393469Y-95622000D01*
X205306879Y-95622000D01*
X205238758Y-95601998D01*
X205217783Y-95585095D01*
X204493347Y-94860658D01*
X204561393Y-94842425D01*
X204675407Y-94776599D01*
X204768499Y-94683507D01*
X204834325Y-94569493D01*
X204852558Y-94501447D01*
X205601502Y-95250391D01*
X205601502Y-95250390D01*
X205716191Y-95063238D01*
X205807028Y-94843937D01*
X205862439Y-94613132D01*
X205881062Y-94376500D01*
X205862439Y-94139867D01*
X205807028Y-93909062D01*
X205716191Y-93689761D01*
X205601502Y-93502608D01*
X205601501Y-93502607D01*
X204852557Y-94251551D01*
X204834325Y-94183507D01*
X204768499Y-94069493D01*
X204675407Y-93976401D01*
X204561393Y-93910575D01*
X204493346Y-93892341D01*
X205242290Y-93143397D01*
X205242290Y-93143396D01*
X205141615Y-93081702D01*
X205093984Y-93029055D01*
X205082377Y-92959013D01*
X205110480Y-92893816D01*
X205135176Y-92871059D01*
X205177857Y-92841174D01*
X205333074Y-92685957D01*
X205458979Y-92506146D01*
X205551747Y-92307203D01*
X205608561Y-92095174D01*
X205627692Y-91876500D01*
X205608561Y-91657826D01*
X205551747Y-91445797D01*
X205458979Y-91246854D01*
X205333074Y-91067043D01*
X205177857Y-90911826D01*
X205164395Y-90902400D01*
X204998046Y-90785921D01*
X204799106Y-90693154D01*
X204799100Y-90693152D01*
X204709491Y-90669141D01*
X204587074Y-90636339D01*
X204368400Y-90617208D01*
X204149726Y-90636339D01*
X203937699Y-90693152D01*
X203937693Y-90693154D01*
X203738753Y-90785921D01*
X203558946Y-90911823D01*
X203558942Y-90911827D01*
X203403728Y-91067040D01*
X203403723Y-91067046D01*
X203277821Y-91246853D01*
X203185054Y-91445793D01*
X203185052Y-91445799D01*
X203131672Y-91645014D01*
X203128239Y-91657826D01*
X203109108Y-91876500D01*
X203128239Y-92095174D01*
X203145868Y-92160965D01*
X203185052Y-92307200D01*
X203185054Y-92307206D01*
X203226154Y-92395345D01*
X203277821Y-92506146D01*
X203403726Y-92685957D01*
X203558943Y-92841174D01*
X203558946Y-92841176D01*
X203601620Y-92871057D01*
X203645948Y-92926514D01*
X203653257Y-92997134D01*
X203621226Y-93060494D01*
X203595184Y-93081702D01*
X203494508Y-93143396D01*
X203494508Y-93143398D01*
X204243452Y-93892342D01*
X204175407Y-93910575D01*
X204061393Y-93976401D01*
X203968301Y-94069493D01*
X203902475Y-94183507D01*
X203884242Y-94251552D01*
X203135298Y-93502608D01*
X203135297Y-93502608D01*
X203020606Y-93689766D01*
X202929771Y-93909062D01*
X202874360Y-94139867D01*
X202855737Y-94376500D01*
X181181500Y-94376500D01*
X181181500Y-93153776D01*
X181171555Y-93116660D01*
X181155501Y-93056746D01*
X181155499Y-93056743D01*
X181155499Y-93056741D01*
X181105278Y-92969756D01*
X181105274Y-92969751D01*
X181078868Y-92943345D01*
X181034247Y-92898724D01*
X180012023Y-91876500D01*
X188609108Y-91876500D01*
X188628239Y-92095174D01*
X188645868Y-92160965D01*
X188685052Y-92307200D01*
X188685054Y-92307206D01*
X188726154Y-92395345D01*
X188777821Y-92506146D01*
X188903726Y-92685957D01*
X189058943Y-92841174D01*
X189238754Y-92967079D01*
X189437697Y-93059847D01*
X189649726Y-93116661D01*
X189868400Y-93135792D01*
X190087074Y-93116661D01*
X190299103Y-93059847D01*
X190498046Y-92967079D01*
X190677857Y-92841174D01*
X190833074Y-92685957D01*
X190958979Y-92506146D01*
X191051747Y-92307203D01*
X191108561Y-92095174D01*
X191127692Y-91876500D01*
X191108561Y-91657826D01*
X191051747Y-91445797D01*
X190958979Y-91246854D01*
X190833074Y-91067043D01*
X190677857Y-90911826D01*
X190664395Y-90902400D01*
X190498046Y-90785921D01*
X190299106Y-90693154D01*
X190299100Y-90693152D01*
X190209491Y-90669141D01*
X190087074Y-90636339D01*
X189868400Y-90617208D01*
X189649726Y-90636339D01*
X189437699Y-90693152D01*
X189437693Y-90693154D01*
X189238753Y-90785921D01*
X189058946Y-90911823D01*
X189058942Y-90911827D01*
X188903728Y-91067040D01*
X188903723Y-91067046D01*
X188777821Y-91246853D01*
X188685054Y-91445793D01*
X188685052Y-91445799D01*
X188631672Y-91645014D01*
X188628239Y-91657826D01*
X188609108Y-91876500D01*
X180012023Y-91876500D01*
X178337086Y-90201563D01*
X194863900Y-90201563D01*
X194863901Y-90201573D01*
X194878665Y-90275800D01*
X194934916Y-90359984D01*
X195019097Y-90416233D01*
X195019099Y-90416234D01*
X195093333Y-90431000D01*
X198643466Y-90430999D01*
X198643469Y-90430998D01*
X198643472Y-90430998D01*
X198680063Y-90423719D01*
X198717701Y-90416234D01*
X198801884Y-90359984D01*
X198858134Y-90275801D01*
X198872900Y-90201567D01*
X198872899Y-87351434D01*
X198872898Y-87351430D01*
X198872898Y-87351426D01*
X198858134Y-87277199D01*
X198846642Y-87260000D01*
X198801884Y-87193016D01*
X198798427Y-87190706D01*
X198717702Y-87136766D01*
X198643467Y-87122000D01*
X195093336Y-87122000D01*
X195093327Y-87122001D01*
X195019099Y-87136765D01*
X194934915Y-87193016D01*
X194878666Y-87277197D01*
X194863900Y-87351430D01*
X194863900Y-90201563D01*
X178337086Y-90201563D01*
X174984242Y-86848719D01*
X174950216Y-86786407D01*
X174952147Y-86725143D01*
X174960958Y-86694174D01*
X175008745Y-86526221D01*
X175026993Y-86329297D01*
X175027632Y-86322404D01*
X175027632Y-86322395D01*
X175008745Y-86118580D01*
X174975005Y-85999996D01*
X174952728Y-85921699D01*
X174861488Y-85738465D01*
X174820938Y-85684768D01*
X174738133Y-85575115D01*
X174586863Y-85437214D01*
X174412833Y-85329459D01*
X174412825Y-85329455D01*
X174349989Y-85305112D01*
X174293695Y-85261852D01*
X174269725Y-85195024D01*
X174285690Y-85125846D01*
X174336521Y-85076281D01*
X174354596Y-85068448D01*
X174465765Y-85030284D01*
X174465771Y-85030282D01*
X174663700Y-84923168D01*
X174663701Y-84923167D01*
X174841302Y-84784934D01*
X174993725Y-84619358D01*
X175116819Y-84430948D01*
X175207220Y-84224856D01*
X175207223Y-84224849D01*
X175254944Y-84036400D01*
X174349103Y-84036400D01*
X174384325Y-83975393D01*
X174418400Y-83848226D01*
X174418400Y-83716574D01*
X174384325Y-83589407D01*
X174349103Y-83528400D01*
X175254944Y-83528400D01*
X175254944Y-83528399D01*
X175207223Y-83339950D01*
X175207220Y-83339943D01*
X175116819Y-83133851D01*
X174993725Y-82945441D01*
X174841302Y-82779865D01*
X174663701Y-82641632D01*
X174663700Y-82641631D01*
X174465771Y-82534517D01*
X174465769Y-82534516D01*
X174252912Y-82461443D01*
X174252901Y-82461440D01*
X174172400Y-82448006D01*
X174172400Y-83351697D01*
X174111393Y-83316475D01*
X173984226Y-83282400D01*
X173852574Y-83282400D01*
X173725407Y-83316475D01*
X173664400Y-83351697D01*
X173664400Y-82448007D01*
X173664399Y-82448006D01*
X173583898Y-82461440D01*
X173583887Y-82461443D01*
X173371030Y-82534516D01*
X173371028Y-82534517D01*
X173173099Y-82641631D01*
X173173098Y-82641632D01*
X172995497Y-82779865D01*
X172843074Y-82945441D01*
X172719980Y-83133851D01*
X172627484Y-83344720D01*
X172625872Y-83344012D01*
X172589303Y-83395618D01*
X172523453Y-83422157D01*
X172453709Y-83408881D01*
X172402213Y-83360006D01*
X172398405Y-83352935D01*
X172321488Y-83198465D01*
X172272694Y-83133851D01*
X172198133Y-83035115D01*
X172046863Y-82897214D01*
X171872833Y-82789459D01*
X171872828Y-82789457D01*
X171872827Y-82789456D01*
X171691626Y-82719258D01*
X171681959Y-82715513D01*
X171681960Y-82715513D01*
X171681957Y-82715512D01*
X171681956Y-82715512D01*
X171480747Y-82677900D01*
X171276053Y-82677900D01*
X171074844Y-82715512D01*
X171074839Y-82715513D01*
X170883977Y-82789454D01*
X170883966Y-82789459D01*
X170709936Y-82897214D01*
X170558666Y-83035115D01*
X170435313Y-83198463D01*
X170344071Y-83381701D01*
X170288054Y-83578580D01*
X170269168Y-83782395D01*
X170269168Y-83782404D01*
X170288054Y-83986219D01*
X170337447Y-84159818D01*
X170344072Y-84183101D01*
X170435312Y-84366335D01*
X170435313Y-84366336D01*
X170558666Y-84529684D01*
X170709936Y-84667585D01*
X170883966Y-84775340D01*
X170883968Y-84775340D01*
X170883973Y-84775344D01*
X171074844Y-84849288D01*
X171276053Y-84886900D01*
X171276055Y-84886900D01*
X171480745Y-84886900D01*
X171480747Y-84886900D01*
X171681956Y-84849288D01*
X171872827Y-84775344D01*
X172046862Y-84667586D01*
X172198132Y-84529685D01*
X172321488Y-84366335D01*
X172398398Y-84211878D01*
X172446665Y-84159818D01*
X172515419Y-84142115D01*
X172582830Y-84164394D01*
X172627494Y-84219581D01*
X172628963Y-84223452D01*
X172719980Y-84430948D01*
X172843074Y-84619358D01*
X172995497Y-84784934D01*
X173173098Y-84923167D01*
X173173099Y-84923168D01*
X173371028Y-85030282D01*
X173371034Y-85030284D01*
X173482203Y-85068448D01*
X173540139Y-85109484D01*
X173566691Y-85175329D01*
X173553430Y-85245076D01*
X173504566Y-85296582D01*
X173486810Y-85305112D01*
X173423974Y-85329455D01*
X173423966Y-85329459D01*
X173249936Y-85437214D01*
X173098666Y-85575115D01*
X172975313Y-85738463D01*
X172884071Y-85921701D01*
X172828054Y-86118580D01*
X172809168Y-86322395D01*
X172809168Y-86322404D01*
X172828054Y-86526219D01*
X172884071Y-86723098D01*
X172884072Y-86723101D01*
X172975312Y-86906335D01*
X172975313Y-86906336D01*
X173098666Y-87069684D01*
X173249936Y-87207585D01*
X173423966Y-87315340D01*
X173423968Y-87315340D01*
X173423973Y-87315344D01*
X173614844Y-87389288D01*
X173816053Y-87426900D01*
X173816055Y-87426900D01*
X174020745Y-87426900D01*
X174020747Y-87426900D01*
X174221956Y-87389288D01*
X174306716Y-87356451D01*
X174377458Y-87350494D01*
X174440194Y-87383731D01*
X174441325Y-87384848D01*
X180381595Y-93325118D01*
X180415621Y-93387430D01*
X180418500Y-93414213D01*
X180418500Y-125089787D01*
X180398498Y-125157908D01*
X180381595Y-125178882D01*
X177565753Y-127994724D01*
X177530239Y-128030238D01*
X177494725Y-128065751D01*
X177494721Y-128065756D01*
X177444500Y-128152741D01*
X177418500Y-128249776D01*
X177418500Y-129389787D01*
X177398498Y-129457908D01*
X177381595Y-129478882D01*
X176413482Y-130446995D01*
X176351170Y-130481021D01*
X176324387Y-130483900D01*
X174806455Y-130483900D01*
X174738334Y-130463898D01*
X174691841Y-130410242D01*
X174681737Y-130339968D01*
X174711231Y-130275388D01*
X174721569Y-130264786D01*
X174738130Y-130249687D01*
X174738132Y-130249685D01*
X174861488Y-130086335D01*
X174952728Y-129903101D01*
X175008745Y-129706221D01*
X175027632Y-129502400D01*
X175023509Y-129457908D01*
X175008745Y-129298580D01*
X175008745Y-129298579D01*
X174952728Y-129101699D01*
X174861488Y-128918465D01*
X174861487Y-128918464D01*
X174861487Y-128918463D01*
X174854213Y-128908831D01*
X174829124Y-128842415D01*
X174843925Y-128772978D01*
X174893916Y-128722566D01*
X174954764Y-128706900D01*
X175552957Y-128706900D01*
X175552959Y-128706900D01*
X175649988Y-128680901D01*
X175649991Y-128680899D01*
X175649992Y-128680899D01*
X175693484Y-128655788D01*
X175736981Y-128630676D01*
X175808010Y-128559647D01*
X178105276Y-126262381D01*
X178155502Y-126175387D01*
X178181501Y-126078359D01*
X178181501Y-125977909D01*
X178181501Y-125970192D01*
X178181500Y-125970174D01*
X178181500Y-93569246D01*
X178181500Y-93569245D01*
X178167194Y-93515853D01*
X178167194Y-93515852D01*
X178167194Y-93515851D01*
X178155501Y-93472215D01*
X178105278Y-93385226D01*
X178105270Y-93385216D01*
X174617805Y-89897751D01*
X174583779Y-89835439D01*
X174588844Y-89764624D01*
X174622014Y-89715541D01*
X174713163Y-89632447D01*
X174738132Y-89609685D01*
X174861488Y-89446335D01*
X174952728Y-89263101D01*
X175008745Y-89066221D01*
X175016527Y-88982243D01*
X175027632Y-88862404D01*
X175027632Y-88862395D01*
X175008745Y-88658580D01*
X174981997Y-88564570D01*
X174952728Y-88461699D01*
X174861488Y-88278465D01*
X174810121Y-88210444D01*
X174738133Y-88115115D01*
X174586863Y-87977214D01*
X174412833Y-87869459D01*
X174412828Y-87869457D01*
X174412827Y-87869456D01*
X174411890Y-87869093D01*
X174221959Y-87795513D01*
X174221960Y-87795513D01*
X174221957Y-87795512D01*
X174221956Y-87795512D01*
X174020747Y-87757900D01*
X173816053Y-87757900D01*
X173614844Y-87795512D01*
X173614839Y-87795513D01*
X173423977Y-87869454D01*
X173423966Y-87869459D01*
X173249936Y-87977214D01*
X173098666Y-88115115D01*
X172975313Y-88278463D01*
X172884071Y-88461701D01*
X172828054Y-88658580D01*
X172809168Y-88862395D01*
X172809168Y-88862404D01*
X172828054Y-89066219D01*
X172828055Y-89066221D01*
X172884072Y-89263101D01*
X172975312Y-89446335D01*
X172975313Y-89446336D01*
X173102178Y-89614334D01*
X173100624Y-89615506D01*
X173127889Y-89671418D01*
X173119566Y-89741925D01*
X173074446Y-89796740D01*
X173006853Y-89818460D01*
X173003665Y-89818500D01*
X172926213Y-89818500D01*
X172858092Y-89798498D01*
X172837118Y-89781595D01*
X172444242Y-89388719D01*
X172410216Y-89326407D01*
X172412147Y-89265143D01*
X172412729Y-89263098D01*
X172468745Y-89066221D01*
X172476527Y-88982243D01*
X172487632Y-88862404D01*
X172487632Y-88862395D01*
X172468745Y-88658580D01*
X172441997Y-88564570D01*
X172412728Y-88461699D01*
X172321488Y-88278465D01*
X172270121Y-88210444D01*
X172198133Y-88115115D01*
X172046863Y-87977214D01*
X171872833Y-87869459D01*
X171872828Y-87869457D01*
X171872827Y-87869456D01*
X171871890Y-87869093D01*
X171681959Y-87795513D01*
X171681960Y-87795513D01*
X171681957Y-87795512D01*
X171681956Y-87795512D01*
X171480747Y-87757900D01*
X171276053Y-87757900D01*
X171074844Y-87795512D01*
X171074839Y-87795513D01*
X170883977Y-87869454D01*
X170883966Y-87869459D01*
X170709936Y-87977214D01*
X170558666Y-88115115D01*
X170435313Y-88278463D01*
X170344071Y-88461701D01*
X170288054Y-88658580D01*
X170269168Y-88862395D01*
X170269168Y-88862404D01*
X170288054Y-89066219D01*
X170288055Y-89066221D01*
X170344072Y-89263101D01*
X170435312Y-89446335D01*
X170435313Y-89446336D01*
X170558666Y-89609684D01*
X170709936Y-89747585D01*
X170883966Y-89855340D01*
X170883968Y-89855340D01*
X170883973Y-89855344D01*
X170913529Y-89866794D01*
X170946809Y-89879687D01*
X171003104Y-89922946D01*
X171027074Y-89989774D01*
X171011110Y-90058952D01*
X170960279Y-90108518D01*
X170942204Y-90116351D01*
X170831031Y-90154516D01*
X170831028Y-90154517D01*
X170633099Y-90261631D01*
X170633098Y-90261632D01*
X170455497Y-90399865D01*
X170303074Y-90565441D01*
X170179980Y-90753851D01*
X170089579Y-90959943D01*
X170089576Y-90959950D01*
X170041855Y-91148399D01*
X170041856Y-91148400D01*
X170947697Y-91148400D01*
X170912475Y-91209407D01*
X170878400Y-91336574D01*
X170878400Y-91468226D01*
X170912475Y-91595393D01*
X170947697Y-91656400D01*
X170041855Y-91656400D01*
X170089576Y-91844849D01*
X170089579Y-91844856D01*
X170179980Y-92050948D01*
X170303074Y-92239358D01*
X170455497Y-92404934D01*
X170633098Y-92543167D01*
X170633099Y-92543168D01*
X170831028Y-92650282D01*
X170831034Y-92650284D01*
X170942203Y-92688448D01*
X171000139Y-92729484D01*
X171026691Y-92795329D01*
X171013430Y-92865076D01*
X170964566Y-92916582D01*
X170946810Y-92925112D01*
X170883974Y-92949455D01*
X170883966Y-92949459D01*
X170709936Y-93057214D01*
X170558666Y-93195115D01*
X170435313Y-93358463D01*
X170344071Y-93541701D01*
X170288054Y-93738580D01*
X170269168Y-93942395D01*
X170269168Y-93942404D01*
X170288054Y-94146219D01*
X170334846Y-94310674D01*
X170344072Y-94343101D01*
X170435312Y-94526335D01*
X170435313Y-94526336D01*
X170558666Y-94689684D01*
X170709936Y-94827585D01*
X170883966Y-94935340D01*
X170883968Y-94935340D01*
X170883973Y-94935344D01*
X170933733Y-94954621D01*
X170946809Y-94959687D01*
X171003104Y-95002946D01*
X171027074Y-95069774D01*
X171011110Y-95138952D01*
X170960279Y-95188518D01*
X170942204Y-95196351D01*
X170831031Y-95234516D01*
X170831028Y-95234517D01*
X170633099Y-95341631D01*
X170633098Y-95341632D01*
X170455497Y-95479865D01*
X170303074Y-95645441D01*
X170179980Y-95833851D01*
X170089579Y-96039943D01*
X170089576Y-96039950D01*
X170041855Y-96228399D01*
X170041856Y-96228400D01*
X170947697Y-96228400D01*
X170912475Y-96289407D01*
X170878400Y-96416574D01*
X170878400Y-96548226D01*
X170912475Y-96675393D01*
X170947697Y-96736400D01*
X170041855Y-96736400D01*
X170089576Y-96924849D01*
X170089579Y-96924856D01*
X170179980Y-97130948D01*
X170303074Y-97319358D01*
X170455497Y-97484934D01*
X170633098Y-97623167D01*
X170633099Y-97623168D01*
X170831028Y-97730282D01*
X170831034Y-97730284D01*
X170942203Y-97768448D01*
X171000139Y-97809484D01*
X171026691Y-97875329D01*
X171013430Y-97945076D01*
X170964566Y-97996582D01*
X170946810Y-98005112D01*
X170883974Y-98029455D01*
X170883966Y-98029459D01*
X170709936Y-98137214D01*
X170558666Y-98275115D01*
X170435313Y-98438463D01*
X170435312Y-98438464D01*
X170435312Y-98438465D01*
X170418613Y-98472001D01*
X170344071Y-98621701D01*
X170288054Y-98818580D01*
X170269168Y-99022395D01*
X170269168Y-99022404D01*
X170288054Y-99226219D01*
X170288055Y-99226221D01*
X170344072Y-99423101D01*
X170435312Y-99606335D01*
X170435313Y-99606336D01*
X170558666Y-99769684D01*
X170709936Y-99907585D01*
X170883966Y-100015340D01*
X170883968Y-100015340D01*
X170883973Y-100015344D01*
X171074844Y-100089288D01*
X171276053Y-100126900D01*
X171276055Y-100126900D01*
X171480745Y-100126900D01*
X171480747Y-100126900D01*
X171681956Y-100089288D01*
X171872827Y-100015344D01*
X172046862Y-99907586D01*
X172198132Y-99769685D01*
X172321488Y-99606335D01*
X172412728Y-99423101D01*
X172468745Y-99226221D01*
X172487632Y-99022400D01*
X172468745Y-98818579D01*
X172412728Y-98621699D01*
X172321488Y-98438465D01*
X172270193Y-98370539D01*
X172198133Y-98275115D01*
X172046863Y-98137214D01*
X171872833Y-98029459D01*
X171872825Y-98029455D01*
X171809989Y-98005112D01*
X171753695Y-97961852D01*
X171729725Y-97895024D01*
X171745690Y-97825846D01*
X171796521Y-97776281D01*
X171814596Y-97768448D01*
X171925765Y-97730284D01*
X171925771Y-97730282D01*
X172123700Y-97623168D01*
X172123701Y-97623167D01*
X172301302Y-97484934D01*
X172453725Y-97319358D01*
X172576819Y-97130948D01*
X172669316Y-96920080D01*
X172670938Y-96920791D01*
X172707451Y-96869216D01*
X172773289Y-96842648D01*
X172843040Y-96855892D01*
X172894557Y-96904743D01*
X172898402Y-96911881D01*
X172975308Y-97066330D01*
X172975312Y-97066335D01*
X173098666Y-97229684D01*
X173249936Y-97367585D01*
X173423966Y-97475340D01*
X173423968Y-97475340D01*
X173423973Y-97475344D01*
X173614844Y-97549288D01*
X173816053Y-97586900D01*
X173816055Y-97586900D01*
X174020745Y-97586900D01*
X174020747Y-97586900D01*
X174221956Y-97549288D01*
X174412827Y-97475344D01*
X174586862Y-97367586D01*
X174738132Y-97229685D01*
X174861488Y-97066335D01*
X174952728Y-96883101D01*
X175008745Y-96686221D01*
X175027632Y-96482400D01*
X175027076Y-96476401D01*
X175008745Y-96278580D01*
X174994468Y-96228400D01*
X174952728Y-96081699D01*
X174861488Y-95898465D01*
X174812694Y-95833851D01*
X174738133Y-95735115D01*
X174586863Y-95597214D01*
X174412833Y-95489459D01*
X174412828Y-95489457D01*
X174412827Y-95489456D01*
X174221959Y-95415513D01*
X174221960Y-95415513D01*
X174221957Y-95415512D01*
X174221956Y-95415512D01*
X174020747Y-95377900D01*
X173816053Y-95377900D01*
X173614844Y-95415512D01*
X173614839Y-95415513D01*
X173423977Y-95489454D01*
X173423966Y-95489459D01*
X173249936Y-95597214D01*
X173098666Y-95735115D01*
X172975312Y-95898464D01*
X172975308Y-95898469D01*
X172898402Y-96052918D01*
X172850133Y-96104982D01*
X172781379Y-96122684D01*
X172713968Y-96100404D01*
X172669305Y-96045217D01*
X172667832Y-96041338D01*
X172576819Y-95833851D01*
X172453725Y-95645441D01*
X172301302Y-95479865D01*
X172123701Y-95341632D01*
X172123700Y-95341631D01*
X171925771Y-95234517D01*
X171925769Y-95234516D01*
X171814595Y-95196351D01*
X171756660Y-95155314D01*
X171730108Y-95089469D01*
X171743369Y-95019722D01*
X171792234Y-94968217D01*
X171809981Y-94959690D01*
X171872827Y-94935344D01*
X172046862Y-94827586D01*
X172198132Y-94689685D01*
X172202798Y-94683507D01*
X172255942Y-94613132D01*
X172321488Y-94526335D01*
X172412728Y-94343101D01*
X172468745Y-94146221D01*
X172475855Y-94069493D01*
X172487632Y-93942404D01*
X172809168Y-93942404D01*
X172828054Y-94146219D01*
X172874846Y-94310674D01*
X172884072Y-94343101D01*
X172975312Y-94526335D01*
X172975313Y-94526336D01*
X173098666Y-94689684D01*
X173249936Y-94827585D01*
X173423966Y-94935340D01*
X173423968Y-94935340D01*
X173423973Y-94935344D01*
X173614844Y-95009288D01*
X173816053Y-95046900D01*
X173816055Y-95046900D01*
X174020745Y-95046900D01*
X174020747Y-95046900D01*
X174221956Y-95009288D01*
X174412827Y-94935344D01*
X174586862Y-94827586D01*
X174738132Y-94689685D01*
X174742798Y-94683507D01*
X174795942Y-94613132D01*
X174861488Y-94526335D01*
X174952728Y-94343101D01*
X175008745Y-94146221D01*
X175015855Y-94069493D01*
X175027632Y-93942404D01*
X175027632Y-93942395D01*
X175008745Y-93738580D01*
X175008745Y-93738579D01*
X174952728Y-93541699D01*
X174861488Y-93358465D01*
X174820938Y-93304768D01*
X174738133Y-93195115D01*
X174586863Y-93057214D01*
X174412833Y-92949459D01*
X174412828Y-92949457D01*
X174412827Y-92949456D01*
X174269204Y-92893816D01*
X174221959Y-92875513D01*
X174221960Y-92875513D01*
X174221957Y-92875512D01*
X174221956Y-92875512D01*
X174020747Y-92837900D01*
X173816053Y-92837900D01*
X173614844Y-92875512D01*
X173614839Y-92875513D01*
X173423977Y-92949454D01*
X173423966Y-92949459D01*
X173249936Y-93057214D01*
X173098666Y-93195115D01*
X172975313Y-93358463D01*
X172884071Y-93541701D01*
X172828054Y-93738580D01*
X172809168Y-93942395D01*
X172809168Y-93942404D01*
X172487632Y-93942404D01*
X172487632Y-93942395D01*
X172468745Y-93738580D01*
X172468745Y-93738579D01*
X172412728Y-93541699D01*
X172321488Y-93358465D01*
X172280938Y-93304768D01*
X172198133Y-93195115D01*
X172046863Y-93057214D01*
X171872833Y-92949459D01*
X171872825Y-92949455D01*
X171809989Y-92925112D01*
X171753695Y-92881852D01*
X171729725Y-92815024D01*
X171745690Y-92745846D01*
X171796521Y-92696281D01*
X171814596Y-92688448D01*
X171925765Y-92650284D01*
X171925771Y-92650282D01*
X172123700Y-92543168D01*
X172123701Y-92543167D01*
X172301302Y-92404934D01*
X172453725Y-92239358D01*
X172576819Y-92050948D01*
X172669316Y-91840080D01*
X172670938Y-91840791D01*
X172707451Y-91789216D01*
X172773289Y-91762648D01*
X172843040Y-91775892D01*
X172894557Y-91824743D01*
X172898402Y-91831881D01*
X172975308Y-91986330D01*
X172975312Y-91986335D01*
X173098666Y-92149684D01*
X173249936Y-92287585D01*
X173423966Y-92395340D01*
X173423968Y-92395340D01*
X173423973Y-92395344D01*
X173614844Y-92469288D01*
X173816053Y-92506900D01*
X173816055Y-92506900D01*
X174020745Y-92506900D01*
X174020747Y-92506900D01*
X174221956Y-92469288D01*
X174412827Y-92395344D01*
X174586862Y-92287586D01*
X174738132Y-92149685D01*
X174861488Y-91986335D01*
X174952728Y-91803101D01*
X175002894Y-91626781D01*
X175040773Y-91566739D01*
X175105103Y-91536704D01*
X175175460Y-91546216D01*
X175213178Y-91572171D01*
X177381595Y-93740588D01*
X177415621Y-93802900D01*
X177418500Y-93829683D01*
X177418500Y-125817921D01*
X177398498Y-125886042D01*
X177381595Y-125907016D01*
X175381616Y-127906995D01*
X175319304Y-127941021D01*
X175292521Y-127943900D01*
X174806455Y-127943900D01*
X174738334Y-127923898D01*
X174691841Y-127870242D01*
X174681737Y-127799968D01*
X174711231Y-127735388D01*
X174721569Y-127724786D01*
X174738130Y-127709687D01*
X174738132Y-127709685D01*
X174861488Y-127546335D01*
X174952728Y-127363101D01*
X175008745Y-127166221D01*
X175027632Y-126962400D01*
X175025023Y-126934247D01*
X175008745Y-126758580D01*
X175006368Y-126750225D01*
X174952728Y-126561699D01*
X174861488Y-126378465D01*
X174805468Y-126304282D01*
X174738133Y-126215115D01*
X174586863Y-126077214D01*
X174412833Y-125969459D01*
X174412828Y-125969457D01*
X174412827Y-125969456D01*
X174412822Y-125969454D01*
X174221959Y-125895513D01*
X174221960Y-125895513D01*
X174221957Y-125895512D01*
X174221956Y-125895512D01*
X174020747Y-125857900D01*
X173816053Y-125857900D01*
X173665505Y-125886042D01*
X173614839Y-125895513D01*
X173423977Y-125969454D01*
X173423966Y-125969459D01*
X173249936Y-126077214D01*
X173098666Y-126215115D01*
X172975312Y-126378464D01*
X172975308Y-126378469D01*
X172898402Y-126532918D01*
X172850133Y-126584982D01*
X172781379Y-126602684D01*
X172713968Y-126580404D01*
X172669305Y-126525217D01*
X172667832Y-126521338D01*
X172576818Y-126313848D01*
X172486637Y-126175815D01*
X172466124Y-126107847D01*
X172485613Y-126039578D01*
X172538918Y-125992683D01*
X172592120Y-125980900D01*
X172791623Y-125980900D01*
X172791625Y-125980900D01*
X172888654Y-125954901D01*
X172888657Y-125954899D01*
X172888658Y-125954899D01*
X172932150Y-125929788D01*
X172975647Y-125904676D01*
X173046676Y-125833647D01*
X173064385Y-125815938D01*
X173064391Y-125815930D01*
X173395474Y-125484846D01*
X173457785Y-125450823D01*
X173528600Y-125455887D01*
X173530085Y-125456452D01*
X173614839Y-125489286D01*
X173614840Y-125489286D01*
X173614844Y-125489288D01*
X173816053Y-125526900D01*
X173816055Y-125526900D01*
X174020745Y-125526900D01*
X174020747Y-125526900D01*
X174221956Y-125489288D01*
X174412827Y-125415344D01*
X174586862Y-125307586D01*
X174738132Y-125169685D01*
X174861488Y-125006335D01*
X174952728Y-124823101D01*
X175008745Y-124626221D01*
X175027632Y-124422400D01*
X175019515Y-124334809D01*
X175008745Y-124218580D01*
X175007847Y-124215423D01*
X174952728Y-124021699D01*
X174861488Y-123838465D01*
X174820938Y-123784768D01*
X174738133Y-123675115D01*
X174586863Y-123537214D01*
X174412833Y-123429459D01*
X174412825Y-123429455D01*
X174349989Y-123405112D01*
X174293695Y-123361852D01*
X174269725Y-123295024D01*
X174285690Y-123225846D01*
X174336521Y-123176281D01*
X174354596Y-123168448D01*
X174465765Y-123130284D01*
X174465771Y-123130282D01*
X174663700Y-123023168D01*
X174663701Y-123023167D01*
X174841302Y-122884934D01*
X174993725Y-122719358D01*
X175116819Y-122530948D01*
X175207220Y-122324856D01*
X175207223Y-122324849D01*
X175254944Y-122136400D01*
X174349103Y-122136400D01*
X174384325Y-122075393D01*
X174418400Y-121948226D01*
X174418400Y-121816574D01*
X174384325Y-121689407D01*
X174349103Y-121628400D01*
X175254944Y-121628400D01*
X175254944Y-121628399D01*
X175207223Y-121439950D01*
X175207220Y-121439943D01*
X175116819Y-121233851D01*
X174993725Y-121045441D01*
X174841302Y-120879865D01*
X174663701Y-120741632D01*
X174663700Y-120741631D01*
X174465771Y-120634517D01*
X174465769Y-120634516D01*
X174354595Y-120596351D01*
X174296660Y-120555314D01*
X174270108Y-120489469D01*
X174283369Y-120419722D01*
X174332234Y-120368217D01*
X174349981Y-120359690D01*
X174412827Y-120335344D01*
X174586862Y-120227586D01*
X174738132Y-120089685D01*
X174861488Y-119926335D01*
X174952728Y-119743101D01*
X175008745Y-119546221D01*
X175027632Y-119342400D01*
X175027295Y-119338767D01*
X175009294Y-119144500D01*
X175008745Y-119138579D01*
X174952728Y-118941699D01*
X174861488Y-118758465D01*
X174797326Y-118673500D01*
X174738133Y-118595115D01*
X174586863Y-118457214D01*
X174412833Y-118349459D01*
X174412828Y-118349457D01*
X174412827Y-118349456D01*
X174375259Y-118334902D01*
X174221959Y-118275513D01*
X174221960Y-118275513D01*
X174221957Y-118275512D01*
X174221956Y-118275512D01*
X174020747Y-118237900D01*
X173816053Y-118237900D01*
X173614844Y-118275512D01*
X173614842Y-118275512D01*
X173614840Y-118275513D01*
X173530083Y-118308347D01*
X173459336Y-118314303D01*
X173396601Y-118281065D01*
X173395552Y-118280029D01*
X172789647Y-117674124D01*
X172748252Y-117650225D01*
X172733052Y-117641449D01*
X172702658Y-117623901D01*
X172702656Y-117623900D01*
X172702654Y-117623899D01*
X172702651Y-117623898D01*
X172702646Y-117623896D01*
X172663876Y-117613508D01*
X172603254Y-117576557D01*
X172572232Y-117512696D01*
X172580662Y-117442201D01*
X172581101Y-117441188D01*
X172669316Y-117240080D01*
X172670938Y-117240791D01*
X172707451Y-117189216D01*
X172773289Y-117162648D01*
X172843040Y-117175892D01*
X172894557Y-117224743D01*
X172898402Y-117231881D01*
X172975308Y-117386330D01*
X172975312Y-117386335D01*
X173098666Y-117549684D01*
X173249936Y-117687585D01*
X173423966Y-117795340D01*
X173423968Y-117795340D01*
X173423973Y-117795344D01*
X173614844Y-117869288D01*
X173816053Y-117906900D01*
X173816055Y-117906900D01*
X174020745Y-117906900D01*
X174020747Y-117906900D01*
X174221956Y-117869288D01*
X174412827Y-117795344D01*
X174586862Y-117687586D01*
X174738132Y-117549685D01*
X174861488Y-117386335D01*
X174952728Y-117203101D01*
X175008745Y-117006221D01*
X175027632Y-116802400D01*
X175021532Y-116736574D01*
X175008745Y-116598580D01*
X174994468Y-116548400D01*
X174952728Y-116401699D01*
X174861488Y-116218465D01*
X174812692Y-116153848D01*
X174738133Y-116055115D01*
X174586863Y-115917214D01*
X174412833Y-115809459D01*
X174412828Y-115809457D01*
X174412827Y-115809456D01*
X174375259Y-115794902D01*
X174221959Y-115735513D01*
X174221960Y-115735513D01*
X174221957Y-115735512D01*
X174221956Y-115735512D01*
X174020747Y-115697900D01*
X173816053Y-115697900D01*
X173614844Y-115735512D01*
X173614839Y-115735513D01*
X173423977Y-115809454D01*
X173423966Y-115809459D01*
X173249936Y-115917214D01*
X173098666Y-116055115D01*
X172975312Y-116218464D01*
X172975308Y-116218469D01*
X172898402Y-116372918D01*
X172850133Y-116424982D01*
X172781379Y-116442684D01*
X172713968Y-116420404D01*
X172669305Y-116365217D01*
X172667832Y-116361338D01*
X172576818Y-116153848D01*
X172486637Y-116015815D01*
X172466124Y-115947847D01*
X172485613Y-115879578D01*
X172538918Y-115832683D01*
X172592120Y-115820900D01*
X172791623Y-115820900D01*
X172791625Y-115820900D01*
X172888654Y-115794901D01*
X172888657Y-115794899D01*
X172888658Y-115794899D01*
X172932150Y-115769788D01*
X172975647Y-115744676D01*
X173046676Y-115673647D01*
X173064385Y-115655938D01*
X173064391Y-115655930D01*
X173395474Y-115324846D01*
X173457785Y-115290823D01*
X173528600Y-115295887D01*
X173530085Y-115296452D01*
X173614839Y-115329286D01*
X173614840Y-115329286D01*
X173614844Y-115329288D01*
X173816053Y-115366900D01*
X173816055Y-115366900D01*
X174020745Y-115366900D01*
X174020747Y-115366900D01*
X174221956Y-115329288D01*
X174412827Y-115255344D01*
X174586862Y-115147586D01*
X174738132Y-115009685D01*
X174751622Y-114991822D01*
X174758406Y-114982836D01*
X174861488Y-114846335D01*
X174952728Y-114663101D01*
X175008745Y-114466221D01*
X175027632Y-114262400D01*
X175008745Y-114058579D01*
X174952728Y-113861699D01*
X174861488Y-113678465D01*
X174820938Y-113624768D01*
X174738133Y-113515115D01*
X174586863Y-113377214D01*
X174412833Y-113269459D01*
X174412828Y-113269457D01*
X174412827Y-113269456D01*
X174221959Y-113195513D01*
X174221960Y-113195513D01*
X174221957Y-113195512D01*
X174221956Y-113195512D01*
X174020747Y-113157900D01*
X173816053Y-113157900D01*
X173614844Y-113195512D01*
X173614839Y-113195513D01*
X173423977Y-113269454D01*
X173423966Y-113269459D01*
X173249936Y-113377214D01*
X173098666Y-113515115D01*
X172975313Y-113678463D01*
X172884071Y-113861701D01*
X172828054Y-114058580D01*
X172809168Y-114262395D01*
X172809168Y-114262404D01*
X172828054Y-114466219D01*
X172884652Y-114665141D01*
X172884056Y-114736135D01*
X172852558Y-114788717D01*
X172620282Y-115020995D01*
X172557970Y-115055020D01*
X172531186Y-115057900D01*
X172414764Y-115057900D01*
X172346643Y-115037898D01*
X172300150Y-114984242D01*
X172290046Y-114913968D01*
X172314213Y-114855969D01*
X172321487Y-114846336D01*
X172321486Y-114846336D01*
X172321488Y-114846335D01*
X172412728Y-114663101D01*
X172468745Y-114466221D01*
X172487632Y-114262400D01*
X172468745Y-114058579D01*
X172412728Y-113861699D01*
X172321488Y-113678465D01*
X172280938Y-113624768D01*
X172198133Y-113515115D01*
X172046863Y-113377214D01*
X171872833Y-113269459D01*
X171872828Y-113269457D01*
X171872827Y-113269456D01*
X171681959Y-113195513D01*
X171681960Y-113195513D01*
X171681957Y-113195512D01*
X171681956Y-113195512D01*
X171480747Y-113157900D01*
X171276053Y-113157900D01*
X171074844Y-113195512D01*
X171074839Y-113195513D01*
X170883977Y-113269454D01*
X170883966Y-113269459D01*
X170709936Y-113377214D01*
X170558666Y-113515115D01*
X170435312Y-113678464D01*
X170435308Y-113678469D01*
X170369285Y-113811063D01*
X170321016Y-113863127D01*
X170256495Y-113880900D01*
X145672612Y-113880900D01*
X145604491Y-113860898D01*
X145583517Y-113843995D01*
X141218405Y-109478882D01*
X141184379Y-109416570D01*
X141181500Y-109389787D01*
X141181500Y-101649776D01*
X141178547Y-101638756D01*
X141155501Y-101552746D01*
X141155499Y-101552743D01*
X141155499Y-101552741D01*
X141105278Y-101465756D01*
X141105270Y-101465746D01*
X141029858Y-101390334D01*
X141029835Y-101390313D01*
X131486405Y-91846882D01*
X131452379Y-91784570D01*
X131449500Y-91757787D01*
X131449500Y-80455054D01*
X131469502Y-80386933D01*
X131518295Y-80342788D01*
X131673090Y-80263917D01*
X131820106Y-80157103D01*
X131948603Y-80028606D01*
X132055417Y-79881590D01*
X132137917Y-79719674D01*
X132194072Y-79546846D01*
X132213551Y-79423855D01*
X132243964Y-79359705D01*
X132304232Y-79322178D01*
X132375221Y-79323192D01*
X132434393Y-79362425D01*
X132462448Y-79423855D01*
X132481928Y-79546846D01*
X132481929Y-79546851D01*
X132538081Y-79719669D01*
X132538083Y-79719674D01*
X132620583Y-79881590D01*
X132620585Y-79881593D01*
X132727398Y-80028608D01*
X132855891Y-80157101D01*
X132855894Y-80157103D01*
X133002910Y-80263917D01*
X133157704Y-80342788D01*
X133209318Y-80391535D01*
X133226500Y-80455054D01*
X133226500Y-91358223D01*
X133226499Y-91358223D01*
X133252498Y-91455251D01*
X133252501Y-91455258D01*
X133276793Y-91497332D01*
X133276793Y-91497333D01*
X133302722Y-91542244D01*
X133302730Y-91542254D01*
X142581595Y-100821118D01*
X142615621Y-100883430D01*
X142618500Y-100910213D01*
X142618500Y-109050223D01*
X142618499Y-109050223D01*
X142644498Y-109147251D01*
X142644501Y-109147258D01*
X142677900Y-109205106D01*
X142677901Y-109205108D01*
X142694723Y-109234245D01*
X142694727Y-109234251D01*
X145494724Y-112034247D01*
X145565753Y-112105276D01*
X145652747Y-112155501D01*
X145749775Y-112181500D01*
X145850225Y-112181500D01*
X145947253Y-112155501D01*
X146007393Y-112120779D01*
X146070391Y-112103900D01*
X170256495Y-112103900D01*
X170324616Y-112123902D01*
X170369285Y-112173737D01*
X170435308Y-112306330D01*
X170435312Y-112306335D01*
X170558666Y-112469684D01*
X170709936Y-112607585D01*
X170883966Y-112715340D01*
X170883968Y-112715340D01*
X170883973Y-112715344D01*
X171074844Y-112789288D01*
X171276053Y-112826900D01*
X171276055Y-112826900D01*
X171480745Y-112826900D01*
X171480747Y-112826900D01*
X171681956Y-112789288D01*
X171872827Y-112715344D01*
X172046862Y-112607586D01*
X172198132Y-112469685D01*
X172321488Y-112306335D01*
X172412728Y-112123101D01*
X172468745Y-111926221D01*
X172487632Y-111722404D01*
X172809168Y-111722404D01*
X172828054Y-111926219D01*
X172884071Y-112123098D01*
X172884072Y-112123101D01*
X172975312Y-112306335D01*
X172975313Y-112306336D01*
X173098666Y-112469684D01*
X173249936Y-112607585D01*
X173423966Y-112715340D01*
X173423968Y-112715340D01*
X173423973Y-112715344D01*
X173614844Y-112789288D01*
X173816053Y-112826900D01*
X173816055Y-112826900D01*
X174020745Y-112826900D01*
X174020747Y-112826900D01*
X174221956Y-112789288D01*
X174412827Y-112715344D01*
X174586862Y-112607586D01*
X174738132Y-112469685D01*
X174861488Y-112306335D01*
X174952728Y-112123101D01*
X175008745Y-111926221D01*
X175027632Y-111722400D01*
X175019227Y-111631700D01*
X175008745Y-111518580D01*
X174975263Y-111400902D01*
X174952728Y-111321699D01*
X174861488Y-111138465D01*
X174820938Y-111084768D01*
X174738133Y-110975115D01*
X174586863Y-110837214D01*
X174412833Y-110729459D01*
X174412828Y-110729457D01*
X174412827Y-110729456D01*
X174327970Y-110696582D01*
X174221959Y-110655513D01*
X174221960Y-110655513D01*
X174221957Y-110655512D01*
X174221956Y-110655512D01*
X174020747Y-110617900D01*
X173816053Y-110617900D01*
X173614844Y-110655512D01*
X173614839Y-110655513D01*
X173423977Y-110729454D01*
X173423966Y-110729459D01*
X173249936Y-110837214D01*
X173098666Y-110975115D01*
X172975313Y-111138463D01*
X172884071Y-111321701D01*
X172828054Y-111518580D01*
X172809168Y-111722395D01*
X172809168Y-111722404D01*
X172487632Y-111722404D01*
X172487632Y-111722400D01*
X172479227Y-111631700D01*
X172468745Y-111518580D01*
X172435263Y-111400902D01*
X172412728Y-111321699D01*
X172321488Y-111138465D01*
X172280938Y-111084768D01*
X172198133Y-110975115D01*
X172046863Y-110837214D01*
X171872833Y-110729459D01*
X171872825Y-110729455D01*
X171809989Y-110705112D01*
X171753695Y-110661852D01*
X171729725Y-110595024D01*
X171745690Y-110525846D01*
X171796521Y-110476281D01*
X171814596Y-110468448D01*
X171925765Y-110430284D01*
X171925771Y-110430282D01*
X172123700Y-110323168D01*
X172123701Y-110323167D01*
X172301302Y-110184934D01*
X172453725Y-110019358D01*
X172576819Y-109830948D01*
X172669316Y-109620080D01*
X172670938Y-109620791D01*
X172707451Y-109569216D01*
X172773289Y-109542648D01*
X172843040Y-109555892D01*
X172894557Y-109604743D01*
X172898402Y-109611881D01*
X172975308Y-109766330D01*
X172975312Y-109766335D01*
X173098666Y-109929684D01*
X173249936Y-110067585D01*
X173423966Y-110175340D01*
X173423968Y-110175340D01*
X173423973Y-110175344D01*
X173614844Y-110249288D01*
X173816053Y-110286900D01*
X173816055Y-110286900D01*
X174020745Y-110286900D01*
X174020747Y-110286900D01*
X174221956Y-110249288D01*
X174412827Y-110175344D01*
X174586862Y-110067586D01*
X174738132Y-109929685D01*
X174861488Y-109766335D01*
X174952728Y-109583101D01*
X175008745Y-109386221D01*
X175027632Y-109182400D01*
X175024375Y-109147254D01*
X175008745Y-108978580D01*
X174994468Y-108928400D01*
X174952728Y-108781699D01*
X174861488Y-108598465D01*
X174812694Y-108533851D01*
X174738133Y-108435115D01*
X174586863Y-108297214D01*
X174412833Y-108189459D01*
X174412828Y-108189457D01*
X174412827Y-108189456D01*
X174341679Y-108161893D01*
X174221959Y-108115513D01*
X174221960Y-108115513D01*
X174221957Y-108115512D01*
X174221956Y-108115512D01*
X174020747Y-108077900D01*
X173816053Y-108077900D01*
X173614844Y-108115512D01*
X173614839Y-108115513D01*
X173423977Y-108189454D01*
X173423966Y-108189459D01*
X173249936Y-108297214D01*
X173098666Y-108435115D01*
X172975312Y-108598464D01*
X172975308Y-108598469D01*
X172898402Y-108752918D01*
X172850133Y-108804982D01*
X172781379Y-108822684D01*
X172713968Y-108800404D01*
X172669305Y-108745217D01*
X172667832Y-108741338D01*
X172576819Y-108533851D01*
X172453725Y-108345441D01*
X172301302Y-108179865D01*
X172123701Y-108041632D01*
X172123700Y-108041631D01*
X171925771Y-107934517D01*
X171925769Y-107934516D01*
X171814595Y-107896351D01*
X171756660Y-107855314D01*
X171730108Y-107789469D01*
X171743369Y-107719722D01*
X171792234Y-107668217D01*
X171809981Y-107659690D01*
X171872827Y-107635344D01*
X172046862Y-107527586D01*
X172198132Y-107389685D01*
X172321488Y-107226335D01*
X172412728Y-107043101D01*
X172468745Y-106846221D01*
X172487632Y-106642404D01*
X172809168Y-106642404D01*
X172828054Y-106846219D01*
X172878609Y-107023900D01*
X172884072Y-107043101D01*
X172975312Y-107226335D01*
X172975313Y-107226336D01*
X173098666Y-107389684D01*
X173249936Y-107527585D01*
X173423966Y-107635340D01*
X173423968Y-107635340D01*
X173423973Y-107635344D01*
X173614844Y-107709288D01*
X173816053Y-107746900D01*
X173816055Y-107746900D01*
X174020745Y-107746900D01*
X174020747Y-107746900D01*
X174221956Y-107709288D01*
X174412827Y-107635344D01*
X174586862Y-107527586D01*
X174738132Y-107389685D01*
X174861488Y-107226335D01*
X174952728Y-107043101D01*
X175008745Y-106846221D01*
X175027632Y-106642400D01*
X175027615Y-106642220D01*
X175008745Y-106438580D01*
X174987184Y-106362800D01*
X174952728Y-106241699D01*
X174861488Y-106058465D01*
X174820938Y-106004768D01*
X174738133Y-105895115D01*
X174586863Y-105757214D01*
X174412833Y-105649459D01*
X174412828Y-105649457D01*
X174412827Y-105649456D01*
X174221959Y-105575513D01*
X174221960Y-105575513D01*
X174221957Y-105575512D01*
X174221956Y-105575512D01*
X174020747Y-105537900D01*
X173816053Y-105537900D01*
X173614844Y-105575512D01*
X173614839Y-105575513D01*
X173423977Y-105649454D01*
X173423966Y-105649459D01*
X173249936Y-105757214D01*
X173098666Y-105895115D01*
X172975313Y-106058463D01*
X172884071Y-106241701D01*
X172828054Y-106438580D01*
X172809168Y-106642395D01*
X172809168Y-106642404D01*
X172487632Y-106642404D01*
X172487632Y-106642400D01*
X172487615Y-106642220D01*
X172468745Y-106438580D01*
X172447184Y-106362800D01*
X172412728Y-106241699D01*
X172321488Y-106058465D01*
X172280938Y-106004768D01*
X172198133Y-105895115D01*
X172046863Y-105757214D01*
X171872833Y-105649459D01*
X171872828Y-105649457D01*
X171872827Y-105649456D01*
X171681959Y-105575513D01*
X171681960Y-105575513D01*
X171681957Y-105575512D01*
X171681956Y-105575512D01*
X171480747Y-105537900D01*
X171276053Y-105537900D01*
X171074844Y-105575512D01*
X171074839Y-105575513D01*
X170883977Y-105649454D01*
X170883966Y-105649459D01*
X170709936Y-105757214D01*
X170558666Y-105895115D01*
X170435312Y-106058464D01*
X170435308Y-106058469D01*
X170369285Y-106191063D01*
X170321016Y-106243127D01*
X170256495Y-106260900D01*
X148952612Y-106260900D01*
X148884491Y-106240898D01*
X148863517Y-106223995D01*
X147838120Y-105198597D01*
X158967000Y-105198597D01*
X158973505Y-105259093D01*
X159024555Y-105395964D01*
X159024555Y-105395965D01*
X159112095Y-105512904D01*
X159229034Y-105600444D01*
X159365906Y-105651494D01*
X159426402Y-105657999D01*
X159426415Y-105658000D01*
X160071000Y-105658000D01*
X160071000Y-104730702D01*
X160132007Y-104765925D01*
X160259174Y-104800000D01*
X160390826Y-104800000D01*
X160517993Y-104765925D01*
X160579000Y-104730702D01*
X160579000Y-105658000D01*
X161223585Y-105658000D01*
X161223597Y-105657999D01*
X161284093Y-105651494D01*
X161420964Y-105600444D01*
X161420965Y-105600444D01*
X161537904Y-105512904D01*
X161625444Y-105395965D01*
X161669814Y-105277004D01*
X161712361Y-105220168D01*
X161778881Y-105195357D01*
X161848255Y-105210448D01*
X161880572Y-105235699D01*
X161942097Y-105302534D01*
X162119698Y-105440767D01*
X162119699Y-105440768D01*
X162317628Y-105547882D01*
X162317630Y-105547883D01*
X162530483Y-105620955D01*
X162530492Y-105620957D01*
X162611000Y-105634391D01*
X162611000Y-104730702D01*
X162672007Y-104765925D01*
X162799174Y-104800000D01*
X162930826Y-104800000D01*
X163057993Y-104765925D01*
X163119000Y-104730702D01*
X163119000Y-105634390D01*
X163199507Y-105620957D01*
X163199516Y-105620955D01*
X163412369Y-105547883D01*
X163412371Y-105547882D01*
X163610300Y-105440768D01*
X163610301Y-105440767D01*
X163787902Y-105302534D01*
X163940325Y-105136958D01*
X164063419Y-104948548D01*
X164153820Y-104742456D01*
X164153823Y-104742449D01*
X164201544Y-104554000D01*
X163295703Y-104554000D01*
X163330925Y-104492993D01*
X163365000Y-104365826D01*
X163365000Y-104234174D01*
X163330925Y-104107007D01*
X163328267Y-104102404D01*
X170269168Y-104102404D01*
X170288054Y-104306219D01*
X170341196Y-104492993D01*
X170344072Y-104503101D01*
X170435312Y-104686335D01*
X170435313Y-104686336D01*
X170558666Y-104849684D01*
X170709936Y-104987585D01*
X170883966Y-105095340D01*
X170883968Y-105095340D01*
X170883973Y-105095344D01*
X171074844Y-105169288D01*
X171276053Y-105206900D01*
X171276055Y-105206900D01*
X171480745Y-105206900D01*
X171480747Y-105206900D01*
X171681956Y-105169288D01*
X171872827Y-105095344D01*
X172046862Y-104987586D01*
X172198132Y-104849685D01*
X172321488Y-104686335D01*
X172412728Y-104503101D01*
X172468745Y-104306221D01*
X172475421Y-104234174D01*
X172487632Y-104102404D01*
X172487632Y-104102395D01*
X172471892Y-103932549D01*
X172468745Y-103898579D01*
X172412728Y-103701699D01*
X172321488Y-103518465D01*
X172277971Y-103460839D01*
X172198133Y-103355115D01*
X172046863Y-103217214D01*
X171872833Y-103109459D01*
X171872828Y-103109457D01*
X171872827Y-103109456D01*
X171787970Y-103076582D01*
X171681959Y-103035513D01*
X171681960Y-103035513D01*
X171681957Y-103035512D01*
X171681956Y-103035512D01*
X171480747Y-102997900D01*
X171276053Y-102997900D01*
X171074844Y-103035512D01*
X171074839Y-103035513D01*
X170883977Y-103109454D01*
X170883966Y-103109459D01*
X170709936Y-103217214D01*
X170558666Y-103355115D01*
X170435313Y-103518463D01*
X170344071Y-103701701D01*
X170288054Y-103898580D01*
X170269168Y-104102395D01*
X170269168Y-104102404D01*
X163328267Y-104102404D01*
X163295703Y-104046000D01*
X164201544Y-104046000D01*
X164201544Y-104045999D01*
X164153823Y-103857550D01*
X164153820Y-103857543D01*
X164063419Y-103651451D01*
X163940325Y-103463041D01*
X163787902Y-103297465D01*
X163610301Y-103159232D01*
X163610300Y-103159231D01*
X163412371Y-103052117D01*
X163412369Y-103052116D01*
X163199512Y-102979043D01*
X163199501Y-102979040D01*
X163119000Y-102965606D01*
X163119000Y-103869297D01*
X163057993Y-103834075D01*
X162930826Y-103800000D01*
X162799174Y-103800000D01*
X162672007Y-103834075D01*
X162611000Y-103869297D01*
X162611000Y-102965607D01*
X162610999Y-102965606D01*
X162530498Y-102979040D01*
X162530487Y-102979043D01*
X162317630Y-103052116D01*
X162317628Y-103052117D01*
X162119699Y-103159231D01*
X162119698Y-103159232D01*
X161942093Y-103297468D01*
X161880571Y-103364300D01*
X161819718Y-103400871D01*
X161748754Y-103398738D01*
X161690208Y-103358576D01*
X161669814Y-103322995D01*
X161625444Y-103204035D01*
X161625444Y-103204034D01*
X161537904Y-103087095D01*
X161420965Y-102999555D01*
X161284093Y-102948505D01*
X161223597Y-102942000D01*
X160579000Y-102942000D01*
X160579000Y-103869297D01*
X160517993Y-103834075D01*
X160390826Y-103800000D01*
X160259174Y-103800000D01*
X160132007Y-103834075D01*
X160071000Y-103869297D01*
X160071000Y-102942000D01*
X159426402Y-102942000D01*
X159365906Y-102948505D01*
X159229035Y-102999555D01*
X159229034Y-102999555D01*
X159112095Y-103087095D01*
X159024555Y-103204034D01*
X159024555Y-103204035D01*
X158973505Y-103340906D01*
X158967000Y-103401402D01*
X158967000Y-104046000D01*
X159894297Y-104046000D01*
X159859075Y-104107007D01*
X159825000Y-104234174D01*
X159825000Y-104365826D01*
X159859075Y-104492993D01*
X159894297Y-104554000D01*
X158967000Y-104554000D01*
X158967000Y-105198597D01*
X147838120Y-105198597D01*
X146918405Y-104278882D01*
X146884379Y-104216570D01*
X146881500Y-104189787D01*
X146881500Y-101562404D01*
X170269168Y-101562404D01*
X170288054Y-101766219D01*
X170337447Y-101939818D01*
X170344072Y-101963101D01*
X170435312Y-102146335D01*
X170435313Y-102146336D01*
X170558666Y-102309684D01*
X170709936Y-102447585D01*
X170883966Y-102555340D01*
X170883968Y-102555340D01*
X170883973Y-102555344D01*
X171074844Y-102629288D01*
X171276053Y-102666900D01*
X171276055Y-102666900D01*
X171480745Y-102666900D01*
X171480747Y-102666900D01*
X171681956Y-102629288D01*
X171872827Y-102555344D01*
X172046862Y-102447586D01*
X172198132Y-102309685D01*
X172321488Y-102146335D01*
X172398398Y-101991878D01*
X172446665Y-101939818D01*
X172515419Y-101922115D01*
X172582830Y-101944394D01*
X172627494Y-101999581D01*
X172628963Y-102003452D01*
X172719980Y-102210948D01*
X172843074Y-102399358D01*
X172995497Y-102564934D01*
X173173098Y-102703167D01*
X173173099Y-102703168D01*
X173371028Y-102810282D01*
X173371034Y-102810284D01*
X173482203Y-102848448D01*
X173540139Y-102889484D01*
X173566691Y-102955329D01*
X173553430Y-103025076D01*
X173504566Y-103076582D01*
X173486810Y-103085112D01*
X173423974Y-103109455D01*
X173423966Y-103109459D01*
X173249936Y-103217214D01*
X173098666Y-103355115D01*
X172975313Y-103518463D01*
X172884071Y-103701701D01*
X172828054Y-103898580D01*
X172809168Y-104102395D01*
X172809168Y-104102404D01*
X172828054Y-104306219D01*
X172881196Y-104492993D01*
X172884072Y-104503101D01*
X172975312Y-104686335D01*
X172975313Y-104686336D01*
X173098666Y-104849684D01*
X173249936Y-104987585D01*
X173423966Y-105095340D01*
X173423968Y-105095340D01*
X173423973Y-105095344D01*
X173614844Y-105169288D01*
X173816053Y-105206900D01*
X173816055Y-105206900D01*
X174020745Y-105206900D01*
X174020747Y-105206900D01*
X174221956Y-105169288D01*
X174412827Y-105095344D01*
X174586862Y-104987586D01*
X174738132Y-104849685D01*
X174861488Y-104686335D01*
X174952728Y-104503101D01*
X175008745Y-104306221D01*
X175015421Y-104234174D01*
X175027632Y-104102404D01*
X175027632Y-104102395D01*
X175011892Y-103932549D01*
X175008745Y-103898579D01*
X174952728Y-103701699D01*
X174861488Y-103518465D01*
X174817971Y-103460839D01*
X174738133Y-103355115D01*
X174586863Y-103217214D01*
X174412833Y-103109459D01*
X174412825Y-103109455D01*
X174349989Y-103085112D01*
X174293695Y-103041852D01*
X174269725Y-102975024D01*
X174285690Y-102905846D01*
X174336521Y-102856281D01*
X174354596Y-102848448D01*
X174465765Y-102810284D01*
X174465771Y-102810282D01*
X174663700Y-102703168D01*
X174663701Y-102703167D01*
X174841302Y-102564934D01*
X174993725Y-102399358D01*
X175116819Y-102210948D01*
X175207220Y-102004856D01*
X175207223Y-102004849D01*
X175254944Y-101816400D01*
X174349103Y-101816400D01*
X174384325Y-101755393D01*
X174418400Y-101628226D01*
X174418400Y-101496574D01*
X174384325Y-101369407D01*
X174349103Y-101308400D01*
X175254944Y-101308400D01*
X175254944Y-101308399D01*
X175207223Y-101119950D01*
X175207220Y-101119943D01*
X175116819Y-100913851D01*
X174993725Y-100725441D01*
X174841302Y-100559865D01*
X174663701Y-100421632D01*
X174663700Y-100421631D01*
X174465771Y-100314517D01*
X174465769Y-100314516D01*
X174354595Y-100276351D01*
X174296660Y-100235314D01*
X174270108Y-100169469D01*
X174283369Y-100099722D01*
X174332234Y-100048217D01*
X174349981Y-100039690D01*
X174412827Y-100015344D01*
X174586862Y-99907586D01*
X174738132Y-99769685D01*
X174861488Y-99606335D01*
X174952728Y-99423101D01*
X175008745Y-99226221D01*
X175027632Y-99022400D01*
X175008745Y-98818579D01*
X174952728Y-98621699D01*
X174861488Y-98438465D01*
X174810193Y-98370539D01*
X174738133Y-98275115D01*
X174586863Y-98137214D01*
X174412833Y-98029459D01*
X174412828Y-98029457D01*
X174412827Y-98029456D01*
X174327970Y-97996582D01*
X174221959Y-97955513D01*
X174221960Y-97955513D01*
X174221957Y-97955512D01*
X174221956Y-97955512D01*
X174020747Y-97917900D01*
X173816053Y-97917900D01*
X173614844Y-97955512D01*
X173614839Y-97955513D01*
X173423977Y-98029454D01*
X173423966Y-98029459D01*
X173249936Y-98137214D01*
X173098666Y-98275115D01*
X172975313Y-98438463D01*
X172975312Y-98438464D01*
X172975312Y-98438465D01*
X172958613Y-98472001D01*
X172884071Y-98621701D01*
X172828054Y-98818580D01*
X172809168Y-99022395D01*
X172809168Y-99022404D01*
X172828054Y-99226219D01*
X172828055Y-99226221D01*
X172884072Y-99423101D01*
X172975312Y-99606335D01*
X172975313Y-99606336D01*
X173098666Y-99769684D01*
X173249936Y-99907585D01*
X173423966Y-100015340D01*
X173423968Y-100015340D01*
X173423973Y-100015344D01*
X173473733Y-100034621D01*
X173486809Y-100039687D01*
X173543104Y-100082946D01*
X173567074Y-100149774D01*
X173551110Y-100218952D01*
X173500279Y-100268518D01*
X173482204Y-100276351D01*
X173371031Y-100314516D01*
X173371028Y-100314517D01*
X173173099Y-100421631D01*
X173173098Y-100421632D01*
X172995497Y-100559865D01*
X172843074Y-100725441D01*
X172719980Y-100913851D01*
X172627484Y-101124720D01*
X172625872Y-101124012D01*
X172589303Y-101175618D01*
X172523453Y-101202157D01*
X172453709Y-101188881D01*
X172402213Y-101140006D01*
X172398405Y-101132935D01*
X172321488Y-100978465D01*
X172249721Y-100883430D01*
X172198133Y-100815115D01*
X172046863Y-100677214D01*
X171872833Y-100569459D01*
X171872828Y-100569457D01*
X171872827Y-100569456D01*
X171681959Y-100495513D01*
X171681960Y-100495513D01*
X171681957Y-100495512D01*
X171681956Y-100495512D01*
X171480747Y-100457900D01*
X171276053Y-100457900D01*
X171074844Y-100495512D01*
X171074839Y-100495513D01*
X170883977Y-100569454D01*
X170883966Y-100569459D01*
X170709936Y-100677214D01*
X170558666Y-100815115D01*
X170435313Y-100978463D01*
X170344071Y-101161701D01*
X170288054Y-101358580D01*
X170269168Y-101562395D01*
X170269168Y-101562404D01*
X146881500Y-101562404D01*
X146881500Y-101160388D01*
X146881501Y-101160375D01*
X146881501Y-101049776D01*
X146862393Y-100978465D01*
X146855502Y-100952747D01*
X146855501Y-100952745D01*
X146805278Y-100865756D01*
X146805270Y-100865746D01*
X136566405Y-90626881D01*
X136532379Y-90564569D01*
X136529500Y-90537786D01*
X136529500Y-86000003D01*
X150240693Y-86000003D01*
X150259849Y-86157779D01*
X150308447Y-86285919D01*
X150316213Y-86306395D01*
X150406502Y-86437201D01*
X150525471Y-86542599D01*
X150525472Y-86542599D01*
X150525474Y-86542601D01*
X150600200Y-86581820D01*
X150666207Y-86616463D01*
X150820529Y-86654500D01*
X150820530Y-86654500D01*
X150979470Y-86654500D01*
X150979471Y-86654500D01*
X151133793Y-86616463D01*
X151274529Y-86542599D01*
X151393498Y-86437201D01*
X151458234Y-86343413D01*
X151472823Y-86325908D01*
X151476327Y-86322404D01*
X170269168Y-86322404D01*
X170288054Y-86526219D01*
X170344071Y-86723098D01*
X170344072Y-86723101D01*
X170435312Y-86906335D01*
X170435313Y-86906336D01*
X170558666Y-87069684D01*
X170709936Y-87207585D01*
X170883966Y-87315340D01*
X170883968Y-87315340D01*
X170883973Y-87315344D01*
X171074844Y-87389288D01*
X171276053Y-87426900D01*
X171276055Y-87426900D01*
X171480745Y-87426900D01*
X171480747Y-87426900D01*
X171681956Y-87389288D01*
X171872827Y-87315344D01*
X172046862Y-87207586D01*
X172198132Y-87069685D01*
X172200155Y-87067007D01*
X172266860Y-86978674D01*
X172321488Y-86906335D01*
X172412728Y-86723101D01*
X172468745Y-86526221D01*
X172486993Y-86329297D01*
X172487632Y-86322404D01*
X172487632Y-86322395D01*
X172468745Y-86118580D01*
X172435005Y-85999996D01*
X172412728Y-85921699D01*
X172321488Y-85738465D01*
X172280938Y-85684768D01*
X172198133Y-85575115D01*
X172046863Y-85437214D01*
X171872833Y-85329459D01*
X171872828Y-85329457D01*
X171872827Y-85329456D01*
X171787970Y-85296582D01*
X171681959Y-85255513D01*
X171681960Y-85255513D01*
X171681957Y-85255512D01*
X171681956Y-85255512D01*
X171480747Y-85217900D01*
X171276053Y-85217900D01*
X171093632Y-85252000D01*
X171074839Y-85255513D01*
X170883977Y-85329454D01*
X170883966Y-85329459D01*
X170709936Y-85437214D01*
X170558666Y-85575115D01*
X170435313Y-85738463D01*
X170344071Y-85921701D01*
X170288054Y-86118580D01*
X170269168Y-86322395D01*
X170269168Y-86322404D01*
X151476327Y-86322404D01*
X155126328Y-82672405D01*
X155188640Y-82638379D01*
X155215423Y-82635500D01*
X166828142Y-82635500D01*
X166858296Y-82639161D01*
X166920529Y-82654500D01*
X166920530Y-82654500D01*
X167079470Y-82654500D01*
X167079471Y-82654500D01*
X167233793Y-82616463D01*
X167374529Y-82542599D01*
X167493498Y-82437201D01*
X167583787Y-82306395D01*
X167640149Y-82157782D01*
X167640149Y-82157781D01*
X167640150Y-82157779D01*
X167659307Y-82000003D01*
X167659307Y-81999996D01*
X167640150Y-81842220D01*
X167626538Y-81806331D01*
X167583787Y-81693605D01*
X167493498Y-81562799D01*
X167374529Y-81457401D01*
X167374528Y-81457400D01*
X167374525Y-81457398D01*
X167233797Y-81383539D01*
X167233795Y-81383538D01*
X167233793Y-81383537D01*
X167233791Y-81383536D01*
X167233790Y-81383536D01*
X167079472Y-81345500D01*
X167079471Y-81345500D01*
X166920529Y-81345500D01*
X166920527Y-81345500D01*
X166858296Y-81360839D01*
X166828142Y-81364500D01*
X154837406Y-81364500D01*
X154714630Y-81388922D01*
X154714625Y-81388924D01*
X154598977Y-81436827D01*
X154494896Y-81506372D01*
X154494889Y-81506377D01*
X150577744Y-85423521D01*
X150547207Y-85445992D01*
X150525472Y-85457399D01*
X150406501Y-85562800D01*
X150316215Y-85693601D01*
X150316212Y-85693607D01*
X150259849Y-85842220D01*
X150240693Y-85999996D01*
X150240693Y-86000003D01*
X136529500Y-86000003D01*
X136529500Y-80455054D01*
X136549502Y-80386933D01*
X136598295Y-80342788D01*
X136753090Y-80263917D01*
X136900106Y-80157103D01*
X137028603Y-80028606D01*
X137135417Y-79881590D01*
X137217917Y-79719674D01*
X137274072Y-79546846D01*
X137293551Y-79423855D01*
X137323964Y-79359705D01*
X137384232Y-79322178D01*
X137455221Y-79323192D01*
X137514393Y-79362425D01*
X137542448Y-79423855D01*
X137561928Y-79546846D01*
X137561929Y-79546851D01*
X137618081Y-79719669D01*
X137618083Y-79719674D01*
X137700583Y-79881590D01*
X137700585Y-79881593D01*
X137807398Y-80028608D01*
X137935891Y-80157101D01*
X137935894Y-80157103D01*
X138082910Y-80263917D01*
X138244826Y-80346417D01*
X138417654Y-80402572D01*
X138597139Y-80431000D01*
X138597142Y-80431000D01*
X138778858Y-80431000D01*
X138778861Y-80431000D01*
X138958346Y-80402572D01*
X139131174Y-80346417D01*
X139293090Y-80263917D01*
X139440106Y-80157103D01*
X139568603Y-80028606D01*
X139675417Y-79881590D01*
X139703479Y-79826514D01*
X139752225Y-79774900D01*
X139821140Y-79757834D01*
X139888342Y-79780734D01*
X139928012Y-79826516D01*
X140023770Y-80014453D01*
X140154039Y-80193753D01*
X140310746Y-80350460D01*
X140490043Y-80480727D01*
X140687514Y-80581343D01*
X140687516Y-80581344D01*
X140898289Y-80649829D01*
X140974000Y-80661820D01*
X140974000Y-79422673D01*
X140996409Y-79435611D01*
X141149009Y-79476500D01*
X141306991Y-79476500D01*
X141459591Y-79435611D01*
X141482000Y-79422673D01*
X141482000Y-80661820D01*
X141557709Y-80649829D01*
X141557711Y-80649829D01*
X141768483Y-80581344D01*
X141768485Y-80581343D01*
X141965956Y-80480727D01*
X142145253Y-80350460D01*
X142301960Y-80193753D01*
X142432227Y-80014456D01*
X142532843Y-79816985D01*
X142532844Y-79816983D01*
X142601329Y-79606210D01*
X142636000Y-79387308D01*
X142636000Y-79130500D01*
X141774173Y-79130500D01*
X141787111Y-79108091D01*
X141814162Y-79007136D01*
X170867900Y-79007136D01*
X170897850Y-79234631D01*
X170897852Y-79234638D01*
X170957242Y-79456287D01*
X171045056Y-79668288D01*
X171045057Y-79668289D01*
X171045062Y-79668300D01*
X171159786Y-79867008D01*
X171159791Y-79867015D01*
X171299473Y-80049052D01*
X171299492Y-80049073D01*
X171461726Y-80211307D01*
X171461747Y-80211326D01*
X171643784Y-80351008D01*
X171643791Y-80351013D01*
X171842499Y-80465737D01*
X171842503Y-80465738D01*
X171842512Y-80465744D01*
X172054513Y-80553558D01*
X172276162Y-80612948D01*
X172276166Y-80612948D01*
X172276168Y-80612949D01*
X172334798Y-80620667D01*
X172503666Y-80642900D01*
X172503673Y-80642900D01*
X172733127Y-80642900D01*
X172733134Y-80642900D01*
X172938745Y-80615830D01*
X172960631Y-80612949D01*
X172960631Y-80612948D01*
X172960638Y-80612948D01*
X173182287Y-80553558D01*
X173394288Y-80465744D01*
X173593012Y-80351011D01*
X173775061Y-80211319D01*
X173937319Y-80049061D01*
X174077011Y-79867012D01*
X174191744Y-79668288D01*
X174279558Y-79456287D01*
X174338948Y-79234638D01*
X174368900Y-79007136D01*
X219867900Y-79007136D01*
X219897850Y-79234631D01*
X219897852Y-79234638D01*
X219957242Y-79456287D01*
X220045056Y-79668288D01*
X220045057Y-79668289D01*
X220045062Y-79668300D01*
X220159786Y-79867008D01*
X220159791Y-79867015D01*
X220299473Y-80049052D01*
X220299492Y-80049073D01*
X220461726Y-80211307D01*
X220461747Y-80211326D01*
X220643784Y-80351008D01*
X220643791Y-80351013D01*
X220842499Y-80465737D01*
X220842503Y-80465738D01*
X220842512Y-80465744D01*
X221054513Y-80553558D01*
X221276162Y-80612948D01*
X221276166Y-80612948D01*
X221276168Y-80612949D01*
X221334798Y-80620667D01*
X221503666Y-80642900D01*
X221503673Y-80642900D01*
X221733127Y-80642900D01*
X221733134Y-80642900D01*
X221938745Y-80615830D01*
X221960631Y-80612949D01*
X221960631Y-80612948D01*
X221960638Y-80612948D01*
X222182287Y-80553558D01*
X222394288Y-80465744D01*
X222593012Y-80351011D01*
X222775061Y-80211319D01*
X222937319Y-80049061D01*
X223077011Y-79867012D01*
X223191744Y-79668288D01*
X223279558Y-79456287D01*
X223338948Y-79234638D01*
X223368900Y-79007134D01*
X223368900Y-78777666D01*
X223338948Y-78550162D01*
X223279558Y-78328513D01*
X223191744Y-78116512D01*
X223191738Y-78116503D01*
X223191737Y-78116499D01*
X223077013Y-77917791D01*
X223077008Y-77917784D01*
X222937326Y-77735747D01*
X222937307Y-77735726D01*
X222775073Y-77573492D01*
X222775052Y-77573473D01*
X222593015Y-77433791D01*
X222593008Y-77433786D01*
X222394300Y-77319062D01*
X222394292Y-77319058D01*
X222394288Y-77319056D01*
X222182287Y-77231242D01*
X221960638Y-77171852D01*
X221960631Y-77171850D01*
X221733136Y-77141900D01*
X221733134Y-77141900D01*
X221503666Y-77141900D01*
X221503663Y-77141900D01*
X221276168Y-77171850D01*
X221120373Y-77213595D01*
X221054513Y-77231242D01*
X220871051Y-77307235D01*
X220842510Y-77319057D01*
X220842499Y-77319062D01*
X220643791Y-77433786D01*
X220643784Y-77433791D01*
X220461747Y-77573473D01*
X220461726Y-77573492D01*
X220299492Y-77735726D01*
X220299473Y-77735747D01*
X220159791Y-77917784D01*
X220159786Y-77917791D01*
X220045062Y-78116499D01*
X220045057Y-78116510D01*
X220045056Y-78116512D01*
X220007925Y-78206154D01*
X219957242Y-78328513D01*
X219897850Y-78550168D01*
X219867900Y-78777663D01*
X219867900Y-79007136D01*
X174368900Y-79007136D01*
X174368900Y-79007134D01*
X174368900Y-78777666D01*
X174338948Y-78550162D01*
X174279558Y-78328513D01*
X174191744Y-78116512D01*
X174191738Y-78116503D01*
X174191737Y-78116499D01*
X174077013Y-77917791D01*
X174077008Y-77917784D01*
X173937326Y-77735747D01*
X173937307Y-77735726D01*
X173775073Y-77573492D01*
X173775052Y-77573473D01*
X173593015Y-77433791D01*
X173593008Y-77433786D01*
X173394300Y-77319062D01*
X173394292Y-77319058D01*
X173394288Y-77319056D01*
X173182287Y-77231242D01*
X172960638Y-77171852D01*
X172960631Y-77171850D01*
X172733136Y-77141900D01*
X172733134Y-77141900D01*
X172503666Y-77141900D01*
X172503663Y-77141900D01*
X172276168Y-77171850D01*
X172120373Y-77213595D01*
X172054513Y-77231242D01*
X171871051Y-77307235D01*
X171842510Y-77319057D01*
X171842499Y-77319062D01*
X171643791Y-77433786D01*
X171643784Y-77433791D01*
X171461747Y-77573473D01*
X171461726Y-77573492D01*
X171299492Y-77735726D01*
X171299473Y-77735747D01*
X171159791Y-77917784D01*
X171159786Y-77917791D01*
X171045062Y-78116499D01*
X171045057Y-78116510D01*
X171045056Y-78116512D01*
X171007925Y-78206154D01*
X170957242Y-78328513D01*
X170897850Y-78550168D01*
X170867900Y-78777663D01*
X170867900Y-79007136D01*
X141814162Y-79007136D01*
X141828000Y-78955491D01*
X141828000Y-78797509D01*
X141787111Y-78644909D01*
X141774173Y-78622500D01*
X142636000Y-78622500D01*
X142636000Y-78365691D01*
X142601329Y-78146789D01*
X142532844Y-77936016D01*
X142532843Y-77936014D01*
X142432227Y-77738543D01*
X142301960Y-77559246D01*
X142145253Y-77402539D01*
X141965956Y-77272272D01*
X141768485Y-77171656D01*
X141768483Y-77171655D01*
X141557709Y-77103169D01*
X141482000Y-77091178D01*
X141482000Y-78330326D01*
X141459591Y-78317389D01*
X141306991Y-78276500D01*
X141149009Y-78276500D01*
X140996409Y-78317389D01*
X140974000Y-78330326D01*
X140974000Y-77091178D01*
X140898290Y-77103169D01*
X140687516Y-77171655D01*
X140687514Y-77171656D01*
X140490043Y-77272272D01*
X140310746Y-77402539D01*
X140154039Y-77559246D01*
X140023772Y-77738543D01*
X139928012Y-77926484D01*
X139879264Y-77978099D01*
X139810349Y-77995165D01*
X139743147Y-77972264D01*
X139703478Y-77926484D01*
X139675417Y-77871410D01*
X139623563Y-77800039D01*
X139568601Y-77724391D01*
X139440108Y-77595898D01*
X139293093Y-77489085D01*
X139293092Y-77489084D01*
X139293090Y-77489083D01*
X139131174Y-77406583D01*
X139131171Y-77406582D01*
X139131169Y-77406581D01*
X138958351Y-77350429D01*
X138958347Y-77350428D01*
X138958346Y-77350428D01*
X138778861Y-77322000D01*
X138597139Y-77322000D01*
X138417654Y-77350428D01*
X138417648Y-77350429D01*
X138244830Y-77406581D01*
X138244824Y-77406584D01*
X138082906Y-77489085D01*
X137935891Y-77595898D01*
X137807398Y-77724391D01*
X137700585Y-77871406D01*
X137618084Y-78033324D01*
X137618081Y-78033330D01*
X137561929Y-78206148D01*
X137542449Y-78329141D01*
X137512036Y-78393294D01*
X137451768Y-78430821D01*
X137380779Y-78429807D01*
X137321607Y-78390574D01*
X137293551Y-78329141D01*
X137291690Y-78317389D01*
X137274072Y-78206154D01*
X137217917Y-78033326D01*
X137135417Y-77871410D01*
X137083563Y-77800039D01*
X137028601Y-77724391D01*
X136900108Y-77595898D01*
X136753093Y-77489085D01*
X136753092Y-77489084D01*
X136753090Y-77489083D01*
X136591174Y-77406583D01*
X136591171Y-77406582D01*
X136591169Y-77406581D01*
X136418351Y-77350429D01*
X136418347Y-77350428D01*
X136418346Y-77350428D01*
X136238861Y-77322000D01*
X136057139Y-77322000D01*
X135877654Y-77350428D01*
X135877648Y-77350429D01*
X135704830Y-77406581D01*
X135704824Y-77406584D01*
X135542906Y-77489085D01*
X135395891Y-77595898D01*
X135267398Y-77724391D01*
X135160585Y-77871406D01*
X135078084Y-78033324D01*
X135078081Y-78033330D01*
X135021929Y-78206148D01*
X135002449Y-78329141D01*
X134972036Y-78393294D01*
X134911768Y-78430821D01*
X134840779Y-78429807D01*
X134781607Y-78390574D01*
X134753551Y-78329141D01*
X134751690Y-78317389D01*
X134734072Y-78206154D01*
X134677917Y-78033326D01*
X134595417Y-77871410D01*
X134543563Y-77800039D01*
X134488601Y-77724391D01*
X134360108Y-77595898D01*
X134213093Y-77489085D01*
X134213092Y-77489084D01*
X134213090Y-77489083D01*
X134051174Y-77406583D01*
X134051171Y-77406582D01*
X134051169Y-77406581D01*
X133878351Y-77350429D01*
X133878347Y-77350428D01*
X133878346Y-77350428D01*
X133698861Y-77322000D01*
X133517139Y-77322000D01*
X133337654Y-77350428D01*
X133337648Y-77350429D01*
X133164830Y-77406581D01*
X133164824Y-77406584D01*
X133002906Y-77489085D01*
X132855891Y-77595898D01*
X132727398Y-77724391D01*
X132620585Y-77871406D01*
X132538084Y-78033324D01*
X132538081Y-78033330D01*
X132481929Y-78206148D01*
X132462449Y-78329141D01*
X132432036Y-78393294D01*
X132371768Y-78430821D01*
X132300779Y-78429807D01*
X132241607Y-78390574D01*
X132213551Y-78329141D01*
X132211690Y-78317389D01*
X132194072Y-78206154D01*
X132137917Y-78033326D01*
X132055417Y-77871410D01*
X132003563Y-77800039D01*
X131948601Y-77724391D01*
X131820108Y-77595898D01*
X131673093Y-77489085D01*
X131673092Y-77489084D01*
X131673090Y-77489083D01*
X131511174Y-77406583D01*
X131511171Y-77406582D01*
X131511169Y-77406581D01*
X131338351Y-77350429D01*
X131338347Y-77350428D01*
X131338346Y-77350428D01*
X131158861Y-77322000D01*
X130977139Y-77322000D01*
X130797654Y-77350428D01*
X130797648Y-77350429D01*
X130624830Y-77406581D01*
X130624824Y-77406584D01*
X130462906Y-77489085D01*
X130315891Y-77595898D01*
X130187398Y-77724391D01*
X130080585Y-77871406D01*
X129998084Y-78033324D01*
X129998081Y-78033330D01*
X129941929Y-78206148D01*
X129922449Y-78329141D01*
X129892036Y-78393294D01*
X129831768Y-78430821D01*
X129760779Y-78429807D01*
X129701607Y-78390574D01*
X129673551Y-78329141D01*
X129671690Y-78317389D01*
X129654072Y-78206154D01*
X129597917Y-78033326D01*
X129515417Y-77871410D01*
X129463563Y-77800039D01*
X129408601Y-77724391D01*
X129280108Y-77595898D01*
X129133093Y-77489085D01*
X129133092Y-77489084D01*
X129133090Y-77489083D01*
X128971174Y-77406583D01*
X128971171Y-77406582D01*
X128971169Y-77406581D01*
X128798351Y-77350429D01*
X128798347Y-77350428D01*
X128798346Y-77350428D01*
X128618861Y-77322000D01*
X128437139Y-77322000D01*
X128257654Y-77350428D01*
X128257648Y-77350429D01*
X128084830Y-77406581D01*
X128084824Y-77406584D01*
X127922906Y-77489085D01*
X127775891Y-77595898D01*
X127647398Y-77724391D01*
X127540585Y-77871406D01*
X127458084Y-78033324D01*
X127458081Y-78033330D01*
X127401929Y-78206148D01*
X127382449Y-78329141D01*
X127352036Y-78393294D01*
X127291768Y-78430821D01*
X127220779Y-78429807D01*
X127161607Y-78390574D01*
X127133551Y-78329141D01*
X127131690Y-78317389D01*
X127114072Y-78206154D01*
X127057917Y-78033326D01*
X126975417Y-77871410D01*
X126923563Y-77800039D01*
X126868601Y-77724391D01*
X126740108Y-77595898D01*
X126593093Y-77489085D01*
X126593092Y-77489084D01*
X126593090Y-77489083D01*
X126431174Y-77406583D01*
X126431171Y-77406582D01*
X126431169Y-77406581D01*
X126258351Y-77350429D01*
X126258347Y-77350428D01*
X126258346Y-77350428D01*
X126078861Y-77322000D01*
X125897139Y-77322000D01*
X125717654Y-77350428D01*
X125717648Y-77350429D01*
X125544830Y-77406581D01*
X125544824Y-77406584D01*
X125382906Y-77489085D01*
X125235891Y-77595898D01*
X125107398Y-77724391D01*
X125000585Y-77871406D01*
X124918084Y-78033324D01*
X124918081Y-78033330D01*
X124861929Y-78206148D01*
X124842449Y-78329141D01*
X124812036Y-78393294D01*
X124751768Y-78430821D01*
X124680779Y-78429807D01*
X124621607Y-78390574D01*
X124593551Y-78329141D01*
X124591690Y-78317389D01*
X124574072Y-78206154D01*
X124517917Y-78033326D01*
X124435417Y-77871410D01*
X124383563Y-77800039D01*
X124328601Y-77724391D01*
X124200108Y-77595898D01*
X124053093Y-77489085D01*
X124053092Y-77489084D01*
X124053090Y-77489083D01*
X123891174Y-77406583D01*
X123891171Y-77406582D01*
X123891169Y-77406581D01*
X123718351Y-77350429D01*
X123718347Y-77350428D01*
X123718346Y-77350428D01*
X123538861Y-77322000D01*
X123357139Y-77322000D01*
X123177654Y-77350428D01*
X123177648Y-77350429D01*
X123004830Y-77406581D01*
X123004824Y-77406584D01*
X122842906Y-77489085D01*
X122695891Y-77595898D01*
X122567398Y-77724391D01*
X122460585Y-77871406D01*
X122378084Y-78033324D01*
X122378081Y-78033330D01*
X122321929Y-78206148D01*
X122302449Y-78329141D01*
X122272036Y-78393294D01*
X122211768Y-78430821D01*
X122140779Y-78429807D01*
X122081607Y-78390574D01*
X122053551Y-78329141D01*
X122051690Y-78317389D01*
X122034072Y-78206154D01*
X121977917Y-78033326D01*
X121895417Y-77871410D01*
X121843563Y-77800039D01*
X121788601Y-77724391D01*
X121660108Y-77595898D01*
X121513093Y-77489085D01*
X121513092Y-77489084D01*
X121513090Y-77489083D01*
X121351174Y-77406583D01*
X121351171Y-77406582D01*
X121351169Y-77406581D01*
X121178351Y-77350429D01*
X121178347Y-77350428D01*
X121178346Y-77350428D01*
X120998861Y-77322000D01*
X120817139Y-77322000D01*
X120637654Y-77350428D01*
X120637648Y-77350429D01*
X120464830Y-77406581D01*
X120464824Y-77406584D01*
X120302906Y-77489085D01*
X120155891Y-77595898D01*
X120027398Y-77724391D01*
X119920585Y-77871406D01*
X119838084Y-78033324D01*
X119838081Y-78033330D01*
X119781929Y-78206148D01*
X119762449Y-78329141D01*
X119732036Y-78393294D01*
X119671768Y-78430821D01*
X119600779Y-78429807D01*
X119541607Y-78390574D01*
X119513551Y-78329141D01*
X119511690Y-78317389D01*
X119494072Y-78206154D01*
X119437917Y-78033326D01*
X119355417Y-77871410D01*
X119303563Y-77800039D01*
X119248601Y-77724391D01*
X119120108Y-77595898D01*
X118973093Y-77489085D01*
X118973092Y-77489084D01*
X118973090Y-77489083D01*
X118811174Y-77406583D01*
X118811171Y-77406582D01*
X118811169Y-77406581D01*
X118638351Y-77350429D01*
X118638347Y-77350428D01*
X118638346Y-77350428D01*
X118458861Y-77322000D01*
X118277139Y-77322000D01*
X118097654Y-77350428D01*
X118097648Y-77350429D01*
X117924830Y-77406581D01*
X117924824Y-77406584D01*
X117762906Y-77489085D01*
X117615891Y-77595898D01*
X117487398Y-77724391D01*
X117380585Y-77871406D01*
X117298084Y-78033324D01*
X117298081Y-78033330D01*
X117241929Y-78206148D01*
X117222449Y-78329141D01*
X117192036Y-78393294D01*
X117131768Y-78430821D01*
X117060779Y-78429807D01*
X117001607Y-78390574D01*
X116973551Y-78329141D01*
X116971690Y-78317389D01*
X116954072Y-78206154D01*
X116897917Y-78033326D01*
X116815417Y-77871410D01*
X116763563Y-77800039D01*
X116708601Y-77724391D01*
X116580108Y-77595898D01*
X116433093Y-77489085D01*
X116433092Y-77489084D01*
X116433090Y-77489083D01*
X116271174Y-77406583D01*
X116271171Y-77406582D01*
X116271169Y-77406581D01*
X116098351Y-77350429D01*
X116098347Y-77350428D01*
X116098346Y-77350428D01*
X115918861Y-77322000D01*
X115737139Y-77322000D01*
X115557654Y-77350428D01*
X115557648Y-77350429D01*
X115384830Y-77406581D01*
X115384824Y-77406584D01*
X115222906Y-77489085D01*
X115075891Y-77595898D01*
X114947398Y-77724391D01*
X114840583Y-77871409D01*
X114812520Y-77926485D01*
X114763771Y-77978100D01*
X114694856Y-77995165D01*
X114627655Y-77972263D01*
X114587987Y-77926483D01*
X114492229Y-77738546D01*
X114361960Y-77559246D01*
X114205253Y-77402539D01*
X114025956Y-77272272D01*
X113828485Y-77171656D01*
X113828483Y-77171655D01*
X113617709Y-77103169D01*
X113542000Y-77091178D01*
X113542000Y-78330326D01*
X113519591Y-78317389D01*
X113366991Y-78276500D01*
X113209009Y-78276500D01*
X113056409Y-78317389D01*
X113034000Y-78330326D01*
X113034000Y-77091178D01*
X112958290Y-77103169D01*
X112747516Y-77171655D01*
X112747514Y-77171656D01*
X112550043Y-77272272D01*
X112370746Y-77402539D01*
X112214039Y-77559246D01*
X112083772Y-77738543D01*
X111988012Y-77926484D01*
X111939264Y-77978099D01*
X111870349Y-77995165D01*
X111803147Y-77972264D01*
X111763478Y-77926484D01*
X111735417Y-77871410D01*
X111683563Y-77800039D01*
X111628601Y-77724391D01*
X111500108Y-77595898D01*
X111353093Y-77489085D01*
X111353092Y-77489084D01*
X111353090Y-77489083D01*
X111191174Y-77406583D01*
X111191171Y-77406582D01*
X111191169Y-77406581D01*
X111018351Y-77350429D01*
X111018347Y-77350428D01*
X111018346Y-77350428D01*
X110838861Y-77322000D01*
X110657139Y-77322000D01*
X110477654Y-77350428D01*
X110477648Y-77350429D01*
X110304830Y-77406581D01*
X110304824Y-77406584D01*
X110142906Y-77489085D01*
X109995891Y-77595898D01*
X109867398Y-77724391D01*
X109760585Y-77871406D01*
X109678084Y-78033324D01*
X109678081Y-78033330D01*
X109621929Y-78206148D01*
X109602449Y-78329141D01*
X109572036Y-78393294D01*
X109511768Y-78430821D01*
X109440779Y-78429807D01*
X109381607Y-78390574D01*
X109353551Y-78329141D01*
X109351690Y-78317389D01*
X109334072Y-78206154D01*
X109277917Y-78033326D01*
X109195417Y-77871410D01*
X109143563Y-77800039D01*
X109088601Y-77724391D01*
X108960108Y-77595898D01*
X108813093Y-77489085D01*
X108813092Y-77489084D01*
X108813090Y-77489083D01*
X108651174Y-77406583D01*
X108651171Y-77406582D01*
X108651169Y-77406581D01*
X108478351Y-77350429D01*
X108478347Y-77350428D01*
X108478346Y-77350428D01*
X108298861Y-77322000D01*
X108117139Y-77322000D01*
X107937654Y-77350428D01*
X107937648Y-77350429D01*
X107764830Y-77406581D01*
X107764824Y-77406584D01*
X107602906Y-77489085D01*
X107455891Y-77595898D01*
X107327398Y-77724391D01*
X107220585Y-77871406D01*
X107138084Y-78033324D01*
X107138081Y-78033330D01*
X107081929Y-78206148D01*
X107062449Y-78329141D01*
X107032036Y-78393294D01*
X106971768Y-78430821D01*
X106900779Y-78429807D01*
X106841607Y-78390574D01*
X106813551Y-78329141D01*
X106811690Y-78317389D01*
X106794072Y-78206154D01*
X106737917Y-78033326D01*
X106728842Y-78015516D01*
X106715737Y-77945743D01*
X106742435Y-77879957D01*
X106751996Y-77869236D01*
X107816125Y-76805108D01*
X108948828Y-75672405D01*
X109011140Y-75638379D01*
X109037923Y-75635500D01*
X114484577Y-75635500D01*
X114552698Y-75655502D01*
X114573672Y-75672405D01*
X115706375Y-76805108D01*
X115794892Y-76893625D01*
X115898978Y-76963173D01*
X116014631Y-77011078D01*
X116137409Y-77035500D01*
X116828142Y-77035500D01*
X116858296Y-77039161D01*
X116920529Y-77054500D01*
X116920530Y-77054500D01*
X117079470Y-77054500D01*
X117079471Y-77054500D01*
X117141704Y-77039161D01*
X117171858Y-77035500D01*
X129928142Y-77035500D01*
X129958296Y-77039161D01*
X130020529Y-77054500D01*
X130020530Y-77054500D01*
X130179470Y-77054500D01*
X130179471Y-77054500D01*
X130241704Y-77039161D01*
X130271858Y-77035500D01*
X138428142Y-77035500D01*
X138458296Y-77039161D01*
X138520529Y-77054500D01*
X138520530Y-77054500D01*
X138679470Y-77054500D01*
X138679471Y-77054500D01*
X138833793Y-77016463D01*
X138974529Y-76942599D01*
X139093498Y-76837201D01*
X139183787Y-76706395D01*
X139240149Y-76557782D01*
X139240149Y-76557781D01*
X139240150Y-76557779D01*
X139259307Y-76400003D01*
X139259307Y-76399996D01*
X139240150Y-76242220D01*
X139192276Y-76115989D01*
X139183787Y-76093605D01*
X139093498Y-75962799D01*
X138974529Y-75857401D01*
X138974528Y-75857400D01*
X138974525Y-75857398D01*
X138833797Y-75783539D01*
X138833795Y-75783538D01*
X138833793Y-75783537D01*
X138833791Y-75783536D01*
X138833790Y-75783536D01*
X138679472Y-75745500D01*
X138679471Y-75745500D01*
X138520529Y-75745500D01*
X138520527Y-75745500D01*
X138458296Y-75760839D01*
X138428142Y-75764500D01*
X130271858Y-75764500D01*
X130241704Y-75760839D01*
X130179472Y-75745500D01*
X130179471Y-75745500D01*
X130020529Y-75745500D01*
X130020527Y-75745500D01*
X129958296Y-75760839D01*
X129928142Y-75764500D01*
X117171858Y-75764500D01*
X117141704Y-75760839D01*
X117079472Y-75745500D01*
X117079471Y-75745500D01*
X116920529Y-75745500D01*
X116920527Y-75745500D01*
X116858296Y-75760839D01*
X116828142Y-75764500D01*
X116515423Y-75764500D01*
X116447302Y-75744498D01*
X116426328Y-75727595D01*
X115205110Y-74506377D01*
X115205108Y-74506375D01*
X115101022Y-74436827D01*
X114985369Y-74388922D01*
X114862593Y-74364500D01*
X114862591Y-74364500D01*
X108785091Y-74364500D01*
X108659909Y-74364500D01*
X108659906Y-74364500D01*
X108537130Y-74388922D01*
X108537125Y-74388924D01*
X108421477Y-74436827D01*
X108317396Y-74506372D01*
X108317389Y-74506377D01*
X107188267Y-75635500D01*
X106917392Y-75906375D01*
X105860594Y-76963172D01*
X105516531Y-77307235D01*
X105454219Y-77341260D01*
X105447150Y-77342587D01*
X105397653Y-77350427D01*
X105224830Y-77406581D01*
X105224824Y-77406584D01*
X105062906Y-77489085D01*
X104915891Y-77595898D01*
X104787402Y-77724387D01*
X104787397Y-77724394D01*
X104763934Y-77756687D01*
X104707713Y-77800039D01*
X104636977Y-77806114D01*
X104574185Y-77772982D01*
X104539274Y-77711162D01*
X104536000Y-77682624D01*
X104536000Y-77527914D01*
X104535999Y-77527902D01*
X104529494Y-77467406D01*
X104478444Y-77330535D01*
X104478444Y-77330534D01*
X104390904Y-77213595D01*
X104273965Y-77126055D01*
X104137093Y-77075005D01*
X104076597Y-77068500D01*
X103382000Y-77068500D01*
X103382000Y-78330326D01*
X103359591Y-78317389D01*
X103206991Y-78276500D01*
X103049009Y-78276500D01*
X102896409Y-78317389D01*
X102874000Y-78330326D01*
X102874000Y-77068500D01*
X102179402Y-77068500D01*
X102118906Y-77075005D01*
X101982035Y-77126055D01*
X101982034Y-77126055D01*
X101865095Y-77213595D01*
X101777555Y-77330534D01*
X101777555Y-77330535D01*
X101726505Y-77467406D01*
X101720000Y-77527902D01*
X101720000Y-78622500D01*
X102581827Y-78622500D01*
X102568889Y-78644909D01*
X102528000Y-78797509D01*
X102528000Y-78955491D01*
X102568889Y-79108091D01*
X102581827Y-79130500D01*
X101720000Y-79130500D01*
X101720000Y-80225097D01*
X101726505Y-80285593D01*
X101777555Y-80422464D01*
X101777555Y-80422465D01*
X101865095Y-80539404D01*
X101982034Y-80626944D01*
X102118906Y-80677994D01*
X102179402Y-80684499D01*
X102179415Y-80684500D01*
X102874000Y-80684500D01*
X102874000Y-79422673D01*
X102896409Y-79435611D01*
X103049009Y-79476500D01*
X103206991Y-79476500D01*
X103359591Y-79435611D01*
X103382000Y-79422673D01*
X103382000Y-80684500D01*
X103772575Y-80684500D01*
X103840696Y-80704502D01*
X103887189Y-80758158D01*
X103897293Y-80828432D01*
X103867799Y-80893012D01*
X103861670Y-80899595D01*
X99266925Y-85494340D01*
X99204613Y-85528366D01*
X99145220Y-85526952D01*
X99118675Y-85519839D01*
X98900000Y-85500708D01*
X98681326Y-85519839D01*
X98469299Y-85576652D01*
X98469293Y-85576654D01*
X98270353Y-85669421D01*
X98090546Y-85795323D01*
X98090540Y-85795328D01*
X97935328Y-85950540D01*
X97935323Y-85950546D01*
X97809421Y-86130353D01*
X97716654Y-86329293D01*
X97716652Y-86329299D01*
X97685780Y-86444513D01*
X97659839Y-86541326D01*
X97640708Y-86760000D01*
X94800500Y-86760000D01*
X94800500Y-78876500D01*
X95869480Y-78876500D01*
X95889131Y-79138731D01*
X95947646Y-79395099D01*
X95947647Y-79395102D01*
X96043713Y-79639877D01*
X96043715Y-79639881D01*
X96175196Y-79867613D01*
X96175198Y-79867616D01*
X96175199Y-79867617D01*
X96257176Y-79970413D01*
X96339157Y-80073214D01*
X96469069Y-80193753D01*
X96531920Y-80252070D01*
X96531926Y-80252074D01*
X96749180Y-80400196D01*
X96749187Y-80400200D01*
X96749190Y-80400202D01*
X96986112Y-80514298D01*
X97203469Y-80581344D01*
X97237385Y-80591806D01*
X97237392Y-80591808D01*
X97497418Y-80631000D01*
X97497422Y-80631000D01*
X97760378Y-80631000D01*
X97760382Y-80631000D01*
X98020408Y-80591808D01*
X98271688Y-80514298D01*
X98508610Y-80400202D01*
X98725880Y-80252070D01*
X98918646Y-80073210D01*
X99082601Y-79867617D01*
X99214083Y-79639884D01*
X99310154Y-79395098D01*
X99368669Y-79138728D01*
X99388320Y-78876500D01*
X99368669Y-78614272D01*
X99310154Y-78357902D01*
X99250598Y-78206154D01*
X99214086Y-78113122D01*
X99214084Y-78113118D01*
X99082603Y-77885386D01*
X99071454Y-77871406D01*
X98918646Y-77679790D01*
X98918645Y-77679789D01*
X98918642Y-77679785D01*
X98725885Y-77500935D01*
X98725880Y-77500930D01*
X98708504Y-77489083D01*
X98508619Y-77352803D01*
X98508612Y-77352799D01*
X98271693Y-77238704D01*
X98271690Y-77238703D01*
X98271688Y-77238702D01*
X98183796Y-77211590D01*
X98020414Y-77161193D01*
X98020409Y-77161192D01*
X98020408Y-77161192D01*
X97760382Y-77122000D01*
X97497418Y-77122000D01*
X97237392Y-77161192D01*
X97237391Y-77161192D01*
X97237385Y-77161193D01*
X96986106Y-77238704D01*
X96749187Y-77352799D01*
X96749180Y-77352803D01*
X96531926Y-77500925D01*
X96531914Y-77500935D01*
X96339157Y-77679785D01*
X96175196Y-77885386D01*
X96043715Y-78113118D01*
X96043713Y-78113122D01*
X95947647Y-78357897D01*
X95947646Y-78357900D01*
X95889131Y-78614268D01*
X95869480Y-78876500D01*
X94800500Y-78876500D01*
X94800500Y-70003859D01*
X105245500Y-70003859D01*
X105286024Y-70207586D01*
X105365514Y-70399493D01*
X105442623Y-70514895D01*
X105480916Y-70572203D01*
X105480921Y-70572209D01*
X105627790Y-70719078D01*
X105627796Y-70719083D01*
X105800507Y-70834486D01*
X105992414Y-70913976D01*
X106196141Y-70954500D01*
X106196142Y-70954500D01*
X106403858Y-70954500D01*
X106403859Y-70954500D01*
X106607586Y-70913976D01*
X106799493Y-70834486D01*
X106972204Y-70719083D01*
X107119083Y-70572204D01*
X107234486Y-70399493D01*
X107313976Y-70207586D01*
X107354500Y-70003859D01*
X119245500Y-70003859D01*
X119286024Y-70207586D01*
X119365514Y-70399493D01*
X119442623Y-70514895D01*
X119480916Y-70572203D01*
X119480921Y-70572209D01*
X119627790Y-70719078D01*
X119627796Y-70719083D01*
X119800507Y-70834486D01*
X119992414Y-70913976D01*
X120196141Y-70954500D01*
X120196142Y-70954500D01*
X120403858Y-70954500D01*
X120403859Y-70954500D01*
X120607586Y-70913976D01*
X120799493Y-70834486D01*
X120972204Y-70719083D01*
X121119083Y-70572204D01*
X121234486Y-70399493D01*
X121313976Y-70207586D01*
X121354500Y-70003859D01*
X133745500Y-70003859D01*
X133786024Y-70207586D01*
X133865514Y-70399493D01*
X133942623Y-70514895D01*
X133980916Y-70572203D01*
X133980921Y-70572209D01*
X134127790Y-70719078D01*
X134127796Y-70719083D01*
X134300507Y-70834486D01*
X134492414Y-70913976D01*
X134696141Y-70954500D01*
X134696142Y-70954500D01*
X134903858Y-70954500D01*
X134903859Y-70954500D01*
X135107586Y-70913976D01*
X135299493Y-70834486D01*
X135472204Y-70719083D01*
X135619083Y-70572204D01*
X135734486Y-70399493D01*
X135813976Y-70207586D01*
X135854500Y-70003859D01*
X149245500Y-70003859D01*
X149286024Y-70207586D01*
X149365514Y-70399493D01*
X149442623Y-70514895D01*
X149480916Y-70572203D01*
X149480921Y-70572209D01*
X149627790Y-70719078D01*
X149627796Y-70719083D01*
X149800507Y-70834486D01*
X149992414Y-70913976D01*
X150196141Y-70954500D01*
X150196142Y-70954500D01*
X150403858Y-70954500D01*
X150403859Y-70954500D01*
X150607586Y-70913976D01*
X150799493Y-70834486D01*
X150972204Y-70719083D01*
X151119083Y-70572204D01*
X151234486Y-70399493D01*
X151313976Y-70207586D01*
X151354500Y-70003859D01*
X151354500Y-68896141D01*
X151313976Y-68692414D01*
X151234486Y-68500507D01*
X151233438Y-68498938D01*
X153995500Y-68498938D01*
X154033985Y-68692408D01*
X154034103Y-68693002D01*
X154109824Y-68875809D01*
X154219754Y-69040331D01*
X154359669Y-69180246D01*
X154524191Y-69290176D01*
X154706998Y-69365897D01*
X154901065Y-69404500D01*
X155098935Y-69404500D01*
X155293002Y-69365897D01*
X155475809Y-69290176D01*
X155640331Y-69180246D01*
X155780246Y-69040331D01*
X155890176Y-68875809D01*
X155965897Y-68693002D01*
X156004500Y-68498935D01*
X156004500Y-66801065D01*
X155965897Y-66606998D01*
X155890176Y-66424191D01*
X155780246Y-66259669D01*
X155640331Y-66119754D01*
X155475809Y-66009824D01*
X155293005Y-65934104D01*
X155293002Y-65934103D01*
X155098938Y-65895500D01*
X155098935Y-65895500D01*
X154901065Y-65895500D01*
X154901061Y-65895500D01*
X154706997Y-65934103D01*
X154706994Y-65934104D01*
X154524190Y-66009824D01*
X154359673Y-66119751D01*
X154359666Y-66119756D01*
X154219756Y-66259666D01*
X154219751Y-66259673D01*
X154109824Y-66424190D01*
X154034104Y-66606994D01*
X154034103Y-66606997D01*
X153995500Y-66801061D01*
X153995500Y-68498938D01*
X151233438Y-68498938D01*
X151119083Y-68327796D01*
X151119078Y-68327790D01*
X150972209Y-68180921D01*
X150972203Y-68180916D01*
X150842991Y-68094579D01*
X150799493Y-68065514D01*
X150607586Y-67986024D01*
X150403861Y-67945500D01*
X150403859Y-67945500D01*
X150196141Y-67945500D01*
X150196138Y-67945500D01*
X149992413Y-67986024D01*
X149992408Y-67986026D01*
X149800507Y-68065514D01*
X149627796Y-68180916D01*
X149627790Y-68180921D01*
X149480921Y-68327790D01*
X149480916Y-68327796D01*
X149365514Y-68500507D01*
X149286026Y-68692408D01*
X149286024Y-68692413D01*
X149245500Y-68896138D01*
X149245500Y-68896141D01*
X149245500Y-70003859D01*
X135854500Y-70003859D01*
X135854500Y-68896141D01*
X135813976Y-68692414D01*
X135734486Y-68500507D01*
X135733438Y-68498938D01*
X138495500Y-68498938D01*
X138533985Y-68692408D01*
X138534103Y-68693002D01*
X138609824Y-68875809D01*
X138719754Y-69040331D01*
X138859669Y-69180246D01*
X139024191Y-69290176D01*
X139206998Y-69365897D01*
X139401065Y-69404500D01*
X139598935Y-69404500D01*
X139793002Y-69365897D01*
X139975809Y-69290176D01*
X140140331Y-69180246D01*
X140280246Y-69040331D01*
X140390176Y-68875809D01*
X140465897Y-68693002D01*
X140504500Y-68498935D01*
X140504500Y-67350000D01*
X151394785Y-67350000D01*
X151413603Y-67553084D01*
X151469416Y-67749245D01*
X151469417Y-67749247D01*
X151469418Y-67749250D01*
X151560327Y-67931821D01*
X151560328Y-67931822D01*
X151560329Y-67931824D01*
X151683234Y-68094578D01*
X151833959Y-68231981D01*
X151833960Y-68231982D01*
X152007351Y-68339341D01*
X152007354Y-68339342D01*
X152007363Y-68339348D01*
X152197544Y-68413024D01*
X152398024Y-68450500D01*
X152398026Y-68450500D01*
X152601974Y-68450500D01*
X152601976Y-68450500D01*
X152802456Y-68413024D01*
X152992637Y-68339348D01*
X153166041Y-68231981D01*
X153316764Y-68094579D01*
X153439673Y-67931821D01*
X153530582Y-67749250D01*
X153586397Y-67553083D01*
X153605215Y-67350000D01*
X153586397Y-67146917D01*
X153530582Y-66950750D01*
X153439673Y-66768179D01*
X153439670Y-66768175D01*
X153316765Y-66605421D01*
X153166040Y-66468018D01*
X153166039Y-66468017D01*
X152992648Y-66360658D01*
X152992641Y-66360654D01*
X152992637Y-66360652D01*
X152876133Y-66315518D01*
X152802457Y-66286976D01*
X152735629Y-66274484D01*
X152601976Y-66249500D01*
X152398024Y-66249500D01*
X152297784Y-66268238D01*
X152197542Y-66286976D01*
X152050190Y-66344060D01*
X152007363Y-66360652D01*
X152007362Y-66360652D01*
X152007361Y-66360653D01*
X152007351Y-66360658D01*
X151833960Y-66468017D01*
X151833959Y-66468018D01*
X151683234Y-66605421D01*
X151560329Y-66768175D01*
X151469416Y-66950754D01*
X151413603Y-67146915D01*
X151394785Y-67350000D01*
X140504500Y-67350000D01*
X140504500Y-66801065D01*
X140465897Y-66606998D01*
X140390176Y-66424191D01*
X140280246Y-66259669D01*
X140140331Y-66119754D01*
X139975809Y-66009824D01*
X139793005Y-65934104D01*
X139793002Y-65934103D01*
X139598938Y-65895500D01*
X139598935Y-65895500D01*
X139401065Y-65895500D01*
X139401061Y-65895500D01*
X139206997Y-65934103D01*
X139206994Y-65934104D01*
X139024190Y-66009824D01*
X138859673Y-66119751D01*
X138859666Y-66119756D01*
X138719756Y-66259666D01*
X138719751Y-66259673D01*
X138609824Y-66424190D01*
X138534104Y-66606994D01*
X138534103Y-66606997D01*
X138495500Y-66801061D01*
X138495500Y-68498938D01*
X135733438Y-68498938D01*
X135619083Y-68327796D01*
X135619078Y-68327790D01*
X135472209Y-68180921D01*
X135472203Y-68180916D01*
X135342991Y-68094579D01*
X135299493Y-68065514D01*
X135107586Y-67986024D01*
X134903861Y-67945500D01*
X134903859Y-67945500D01*
X134696141Y-67945500D01*
X134696138Y-67945500D01*
X134492413Y-67986024D01*
X134492408Y-67986026D01*
X134300507Y-68065514D01*
X134127796Y-68180916D01*
X134127790Y-68180921D01*
X133980921Y-68327790D01*
X133980916Y-68327796D01*
X133865514Y-68500507D01*
X133786026Y-68692408D01*
X133786024Y-68692413D01*
X133745500Y-68896138D01*
X133745500Y-68896141D01*
X133745500Y-70003859D01*
X121354500Y-70003859D01*
X121354500Y-68896141D01*
X121313976Y-68692414D01*
X121234486Y-68500507D01*
X121233438Y-68498938D01*
X123995500Y-68498938D01*
X124033985Y-68692408D01*
X124034103Y-68693002D01*
X124109824Y-68875809D01*
X124219754Y-69040331D01*
X124359669Y-69180246D01*
X124524191Y-69290176D01*
X124706998Y-69365897D01*
X124901065Y-69404500D01*
X125098935Y-69404500D01*
X125293002Y-69365897D01*
X125475809Y-69290176D01*
X125640331Y-69180246D01*
X125780246Y-69040331D01*
X125890176Y-68875809D01*
X125965897Y-68693002D01*
X126004500Y-68498935D01*
X126004500Y-67350000D01*
X135894785Y-67350000D01*
X135913603Y-67553084D01*
X135969416Y-67749245D01*
X135969417Y-67749247D01*
X135969418Y-67749250D01*
X136060327Y-67931821D01*
X136060328Y-67931822D01*
X136060329Y-67931824D01*
X136183234Y-68094578D01*
X136333959Y-68231981D01*
X136333960Y-68231982D01*
X136507351Y-68339341D01*
X136507354Y-68339342D01*
X136507363Y-68339348D01*
X136697544Y-68413024D01*
X136898024Y-68450500D01*
X136898026Y-68450500D01*
X137101974Y-68450500D01*
X137101976Y-68450500D01*
X137302456Y-68413024D01*
X137492637Y-68339348D01*
X137666041Y-68231981D01*
X137816764Y-68094579D01*
X137939673Y-67931821D01*
X138030582Y-67749250D01*
X138086397Y-67553083D01*
X138105215Y-67350000D01*
X138086397Y-67146917D01*
X138030582Y-66950750D01*
X137939673Y-66768179D01*
X137939670Y-66768175D01*
X137816765Y-66605421D01*
X137666040Y-66468018D01*
X137666039Y-66468017D01*
X137492648Y-66360658D01*
X137492641Y-66360654D01*
X137492637Y-66360652D01*
X137376133Y-66315518D01*
X137302457Y-66286976D01*
X137235629Y-66274484D01*
X137101976Y-66249500D01*
X136898024Y-66249500D01*
X136797784Y-66268238D01*
X136697542Y-66286976D01*
X136550190Y-66344060D01*
X136507363Y-66360652D01*
X136507362Y-66360652D01*
X136507361Y-66360653D01*
X136507351Y-66360658D01*
X136333960Y-66468017D01*
X136333959Y-66468018D01*
X136183234Y-66605421D01*
X136060329Y-66768175D01*
X135969416Y-66950754D01*
X135913603Y-67146915D01*
X135894785Y-67350000D01*
X126004500Y-67350000D01*
X126004500Y-66801065D01*
X125965897Y-66606998D01*
X125890176Y-66424191D01*
X125780246Y-66259669D01*
X125640331Y-66119754D01*
X125475809Y-66009824D01*
X125293005Y-65934104D01*
X125293002Y-65934103D01*
X125098938Y-65895500D01*
X125098935Y-65895500D01*
X124901065Y-65895500D01*
X124901061Y-65895500D01*
X124706997Y-65934103D01*
X124706994Y-65934104D01*
X124524190Y-66009824D01*
X124359673Y-66119751D01*
X124359666Y-66119756D01*
X124219756Y-66259666D01*
X124219751Y-66259673D01*
X124109824Y-66424190D01*
X124034104Y-66606994D01*
X124034103Y-66606997D01*
X123995500Y-66801061D01*
X123995500Y-68498938D01*
X121233438Y-68498938D01*
X121119083Y-68327796D01*
X121119078Y-68327790D01*
X120972209Y-68180921D01*
X120972203Y-68180916D01*
X120842991Y-68094579D01*
X120799493Y-68065514D01*
X120607586Y-67986024D01*
X120403861Y-67945500D01*
X120403859Y-67945500D01*
X120196141Y-67945500D01*
X120196138Y-67945500D01*
X119992413Y-67986024D01*
X119992408Y-67986026D01*
X119800507Y-68065514D01*
X119627796Y-68180916D01*
X119627790Y-68180921D01*
X119480921Y-68327790D01*
X119480916Y-68327796D01*
X119365514Y-68500507D01*
X119286026Y-68692408D01*
X119286024Y-68692413D01*
X119245500Y-68896138D01*
X119245500Y-68896141D01*
X119245500Y-70003859D01*
X107354500Y-70003859D01*
X107354500Y-68896141D01*
X107313976Y-68692414D01*
X107234486Y-68500507D01*
X107233438Y-68498938D01*
X109995500Y-68498938D01*
X110033985Y-68692408D01*
X110034103Y-68693002D01*
X110109824Y-68875809D01*
X110219754Y-69040331D01*
X110359669Y-69180246D01*
X110524191Y-69290176D01*
X110706998Y-69365897D01*
X110901065Y-69404500D01*
X111098935Y-69404500D01*
X111293002Y-69365897D01*
X111475809Y-69290176D01*
X111640331Y-69180246D01*
X111780246Y-69040331D01*
X111890176Y-68875809D01*
X111965897Y-68693002D01*
X112004500Y-68498935D01*
X112004500Y-67350000D01*
X121394785Y-67350000D01*
X121413603Y-67553084D01*
X121469416Y-67749245D01*
X121469417Y-67749247D01*
X121469418Y-67749250D01*
X121560327Y-67931821D01*
X121560328Y-67931822D01*
X121560329Y-67931824D01*
X121683234Y-68094578D01*
X121833959Y-68231981D01*
X121833960Y-68231982D01*
X122007351Y-68339341D01*
X122007354Y-68339342D01*
X122007363Y-68339348D01*
X122197544Y-68413024D01*
X122398024Y-68450500D01*
X122398026Y-68450500D01*
X122601974Y-68450500D01*
X122601976Y-68450500D01*
X122802456Y-68413024D01*
X122992637Y-68339348D01*
X123166041Y-68231981D01*
X123316764Y-68094579D01*
X123439673Y-67931821D01*
X123530582Y-67749250D01*
X123586397Y-67553083D01*
X123605215Y-67350000D01*
X123586397Y-67146917D01*
X123530582Y-66950750D01*
X123439673Y-66768179D01*
X123439670Y-66768175D01*
X123316765Y-66605421D01*
X123166040Y-66468018D01*
X123166039Y-66468017D01*
X122992648Y-66360658D01*
X122992641Y-66360654D01*
X122992637Y-66360652D01*
X122876133Y-66315518D01*
X122802457Y-66286976D01*
X122735629Y-66274484D01*
X122601976Y-66249500D01*
X122398024Y-66249500D01*
X122297784Y-66268238D01*
X122197542Y-66286976D01*
X122050190Y-66344060D01*
X122007363Y-66360652D01*
X122007362Y-66360652D01*
X122007361Y-66360653D01*
X122007351Y-66360658D01*
X121833960Y-66468017D01*
X121833959Y-66468018D01*
X121683234Y-66605421D01*
X121560329Y-66768175D01*
X121469416Y-66950754D01*
X121413603Y-67146915D01*
X121394785Y-67350000D01*
X112004500Y-67350000D01*
X112004500Y-66801065D01*
X111965897Y-66606998D01*
X111890176Y-66424191D01*
X111780246Y-66259669D01*
X111640331Y-66119754D01*
X111475809Y-66009824D01*
X111293005Y-65934104D01*
X111293002Y-65934103D01*
X111098938Y-65895500D01*
X111098935Y-65895500D01*
X110901065Y-65895500D01*
X110901061Y-65895500D01*
X110706997Y-65934103D01*
X110706994Y-65934104D01*
X110524190Y-66009824D01*
X110359673Y-66119751D01*
X110359666Y-66119756D01*
X110219756Y-66259666D01*
X110219751Y-66259673D01*
X110109824Y-66424190D01*
X110034104Y-66606994D01*
X110034103Y-66606997D01*
X109995500Y-66801061D01*
X109995500Y-68498938D01*
X107233438Y-68498938D01*
X107119083Y-68327796D01*
X107119078Y-68327790D01*
X106972209Y-68180921D01*
X106972203Y-68180916D01*
X106842991Y-68094579D01*
X106799493Y-68065514D01*
X106607586Y-67986024D01*
X106403861Y-67945500D01*
X106403859Y-67945500D01*
X106196141Y-67945500D01*
X106196138Y-67945500D01*
X105992413Y-67986024D01*
X105992408Y-67986026D01*
X105800507Y-68065514D01*
X105627796Y-68180916D01*
X105627790Y-68180921D01*
X105480921Y-68327790D01*
X105480916Y-68327796D01*
X105365514Y-68500507D01*
X105286026Y-68692408D01*
X105286024Y-68692413D01*
X105245500Y-68896138D01*
X105245500Y-68896141D01*
X105245500Y-70003859D01*
X94800500Y-70003859D01*
X94800500Y-67350000D01*
X107394785Y-67350000D01*
X107413603Y-67553084D01*
X107469416Y-67749245D01*
X107469417Y-67749247D01*
X107469418Y-67749250D01*
X107560327Y-67931821D01*
X107560328Y-67931822D01*
X107560329Y-67931824D01*
X107683234Y-68094578D01*
X107833959Y-68231981D01*
X107833960Y-68231982D01*
X108007351Y-68339341D01*
X108007354Y-68339342D01*
X108007363Y-68339348D01*
X108197544Y-68413024D01*
X108398024Y-68450500D01*
X108398026Y-68450500D01*
X108601974Y-68450500D01*
X108601976Y-68450500D01*
X108802456Y-68413024D01*
X108992637Y-68339348D01*
X109166041Y-68231981D01*
X109316764Y-68094579D01*
X109439673Y-67931821D01*
X109530582Y-67749250D01*
X109586397Y-67553083D01*
X109605215Y-67350000D01*
X109586397Y-67146917D01*
X109530582Y-66950750D01*
X109439673Y-66768179D01*
X109439670Y-66768175D01*
X109316765Y-66605421D01*
X109166040Y-66468018D01*
X109166039Y-66468017D01*
X108992648Y-66360658D01*
X108992641Y-66360654D01*
X108992637Y-66360652D01*
X108876133Y-66315518D01*
X108802457Y-66286976D01*
X108735629Y-66274484D01*
X108601976Y-66249500D01*
X108398024Y-66249500D01*
X108297784Y-66268238D01*
X108197542Y-66286976D01*
X108050190Y-66344060D01*
X108007363Y-66360652D01*
X108007362Y-66360652D01*
X108007361Y-66360653D01*
X108007351Y-66360658D01*
X107833960Y-66468017D01*
X107833959Y-66468018D01*
X107683234Y-66605421D01*
X107560329Y-66768175D01*
X107469416Y-66950754D01*
X107413603Y-67146915D01*
X107394785Y-67350000D01*
X94800500Y-67350000D01*
X94800500Y-64498938D01*
X104995500Y-64498938D01*
X105034103Y-64693002D01*
X105109824Y-64875809D01*
X105219754Y-65040331D01*
X105359669Y-65180246D01*
X105524191Y-65290176D01*
X105706998Y-65365897D01*
X105901065Y-65404500D01*
X106098935Y-65404500D01*
X106293002Y-65365897D01*
X106475809Y-65290176D01*
X106640331Y-65180246D01*
X106780246Y-65040331D01*
X106890176Y-64875809D01*
X106965897Y-64693002D01*
X107004499Y-64498938D01*
X118995500Y-64498938D01*
X119034103Y-64693002D01*
X119109824Y-64875809D01*
X119219754Y-65040331D01*
X119359669Y-65180246D01*
X119524191Y-65290176D01*
X119706998Y-65365897D01*
X119901065Y-65404500D01*
X120098935Y-65404500D01*
X120293002Y-65365897D01*
X120475809Y-65290176D01*
X120640331Y-65180246D01*
X120780246Y-65040331D01*
X120890176Y-64875809D01*
X120965897Y-64693002D01*
X121004499Y-64498938D01*
X133495500Y-64498938D01*
X133534103Y-64693002D01*
X133609824Y-64875809D01*
X133719754Y-65040331D01*
X133859669Y-65180246D01*
X134024191Y-65290176D01*
X134206998Y-65365897D01*
X134401065Y-65404500D01*
X134598935Y-65404500D01*
X134793002Y-65365897D01*
X134975809Y-65290176D01*
X135140331Y-65180246D01*
X135280246Y-65040331D01*
X135390176Y-64875809D01*
X135465897Y-64693002D01*
X135504499Y-64498938D01*
X148995500Y-64498938D01*
X149034103Y-64693002D01*
X149109824Y-64875809D01*
X149219754Y-65040331D01*
X149359669Y-65180246D01*
X149524191Y-65290176D01*
X149706998Y-65365897D01*
X149901065Y-65404500D01*
X150098935Y-65404500D01*
X150293002Y-65365897D01*
X150475809Y-65290176D01*
X150640331Y-65180246D01*
X150780246Y-65040331D01*
X150890176Y-64875809D01*
X150965897Y-64693002D01*
X151004500Y-64498935D01*
X151004500Y-62814736D01*
X162349500Y-62814736D01*
X162379450Y-63042231D01*
X162379452Y-63042238D01*
X162438842Y-63263887D01*
X162526656Y-63475888D01*
X162526657Y-63475889D01*
X162526662Y-63475900D01*
X162641386Y-63674608D01*
X162641391Y-63674615D01*
X162781073Y-63856652D01*
X162781092Y-63856673D01*
X162943326Y-64018907D01*
X162943347Y-64018926D01*
X163125384Y-64158608D01*
X163125391Y-64158613D01*
X163324099Y-64273337D01*
X163324103Y-64273338D01*
X163324112Y-64273344D01*
X163536113Y-64361158D01*
X163757762Y-64420548D01*
X163757766Y-64420548D01*
X163757768Y-64420549D01*
X163816398Y-64428267D01*
X163985266Y-64450500D01*
X163985273Y-64450500D01*
X164214727Y-64450500D01*
X164214734Y-64450500D01*
X164420345Y-64423430D01*
X164442231Y-64420549D01*
X164442231Y-64420548D01*
X164442238Y-64420548D01*
X164663887Y-64361158D01*
X164875888Y-64273344D01*
X165074612Y-64158611D01*
X165256661Y-64018919D01*
X165418919Y-63856661D01*
X165558611Y-63674612D01*
X165673344Y-63475888D01*
X165761158Y-63263887D01*
X165820548Y-63042238D01*
X165850500Y-62814734D01*
X165850500Y-62585266D01*
X165827823Y-62413023D01*
X165820549Y-62357768D01*
X165820548Y-62357766D01*
X165820548Y-62357762D01*
X165761158Y-62136113D01*
X165673344Y-61924112D01*
X165673338Y-61924103D01*
X165673337Y-61924099D01*
X165558613Y-61725391D01*
X165558608Y-61725384D01*
X165418926Y-61543347D01*
X165418907Y-61543326D01*
X165256673Y-61381092D01*
X165256652Y-61381073D01*
X165074615Y-61241391D01*
X165074608Y-61241386D01*
X164875900Y-61126662D01*
X164875892Y-61126658D01*
X164875888Y-61126656D01*
X164663887Y-61038842D01*
X164442238Y-60979452D01*
X164442231Y-60979450D01*
X164214736Y-60949500D01*
X164214734Y-60949500D01*
X163985266Y-60949500D01*
X163985263Y-60949500D01*
X163757768Y-60979450D01*
X163536113Y-61038842D01*
X163324110Y-61126657D01*
X163324099Y-61126662D01*
X163125391Y-61241386D01*
X163125384Y-61241391D01*
X162943347Y-61381073D01*
X162943326Y-61381092D01*
X162781092Y-61543326D01*
X162781073Y-61543347D01*
X162641391Y-61725384D01*
X162641386Y-61725391D01*
X162526662Y-61924099D01*
X162526657Y-61924110D01*
X162438842Y-62136113D01*
X162379450Y-62357768D01*
X162349500Y-62585263D01*
X162349500Y-62814736D01*
X151004500Y-62814736D01*
X151004500Y-62801065D01*
X150965897Y-62606998D01*
X150890176Y-62424191D01*
X150780246Y-62259669D01*
X150640331Y-62119754D01*
X150475809Y-62009824D01*
X150293005Y-61934104D01*
X150293002Y-61934103D01*
X150098938Y-61895500D01*
X150098935Y-61895500D01*
X149901065Y-61895500D01*
X149901061Y-61895500D01*
X149706997Y-61934103D01*
X149706994Y-61934104D01*
X149524190Y-62009824D01*
X149359673Y-62119751D01*
X149359666Y-62119756D01*
X149219756Y-62259666D01*
X149219751Y-62259673D01*
X149109824Y-62424190D01*
X149034104Y-62606994D01*
X149034103Y-62606997D01*
X148995500Y-62801061D01*
X148995500Y-64498938D01*
X135504499Y-64498938D01*
X135504500Y-64498935D01*
X135504500Y-62801065D01*
X135465897Y-62606998D01*
X135390176Y-62424191D01*
X135280246Y-62259669D01*
X135140331Y-62119754D01*
X134975809Y-62009824D01*
X134793005Y-61934104D01*
X134793002Y-61934103D01*
X134598938Y-61895500D01*
X134598935Y-61895500D01*
X134401065Y-61895500D01*
X134401061Y-61895500D01*
X134206997Y-61934103D01*
X134206994Y-61934104D01*
X134024190Y-62009824D01*
X133859673Y-62119751D01*
X133859666Y-62119756D01*
X133719756Y-62259666D01*
X133719751Y-62259673D01*
X133609824Y-62424190D01*
X133534104Y-62606994D01*
X133534103Y-62606997D01*
X133495500Y-62801061D01*
X133495500Y-64498938D01*
X121004499Y-64498938D01*
X121004500Y-64498935D01*
X121004500Y-62801065D01*
X120965897Y-62606998D01*
X120890176Y-62424191D01*
X120780246Y-62259669D01*
X120640331Y-62119754D01*
X120475809Y-62009824D01*
X120293005Y-61934104D01*
X120293002Y-61934103D01*
X120098938Y-61895500D01*
X120098935Y-61895500D01*
X119901065Y-61895500D01*
X119901061Y-61895500D01*
X119706997Y-61934103D01*
X119706994Y-61934104D01*
X119524190Y-62009824D01*
X119359673Y-62119751D01*
X119359666Y-62119756D01*
X119219756Y-62259666D01*
X119219751Y-62259673D01*
X119109824Y-62424190D01*
X119034104Y-62606994D01*
X119034103Y-62606997D01*
X118995500Y-62801061D01*
X118995500Y-64498938D01*
X107004499Y-64498938D01*
X107004500Y-64498935D01*
X107004500Y-62801065D01*
X106965897Y-62606998D01*
X106890176Y-62424191D01*
X106780246Y-62259669D01*
X106640331Y-62119754D01*
X106475809Y-62009824D01*
X106293005Y-61934104D01*
X106293002Y-61934103D01*
X106098938Y-61895500D01*
X106098935Y-61895500D01*
X105901065Y-61895500D01*
X105901061Y-61895500D01*
X105706997Y-61934103D01*
X105706994Y-61934104D01*
X105524190Y-62009824D01*
X105359673Y-62119751D01*
X105359666Y-62119756D01*
X105219756Y-62259666D01*
X105219751Y-62259673D01*
X105109824Y-62424190D01*
X105034104Y-62606994D01*
X105034103Y-62606997D01*
X104995500Y-62801061D01*
X104995500Y-64498938D01*
X94800500Y-64498938D01*
X94800500Y-62814736D01*
X96149500Y-62814736D01*
X96179450Y-63042231D01*
X96179452Y-63042238D01*
X96238842Y-63263887D01*
X96326656Y-63475888D01*
X96326657Y-63475889D01*
X96326662Y-63475900D01*
X96441386Y-63674608D01*
X96441391Y-63674615D01*
X96581073Y-63856652D01*
X96581092Y-63856673D01*
X96743326Y-64018907D01*
X96743347Y-64018926D01*
X96925384Y-64158608D01*
X96925391Y-64158613D01*
X97124099Y-64273337D01*
X97124103Y-64273338D01*
X97124112Y-64273344D01*
X97336113Y-64361158D01*
X97557762Y-64420548D01*
X97557766Y-64420548D01*
X97557768Y-64420549D01*
X97616398Y-64428267D01*
X97785266Y-64450500D01*
X97785273Y-64450500D01*
X98014727Y-64450500D01*
X98014734Y-64450500D01*
X98220345Y-64423430D01*
X98242231Y-64420549D01*
X98242231Y-64420548D01*
X98242238Y-64420548D01*
X98463887Y-64361158D01*
X98675888Y-64273344D01*
X98874612Y-64158611D01*
X99056661Y-64018919D01*
X99218919Y-63856661D01*
X99358611Y-63674612D01*
X99473344Y-63475888D01*
X99561158Y-63263887D01*
X99620548Y-63042238D01*
X99650500Y-62814734D01*
X99650500Y-62585266D01*
X99627823Y-62413023D01*
X99620549Y-62357768D01*
X99620548Y-62357766D01*
X99620548Y-62357762D01*
X99561158Y-62136113D01*
X99473344Y-61924112D01*
X99473338Y-61924103D01*
X99473337Y-61924099D01*
X99358613Y-61725391D01*
X99358608Y-61725384D01*
X99218926Y-61543347D01*
X99218907Y-61543326D01*
X99056673Y-61381092D01*
X99056652Y-61381073D01*
X99016157Y-61350000D01*
X107394785Y-61350000D01*
X107413603Y-61553084D01*
X107469416Y-61749245D01*
X107469417Y-61749247D01*
X107469418Y-61749250D01*
X107560327Y-61931821D01*
X107560328Y-61931822D01*
X107560329Y-61931824D01*
X107683234Y-62094578D01*
X107833959Y-62231981D01*
X107833960Y-62231982D01*
X108007351Y-62339341D01*
X108007354Y-62339342D01*
X108007363Y-62339348D01*
X108197544Y-62413024D01*
X108398024Y-62450500D01*
X108398026Y-62450500D01*
X108601974Y-62450500D01*
X108601976Y-62450500D01*
X108802456Y-62413024D01*
X108992637Y-62339348D01*
X109166041Y-62231981D01*
X109316764Y-62094579D01*
X109439673Y-61931821D01*
X109530582Y-61749250D01*
X109586397Y-61553083D01*
X109605215Y-61350000D01*
X109586397Y-61146917D01*
X109530582Y-60950750D01*
X109439673Y-60768179D01*
X109439670Y-60768175D01*
X109316765Y-60605421D01*
X109166040Y-60468018D01*
X109166039Y-60468017D01*
X108992648Y-60360658D01*
X108992641Y-60360654D01*
X108992637Y-60360652D01*
X108876133Y-60315518D01*
X108802457Y-60286976D01*
X108735629Y-60274484D01*
X108601976Y-60249500D01*
X108398024Y-60249500D01*
X108297784Y-60268238D01*
X108197542Y-60286976D01*
X108050190Y-60344060D01*
X108007363Y-60360652D01*
X108007362Y-60360652D01*
X108007361Y-60360653D01*
X108007351Y-60360658D01*
X107833960Y-60468017D01*
X107833959Y-60468018D01*
X107683234Y-60605421D01*
X107560329Y-60768175D01*
X107469416Y-60950754D01*
X107413603Y-61146915D01*
X107394785Y-61350000D01*
X99016157Y-61350000D01*
X98874615Y-61241391D01*
X98874608Y-61241386D01*
X98675900Y-61126662D01*
X98675892Y-61126658D01*
X98675888Y-61126656D01*
X98463887Y-61038842D01*
X98242238Y-60979452D01*
X98242231Y-60979450D01*
X98014736Y-60949500D01*
X98014734Y-60949500D01*
X97785266Y-60949500D01*
X97785263Y-60949500D01*
X97557768Y-60979450D01*
X97336113Y-61038842D01*
X97124110Y-61126657D01*
X97124099Y-61126662D01*
X96925391Y-61241386D01*
X96925384Y-61241391D01*
X96743347Y-61381073D01*
X96743326Y-61381092D01*
X96581092Y-61543326D01*
X96581073Y-61543347D01*
X96441391Y-61725384D01*
X96441386Y-61725391D01*
X96326662Y-61924099D01*
X96326657Y-61924110D01*
X96238842Y-62136113D01*
X96179450Y-62357768D01*
X96149500Y-62585263D01*
X96149500Y-62814736D01*
X94800500Y-62814736D01*
X94800500Y-59426500D01*
X94820502Y-59358379D01*
X94874158Y-59311886D01*
X94926500Y-59300500D01*
X110023560Y-59300500D01*
X110091681Y-59320502D01*
G37*
G04 #@! TD.AperFunction*
M02*
